<svg width="96" height="33" viewBox="0 0 96 33" fill="none" xmlns="http://www.w3.org/2000/svg">
<rect width="96" height="33" fill="#F5F5F5"/>
<g id="container">
<g id="Download Now">
<rect width="1488" height="667" transform="translate(-315 -422)" fill="#F9F9F9"/>
<g id="Frame 15">
<g id="left text">
<g id="play store">
<g id="Frame" clip-path="url(#clip0_0_1)">
<path id="Vector" d="M91.7563 0.875H4.24368C1.89996 0.875 0 2.81111 0 5.19943V28.5506C0 30.9389 1.89996 32.875 4.24368 32.875H91.7563C94.1 32.875 96 30.9389 96 28.5506V5.19943C96 2.81111 94.1 0.875 91.7563 0.875Z" fill="#A7A9AC"/>
<path id="Vector_2" d="M16.5807 6.34719H8.76151C8.3135 6.34719 7.88385 6.52855 7.56706 6.85137C7.25028 7.17419 7.07229 7.61202 7.07229 8.06855V25.722C7.07105 25.9489 7.11385 26.1737 7.19819 26.3837C7.28253 26.5936 7.40674 26.7845 7.56372 26.9454C7.7207 27.1062 7.90735 27.2339 8.11291 27.321C8.31847 27.4081 8.53888 27.4529 8.76151 27.4529H16.5807C16.8041 27.4542 17.0255 27.4103 17.2322 27.3238C17.4388 27.2372 17.6266 27.1098 17.7846 26.9488C17.9425 26.7878 18.0676 26.5965 18.1525 26.3859C18.2375 26.1753 18.2806 25.9497 18.2793 25.722V8.06855C18.2793 7.84169 18.2353 7.61707 18.1498 7.4076C18.0644 7.19813 17.9391 7.00794 17.7812 6.84797C17.6234 6.688 17.436 6.56141 17.23 6.47547C17.024 6.38953 16.8033 6.34593 16.5807 6.34719ZM12.6711 26.1906C12.3724 26.1906 12.086 26.0697 11.8748 25.8545C11.6636 25.6393 11.545 25.3474 11.545 25.043C11.545 24.7387 11.6636 24.4468 11.8748 24.2316C12.086 24.0164 12.3724 23.8955 12.6711 23.8955C12.9698 23.8955 13.2562 24.0164 13.4674 24.2316C13.6786 24.4468 13.7973 24.7387 13.7973 25.043C13.7973 25.3474 13.6786 25.6393 13.4674 25.8545C13.2562 26.0697 12.9698 26.1906 12.6711 26.1906ZM16.9448 23.3217H8.3974V10.3044H16.9448V23.3217Z" fill="white"/>
<path id="Vector_3" d="M24.6834 9.50258L24.2086 10.9696H23.5967L25.1508 6.30469H25.864L27.4256 10.9696H26.7949L26.3051 9.50258H24.6834ZM26.1849 9.03208L25.7307 7.69325C25.635 7.38914 25.5674 7.11946 25.4999 6.84213H25.4792C25.4192 7.11181 25.3441 7.40253 25.2559 7.6856L24.8073 9.0359L26.1849 9.03208Z" fill="white"/>
<path id="Vector_4" d="M28.0374 7.61133L28.683 9.4857C28.7919 9.79745 28.8801 10.0748 28.9477 10.3521H28.9683C29.0434 10.0748 29.1372 9.79745 29.2461 9.4857L29.8842 7.61133H30.5092L29.2198 10.9603H28.6567L27.4067 7.61133H28.0374Z" fill="white"/>
<path id="Vector_5" d="M33.2588 10.1571C33.2563 10.4257 33.2726 10.6941 33.3076 10.9604H32.7708L32.7164 10.5377H32.6957C32.5799 10.6969 32.4282 10.8253 32.2534 10.9122C32.0787 10.9991 31.886 11.0418 31.6916 11.0369C31.5628 11.0464 31.4334 11.0286 31.3117 10.9848C31.1899 10.9411 31.0783 10.8721 30.9839 10.7823C30.8894 10.6926 30.8142 10.5839 30.7629 10.4632C30.7115 10.3424 30.6852 10.2122 30.6856 10.0806C30.6856 9.26963 31.3931 8.82781 32.6619 8.83546V8.7647C32.6619 8.48928 32.5869 7.98243 31.9112 7.99009C31.6065 7.98693 31.3074 8.07325 31.0497 8.23873L30.9126 7.83134C31.243 7.63743 31.6182 7.53705 31.9994 7.54062C33.011 7.54062 33.255 8.23873 33.255 8.91197L33.2588 10.1571ZM32.6751 9.2505C32.0238 9.23711 31.2843 9.3557 31.2843 10.006C31.2783 10.0829 31.2888 10.1602 31.315 10.2325C31.3412 10.3049 31.3825 10.3706 31.436 10.4251C31.4896 10.4797 31.5541 10.5217 31.6251 10.5484C31.6961 10.5751 31.7719 10.5858 31.8473 10.5798C32.023 10.5855 32.1959 10.5343 32.3412 10.4336C32.4866 10.3329 32.5969 10.1879 32.6563 10.0194C32.6748 9.9574 32.6836 9.89287 32.6826 9.82811L32.6751 9.2505Z" fill="white"/>
<path id="Vector_6" d="M34.4673 6.99545C34.4171 6.99547 34.3673 6.98521 34.321 6.96527C34.2747 6.94534 34.2328 6.91613 34.1978 6.87938C34.1628 6.84264 34.1354 6.7991 34.1172 6.75136C34.099 6.70362 34.0905 6.65264 34.092 6.60145C34.0919 6.55023 34.102 6.49953 34.1216 6.45236C34.1411 6.40519 34.1698 6.3625 34.2059 6.32682C34.2419 6.29115 34.2846 6.26321 34.3315 6.24468C34.3783 6.22615 34.4284 6.21739 34.4786 6.21892C34.5782 6.21892 34.6736 6.25922 34.744 6.33096C34.8144 6.4027 34.854 6.49999 34.854 6.60145C34.8555 6.65362 34.8466 6.70556 34.8277 6.75408C34.8088 6.80261 34.7804 6.84668 34.7442 6.88359C34.708 6.9205 34.6647 6.94946 34.6171 6.96869C34.5695 6.98793 34.5185 6.99704 34.4673 6.99545ZM34.1821 10.9603V7.61131H34.7808V10.9603H34.1821Z" fill="white"/>
<path id="Vector_7" d="M35.7383 6.04688H36.3351V10.9604H35.7383V6.04688Z" fill="white"/>
<path id="Vector_8" d="M39.6083 10.1571C39.6053 10.4256 39.621 10.6941 39.6553 10.9604H39.1184L39.064 10.5377H39.0434C38.9278 10.6971 38.7761 10.8257 38.6013 10.9126C38.4265 10.9995 38.2337 11.0421 38.0392 11.0369C37.9104 11.0463 37.7811 11.0286 37.6593 10.9848C37.5376 10.941 37.4259 10.8721 37.3315 10.7823C37.2371 10.6926 37.1619 10.5839 37.1105 10.4632C37.0592 10.3424 37.0329 10.2122 37.0332 10.0806C37.0332 9.26961 37.7408 8.8278 39.0115 8.83545V8.76469C39.0115 8.48927 38.9364 7.98242 38.2607 7.99007C37.9561 7.98691 37.657 8.07324 37.3992 8.23872L37.2622 7.83133C37.5926 7.63768 37.9678 7.53732 38.3489 7.54061C39.3606 7.54061 39.6065 8.23871 39.6065 8.91195L39.6083 10.1571ZM39.0246 9.25049C38.3714 9.2371 37.632 9.35568 37.632 10.006C37.626 10.0829 37.6365 10.1601 37.6627 10.2325C37.6889 10.3049 37.7302 10.3706 37.7837 10.4251C37.8372 10.4796 37.9017 10.5217 37.9727 10.5484C38.0437 10.5751 38.1196 10.5858 38.195 10.5798C38.3704 10.585 38.5428 10.5337 38.6878 10.433C38.8328 10.3324 38.9428 10.1876 39.0021 10.0194C39.0211 9.95747 39.0306 9.89295 39.0302 9.8281L39.0246 9.25049Z" fill="white"/>
<path id="Vector_9" d="M40.5358 6.04688H41.1345V8.15075H41.1477C41.2621 7.95344 41.4279 7.79221 41.6266 7.68487C41.8253 7.57754 42.0493 7.52828 42.2738 7.54254C43.0884 7.54254 43.659 8.23491 43.659 9.24477C43.659 10.4497 42.9082 11.0445 42.18 11.0445C41.9567 11.0571 41.7345 11.0044 41.5396 10.8926C41.3447 10.7807 41.1853 10.6145 41.0801 10.4134H41.0651L41.0313 10.968H40.5151C40.5358 10.7385 40.5414 10.3943 40.5414 10.1035L40.5358 6.04688ZM41.1345 9.61773C41.1336 9.69223 41.1405 9.76661 41.1552 9.8396C41.2059 10.0425 41.3214 10.2225 41.4834 10.3513C41.6455 10.4801 41.8449 10.5504 42.0504 10.5511C42.683 10.5511 43.049 10.0328 43.049 9.2639C43.049 8.58683 42.7092 8.01305 42.0711 8.01305C41.8603 8.01595 41.6565 8.09113 41.4927 8.22645C41.329 8.36178 41.2147 8.54936 41.1683 8.75897C41.1457 8.84244 41.1343 8.92867 41.1345 9.01526V9.61773Z" fill="white"/>
<path id="Vector_10" d="M44.3608 6.04688H44.9577V10.9604H44.3608V6.04688Z" fill="white"/>
<path id="Vector_11" d="M46.2543 9.38983C46.2675 10.2123 46.7761 10.5508 47.3805 10.5508C47.6918 10.56 48.0016 10.504 48.2908 10.3863L48.3997 10.8147C48.0497 10.966 47.6724 11.0403 47.2923 11.0328C46.2863 11.0328 45.6763 10.348 45.6763 9.34393C45.6763 8.3398 46.2656 7.53076 47.2247 7.53076C48.2964 7.53076 48.5742 8.48707 48.5742 9.10867C48.5769 9.20604 48.57 9.30344 48.5536 9.39939L46.2543 9.38983ZM47.9999 8.95375C47.9999 8.57123 47.8422 7.96302 47.1778 7.96302C46.5678 7.96302 46.3088 8.5368 46.2619 8.95375H47.9999Z" fill="white"/>
<path id="Vector_12" d="M52.0259 11.0328C51.1438 11.0328 50.4512 10.3672 50.4512 9.31145C50.4512 8.19065 51.1775 7.53271 52.0803 7.53271C53.0188 7.53271 53.6626 8.23082 53.6626 9.25407C53.6626 10.5011 52.8123 11.0405 52.0334 11.0405L52.0259 11.0328ZM52.0465 10.5757C52.6096 10.5757 53.0432 10.0287 53.0432 9.26745C53.0432 8.69367 52.7654 7.98791 52.0597 7.98791C51.354 7.98791 51.0556 8.65159 51.0556 9.2885C51.0556 10.0229 51.4628 10.5757 52.0391 10.5757H52.0465Z" fill="white"/>
<path id="Vector_13" d="M54.3831 8.51764C54.3831 8.16381 54.3831 7.88839 54.355 7.61106H54.8843L54.9181 8.15807H54.9312C55.0404 7.964 55.199 7.8036 55.3903 7.69384C55.5816 7.58409 55.7985 7.52905 56.0179 7.53456C56.4721 7.53456 57.1797 7.81189 57.1797 8.95946V10.9601H56.581V9.02831C56.581 8.49086 56.3933 8.03184 55.8302 8.03184C55.6494 8.03738 55.4749 8.1005 55.3312 8.21234C55.1874 8.32417 55.0817 8.47911 55.0288 8.65535C55.0014 8.74772 54.9881 8.84384 54.9894 8.94033V10.9601H54.3925L54.3831 8.51764Z" fill="white"/>
<path id="Vector_14" d="M60.2432 6.80811V7.6114H61.0991V8.07426H60.2432V9.88551C60.2432 10.3005 60.3596 10.5358 60.6918 10.5358C60.809 10.54 60.9261 10.5258 61.039 10.4937L61.0653 10.9566C60.8948 11.0147 60.7158 11.0431 60.536 11.0407C60.4168 11.0464 60.2978 11.0265 60.1865 10.9823C60.0753 10.9382 59.9744 10.8708 59.8904 10.7844C59.7271 10.5932 59.6595 10.3005 59.6595 9.90463V8.07808H59.1509V7.61523H59.6595V6.99937L60.2432 6.80811Z" fill="white"/>
<path id="Vector_15" d="M61.7446 6.04688H62.3415V8.13736H62.3546C62.4538 7.95556 62.6024 7.8068 62.7826 7.70894C62.9669 7.59459 63.1786 7.53436 63.3944 7.53489C63.8355 7.53489 64.5412 7.81222 64.5412 8.96745V10.9604H63.9444V9.0363C63.9444 8.4912 63.7473 8.03982 63.1842 8.03982C63.0054 8.04457 62.8324 8.10558 62.6889 8.21446C62.5454 8.32335 62.4385 8.47479 62.3828 8.64804C62.3501 8.74183 62.3361 8.8413 62.3415 8.94067V10.9604H61.7446V6.04688Z" fill="white"/>
<path id="Vector_16" d="M65.8079 9.38974C65.8229 10.2122 66.3315 10.5507 66.934 10.5507C67.2453 10.5599 67.5551 10.504 67.8443 10.3862L67.9532 10.8146C67.6053 10.9636 67.2306 11.0365 66.8533 11.0289C65.8492 11.0289 65.2373 10.3441 65.2373 9.34001C65.2373 8.33589 65.8285 7.52686 66.7858 7.52686C67.8575 7.52686 68.1371 8.48316 68.1371 9.10476C68.1389 9.20211 68.132 9.29941 68.1165 9.39548L65.8079 9.38974ZM67.5534 8.95367C67.5534 8.57114 67.3976 7.96293 66.7313 7.96293C66.1213 7.96293 65.8623 8.53672 65.8154 8.95367H67.5534Z" fill="white"/>
<path id="Vector_17" d="M70.5284 6.99551C70.4781 6.99554 70.4284 6.98527 70.3821 6.96534C70.3358 6.9454 70.2939 6.91619 70.2589 6.87945C70.2239 6.8427 70.1965 6.79916 70.1783 6.75142C70.1601 6.70368 70.1515 6.6527 70.153 6.60151C70.153 6.55013 70.1631 6.49927 70.1828 6.45197C70.2024 6.40466 70.2313 6.36188 70.2675 6.32618C70.3038 6.29048 70.3468 6.26259 70.3938 6.24417C70.4409 6.22575 70.4911 6.21719 70.5415 6.21898C70.6411 6.21898 70.7365 6.25929 70.8069 6.33102C70.8773 6.40276 70.9169 6.50006 70.9169 6.60151C70.9185 6.65368 70.9095 6.70563 70.8906 6.75415C70.8718 6.80267 70.8433 6.84674 70.8071 6.88365C70.7709 6.92056 70.7276 6.94952 70.68 6.96876C70.6324 6.98799 70.5815 6.9971 70.5303 6.99551H70.5284ZM70.2431 10.9604V7.61137H70.8399V10.9604H70.2431Z" fill="white"/>
<path id="Vector_18" d="M71.8181 6.35851C72.1896 6.29037 72.5667 6.25772 72.9442 6.26096C73.5279 6.26096 73.9559 6.40058 74.228 6.64349C74.3611 6.76634 74.4665 6.91719 74.5368 7.0856C74.6071 7.25402 74.6407 7.43598 74.6353 7.61892C74.6451 7.80128 74.6182 7.98376 74.5562 8.15513C74.4942 8.3265 74.3985 8.48313 74.2749 8.61539C73.9634 8.95393 73.4528 9.12798 72.8766 9.12798C72.7173 9.13298 72.5579 9.11886 72.4018 9.0859V10.9545H71.8105L71.8181 6.35851ZM72.4093 8.6001C72.5694 8.63621 72.7333 8.65226 72.8973 8.64791C73.618 8.64791 74.0459 8.29025 74.0459 7.65909C74.0459 7.02792 73.618 6.73912 72.9648 6.73912C72.7761 6.73667 72.5875 6.75269 72.4018 6.78693L72.4093 8.6001Z" fill="white"/>
<path id="Vector_19" d="M75.3428 6.04688H75.9396V8.13736H75.9528C76.052 7.95556 76.2006 7.8068 76.3807 7.70894C76.565 7.5944 76.7768 7.53416 76.9926 7.53489C77.4337 7.53489 78.1394 7.81222 78.1394 8.96745V10.9604H77.5425V9.0363C77.5425 8.4912 77.3454 8.03982 76.7824 8.03982C76.6035 8.04457 76.4305 8.10558 76.287 8.21446C76.1435 8.32335 76.0366 8.47479 75.9809 8.64804C75.9483 8.74183 75.9343 8.8413 75.9396 8.94067V10.9604H75.3428V6.04688Z" fill="white"/>
<path id="Vector_20" d="M80.4141 11.0328C79.5319 11.0328 78.8394 10.3672 78.8394 9.31145C78.8394 8.19065 79.5657 7.53271 80.4685 7.53271C81.407 7.53271 82.0507 8.23082 82.0507 9.25407C82.0507 10.5011 81.2024 11.0405 80.4216 11.0405L80.4141 11.0328ZM80.4347 10.5757C80.9978 10.5757 81.4333 10.0287 81.4333 9.26745C81.4333 8.69367 81.1555 7.98791 80.4479 7.98791C79.7403 7.98791 79.4437 8.65159 79.4437 9.2885C79.4437 10.0229 79.851 10.5757 80.4272 10.5757H80.4347Z" fill="white"/>
<path id="Vector_21" d="M82.766 8.51768C82.766 8.16385 82.766 7.88843 82.7397 7.6111H83.269L83.3028 8.15811H83.3178C83.4264 7.96391 83.5846 7.80335 83.7757 7.69355C83.9667 7.58375 84.1834 7.52881 84.4027 7.53459C84.8588 7.53459 85.5645 7.81192 85.5645 8.95949V10.9601H84.9676V9.02835C84.9676 8.4909 84.78 8.03187 84.2056 8.03187C84.0249 8.03695 83.8504 8.09993 83.7069 8.21187C83.5633 8.3238 83.4581 8.479 83.4061 8.65539C83.3764 8.74733 83.3618 8.8436 83.3629 8.94037V10.9601H82.766V8.51768Z" fill="white"/>
<path id="Vector_22" d="M86.8444 9.38974C86.8576 10.2122 87.3681 10.5507 87.9706 10.5507C88.2818 10.5599 88.5917 10.504 88.8809 10.3862L88.9897 10.8146C88.6411 10.9635 88.2659 11.0365 87.888 11.0289C86.8838 11.0289 86.272 10.3441 86.272 9.34001C86.272 8.33589 86.8632 7.52686 87.8204 7.52686C88.894 7.52686 89.1718 8.48316 89.1718 9.10476C89.1745 9.20213 89.1676 9.29953 89.1511 9.39548L86.8444 9.38974ZM88.5899 8.95367C88.5899 8.57114 88.4323 7.96293 87.7679 7.96293C87.156 7.96293 86.8989 8.53672 86.8501 8.95367H88.5899Z" fill="white"/>
<path id="Vector_23" d="M27.4967 14.1201L23.4707 26.1964H25.3138L26.5151 22.4878H30.4134L31.6503 26.1964H33.5441L29.5012 14.1201H27.4967ZM28.452 16.1054C28.5872 16.6448 28.7336 17.2033 28.9231 17.8096L30.008 21.0113H26.9205L27.9903 17.7885C28.148 17.2645 28.3075 16.7002 28.452 16.1054Z" fill="white"/>
<path id="Vector_24" d="M38.7543 17.251C37.5343 17.251 36.5545 17.7311 35.9032 18.6434L35.8319 17.4423H34.1934V17.5953C34.2403 18.345 34.2609 19.1675 34.2609 20.3514V29.6601H36.0534V25.3146C36.36 25.6654 36.7384 25.9433 37.162 26.1287C37.5855 26.3141 38.0439 26.4024 38.5046 26.3876C39.0127 26.3925 39.5162 26.2906 39.9839 26.0882C40.4515 25.8858 40.8731 25.5873 41.2224 25.2113C42.0088 24.366 42.4217 23.1495 42.4217 21.6959C42.4217 20.4126 42.0632 19.3033 41.38 18.4885C41.0583 18.0985 40.6563 17.7855 40.2025 17.5716C39.7487 17.3577 39.2542 17.2483 38.7543 17.251ZM38.3075 18.762C39.9067 18.762 40.6218 20.271 40.6218 21.7667C40.6218 23.6946 39.7096 24.8938 38.24 24.8938C37.7522 24.8938 37.2786 24.7264 36.8956 24.4187C36.5125 24.1109 36.2423 23.6807 36.1285 23.1974C36.0819 23.004 36.0598 22.8054 36.0628 22.6064V21.1375C36.0697 20.9856 36.0892 20.8346 36.1209 20.6861C36.1209 20.6364 36.1397 20.5866 36.1472 20.5369C36.2641 20.0393 36.5395 19.5952 36.9304 19.2741C37.3213 18.953 37.8056 18.7729 38.3075 18.762Z" fill="white"/>
<path id="Vector_25" d="M47.9885 17.251C46.7667 17.251 45.7888 17.7311 45.1375 18.6434L45.0662 17.4423H43.4258V17.5953C43.4746 18.345 43.4952 19.1675 43.4952 20.3514V29.6601H45.2877V25.3146C45.5943 25.6654 45.9727 25.9433 46.3963 26.1287C46.8198 26.3141 47.2782 26.4024 47.7389 26.3876C48.2469 26.3923 48.7504 26.2903 49.218 26.0879C49.6856 25.8855 50.1073 25.5871 50.4567 25.2113C51.2412 24.366 51.656 23.1495 51.656 21.6959C51.656 20.4126 51.2956 19.3033 50.6143 18.4885C50.2926 18.0985 49.8905 17.7855 49.4367 17.5716C48.9829 17.3577 48.4885 17.2483 47.9885 17.251ZM47.5418 18.762C49.1391 18.762 49.8542 20.271 49.8542 21.7667C49.8542 23.6946 48.942 24.8938 47.4724 24.8938C46.9847 24.8935 46.5113 24.726 46.1283 24.4183C45.7453 24.1106 45.475 23.6805 45.3609 23.1974C45.315 23.0039 45.2935 22.8053 45.2971 22.6064V21.1375C45.304 20.985 45.3235 20.8333 45.3552 20.6842C45.3552 20.6344 45.3721 20.5866 45.3815 20.5369C45.4984 20.0393 45.7738 19.5952 46.1647 19.2741C46.5556 18.953 47.0398 18.7729 47.5418 18.762Z" fill="white"/>
<path id="Vector_26" d="M59.5562 19.2361C57.882 18.5763 57.3452 18.056 57.3452 17.0978C57.3452 16.2888 57.9758 15.474 59.3835 15.474C60.1205 15.4559 60.8484 15.6423 61.4894 16.0133L61.6414 16.109L62.1463 14.5789L62.0468 14.5196C61.7465 14.3398 60.8906 13.9229 59.436 13.9229C57.15 13.9229 55.5527 15.298 55.5527 17.268C55.5527 18.8555 56.5531 19.9648 58.7003 20.7605C60.2206 21.3342 60.7874 21.9348 60.7874 22.9523C60.7874 24.0999 59.9147 24.819 58.5089 24.819C57.5961 24.8201 56.701 24.5618 55.9244 24.0731L55.7686 23.9698L55.2881 25.5305L55.3763 25.5898C56.052 26.0508 57.3264 26.3836 58.4056 26.3836C61.4875 26.3836 62.5799 24.4709 62.5799 22.8299C62.5799 21.143 61.7052 20.1006 59.5562 19.2361Z" fill="white"/>
<path id="Vector_27" d="M65.8079 15.3613L64.0493 15.9236V17.4423H62.7617V18.9035H64.0493V23.3752C64.0493 24.4577 64.252 25.2151 64.6705 25.6933C64.896 25.926 65.1668 26.1081 65.4655 26.2276C65.7642 26.3472 66.0842 26.4017 66.4048 26.3876C66.8758 26.3943 67.3447 26.3206 67.7918 26.1695L67.8913 26.1332L67.805 24.67L67.6342 24.7255C67.3624 24.802 67.0806 24.8349 66.7989 24.823C66.1045 24.823 65.8079 24.3755 65.8079 23.3236V18.9035H67.9701V17.4423H65.8079V15.3613Z" fill="white"/>
<path id="Vector_28" d="M72.4149 17.251C69.9054 17.251 68.1543 19.1636 68.1543 21.8891C68.1543 24.538 69.8435 26.3875 72.2835 26.3875H72.3004C74.3518 26.3875 76.5609 24.932 76.5609 21.7322C76.5609 20.4316 76.1649 19.3128 75.4179 18.4999C75.031 18.0892 74.5638 17.7658 74.0465 17.5506C73.5292 17.3355 72.9733 17.2334 72.4149 17.251ZM72.3623 18.6931C73.9764 18.6931 74.7103 20.2958 74.7103 21.7839C74.7103 23.6161 73.7081 24.9454 72.3285 24.9454H72.3116C70.9509 24.9454 69.9655 23.6391 69.9655 21.8374C69.9655 20.2729 70.7069 18.6931 72.3623 18.6931Z" fill="white"/>
<path id="Vector_29" d="M82.0471 17.3445L81.9401 17.3158C81.7942 17.2775 81.6441 17.2588 81.4934 17.2603C81.0214 17.2698 80.5611 17.4123 80.1636 17.6718C79.7661 17.9314 79.4468 18.2981 79.2411 18.7311L79.1886 17.4516H77.5801V17.6046C77.6289 18.3295 77.6476 19.1347 77.6476 20.2364L77.6326 26.2056H79.4251V21.5389C79.4241 21.3021 79.4404 21.0655 79.4739 20.8312C79.6766 19.7123 80.4123 18.9893 81.3508 18.9893C81.512 18.9909 81.673 19.0012 81.8332 19.0199L82.0208 19.041L82.0471 17.3445Z" fill="white"/>
<path id="Vector_30" d="M86.0785 17.2334C83.6911 17.2334 82.0244 19.1766 82.0244 21.9595C82.0244 24.6371 83.6817 26.37 86.2493 26.37C87.2238 26.3919 88.1917 26.2028 89.0891 25.8153L89.1961 25.7656L88.8526 24.4038L88.7024 24.4669C87.9875 24.7604 87.2206 24.8998 86.4502 24.8762C85.6712 24.8762 83.875 24.6142 83.7643 22.2253L89.5527 22.2445L89.5752 22.1278C89.6176 21.8752 89.6358 21.6189 89.6296 21.3627C89.6352 19.4578 88.7043 17.2334 86.0785 17.2334ZM85.9584 18.622C86.2001 18.6115 86.4414 18.6515 86.6674 18.7397C86.8933 18.8278 87.0992 18.9622 87.2722 19.1345C87.7865 19.6682 87.8785 20.4562 87.8879 20.8349H83.8C83.9689 19.7791 84.6183 18.622 85.9565 18.622H85.9584Z" fill="white"/>
</g>
</g>
</g>
</g>
</g>
</g>
<defs>
<clipPath id="clip0_0_1">
<rect width="96" height="32" fill="white" transform="translate(0 0.875)"/>
</clipPath>
</defs>
</svg>
