<svg width="41" height="31" viewBox="0 0 41 31" fill="none" xmlns="http://www.w3.org/2000/svg">
<path d="M20.4998 22.3068V27.3068C20.4998 27.4068 20.4998 27.4068 20.4998 27.5068C20.4998 27.6068 20.4998 27.6068 20.3998 27.7068C20.3998 27.8068 20.2998 27.8068 20.2998 27.9068C20.2998 28.0068 20.1998 28.0068 20.1998 28.1068C20.0998 28.2068 19.9998 28.3068 19.8998 28.4068C19.8998 28.4068 19.7998 28.5068 19.6998 28.5068C19.5998 28.5068 19.5998 28.6068 19.4998 28.6068C19.3998 28.6068 19.2998 28.7068 19.2998 28.7068C19.1998 28.8068 18.9998 28.8068 18.8998 28.9068C18.6998 29.0068 18.4998 29.1068 18.3998 29.1068C18.2998 29.1068 18.1998 29.2068 18.0998 29.2068C17.8998 29.3068 17.7998 29.3068 17.5998 29.4068C17.3998 29.5068 17.0998 29.5068 16.8998 29.6068C16.7998 29.6068 16.6998 29.7068 16.5998 29.7068C16.3998 29.7068 16.2998 29.8068 16.0998 29.8068C15.7998 29.9068 15.4998 29.9068 15.0998 30.0068C14.7998 30.0068 14.4998 30.1068 14.1998 30.1068C13.7998 30.2068 13.3998 30.2068 12.8998 30.2068C12.6998 30.2068 12.5998 30.2068 12.3998 30.2068C12.0998 30.2068 11.7998 30.2068 11.5998 30.2068C11.2998 30.2068 10.8998 30.2068 10.5998 30.2068C10.2998 30.2068 9.8998 30.2068 9.5998 30.2068C9.2998 30.2068 8.9998 30.2068 8.7998 30.2068C8.5998 30.2068 8.4998 30.2068 8.2998 30.2068C7.8998 30.2068 7.3998 30.1068 6.9998 30.1068C6.6998 30.1068 6.3998 30.0068 6.0998 30.0068C5.7998 30.0068 5.3998 29.9068 5.0998 29.8068C4.8998 29.8068 4.7998 29.7068 4.5998 29.7068C4.4998 29.7068 4.3998 29.7068 4.2998 29.6068C3.9998 29.5068 3.7998 29.5068 3.5998 29.4068C3.3998 29.4068 3.2998 29.3068 3.0998 29.2068C2.9998 29.2068 2.8998 29.1068 2.7998 29.1068C2.5998 29.0068 2.3998 29.0068 2.2998 28.9068C2.1998 28.8068 1.9998 28.8068 1.8998 28.7068C1.6998 28.6068 1.5998 28.5068 1.4998 28.4068C1.3998 28.4068 1.3998 28.3068 1.2998 28.3068C1.1998 28.2068 1.0998 28.1068 0.999804 28.0068C0.999804 27.9068 0.899804 27.9068 0.899804 27.8068C0.899804 27.7068 0.799805 27.7068 0.799805 27.6068C0.799805 27.6068 0.799805 27.5068 0.799805 27.4068C0.799805 27.3068 0.799805 27.3068 0.799805 27.2068V22.2068C0.799805 22.3068 0.799805 22.3068 0.799805 22.4068C0.799805 22.5068 0.799805 22.5068 0.799805 22.6068C0.799805 22.7068 0.899804 22.7068 0.899804 22.8068C0.899804 22.9068 0.999804 22.9068 0.999804 23.0068C1.0998 23.1068 1.1998 23.2068 1.2998 23.3068C1.3998 23.3068 1.3998 23.4068 1.4998 23.4068C1.5998 23.5068 1.7998 23.6068 1.8998 23.7068C1.9998 23.8068 2.1998 23.8068 2.2998 23.9068C2.4998 24.0068 2.5998 24.1068 2.7998 24.1068C2.8998 24.1068 2.9998 24.2068 3.0998 24.2068C3.2998 24.3068 3.3998 24.3068 3.5998 24.4068C3.7998 24.5068 4.0998 24.5068 4.2998 24.6068C4.3998 24.6068 4.4998 24.7068 4.5998 24.7068C4.6998 24.7068 4.8998 24.8068 5.0998 24.8068C5.3998 24.9068 5.6998 24.9068 6.0998 25.0068C6.3998 25.0068 6.6998 25.1068 6.9998 25.1068C7.3998 25.2068 7.7998 25.2068 8.2998 25.2068C8.4998 25.2068 8.5998 25.2068 8.7998 25.2068C9.0998 25.2068 9.2998 25.2068 9.5998 25.2068C9.8998 25.2068 10.2998 25.2068 10.5998 25.2068C10.8998 25.2068 11.2998 25.2068 11.5998 25.2068C11.8998 25.2068 12.1998 25.2068 12.3998 25.2068C12.5998 25.2068 12.6998 25.2068 12.8998 25.2068C13.2998 25.2068 13.7998 25.1068 14.1998 25.1068C14.4998 25.1068 14.7998 25.0068 15.0998 25.0068C15.3998 25.0068 15.7998 24.9068 16.0998 24.8068C16.2998 24.8068 16.3998 24.7068 16.5998 24.7068C16.6998 24.7068 16.7998 24.7068 16.8998 24.6068C17.1998 24.5068 17.3998 24.5068 17.5998 24.4068C17.7998 24.4068 17.8998 24.3068 18.0998 24.2068C18.1998 24.2068 18.2998 24.1068 18.3998 24.1068C18.5998 24.0068 18.7998 24.0068 18.8998 23.9068C18.9998 23.8068 19.1998 23.8068 19.2998 23.7068C19.3998 23.7068 19.3998 23.6068 19.4998 23.6068C19.5998 23.6068 19.5998 23.5068 19.6998 23.5068C19.7998 23.5068 19.7998 23.4068 19.8998 23.4068C19.9998 23.3068 20.0998 23.2068 20.1998 23.1068C20.2998 23.0068 20.2998 23.0068 20.2998 22.9068C20.2998 22.8068 20.3998 22.8068 20.3998 22.7068C20.3998 22.7068 20.3998 22.6068 20.4998 22.5068C20.4998 22.4068 20.4998 22.3068 20.4998 22.3068Z" fill="white" stroke="#D80000" stroke-miterlimit="10"/>
<path d="M40.4998 22.3068V27.3068C40.4998 27.4068 40.4998 27.4068 40.4998 27.5068C40.4998 27.6068 40.4998 27.6068 40.3998 27.7068C40.3998 27.8068 40.2998 27.8068 40.2998 27.9068C40.2998 28.0068 40.1998 28.0068 40.1998 28.1068C40.0998 28.2068 39.9998 28.3068 39.8998 28.4068C39.8998 28.4068 39.7998 28.5068 39.6998 28.5068C39.5998 28.5068 39.5998 28.6068 39.4998 28.6068C39.3998 28.6068 39.2998 28.7068 39.2998 28.7068C39.1998 28.8068 38.9998 28.8068 38.8998 28.9068C38.6998 29.0068 38.4998 29.1068 38.3998 29.1068C38.2998 29.1068 38.1998 29.2068 38.0998 29.2068C37.8998 29.3068 37.7998 29.3068 37.5998 29.4068C37.3998 29.5068 37.0998 29.5068 36.8998 29.6068C36.7998 29.6068 36.6998 29.7068 36.5998 29.7068C36.3998 29.7068 36.2998 29.8068 36.0998 29.8068C35.7998 29.9068 35.4998 29.9068 35.0998 30.0068C34.7998 30.0068 34.4998 30.1068 34.1998 30.1068C33.7998 30.2068 33.3998 30.2068 32.8998 30.2068C32.6998 30.2068 32.5998 30.2068 32.3998 30.2068C32.0998 30.2068 31.7998 30.2068 31.5998 30.2068C31.2998 30.2068 30.8998 30.2068 30.5998 30.2068C30.2998 30.2068 29.8998 30.2068 29.5998 30.2068C29.2998 30.2068 28.9998 30.2068 28.7998 30.2068C28.5998 30.2068 28.4998 30.2068 28.2998 30.2068C27.8998 30.2068 27.3998 30.1068 26.9998 30.1068C26.6998 30.1068 26.3998 30.0068 26.0998 30.0068C25.7998 30.0068 25.3998 29.9068 25.0998 29.8068C24.8998 29.8068 24.7998 29.7068 24.5998 29.7068C24.4998 29.7068 24.3998 29.7068 24.2998 29.6068C23.9998 29.5068 23.7998 29.5068 23.5998 29.4068C23.3998 29.4068 23.2998 29.3068 23.0998 29.2068C22.9998 29.2068 22.8998 29.1068 22.7998 29.1068C22.5998 29.0068 22.3998 29.0068 22.2998 28.9068C22.1998 28.8068 21.9998 28.8068 21.8998 28.7068C21.6998 28.6068 21.5998 28.5068 21.4998 28.4068C21.3998 28.4068 21.3998 28.3068 21.2998 28.3068C21.1998 28.2068 21.0998 28.1068 20.9998 28.0068C20.9998 27.9068 20.8998 27.9068 20.8998 27.8068C20.8998 27.7068 20.7998 27.7068 20.7998 27.6068C20.7998 27.6068 20.7998 27.5068 20.7998 27.4068C20.7998 27.3068 20.7998 27.3068 20.7998 27.2068V22.2068C20.7998 22.3068 20.7998 22.3068 20.7998 22.4068C20.7998 22.5068 20.7998 22.5068 20.7998 22.6068C20.7998 22.7068 20.8998 22.7068 20.8998 22.8068C20.8998 22.9068 20.9998 22.9068 20.9998 23.0068C21.0998 23.1068 21.1998 23.2068 21.2998 23.3068C21.3998 23.3068 21.3998 23.4068 21.4998 23.4068C21.5998 23.5068 21.7998 23.6068 21.8998 23.7068C21.9998 23.8068 22.1998 23.8068 22.2998 23.9068C22.4998 24.0068 22.5998 24.1068 22.7998 24.1068C22.8998 24.1068 22.9998 24.2068 23.0998 24.2068C23.2998 24.3068 23.3998 24.3068 23.5998 24.4068C23.7998 24.5068 24.0998 24.5068 24.2998 24.6068C24.3998 24.6068 24.4998 24.7068 24.5998 24.7068C24.6998 24.7068 24.8998 24.8068 25.0998 24.8068C25.3998 24.9068 25.6998 24.9068 26.0998 25.0068C26.3998 25.0068 26.6998 25.1068 26.9998 25.1068C27.3998 25.2068 27.7998 25.2068 28.2998 25.2068C28.4998 25.2068 28.5998 25.2068 28.7998 25.2068C29.0998 25.2068 29.2998 25.2068 29.5998 25.2068C29.8998 25.2068 30.2998 25.2068 30.5998 25.2068C30.8998 25.2068 31.2998 25.2068 31.5998 25.2068C31.8998 25.2068 32.1998 25.2068 32.3998 25.2068C32.5998 25.2068 32.6998 25.2068 32.8998 25.2068C33.2998 25.2068 33.7998 25.1068 34.1998 25.1068C34.4998 25.1068 34.7998 25.0068 35.0998 25.0068C35.3998 25.0068 35.7998 24.9068 36.0998 24.8068C36.2998 24.8068 36.3998 24.7068 36.5998 24.7068C36.6998 24.7068 36.7998 24.7068 36.8998 24.6068C37.1998 24.5068 37.3998 24.5068 37.5998 24.4068C37.7998 24.4068 37.8998 24.3068 38.0998 24.2068C38.1998 24.2068 38.2998 24.1068 38.3998 24.1068C38.5998 24.0068 38.7998 24.0068 38.8998 23.9068C38.9998 23.8068 39.1998 23.8068 39.2998 23.7068C39.3998 23.7068 39.3998 23.6068 39.4998 23.6068C39.5998 23.6068 39.5998 23.5068 39.6998 23.5068C39.7998 23.5068 39.7998 23.4068 39.8998 23.4068C39.9998 23.3068 40.0998 23.2068 40.1998 23.1068C40.2998 23.0068 40.2998 23.0068 40.2998 22.9068C40.2998 22.8068 40.3998 22.8068 40.3998 22.7068C40.3998 22.7068 40.3998 22.6068 40.4998 22.5068C40.4998 22.4068 40.4998 22.3068 40.4998 22.3068Z" fill="white" stroke="#D80000" stroke-miterlimit="10"/>
<path d="M20.4998 17.3068V22.3068C20.4998 22.4068 20.4998 22.4068 20.4998 22.5068C20.4998 22.6068 20.4998 22.6068 20.3998 22.7068C20.3998 22.8068 20.2998 22.8068 20.2998 22.9068C20.2998 23.0068 20.1998 23.0068 20.1998 23.1068C20.0998 23.2068 19.9998 23.3068 19.8998 23.4068C19.8998 23.4068 19.7998 23.5068 19.6998 23.5068C19.5998 23.5068 19.5998 23.6068 19.4998 23.6068C19.3998 23.6068 19.2998 23.7068 19.2998 23.7068C19.1998 23.8068 18.9998 23.8068 18.8998 23.9068C18.6998 24.0068 18.4998 24.1068 18.3998 24.1068C18.2998 24.1068 18.1998 24.2068 18.0998 24.2068C17.8998 24.3068 17.7998 24.3068 17.5998 24.4068C17.3998 24.5068 17.0998 24.5068 16.8998 24.6068C16.7998 24.6068 16.6998 24.7068 16.5998 24.7068C16.3998 24.7068 16.2998 24.8068 16.0998 24.8068C15.7998 24.9068 15.4998 24.9068 15.0998 25.0068C14.7998 25.0068 14.4998 25.1068 14.1998 25.1068C13.7998 25.2068 13.3998 25.2068 12.8998 25.2068C12.6998 25.2068 12.5998 25.2068 12.3998 25.2068C12.0998 25.2068 11.7998 25.2068 11.5998 25.2068C11.2998 25.2068 10.8998 25.2068 10.5998 25.2068C10.2998 25.2068 9.8998 25.2068 9.5998 25.2068C9.2998 25.2068 8.9998 25.2068 8.7998 25.2068C8.5998 25.2068 8.4998 25.2068 8.2998 25.2068C7.8998 25.2068 7.3998 25.1068 6.9998 25.1068C6.6998 25.1068 6.3998 25.0068 6.0998 25.0068C5.7998 25.0068 5.3998 24.9068 5.0998 24.8068C4.8998 24.8068 4.7998 24.7068 4.5998 24.7068C4.4998 24.7068 4.3998 24.7068 4.2998 24.6068C3.9998 24.5068 3.7998 24.5068 3.5998 24.4068C3.3998 24.4068 3.2998 24.3068 3.0998 24.2068C2.9998 24.2068 2.8998 24.1068 2.7998 24.1068C2.5998 24.0068 2.3998 24.0068 2.2998 23.9068C2.1998 23.8068 1.9998 23.8068 1.8998 23.7068C1.6998 23.6068 1.5998 23.5068 1.4998 23.4068C1.3998 23.4068 1.3998 23.3068 1.2998 23.3068C1.1998 23.2068 1.0998 23.1068 0.999804 23.0068C0.999804 22.9068 0.899804 22.9068 0.899804 22.8068C0.899804 22.7068 0.799805 22.7068 0.799805 22.6068C0.799805 22.6068 0.799805 22.5068 0.799805 22.4068C0.799805 22.3068 0.799805 22.3068 0.799805 22.2068V17.2068C0.799805 17.3068 0.799805 17.3068 0.799805 17.4068C0.799805 17.5068 0.799805 17.5068 0.799805 17.6068C0.799805 17.7068 0.899804 17.7068 0.899804 17.8068C0.899804 17.9068 0.999804 17.9068 0.999804 18.0068C1.0998 18.1068 1.1998 18.2068 1.2998 18.3068C1.3998 18.3068 1.3998 18.4068 1.4998 18.4068C1.5998 18.5068 1.7998 18.6068 1.8998 18.7068C1.9998 18.8068 2.1998 18.8068 2.2998 18.9068C2.4998 19.0068 2.5998 19.1068 2.7998 19.1068C2.8998 19.1068 2.9998 19.2068 3.0998 19.2068C3.2998 19.3068 3.3998 19.3068 3.5998 19.4068C3.7998 19.5068 4.0998 19.5068 4.2998 19.6068C4.3998 19.6068 4.4998 19.7068 4.5998 19.7068C4.6998 19.7068 4.8998 19.8068 5.0998 19.8068C5.3998 19.9068 5.6998 19.9068 6.0998 20.0068C6.3998 20.0068 6.6998 20.1068 6.9998 20.1068C7.3998 20.2068 7.7998 20.2068 8.2998 20.2068C8.4998 20.2068 8.5998 20.2068 8.7998 20.2068C9.0998 20.2068 9.2998 20.2068 9.5998 20.2068C9.8998 20.2068 10.2998 20.2068 10.5998 20.2068C10.8998 20.2068 11.2998 20.2068 11.5998 20.2068C11.8998 20.2068 12.1998 20.2068 12.3998 20.2068C12.5998 20.2068 12.6998 20.2068 12.8998 20.2068C13.2998 20.2068 13.7998 20.1068 14.1998 20.1068C14.4998 20.1068 14.7998 20.0068 15.0998 20.0068C15.3998 20.0068 15.7998 19.9068 16.0998 19.8068C16.2998 19.8068 16.3998 19.7068 16.5998 19.7068C16.6998 19.7068 16.7998 19.7068 16.8998 19.6068C17.1998 19.5068 17.3998 19.5068 17.5998 19.4068C17.7998 19.4068 17.8998 19.3068 18.0998 19.2068C18.1998 19.2068 18.2998 19.1068 18.3998 19.1068C18.5998 19.0068 18.7998 19.0068 18.8998 18.9068C18.9998 18.8068 19.1998 18.8068 19.2998 18.7068C19.3998 18.7068 19.3998 18.6068 19.4998 18.6068C19.5998 18.6068 19.5998 18.5068 19.6998 18.5068C19.7998 18.5068 19.7998 18.4068 19.8998 18.4068C19.9998 18.3068 20.0998 18.2068 20.1998 18.1068C20.2998 18.0068 20.2998 18.0068 20.2998 17.9068C20.2998 17.8068 20.3998 17.8068 20.3998 17.7068C20.3998 17.7068 20.3998 17.6068 20.4998 17.5068C20.4998 17.4068 20.4998 17.3068 20.4998 17.3068Z" fill="white" stroke="#D80000" stroke-miterlimit="10"/>
<path d="M20.5 12.3069C20.5 13.3069 18.7 14.3069 16 14.8069C14.5 15.1069 12.5 15.3069 10.5 15.3069C8.5 15.3069 6.5 15.1069 5 14.8069C2.3 14.3069 0.5 13.3069 0.5 12.3069C0.5 10.6069 5 9.30688 10.5 9.30688C13.7 9.30688 16.5 9.80688 18.4 10.5069C18.6 10.7069 18.8 10.8069 19 11.0069C19.2 11.2069 19.5 11.4069 19.7 11.6069C20 11.8069 20.2 12.0069 20.5 12.2069C20.5 12.1069 20.5 12.2069 20.5 12.3069Z" stroke="#D80000" stroke-miterlimit="10"/>
<path d="M20.4998 12.3068V17.3068C20.4998 17.4068 20.4998 17.4068 20.4998 17.5068C20.4998 17.6068 20.4998 17.6068 20.3998 17.7068C20.3998 17.8068 20.2998 17.8068 20.2998 17.9068C20.2998 18.0068 20.1998 18.0068 20.1998 18.1068C20.0998 18.2068 19.9998 18.3068 19.8998 18.4068C19.8998 18.4068 19.7998 18.5068 19.6998 18.5068C19.5998 18.5068 19.5998 18.6068 19.4998 18.6068C19.3998 18.6068 19.2998 18.7068 19.2998 18.7068C19.1998 18.8068 18.9998 18.8068 18.8998 18.9068C18.6998 19.0068 18.4998 19.1068 18.3998 19.1068C18.2998 19.1068 18.1998 19.2068 18.0998 19.2068C17.8998 19.3068 17.7998 19.3068 17.5998 19.4068C17.3998 19.5068 17.0998 19.5068 16.8998 19.6068C16.7998 19.6068 16.6998 19.7068 16.5998 19.7068C16.3998 19.7068 16.2998 19.8068 16.0998 19.8068C15.7998 19.9068 15.4998 19.9068 15.0998 20.0068C14.7998 20.0068 14.4998 20.1068 14.1998 20.1068C13.7998 20.2068 13.3998 20.2068 12.8998 20.2068C12.6998 20.2068 12.5998 20.2068 12.3998 20.2068C12.0998 20.2068 11.7998 20.2068 11.5998 20.2068C11.2998 20.2068 10.8998 20.2068 10.5998 20.2068C10.2998 20.2068 9.8998 20.2068 9.5998 20.2068C9.2998 20.2068 8.9998 20.2068 8.7998 20.2068C8.5998 20.2068 8.4998 20.2068 8.2998 20.2068C7.8998 20.2068 7.3998 20.1068 6.9998 20.1068C6.6998 20.1068 6.3998 20.0068 6.0998 20.0068C5.7998 20.0068 5.3998 19.9068 5.0998 19.8068C4.8998 19.8068 4.7998 19.7068 4.5998 19.7068C4.4998 19.7068 4.3998 19.7068 4.2998 19.6068C3.9998 19.5068 3.7998 19.5068 3.5998 19.4068C3.3998 19.4068 3.2998 19.3068 3.0998 19.2068C2.9998 19.2068 2.8998 19.1068 2.7998 19.1068C2.5998 19.0068 2.3998 19.0068 2.2998 18.9068C2.1998 18.8068 1.9998 18.8068 1.8998 18.7068C1.6998 18.6068 1.5998 18.5068 1.4998 18.4068C1.3998 18.4068 1.3998 18.3068 1.2998 18.3068C1.1998 18.2068 1.0998 18.1068 0.999804 18.0068C0.999804 17.9068 0.899804 17.9068 0.899804 17.8068C0.899804 17.7068 0.799805 17.7068 0.799805 17.6068C0.799805 17.6068 0.799805 17.5068 0.799805 17.4068C0.799805 17.3068 0.799805 17.3068 0.799805 17.2068V12.2068C0.799805 13.2068 2.5998 14.2068 5.2998 14.7068C6.8998 15.0068 8.7998 15.2068 10.7998 15.2068C12.7998 15.2068 14.7998 15.0068 16.2998 14.7068C18.6998 14.2068 20.4998 13.3068 20.4998 12.3068Z" stroke="#D80000" stroke-miterlimit="10"/>
<path d="M35.4001 11.7069C34.9001 12.6069 32.9001 12.5069 30.3001 11.6069C28.8001 11.1069 27.0001 10.3069 25.3001 9.20686C23.5001 8.20686 22.0001 7.00686 20.8001 6.00686C18.8001 4.20686 17.7001 2.50686 18.2001 1.60686C19.0001 0.20686 23.6001 1.30686 28.3001 4.10686C33.0001 6.80686 36.2001 10.3069 35.4001 11.7069Z" stroke="#D80000" stroke-miterlimit="10" stroke-linecap="round" stroke-linejoin="round"/>
<path d="M35.4001 11.7069L33.8001 14.5069L32.9001 16.1069C32.9001 16.2069 32.8001 16.2069 32.8001 16.3069L32.7001 16.4069C32.6001 16.4069 32.6001 16.5069 32.5001 16.5069C32.4001 16.5069 32.4001 16.5069 32.3001 16.6069C32.2001 16.6069 32.0001 16.7069 31.9001 16.7069C31.8001 16.7069 31.8001 16.7069 31.7001 16.7069C31.6001 16.7069 31.5001 16.7069 31.5001 16.7069C31.4001 16.7069 31.3001 16.7069 31.2001 16.7069C31.1001 16.7069 30.9001 16.7069 30.8001 16.7069C30.6001 16.7069 30.4001 16.7069 30.2001 16.6069C30.1001 16.6069 30.0001 16.6069 29.9001 16.5069C29.7001 16.5069 29.6001 16.4069 29.4001 16.4069C29.2001 16.3069 28.9001 16.3069 28.7001 16.2069C28.6001 16.2069 28.5001 16.1069 28.4001 16.1069C28.2001 16.1069 28.1001 16.0069 27.9001 16.0069C27.6001 15.9069 27.3001 15.8069 27.0001 15.7069C26.7001 15.6069 26.4001 15.5069 26.1001 15.3069C25.8001 15.2069 25.5001 15.0069 25.2001 14.9069C25.1001 14.9069 25.0001 14.8069 24.9001 14.8069C24.7001 14.7069 24.6001 14.7069 24.4001 14.6069C24.2001 14.5069 23.9001 14.3069 23.7001 14.2069C23.4001 14.0069 23.1001 13.9069 22.8001 13.7069C22.5001 13.5069 22.2001 13.3069 21.9001 13.2069C21.7001 13.0069 21.4001 12.9069 21.2001 12.7069C21.1001 12.6069 20.9001 12.5069 20.8001 12.4069C20.7001 12.3069 20.6001 12.3069 20.6001 12.2069C20.3001 12.0069 20.1001 11.8069 19.8001 11.6069C19.5001 11.4069 19.3001 11.2069 19.1001 11.0069C18.9001 10.8069 18.7001 10.7069 18.5001 10.5069C18.4001 10.4069 18.4001 10.4069 18.3001 10.3069C18.2001 10.2069 18.1001 10.1069 17.9001 10.0069C17.8001 9.90693 17.7001 9.80693 17.7001 9.80693C17.5001 9.60693 17.4001 9.50693 17.2001 9.30693C17.1001 9.20693 17.0001 9.00693 16.9001 8.90693C16.7001 8.70693 16.6001 8.60693 16.5001 8.60693C16.4001 8.40693 16.2001 8.30693 16.2001 8.10693C16.1001 8.00693 16.0001 7.80693 16.0001 7.70693C15.9001 7.60693 15.8001 7.40693 15.8001 7.30693C15.8001 7.20693 15.7001 7.20693 15.7001 7.10693C15.6001 7.00693 15.6001 6.80693 15.6001 6.70693C15.6001 6.60693 15.6001 6.50693 15.6001 6.50693C15.6001 6.40693 15.6001 6.30693 15.6001 6.30693C15.6001 6.30693 15.6001 6.20693 15.6001 6.10693C15.6001 6.00693 15.6001 6.00693 15.7001 5.90693L18.2001 1.60693C17.7001 2.50693 18.7001 4.20693 20.8001 6.00693C22.0001 7.10693 23.6001 8.20693 25.3001 9.20693C27.1001 10.2069 28.8001 11.0069 30.3001 11.6069C32.9001 12.5069 34.9001 12.6069 35.4001 11.7069Z" stroke="#D80000" stroke-miterlimit="10" stroke-linecap="round" stroke-linejoin="round"/>
<path d="M33.8 14.4067C37.7 14.8067 40.5 15.9067 40.5 17.2067C40.5 18.2067 38.7 19.2067 36 19.7067C34.5 20.1067 32.5 20.3067 30.5 20.3067C28.5 20.3067 26.5 20.1067 25 19.8067C22.3 19.3067 20.5 18.3067 20.5 17.3067C20.5 16.2067 22.3 15.3067 25 14.8067" stroke="#D80000" stroke-miterlimit="10"/>
<path d="M40.4998 17.3068V22.3068C40.4998 22.4068 40.4998 22.4068 40.4998 22.5068C40.4998 22.6068 40.4998 22.6068 40.3998 22.7068C40.3998 22.8068 40.2998 22.8068 40.2998 22.9068C40.2998 23.0068 40.1998 23.0068 40.1998 23.1068C40.0998 23.2068 39.9998 23.3068 39.8998 23.4068C39.8998 23.4068 39.7998 23.5068 39.6998 23.5068C39.5998 23.5068 39.5998 23.6068 39.4998 23.6068C39.3998 23.6068 39.2998 23.7068 39.2998 23.7068C39.1998 23.8068 38.9998 23.8068 38.8998 23.9068C38.6998 24.0068 38.4998 24.1068 38.3998 24.1068C38.2998 24.1068 38.1998 24.2068 38.0998 24.2068C37.8998 24.3068 37.7998 24.3068 37.5998 24.4068C37.3998 24.5068 37.0998 24.5068 36.8998 24.6068C36.7998 24.6068 36.6998 24.7068 36.5998 24.7068C36.3998 24.7068 36.2998 24.8068 36.0998 24.8068C35.7998 24.9068 35.4998 24.9068 35.0998 25.0068C34.7998 25.0068 34.4998 25.1068 34.1998 25.1068C33.7998 25.2068 33.3998 25.2068 32.8998 25.2068C32.6998 25.2068 32.5998 25.2068 32.3998 25.2068C32.0998 25.2068 31.7998 25.2068 31.5998 25.2068C31.2998 25.2068 30.8998 25.2068 30.5998 25.2068C30.2998 25.2068 29.8998 25.2068 29.5998 25.2068C29.2998 25.2068 28.9998 25.2068 28.7998 25.2068C28.5998 25.2068 28.4998 25.2068 28.2998 25.2068C27.8998 25.2068 27.3998 25.1068 26.9998 25.1068C26.6998 25.1068 26.3998 25.0068 26.0998 25.0068C25.7998 25.0068 25.3998 24.9068 25.0998 24.8068C24.8998 24.8068 24.7998 24.7068 24.5998 24.7068C24.4998 24.7068 24.3998 24.7068 24.2998 24.6068C23.9998 24.5068 23.7998 24.5068 23.5998 24.4068C23.3998 24.4068 23.2998 24.3068 23.0998 24.2068C22.9998 24.2068 22.8998 24.1068 22.7998 24.1068C22.5998 24.0068 22.3998 24.0068 22.2998 23.9068C22.1998 23.8068 21.9998 23.8068 21.8998 23.7068C21.6998 23.6068 21.5998 23.5068 21.4998 23.4068C21.3998 23.4068 21.3998 23.3068 21.2998 23.3068C21.1998 23.2068 21.0998 23.1068 20.9998 23.0068C20.9998 22.9068 20.8998 22.9068 20.8998 22.8068C20.8998 22.7068 20.7998 22.7068 20.7998 22.6068C20.7998 22.6068 20.7998 22.5068 20.7998 22.4068C20.7998 22.3068 20.7998 22.3068 20.7998 22.2068V17.2068C20.7998 18.2068 22.5998 19.2068 25.2998 19.7068C26.8998 20.0068 28.7998 20.2068 30.7998 20.2068C32.7998 20.2068 34.7998 20.0068 36.2998 19.7068C38.6998 19.2068 40.4998 18.3068 40.4998 17.3068Z" stroke="#D80000" stroke-miterlimit="10"/>
</svg>
