<svg width="96" height="32" viewBox="0 0 96 32" fill="none" xmlns="http://www.w3.org/2000/svg">
<rect width="96" height="32" fill="#F5F5F5"/>
<g id="container">
<g id="Download Now">
<rect width="1488" height="667" transform="translate(-422 -422)" fill="#F9F9F9"/>
<g id="Frame 15">
<g id="left text">
<g id="play store">
<g id="Frame" clip-path="url(#clip0_0_1)">
<path id="Vector" d="M91.7563 0.875H4.24368C1.89996 0.875 0 2.75061 0 5.06429V27.6857C0 29.9994 1.89996 31.875 4.24368 31.875H91.7563C94.1 31.875 96 29.9994 96 27.6857V5.06429C96 2.75061 94.1 0.875 91.7563 0.875Z" fill="#231F20"/>
<g id="PLAY">
<g id="Group">
<path id="Vector_2" d="M7.20166 6.84326V17.3396V27.836L17.9244 17.3396L7.20166 6.84326Z" fill="url(#paint0_linear_0_1)"/>
<path id="Vector_3" d="M20.8036 14.5213L16.4755 12.0533L7.20166 6.76709V6.84306L17.9244 17.3394L20.8036 14.5213Z" fill="url(#paint1_linear_0_1)"/>
<path id="Vector_4" d="M7.20166 27.8357V27.9136L16.4755 22.6255L20.8036 20.1594L17.9244 17.3394L7.20166 27.8357Z" fill="url(#paint2_linear_0_1)"/>
<path id="Vector_5" d="M20.8035 14.5215L17.9243 17.3397L20.8035 20.1597L25.751 17.3397L20.8035 14.5215Z" fill="url(#paint3_linear_0_1)"/>
</g>
</g>
<path id="Vector_6" d="M74.7121 21.4436C74.3326 21.4482 73.9564 21.373 73.6085 21.2231C73.2735 21.0743 72.9842 20.8411 72.7695 20.5469H72.7019C72.7457 20.883 72.7683 21.2215 72.7695 21.5604V24.0728H71.8311V15.2255H72.5912L72.7207 16.0611H72.7658C72.9802 15.7553 73.2711 15.5095 73.6104 15.3478C73.9553 15.1925 74.3312 15.1159 74.7102 15.1236C75.5298 15.1236 76.1623 15.4003 76.6078 15.9536C77.0532 16.507 77.2766 17.2834 77.2778 18.2827C77.2778 19.2844 77.0513 20.0633 76.5984 20.6191C76.3711 20.8925 76.0821 21.1096 75.7545 21.2528C75.4269 21.3959 75.0699 21.4613 74.7121 21.4436ZM74.577 15.8999C73.9451 15.8999 73.4877 16.0728 73.205 16.4187C72.9222 16.7646 72.777 17.3143 72.7695 18.0677V18.2734C72.7695 19.1307 72.9147 19.7446 73.205 20.1151C73.4952 20.4857 73.9601 20.671 74.5995 20.671C74.8468 20.6787 75.092 20.6238 75.3118 20.5116C75.5315 20.3994 75.7186 20.2336 75.8551 20.0299C76.1567 19.6038 76.3081 19.0152 76.3094 18.2641C76.3106 17.5131 76.1592 16.9289 75.8551 16.5114C75.7093 16.3139 75.5163 16.1551 75.2933 16.0491C75.0703 15.943 74.8243 15.8931 74.577 15.9036V15.8999Z" fill="#F9F9F9"/>
<path id="Vector_7" d="M79.4477 21.3302H78.5093V12.6626H79.4477V21.3302Z" fill="#F9F9F9"/>
<path id="Vector_8" d="M84.8326 21.3306L84.6449 20.4616H84.5999C84.3594 20.7893 84.0436 21.056 83.6783 21.2398C83.314 21.3859 82.9227 21.4554 82.5297 21.4436C82.0063 21.4737 81.491 21.3061 81.0882 20.9748C80.7391 20.6636 80.5664 20.2189 80.5664 19.6445C80.5664 18.4093 81.5674 17.7626 83.5695 17.7046L84.6187 17.6712V17.3006C84.6187 16.8208 84.5154 16.4669 84.3052 16.239C84.095 16.0111 83.7628 15.8962 83.3048 15.8962C82.6934 15.9202 82.0954 16.0805 81.5555 16.365L81.2665 15.6572C81.5839 15.49 81.9204 15.3606 82.2688 15.2718C82.6254 15.1798 82.9925 15.1331 83.3611 15.1328C84.0994 15.1328 84.6455 15.2946 84.9997 15.6183C85.3538 15.9419 85.5315 16.4601 85.5327 17.1728V21.338L84.8326 21.3306ZM82.7173 20.6802C82.9667 20.6945 83.2165 20.66 83.4523 20.5786C83.6881 20.4972 83.9052 20.3705 84.0912 20.2059C84.2631 20.0314 84.3962 19.8235 84.4821 19.5954C84.5681 19.3673 84.605 19.1241 84.5905 18.8811V18.3253L83.652 18.3642C82.9013 18.3901 82.3645 18.5044 82.0417 18.707C81.8801 18.8053 81.7488 18.9452 81.6618 19.1117C81.5748 19.2782 81.5355 19.465 81.548 19.6519C81.5381 19.7935 81.5606 19.9355 81.6139 20.0673C81.6672 20.1992 81.7499 20.3175 81.8558 20.4134C82.0999 20.6041 82.4067 20.6991 82.7173 20.6802Z" fill="#F9F9F9"/>
<path id="Vector_9" d="M86.0713 15.2251H87.0754L88.4306 18.7085C88.654 19.2691 88.8384 19.8442 88.9824 20.4297H89.0274C89.0762 20.2383 89.1788 19.914 89.3352 19.457C89.4916 19 90.0022 17.5893 90.8668 15.2251H91.8728L89.2132 22.177C88.9505 22.8638 88.6433 23.3517 88.2917 23.6407C87.9261 23.9327 87.4667 24.0858 86.9966 24.0724C86.7117 24.0726 86.4278 24.0409 86.1501 23.978V23.2368C86.3785 23.2835 86.6113 23.3058 86.8446 23.3035C87.489 23.3035 87.9476 22.9472 88.2203 22.2344L88.5657 21.3654L86.0713 15.2251Z" fill="#F9F9F9"/>
<path id="Vector_10" d="M57.3602 15.7941C57.6395 15.9899 57.8682 16.248 58.0277 16.5474C58.1871 16.8468 58.2729 17.179 58.278 17.5172C58.278 18.4622 57.7356 18.9087 57.1913 19.3312C57.0224 19.4961 56.829 19.6758 56.829 19.9574C56.8356 20.0699 56.8696 20.1792 56.9281 20.276C56.9865 20.3727 57.0678 20.4541 57.165 20.5133L57.6323 20.869C58.1954 21.3434 58.7172 21.7769 58.7172 22.6589C58.7172 23.8595 57.5404 25.0676 55.3162 25.0676C53.4393 25.0676 52.5347 24.1875 52.5347 23.2407C52.5347 22.7812 52.7674 22.129 53.5313 21.6843C54.3327 21.1988 55.4195 21.1284 56.0013 21.0951C55.8136 20.8653 55.6128 20.6245 55.6128 20.2279C55.6176 20.0543 55.6619 19.884 55.7423 19.7295C55.5996 19.7425 55.457 19.7555 55.3275 19.7555C53.9574 19.7555 53.1822 18.7457 53.1822 17.7507C53.1883 17.424 53.2651 17.1023 53.4076 16.8073C53.55 16.5124 53.7548 16.2509 54.008 16.0405C54.7457 15.4402 55.6259 15.3364 56.326 15.3364H58.9893L58.1616 15.7978L57.3602 15.7941ZM56.4405 21.4638C56.3421 21.4524 56.243 21.4481 56.144 21.4508C55.6839 21.4592 55.2269 21.5278 54.7851 21.6546C54.5017 21.7565 53.6721 22.0641 53.6721 22.9702C53.6721 23.8762 54.5655 24.5284 55.9506 24.5284C57.1913 24.5284 57.8519 23.941 57.8519 23.1499C57.8444 22.4958 57.424 22.1531 56.4405 21.4619V21.4638ZM56.8159 19.0366C57.0431 18.7819 57.1592 18.4489 57.1387 18.1101C57.1387 17.1837 56.5756 15.7607 55.5096 15.7607C55.3371 15.7628 55.167 15.8014 55.0109 15.874C54.8549 15.9466 54.7164 16.0514 54.6049 16.1813C54.4033 16.4549 54.3027 16.7884 54.3196 17.1263C54.3196 17.9823 54.8245 19.3997 55.9375 19.3997C56.266 19.3914 56.5794 19.2618 56.8159 19.0366Z" fill="#F9F9F9"/>
<path id="Vector_11" d="M49.2104 21.2582C48.8015 21.2719 48.394 21.2042 48.0122 21.0591C47.6304 20.914 47.2821 20.6945 46.988 20.4138C46.694 20.133 46.4602 19.7966 46.3006 19.4247C46.141 19.0529 46.0588 18.6531 46.0591 18.2492C46.0591 16.5816 47.4405 15.1531 49.4056 15.1531C49.81 15.1441 50.212 15.2155 50.5879 15.363C50.9638 15.5104 51.3058 15.731 51.5936 16.0115C51.8815 16.292 52.1093 16.6268 52.2635 16.9959C52.4177 17.365 52.4951 17.761 52.4912 18.1603C52.4969 19.6648 51.3219 21.2582 49.2104 21.2582ZM50.8245 20.2262C51.1065 19.8086 51.2429 19.3116 51.2131 18.8106C51.2131 17.6896 50.6706 15.5477 49.0678 15.5477C48.6406 15.5511 48.2286 15.7049 47.906 15.9813C47.4029 16.4279 47.311 16.9874 47.311 17.5377C47.311 18.7976 47.9454 20.8728 49.507 20.8728C49.7632 20.8739 50.0163 20.816 50.2459 20.7038C50.4756 20.5916 50.6756 20.428 50.8302 20.2262H50.8245Z" fill="#F9F9F9"/>
<path id="Vector_12" d="M42.2153 21.2582C41.8064 21.2719 41.3989 21.2042 41.0171 21.0591C40.6353 20.914 40.287 20.6945 39.9929 20.4138C39.6988 20.133 39.465 19.7966 39.3055 19.4247C39.1459 19.0529 39.0637 18.6531 39.064 18.2492C39.064 16.5816 40.4472 15.1531 42.4105 15.1531C42.8149 15.1441 43.2169 15.2155 43.5928 15.363C43.9687 15.5104 44.3107 15.731 44.5985 16.0115C44.8864 16.292 45.1141 16.6268 45.2683 16.9959C45.4225 17.365 45.5 17.761 45.4961 18.1603C45.4961 19.6648 44.3306 21.2582 42.2153 21.2582ZM43.8313 20.2262C44.1127 19.8084 44.2484 19.3114 44.218 18.8106C44.218 17.6896 43.6755 15.5477 42.0745 15.5477C41.6473 15.5511 41.2353 15.7049 40.9127 15.9813C40.4078 16.4279 40.3177 16.9874 40.3177 17.5377C40.3177 18.7976 40.9503 20.8728 42.5137 20.8728C42.769 20.8726 43.0207 20.8141 43.2493 20.702C43.4779 20.5898 43.6771 20.427 43.8313 20.2262Z" fill="#F9F9F9"/>
<path id="Vector_13" d="M38.0786 21.0601L36.2204 21.4826C35.5133 21.6096 34.7973 21.6821 34.0789 21.6994C30.4959 21.6994 29.1313 19.1054 29.1313 17.0672C29.1313 14.5807 31.0664 12.2739 34.3867 12.2739C35.0584 12.2753 35.7269 12.3657 36.3743 12.5426C36.9907 12.7 37.5718 12.9695 38.0879 13.3375L37.0087 14.351L36.5545 14.4529L36.8792 13.9396C36.4381 13.5172 35.6329 12.7353 34.1014 12.7353C32.0499 12.7353 30.5052 14.2731 30.5052 16.5169C30.5052 18.9256 32.2695 21.1954 35.0999 21.1954C35.667 21.2091 36.2302 21.0997 36.7497 20.8748V18.8034L34.7902 18.9053L35.8281 18.3494H38.5797L38.2437 18.6681C38.2087 18.6916 38.1789 18.722 38.1563 18.7574C38.1337 18.7928 38.1187 18.8324 38.1123 18.8738C38.0992 18.9886 38.0879 19.3611 38.0879 19.4889L38.0786 21.0601Z" fill="#F9F9F9"/>
<path id="Vector_14" d="M61.4629 20.6893C61.035 20.6523 60.9449 20.5745 60.9449 20.0742V12.8203C60.9449 12.7925 60.9449 12.7647 60.9449 12.7369C60.9975 12.2885 61.1326 12.2126 61.5305 11.981H59.6724L58.6982 12.4423H59.6911V20.3503C59.6911 20.606 59.6404 20.6449 59.342 21.0284H61.6394L62.1198 20.7468C61.9059 20.7208 61.6844 20.7208 61.4629 20.6893Z" fill="#F9F9F9"/>
<path id="Vector_15" d="M66.7464 20.8082C66.6057 20.8841 66.463 20.9749 66.3222 21.0379C65.9272 21.2058 65.5003 21.2879 65.0703 21.2788C64.4585 21.3059 63.8549 21.1312 63.3548 20.7822C62.4408 20.1448 62.041 19.0517 62.041 18.0974C62.041 16.1242 63.6645 15.157 64.9934 15.157C65.4613 15.1505 65.9217 15.2738 66.3222 15.5127C66.7735 15.8048 67.0955 16.2551 67.2232 16.7727L64.1938 17.9826L63.2009 18.0585C63.5238 19.6761 64.633 20.6173 65.8568 20.6173C66.4109 20.6 66.9519 20.4472 67.4315 20.1726L66.7464 20.8082ZM65.5396 17.0154C65.7836 16.9264 65.915 16.8505 65.915 16.6726C65.915 16.1631 65.335 15.5776 64.6387 15.5776C64.1206 15.5776 63.154 15.9722 63.154 17.347C63.154 17.5638 63.1803 17.7936 63.1934 18.0233L65.5396 17.0154Z" fill="#F9F9F9"/>
<path id="Vector_16" d="M67.9911 15.2436V16.0885H67.8879V15.2492H67.6045V15.1621H68.2708V15.2492L67.9911 15.2436Z" fill="#F9F9F9"/>
<path id="Vector_17" d="M69.1507 16.0885V15.2399L68.8879 16.0885H68.8072L68.5426 15.2399V16.0885H68.4487V15.1621H68.6083L68.8485 15.9032L69.0831 15.1621H69.2464V16.0885H69.1507Z" fill="#F9F9F9"/>
<path id="Vector_18" d="M31.7103 9.77036H31.0665C31.0264 9.51829 30.9636 9.27026 30.8788 9.02922H29.9403C29.8523 9.2693 29.7894 9.51764 29.7526 9.77036H29.1445C29.1445 9.71848 29.3016 9.29355 29.6156 8.49559C29.8035 8.06782 29.9609 7.62763 30.0867 7.17822H30.8488C30.9636 7.61881 31.1059 8.05197 31.2748 8.47522C31.4467 8.89772 31.5921 9.33025 31.7103 9.77036ZM30.7718 8.64568C30.6379 8.28105 30.5226 7.91001 30.4264 7.53397H30.3945C30.2947 7.91021 30.1756 8.28125 30.0379 8.64568H30.7718Z" fill="#F9F9FA"/>
<path id="Vector_19" d="M34.3101 9.77064H33.8202C33.8202 9.71753 33.6325 9.43034 33.2571 8.90907C32.8686 8.35321 32.649 7.98264 32.5946 7.78439H32.5627C32.5946 8.04572 32.6115 8.30863 32.6133 8.57185C32.6133 8.89918 32.6227 9.29878 32.6415 9.77064H32.146C32.1673 9.35931 32.1773 8.90721 32.176 8.41435C32.1748 7.9215 32.1648 7.50955 32.146 7.17851H32.7447C32.7447 7.24892 32.9105 7.52993 33.2421 8.02155C33.4891 8.34851 33.694 8.70451 33.8521 9.08138H33.8821C33.8518 8.81745 33.8355 8.55213 33.8333 8.28651C33.8333 7.92706 33.8239 7.55649 33.8052 7.1748H34.3082C34.2894 7.50461 34.28 7.91656 34.28 8.41065C34.28 8.90474 34.29 9.35807 34.3101 9.77064Z" fill="#F9F9FA"/>
<path id="Vector_20" d="M37.2323 8.38443C37.2378 8.74692 37.1075 9.09865 36.8663 9.37199C36.7381 9.51437 36.5791 9.62631 36.401 9.69947C36.2229 9.77262 36.0303 9.80509 35.8377 9.79444C35.6388 9.79444 35.3647 9.79444 35.0156 9.77036C35.0331 9.37014 35.0419 8.91804 35.0419 8.41407C35.0419 7.93233 35.0419 7.51915 35.0156 7.17822H35.3685H35.6256H35.8509C36.3351 7.17822 36.6867 7.29742 36.9057 7.53582C37.119 7.76794 37.2356 8.07104 37.2323 8.38443ZM36.6823 8.47151C36.6897 8.23661 36.6096 8.00718 36.4571 7.82672C36.369 7.73506 36.2612 7.66402 36.1417 7.61882C36.0222 7.57361 35.894 7.55538 35.7664 7.56547C35.6873 7.56692 35.6084 7.57249 35.5299 7.58214C35.543 7.84895 35.5487 8.12502 35.5487 8.41407C35.5487 8.73276 35.5487 9.04589 35.5693 9.35902C35.6559 9.3759 35.7438 9.38459 35.8321 9.38497C35.9529 9.39499 36.0745 9.37595 36.1863 9.32948C36.2981 9.28302 36.3968 9.21051 36.474 9.11815C36.6159 8.93229 36.6894 8.70418 36.6823 8.47151Z" fill="#F9F9FA"/>
<path id="Vector_21" d="M39.9273 9.77075H39.3305C39.2469 9.46787 39.1265 9.17609 38.972 8.90176C38.9235 8.8437 38.8614 8.79817 38.7911 8.76912C38.7208 8.74006 38.6444 8.72835 38.5684 8.735H38.3451C38.3451 9.07778 38.3451 9.42056 38.3639 9.7689H37.8008C37.817 9.36868 37.8258 8.91658 37.827 8.41261C37.827 7.93087 37.8177 7.51768 37.8008 7.17676H38.1499H38.4033H38.758C39.3749 7.17676 39.6833 7.38489 39.6833 7.80117C39.6865 7.95803 39.6363 8.11143 39.5407 8.23675C39.445 8.36206 39.3095 8.45205 39.1559 8.49228V8.52193C39.3113 8.57684 39.4391 8.68908 39.5125 8.83506C39.6737 9.13654 39.8124 9.44927 39.9273 9.77075ZM39.1765 7.94013C39.1765 7.67517 39.0057 7.54362 38.6604 7.54362C38.5479 7.54051 38.4355 7.54796 38.3244 7.56586C38.3394 7.77152 38.347 8.04019 38.347 8.36999H38.5346C38.957 8.37926 39.1709 8.23288 39.1709 7.93643L39.1765 7.94013Z" fill="#F9F9FA"/>
<path id="Vector_22" d="M42.8177 8.42703C42.8316 8.80032 42.6968 9.16415 42.4423 9.44054C42.324 9.56986 42.1791 9.67266 42.0172 9.74201C41.8553 9.81137 41.6803 9.84567 41.5038 9.84261C41.3374 9.84623 41.1722 9.81509 41.0189 9.75122C40.8655 9.68736 40.7276 9.59222 40.6142 9.47204C40.4941 9.3472 40.4004 9.20001 40.3385 9.03904C40.2766 8.87808 40.2478 8.70656 40.2538 8.5345C40.2407 8.16133 40.3753 7.7978 40.6292 7.52099C40.7473 7.39149 40.8922 7.28856 41.0541 7.21919C41.216 7.14982 41.3912 7.11562 41.5676 7.11892C41.7343 7.11539 41.8998 7.14657 42.0534 7.21042C42.207 7.27427 42.3453 7.36936 42.4592 7.48949C42.5789 7.61448 42.6723 7.76174 42.7338 7.9227C42.7954 8.08366 42.8239 8.2551 42.8177 8.42703ZM42.2546 8.48447C42.2661 8.24178 42.1903 8.00291 42.0406 7.81004C41.9781 7.72913 41.8974 7.66362 41.8049 7.61862C41.7124 7.57361 41.6107 7.55035 41.5076 7.55064C41.4092 7.55136 41.3125 7.57548 41.2256 7.62096C41.1387 7.66644 41.0641 7.73193 41.0083 7.81189C40.8647 8.00177 40.7918 8.23474 40.8019 8.4715C40.7907 8.71388 40.8672 8.95226 41.0177 9.14408C41.0798 9.22506 41.1601 9.29066 41.2523 9.33568C41.3445 9.3807 41.446 9.40392 41.5489 9.40349C41.6475 9.40275 41.7445 9.37863 41.8317 9.33317C41.9189 9.2877 41.9938 9.22222 42.05 9.14223C42.1942 8.95572 42.2703 8.7265 42.2658 8.49188L42.2546 8.48447Z" fill="#F9F9FA"/>
<path id="Vector_23" d="M43.9552 9.77036H43.3921C43.4109 9.35902 43.4184 8.90693 43.4184 8.41407C43.4184 7.92121 43.4184 7.51915 43.3921 7.17822H43.9552C43.9389 7.51297 43.9301 7.92492 43.9289 8.41407C43.9276 8.90322 43.9364 9.35532 43.9552 9.77036Z" fill="#F9F9FA"/>
<path id="Vector_24" d="M46.8793 8.38443C46.8823 8.74814 46.7486 9.10002 46.504 9.37199C46.3757 9.51415 46.2166 9.62596 46.0385 9.69909C45.8605 9.77223 45.668 9.80482 45.4754 9.79444C45.2765 9.79444 45.0024 9.79444 44.6533 9.77036C44.6696 9.37014 44.6783 8.91804 44.6796 8.41407C44.6796 7.93233 44.6796 7.51915 44.6533 7.17822H45.0062H45.2633H45.4867C45.9728 7.17822 46.3238 7.2968 46.5434 7.53582C46.7601 7.76653 46.8802 8.06978 46.8793 8.38443ZM46.3294 8.47151C46.3368 8.23661 46.2567 8.00718 46.1042 7.82672C46.0161 7.73506 45.9083 7.66402 45.7888 7.61882C45.6693 7.57361 45.5411 7.55538 45.4135 7.56547C45.3344 7.56692 45.2555 7.57249 45.177 7.58214C45.1901 7.84895 45.1957 8.12502 45.1957 8.41407C45.1957 8.73276 45.1957 9.04589 45.2164 9.35902C45.3029 9.3759 45.3909 9.38459 45.4792 9.38497C45.6 9.39499 45.7216 9.37595 45.8334 9.32948C45.9451 9.28302 46.0439 9.21051 46.1211 9.11815C46.263 8.93229 46.3365 8.70418 46.3294 8.47151Z" fill="#F9F9FA"/>
<path id="Vector_25" d="M50.7571 9.77036H50.1115C50.0724 9.51809 50.0095 9.26997 49.9238 9.02922H48.9853C48.8983 9.26959 48.8354 9.51783 48.7976 9.77036H48.1914C48.3266 9.33789 48.4839 8.91243 48.6625 8.49559C48.8503 8.068 49.0072 7.62777 49.1317 7.17822H49.8938C50.0087 7.61898 50.1517 8.05216 50.3217 8.47522C50.4925 8.89809 50.6379 9.33056 50.7571 9.77036ZM49.8187 8.64568C49.6837 8.2814 49.5684 7.91031 49.4733 7.53397H49.4414C49.4414 7.58585 49.3213 7.95456 49.0848 8.64568H49.8187Z" fill="#F9F9FA"/>
<path id="Vector_26" d="M53.1089 7.85848C53.1178 7.99644 53.0894 8.13427 53.0263 8.25772C52.9633 8.38117 52.868 8.48577 52.7504 8.56071C52.4858 8.71814 52.1807 8.79665 51.872 8.78676C51.827 8.78916 51.7819 8.78916 51.7368 8.78676C51.7368 9.0369 51.7368 9.36485 51.7594 9.77433H51.1963C51.2151 9.39079 51.2226 8.9387 51.2226 8.41805C51.2226 7.94186 51.2226 7.52868 51.1963 7.18219H51.5473H51.8344H52.2004C52.4285 7.17521 52.6537 7.23449 52.848 7.35266C52.9317 7.40783 52.9997 7.48333 53.0454 7.57191C53.0911 7.66049 53.1129 7.75917 53.1089 7.85848ZM52.589 7.9678C52.589 7.68432 52.4013 7.54165 52.0259 7.54165C51.9244 7.54186 51.8232 7.55179 51.7237 7.57129C51.7387 7.82143 51.7443 8.10677 51.7443 8.4236H51.8626C52.3468 8.42607 52.589 8.27414 52.589 7.9678Z" fill="#F9F9FA"/>
<path id="Vector_27" d="M55.5264 7.85848C55.5356 7.99626 55.5074 8.13397 55.4447 8.25741C55.382 8.38085 55.2871 8.48555 55.1698 8.56071C54.9052 8.71814 54.6002 8.79665 54.2914 8.78676C54.2464 8.78923 54.2013 8.78923 54.1563 8.78676C54.1563 9.0369 54.1563 9.36485 54.1788 9.77433H53.6157C53.632 9.39017 53.6408 8.93808 53.642 8.41805C53.642 7.94186 53.6326 7.52868 53.6157 7.18219H53.9667H54.252H54.6274C54.8555 7.17521 55.0806 7.23449 55.2749 7.35266C55.3567 7.40916 55.4226 7.48518 55.4666 7.57362C55.5106 7.66207 55.5312 7.76007 55.5264 7.85848ZM55.0065 7.9678C55.0065 7.68432 54.8188 7.54165 54.4434 7.54165C54.342 7.54195 54.2408 7.55188 54.1413 7.57129C54.1563 7.82143 54.1638 8.10677 54.1638 8.4236H54.2802C54.7625 8.42731 55.0065 8.27352 55.0065 7.9678Z" fill="#F9F9FA"/>
<path id="Vector_28" d="M59.4812 8.42703C59.4943 8.8002 59.3597 9.16373 59.1058 9.44054C58.9876 9.56986 58.8427 9.67266 58.6808 9.74201C58.5189 9.81137 58.3438 9.84567 58.1674 9.84261C58.001 9.84623 57.8358 9.81509 57.6824 9.75122C57.5291 9.68736 57.3912 9.59222 57.2777 9.47204C57.1576 9.3472 57.0639 9.20001 57.0021 9.03904C56.9402 8.87808 56.9114 8.70656 56.9174 8.5345C56.9043 8.16133 57.0389 7.7978 57.2928 7.52099C57.4108 7.39139 57.5557 7.2884 57.7176 7.21902C57.8795 7.14964 58.0547 7.1155 58.2312 7.11892C58.3978 7.11539 58.5634 7.14657 58.717 7.21042C58.8706 7.27427 59.0089 7.36936 59.1227 7.48949C59.2425 7.61448 59.3359 7.76174 59.3974 7.9227C59.459 8.08366 59.4874 8.2551 59.4812 8.42703ZM58.9182 8.48447C58.9299 8.24145 58.8534 8.00228 58.7023 7.81004C58.6403 7.72906 58.5599 7.66346 58.4678 7.61844C58.3756 7.57342 58.274 7.55021 58.1712 7.55064C58.0725 7.55137 57.9755 7.57549 57.8883 7.62095C57.8011 7.66642 57.7262 7.7319 57.67 7.81189C57.5279 8.00242 57.4557 8.23507 57.4654 8.4715C57.4543 8.71388 57.5308 8.95226 57.6813 9.14408C57.7433 9.22506 57.8237 9.29066 57.9158 9.33568C58.008 9.3807 58.1096 9.40392 58.2124 9.40349C58.3111 9.40275 58.4081 9.37863 58.4953 9.33317C58.5825 9.2877 58.6574 9.22222 58.7136 9.14223C58.8558 8.955 58.9299 8.72585 58.9238 8.49188L58.9182 8.48447Z" fill="#F9F9FA"/>
<path id="Vector_29" d="M62.214 9.77064H61.7148C61.7148 9.71753 61.5271 9.43034 61.1517 8.90907C60.7651 8.35321 60.5436 7.98264 60.491 7.78439H60.4723C60.5027 8.04583 60.519 8.30869 60.5211 8.57185C60.5211 8.89918 60.5304 9.29878 60.5492 9.77064H60.0537C60.0737 9.35931 60.0837 8.90721 60.0837 8.41435C60.0837 7.9215 60.0737 7.50955 60.0537 7.17851H60.6524C60.6524 7.24892 60.8189 7.52993 61.1517 8.02155C61.3977 8.34887 61.6019 8.70482 61.7598 9.08138H61.7898C61.7595 8.81745 61.7432 8.55213 61.741 8.28651C61.741 7.92706 61.741 7.55649 61.7129 7.1748H62.2178C62.199 7.50461 62.1896 7.91656 62.1896 8.41065C62.1896 8.90474 62.1978 9.35807 62.214 9.77064Z" fill="#F9F9FA"/>
</g>
</g>
</g>
</g>
</g>
</g>
<defs>
<linearGradient id="paint0_linear_0_1" x1="12.5621" y1="6.84326" x2="12.5621" y2="27.836" gradientUnits="userSpaceOnUse">
<stop stop-color="#257CB0"/>
<stop offset="0.21" stop-color="#3C8FB3"/>
<stop offset="0.74" stop-color="#73BDBA"/>
<stop offset="1" stop-color="#89CFBD"/>
</linearGradient>
<linearGradient id="paint1_linear_0_1" x1="7.19978" y1="12.0533" x2="20.8036" y2="12.0533" gradientUnits="userSpaceOnUse">
<stop stop-color="#52C1AD"/>
<stop offset="1" stop-color="#DEE89A"/>
</linearGradient>
<linearGradient id="paint2_linear_0_1" x1="14.0017" y1="17.3394" x2="14.0017" y2="27.9136" gradientUnits="userSpaceOnUse">
<stop stop-color="#EC413D"/>
<stop offset="0.19" stop-color="#D74352"/>
<stop offset="0.74" stop-color="#A04888"/>
<stop offset="1" stop-color="#8A4A9D"/>
</linearGradient>
<linearGradient id="paint3_linear_0_1" x1="21.8377" y1="14.5215" x2="21.8377" y2="20.1597" gradientUnits="userSpaceOnUse">
<stop stop-color="#F58879"/>
<stop offset="0.62" stop-color="#FBB276"/>
<stop offset="1" stop-color="#FEC874"/>
</linearGradient>
<clipPath id="clip0_0_1">
<rect width="96" height="31" fill="white" transform="translate(0 0.875)"/>
</clipPath>
</defs>
</svg>
