<svg width="596" height="274" viewBox="0 0 596 274" fill="none" xmlns="http://www.w3.org/2000/svg">
<path d="M594.975 199.985L38.2153 239.744V18.2387L461.689 0.576904L594.975 199.985Z" stroke="#60B2A8" stroke-width="1.56" stroke-miterlimit="10"/>
<path d="M458.389 204.867H0L69.0469 49.4228L458.389 30.7441V204.867Z" fill="#F9E2C2"/>
<path d="M494.931 230.368L124.878 239.635L178.705 65.6206L458.464 121.765L494.931 230.368Z" fill="#8DBE89"/>
<path d="M328.703 229.741C328.703 231.702 326.021 233.296 322.713 233.296H78.9398C75.6246 233.296 72.9121 231.702 72.9121 229.741V217.906C72.9121 215.945 75.5944 214.351 78.9398 214.351H322.713C326.021 214.351 328.703 215.945 328.703 217.906V229.741Z" fill="#FFD28E"/>
<path d="M451.186 208.372C451.186 210.247 449.113 211.769 446.559 211.769H258.579C256.025 211.769 253.96 210.247 253.96 208.372V197.057C253.96 195.182 256.025 193.667 258.579 193.667H446.559C449.113 193.667 451.186 195.182 451.186 197.057V208.372Z" fill="#92FFD0"/>
<path d="M200.827 210.204C200.827 212.973 198.755 215.252 196.2 215.252H8.2354C5.68871 215.252 3.6167 213.009 3.6167 210.204V193.501C3.6167 190.739 5.68871 188.496 8.2354 188.496H196.216C198.77 188.496 200.842 190.739 200.842 193.501L200.827 210.204Z" fill="#AFB2B1"/>
<path opacity="0.4" d="M562.403 248.564C562.403 250.619 558.839 252.285 554.447 252.285H230.844C226.452 252.285 222.888 250.619 222.888 248.564V236.174C222.888 234.118 226.452 232.46 230.844 232.46H554.447C558.839 232.46 562.403 234.118 562.403 236.174V248.564Z" fill="#AFB2B1"/>
<path opacity="0.3" d="M361.494 270.776C361.351 272.824 357.674 274.252 353.296 273.964L30.4398 252.963C26.0547 252.674 22.619 250.799 22.7621 248.737L23.6437 236.376C23.7868 234.328 27.4637 232.9 31.8413 233.181L354.698 254.189C359.083 254.47 362.519 256.353 362.376 258.408L361.494 270.776Z" fill="#AFB2B1"/>
<path d="M194.392 64.6471C194.392 67.5318 193.111 69.8252 191.529 69.8252C189.946 69.8252 188.666 67.5102 188.666 64.6471C188.666 61.784 189.946 59.469 191.529 59.469C193.111 59.469 194.392 61.7912 194.392 64.6471Z" fill="#CFD3D1"/>
<path d="M192.486 17.1282H191.212V51.2403H192.486V17.1282Z" fill="#424443"/>
<path d="M178.705 63.4282L192.486 50.6344L206.267 63.4282H178.705Z" fill="black"/>
<path d="M191.966 50.0286H186.978L189.472 52.3075L191.966 54.5937L194.452 52.3075L196.939 50.0286H191.966Z" fill="black"/>
<path d="M192.124 54.5937L188.033 62.8224L182.307 63.1253L189.623 53.9879L192.124 54.5937Z" fill="#424443"/>
<path d="M177.281 226.784C177.281 226.784 194.799 228.861 191.665 219.183C188.53 209.504 179.315 216.428 185.305 211.603C191.295 206.778 201.784 199.018 191.604 196.653C181.425 194.287 186.729 204.355 178.924 201.341C171.118 198.326 170.734 203.086 171.849 205.963C172.964 208.841 161.873 202.559 167.177 212.634C172.482 222.709 169.942 227.072 177.281 226.784Z" fill="#209120"/>
<path d="M193.028 255.278H172.783L169.671 226.957H196.14L193.028 255.278Z" fill="#5B5B5B"/>
<path d="M173.951 225.096C173.951 225.096 162.265 212.432 172.391 209.447C182.518 206.461 181.734 217.647 182.51 210.168C183.286 202.689 184.07 190.047 191.853 196.747C199.636 203.446 187.965 204.946 194.972 209.418C201.98 213.889 198.084 216.875 194.972 217.618C191.861 218.361 203.532 223.582 191.853 225.068C180.175 226.553 177.839 231.061 173.951 225.096Z" fill="#0F720F"/>
<path d="M173.951 225.096C173.951 225.096 162.265 212.432 172.391 209.447C182.518 206.461 181.734 217.647 182.51 210.168C183.286 202.689 184.07 190.047 191.853 196.747C199.636 203.446 187.965 204.946 194.972 209.418C201.98 213.889 198.084 216.875 194.972 217.618C191.861 218.361 203.532 223.582 191.853 225.068C180.175 226.553 177.839 231.061 173.951 225.096Z" fill="#0F720F"/>
<path d="M200.812 222.486H164.992V231.428H200.812V222.486Z" fill="#808080"/>
<path d="M403.047 242.838C403.168 243.501 402.294 244.208 401.058 244.41C399.837 244.604 398.752 244.229 398.632 243.559L384.271 163.046C384.15 162.382 385.024 161.675 386.268 161.473C387.488 161.279 388.566 161.661 388.686 162.324L403.047 242.838Z" fill="#424443"/>
<path d="M353.56 242.838C353.439 243.501 354.313 244.208 355.557 244.41C356.77 244.604 357.817 244.229 357.975 243.559L372.336 163.046C372.457 162.382 371.583 161.675 370.347 161.473C369.126 161.279 368.041 161.661 367.921 162.324L353.56 242.838Z" fill="#424443"/>
<path d="M422.833 59.0507H331.521V164.69H422.833V59.0507Z" fill="#F4F4F4"/>
<path d="M425.101 54.4207H329.246C327.831 54.4207 326.684 55.5185 326.684 56.8727V59.5916C326.684 60.9458 327.831 62.0436 329.246 62.0436H425.101C426.516 62.0436 427.662 60.9458 427.662 59.5916V56.8727C427.662 55.5185 426.516 54.4207 425.101 54.4207Z" fill="#847F7C"/>
<path d="M424.249 162.512H328.394C326.979 162.512 325.833 163.61 325.833 164.964V167.683C325.833 169.037 326.979 170.135 328.394 170.135H424.249C425.664 170.135 426.811 169.037 426.811 167.683V164.964C426.811 163.61 425.664 162.512 424.249 162.512Z" fill="#847F7C"/>
<path d="M395.806 65.8586H386.991V103.699H395.806V65.8586Z" fill="#FD806C"/>
<path d="M385.28 81.6526H376.465V104.247H385.28V81.6526Z" fill="#E0FC6D"/>
<path d="M375.32 77.8375H366.504V104.247H375.32V77.8375Z" fill="#2DA04B"/>
<path d="M365.939 89.2755H357.124V105.062H365.939V89.2755Z" fill="#6DFCE0"/>
<path d="M353.703 96.0763L359.399 90.3645L364.802 94.9873L373.052 85.4604L379.306 92.5353L387.27 84.0974L392.107 89.5496L400.357 80.5636" stroke="#B52B1D" stroke-width="1.13" stroke-miterlimit="10"/>
<path d="M404.908 75.9336L396.658 78.6525L403.198 83.8234L404.908 75.9336Z" fill="#B52B1D"/>
<path d="M409.172 103.699H346.312V104.514H409.172V103.699Z" fill="#847F7C"/>
<path d="M390.396 130.938C390.358 134.439 388.87 137.783 386.257 140.233C383.645 142.684 380.122 144.041 376.465 144.006C372.807 144.041 369.283 142.684 366.67 140.234C364.056 137.783 362.566 134.44 362.526 130.938C362.545 129.204 362.92 127.491 363.631 125.895C364.341 124.3 365.373 122.855 366.668 121.641C367.962 120.428 369.493 119.47 371.174 118.823C372.855 118.176 374.653 117.853 376.465 117.871C380.122 117.836 383.645 119.193 386.257 121.644C388.87 124.094 390.358 127.438 390.396 130.938Z" fill="#D85616"/>
<path d="M397.509 141.547C397.49 143.281 397.115 144.995 396.404 146.59C395.694 148.185 394.662 149.631 393.367 150.844C392.073 152.058 390.542 153.015 388.861 153.662C387.18 154.309 385.382 154.633 383.57 154.615C379.912 154.65 376.39 153.292 373.778 150.842C371.165 148.391 369.676 145.048 369.639 141.547C369.676 138.046 371.165 134.703 373.778 132.252C376.39 129.802 379.912 128.445 383.57 128.479C385.382 128.461 387.18 128.785 388.861 129.432C390.542 130.079 392.073 131.036 393.367 132.25C394.662 133.463 395.694 134.909 396.404 136.504C397.115 138.099 397.49 139.813 397.509 141.547Z" fill="#D6D618"/>
<path d="M381.016 141.821C380.976 145.323 379.486 148.666 376.872 151.116C374.259 153.567 370.735 154.924 367.077 154.889C363.419 154.924 359.896 153.567 357.282 151.116C354.668 148.666 353.178 145.323 353.138 141.821C353.182 138.323 354.674 134.984 357.288 132.538C359.901 130.092 363.422 128.738 367.077 128.775C370.732 128.74 374.251 130.094 376.864 132.54C379.477 134.986 380.97 138.323 381.016 141.821Z" fill="#7DBAAE"/>
<path d="M396.085 194.093C396.086 194.236 396.057 194.378 396 194.511C395.944 194.643 395.86 194.764 395.754 194.865C395.648 194.966 395.522 195.046 395.384 195.101C395.245 195.155 395.097 195.183 394.947 195.182H359.113C358.963 195.183 358.815 195.155 358.676 195.101C358.538 195.046 358.412 194.966 358.306 194.865C358.2 194.764 358.117 194.643 358.06 194.511C358.003 194.378 357.974 194.236 357.975 194.093C357.975 193.804 358.095 193.527 358.308 193.323C358.522 193.118 358.811 193.004 359.113 193.004H394.947C395.249 193.004 395.538 193.118 395.752 193.323C395.965 193.527 396.085 193.804 396.085 194.093Z" fill="#424443"/>
<path d="M224.651 166.082L230.347 160.363L235.749 164.993L244 155.466L250.253 162.541L258.217 154.103L263.055 159.548L271.305 150.562" stroke="#B52B1D" stroke-width="1.13" stroke-miterlimit="10"/>
<path d="M275.856 145.932L267.605 148.658L274.145 153.829L275.856 145.932Z" fill="#B52B1D"/>
<g opacity="0.3">
<path d="M103.375 34.451L109.063 40.1701L114.473 35.54L122.723 45.0669L128.977 37.9921L136.941 46.4299L141.778 40.985L150.029 49.971" stroke="#B52B1D" stroke-width="1.13" stroke-miterlimit="10"/>
<path d="M154.579 54.5937L146.329 51.8749L152.869 46.704L154.579 54.5937Z" fill="#B52B1D"/>
</g>
<path d="M535.52 198.989C534.372 198.633 533.31 198.064 532.393 197.314C531.476 196.564 530.722 195.649 530.175 194.62C529.627 193.591 529.297 192.469 529.204 191.318C529.11 190.167 529.254 189.01 529.628 187.912C529.973 186.807 530.542 185.778 531.303 184.883C532.064 183.989 533.002 183.247 534.063 182.7C535.124 182.153 536.287 181.811 537.486 181.694C538.685 181.578 539.896 181.688 541.05 182.02C542.198 182.374 543.262 182.942 544.181 183.69C545.1 184.439 545.855 185.353 546.404 186.382C546.953 187.41 547.284 188.532 547.379 189.683C547.474 190.834 547.331 191.992 546.957 193.09C546.611 194.197 546.041 195.227 545.279 196.122C544.516 197.017 543.578 197.76 542.515 198.308C541.453 198.856 540.289 199.198 539.088 199.315C537.888 199.432 536.675 199.321 535.52 198.989Z" stroke="#D85616" stroke-width="1.2" stroke-miterlimit="10"/>
<path opacity="0.4" d="M12.1757 69.6882C9.22475 68.7728 6.77388 66.774 5.36122 64.1305C3.94857 61.4871 3.68959 58.4151 4.64115 55.589C5.53366 52.7415 7.57021 50.3493 10.3037 48.9377C13.0371 47.526 16.2441 47.2103 19.2206 48.0598C22.1721 48.9768 24.623 50.977 26.0356 53.6216C27.4482 56.2662 27.707 59.3392 26.7552 62.1662C26.3142 63.5766 25.5872 64.89 24.6157 66.0314C23.6443 67.1728 22.4475 68.1198 21.0936 68.8183C19.7396 69.5168 18.2552 69.9532 16.725 70.1024C15.1949 70.2517 13.649 70.1109 12.1757 69.6882Z" fill="#D6D618"/>
<path d="M251.496 55.6178C250.349 55.2642 249.286 54.6977 248.367 53.9507C247.449 53.2037 246.693 52.2908 246.143 51.2641C245.593 50.2375 245.259 49.1172 245.162 47.9672C245.064 46.8172 245.205 45.6601 245.574 44.562C246.273 42.3311 247.869 40.4572 250.011 39.3523C252.153 38.2474 254.666 38.002 256.997 38.6699C259.309 39.3871 261.23 40.9533 262.338 43.0247C263.445 45.0962 263.649 47.5036 262.904 49.7185C262.205 51.9463 260.611 53.8181 258.473 54.9238C256.335 56.0295 253.826 56.2791 251.496 55.6178Z" stroke="#55897F" stroke-width="1.2" stroke-miterlimit="10"/>
<path d="M236.993 234.32C236.993 234.32 246.833 247.446 240.963 247.446C235.094 247.446 225.322 236.433 225.894 234.84C226.467 233.246 232.886 227.902 236.993 234.32Z" fill="#354654"/>
<path d="M219.836 238.15C219.836 238.15 222.85 247.958 217.998 249.271C212.151 249.617 209.71 238.309 210.38 237.133C211.051 235.957 217.199 232.626 219.836 238.15Z" fill="#354654"/>
<path d="M253.358 116.385L259.74 129.186L252.582 134.588L244.633 119.746C244.633 119.746 252.137 113.947 253.358 116.385Z" fill="#F4BBA2"/>
<path d="M238.04 102.235C238.04 102.235 246.886 103.678 247.835 104.06C248.784 104.442 253.727 117.084 253.727 117.084C253.727 117.084 251.128 116.991 245.823 121.938C244.897 120.669 241.649 115.181 241.649 115.181L241.408 122.436L241.363 122.955L238.04 102.235Z" fill="#77976D"/>
<path d="M247.134 108.466C247.134 108.466 237.105 125.147 247.277 148.225C255.829 167.618 253.772 178.212 252.182 184.047C249.53 186.585 238.989 190.133 238.989 190.133C238.989 190.133 246.885 174.916 241.317 162.007C235.749 149.098 231.65 133.6 231.65 133.6C231.65 133.6 244.467 103.324 247.134 108.466Z" fill="#B5542A"/>
<path d="M247.134 108.466C247.134 108.466 234.453 127.332 244.632 150.41C253.177 169.796 247.458 181.695 245.876 187.53C243.224 190.061 238.989 190.155 238.989 190.155C238.989 190.155 246.885 174.938 241.317 162.029C235.749 149.119 231.65 133.621 231.65 133.621C231.65 133.621 244.467 103.324 247.134 108.466Z" fill="#893B20"/>
<path d="M247.277 148.247C255.829 167.64 253.772 178.234 252.182 184.068C249.53 186.607 238.989 190.155 238.989 190.155C238.989 190.155 246.885 174.938 241.317 162.029C235.749 149.119 240.436 156.396 247.277 148.247Z" fill="#B5542A"/>
<path d="M244.633 150.41C253.177 169.796 247.827 180.462 246.238 186.297C243.585 188.835 238.989 190.155 238.989 190.155C238.989 190.155 246.885 174.938 241.317 162.029C235.749 149.119 237.784 158.56 244.633 150.41Z" fill="#893B20"/>
<path d="M216.672 82.3377C216.672 82.3377 207.63 76.2509 215.082 85.8859C217.862 88.9077 218.465 91.1722 218.472 92.3333C218.525 97.3023 212.799 98.5139 212.799 98.5139C212.799 98.5139 213.756 107.889 223.897 106.966C229.126 106.49 235.855 97.3023 233.79 97.3023C232.121 97.2585 230.527 96.6268 229.315 95.5282V93.0761C229.315 93.0761 234.837 89.0808 233.609 78.025C231.65 70.8925 226.685 67.3731 223.136 70.1641C219.587 72.955 214.027 76.7557 216.672 82.3377Z" fill="#F4BBA2"/>
<path d="M222.217 65.5413C224.164 67.1262 225.476 69.3077 225.932 71.7146C220.899 74.2532 216.951 77.7726 216.687 82.3377C214.833 81.3208 212.822 82.5973 214.54 84.8835C216.257 87.1696 217.222 85.8859 217.222 85.8859C217.222 85.8859 219.075 92.4775 217.486 93.7468C215.896 95.0161 211.239 95.6652 209.785 87.9773C209.785 87.9773 208.452 84.1262 212.166 83.5853C211.36 81.0828 208.03 66.1326 222.217 65.5413Z" fill="black"/>
<path d="M226.301 71.6281C226.301 71.6281 225.548 69.8756 222.202 65.5413C224.169 66.1326 233.504 66.9836 233.7 78.9913C233.436 76.4528 230.588 71.2386 226.301 71.6281Z" fill="black"/>
<path d="M212.799 98.485C212.799 98.485 203.833 102.812 203.004 103.36C198.483 106.656 196.78 117.568 196.78 117.568C196.78 117.568 199.515 117.568 206.018 119.01C207.026 117.334 207.924 115.6 208.708 113.817L209.461 118.685L209.506 119.205C209.506 119.205 214.291 125.313 214.291 126.582C214.291 127.852 237.218 128.587 237.218 128.587L241.739 113.587L244.655 102.589C244.655 102.589 235.29 97.3888 233.813 97.2662C234.197 99.4298 229.292 105.776 225.178 106.396C215.534 107.86 212.799 98.485 212.799 98.485Z" fill="#77976D"/>
<path d="M208.535 237.674C210.042 245.376 226.098 239.679 231.59 241.46C236.021 241.713 233.934 238.922 237.098 239.426C240.263 239.931 242.907 245.513 241.619 239.174C240.33 232.835 242.583 208.927 243.246 193.963C243.909 178.998 245.59 175.212 243.209 159.973C240.828 144.735 239.072 141.367 241.197 132.237C243.322 123.106 248.053 105.69 247.225 103.916C246.396 102.142 238.296 99.0981 233.828 97.324C233.828 97.324 235.26 100.872 222.052 108.034C214.675 112.036 207.359 112.541 207.668 117.106C207.668 127.924 215.549 126.64 210.313 139.463C210.313 139.463 206.643 146.48 206.003 160.983C205.362 175.486 206.432 227.051 208.535 237.674Z" fill="#B5542A"/>
<path d="M233.79 97.3022L236.495 98.3696C236.495 98.3696 235.237 104.81 210.878 113.853C209.009 114.575 208.158 117.084 207.788 118.721C207.419 120.359 206.5 115.253 209.363 113.24C212.226 111.228 230.724 106.014 233.79 97.3022Z" fill="#E2B647"/>
<path d="M199.982 127.102C201.625 125.717 202.243 125.349 204.903 124.217C207.901 122.946 210.428 120.837 212.151 118.166C212.151 118.166 212.708 113.666 214.283 112.577C215.858 111.488 219.459 108.538 216.446 113.226C222.014 110.046 223.325 108.834 223.897 110.046C223.783 111.983 223.532 113.911 223.144 115.815C223.144 115.815 223.498 112.209 223.897 114.373C224.244 116.241 223.438 117.33 221.908 118.851C220.379 120.373 216.453 121.859 216.453 121.859C216.453 121.859 208.994 133.693 200.118 135.085C194.949 136.102 194.686 133.434 194.686 133.434C194.686 133.434 193.849 128.075 197.157 116.846C200.728 116.724 206.04 119.01 206.04 119.01L204.887 124.231" fill="#F4BBA2"/>
<path d="M255.904 127.08C257.027 125.551 259.355 124.455 261.457 122.955C265.308 120.2 267.485 119.883 269.188 117.402C270.891 114.921 271.742 111.243 272.458 110.06C273.174 108.877 275.472 106.735 273.904 111.416C276.414 111.539 280.377 103.317 281.733 106.937C280.979 110.63 279.209 112.317 279.209 112.317C279.209 112.317 281.989 108.156 281.733 110.06C281.445 111.826 280.762 113.511 279.729 115C278.734 116.623 274.703 119.407 273.776 119.623C272.85 119.839 271.516 121.938 271.516 121.938C271.516 121.938 265.262 131.926 257.848 134.919C253.584 136.823 252.77 134.566 252.77 134.566" fill="#F4BBA2"/>
<path d="M239.245 99.4802C239.245 99.4802 245.823 113.06 236.48 122.955L239.245 99.4802Z" fill="#893B20"/>
<path d="M196.6 118.808C196.6 118.808 204.134 119.652 205.641 121.224C205.895 120.528 206.029 119.798 206.04 119.061C206.04 119.061 201.158 116.854 196.999 116.897C196.8 117.52 196.666 118.16 196.6 118.808Z" fill="#E2B647"/>
<path d="M245.665 121.246C245.665 121.246 252.084 117.409 254.315 117.719C254.06 117.016 253.686 116.358 253.207 115.772C253.207 115.772 247.933 116.969 244.738 119.472C244.982 120.092 245.293 120.686 245.665 121.246Z" fill="#E2B647"/>
<path d="M212.151 140.927C212.151 140.927 224.771 125.457 225.713 120.633L212.151 140.927Z" fill="#893B20"/>
<path d="M223.167 140.927C223.167 140.927 210.313 162.671 207.54 177.181L223.167 140.927Z" fill="#893B20"/>
<path d="M229.752 150.41C229.752 150.41 221.712 163.522 223.167 199.285C224.621 235.049 225.224 240.905 225.224 240.905" fill="#893B20"/>
<path d="M231.65 148.247C231.65 148.247 231.394 199.538 228.674 216.038L231.65 148.247Z" fill="#893B20"/>
<path d="M233.142 173.106C233.142 173.106 232.886 224.397 230.128 240.898L233.142 173.106Z" fill="#893B20"/>
<path d="M233.609 145.42C233.609 145.42 238.13 214.481 228.674 239.34L233.609 145.42Z" fill="#893B20"/>
<path d="M230.159 152.574C230.159 152.574 225.005 226.135 226.934 235.258L230.159 152.574Z" fill="#CE6541"/>
<path d="M204.887 124.231L205.769 123.835C205.769 123.835 203.2 123.467 200.593 126.618C202.198 125.602 204.887 124.231 204.887 124.231Z" fill="#D19E8C"/>
<path d="M220.251 89.564C220.251 89.564 223.897 93.5377 228.335 93.2132C227.145 92.9463 223.724 92.355 218.94 86.6504L218.261 85.5037C218.261 85.5037 215.308 85.4388 214.004 83.9531C214.524 84.8835 215.73 86.3907 217.335 86.5205C217.644 87.7321 221.185 97.0282 212.814 98.5139C213.243 100.851 218.013 107.889 223.912 106.966C219.535 105.077 215.044 101.536 216.461 99.4803C217.877 97.4249 221.313 96.4152 220.251 89.564Z" fill="#D19E8C"/>
<path d="M228.335 78.7822C228.335 79.2005 228.064 79.5467 227.74 79.5467C227.416 79.5467 227.145 79.2005 227.145 78.7822C227.145 78.3639 227.409 78.061 227.74 78.061C228.072 78.061 228.335 78.3639 228.335 78.7822Z" fill="#ED6435"/>
<path d="M225.728 79.5466C225.728 79.5466 223.302 78.912 220.25 80.9385L225.728 79.5466Z" fill="black"/>
<path d="M225.615 80.9098C225.615 80.9098 223.664 80.34 221.275 82.6046L225.615 80.9098Z" fill="black"/>
<path d="M225.352 81.9556C225.352 82.1468 225.272 82.3303 225.131 82.4655C224.99 82.6008 224.798 82.6767 224.598 82.6767C224.398 82.6767 224.207 82.6008 224.065 82.4655C223.924 82.3303 223.845 82.1468 223.845 81.9556C223.845 81.7643 223.924 81.5808 224.065 81.4456C224.207 81.3103 224.398 81.2344 224.598 81.2344C224.798 81.2344 224.99 81.3103 225.131 81.4456C225.272 81.5808 225.352 81.7643 225.352 81.9556Z" fill="black"/>
<path d="M228.916 78.2919C228.916 78.2919 230.324 77.4482 233.368 79.4819L228.916 78.2919Z" fill="black"/>
<path d="M228.817 80.7583C228.817 80.7583 230.535 79.691 233.474 81.2559L228.817 80.7583Z" fill="black"/>
<path d="M230.724 81.1766C230.724 81.3449 230.794 81.5063 230.918 81.6253C231.042 81.7443 231.211 81.8112 231.387 81.8112C231.563 81.8112 231.731 81.7443 231.856 81.6253C231.98 81.5063 232.05 81.3449 232.05 81.1766C232.051 81.0929 232.034 81.01 232.001 80.9326C231.968 80.8551 231.92 80.7848 231.858 80.7256C231.796 80.6665 231.723 80.6198 231.642 80.5883C231.561 80.5567 231.474 80.5409 231.387 80.5419C231.299 80.5409 231.213 80.5567 231.132 80.5883C231.051 80.6198 230.977 80.6665 230.916 80.7256C230.854 80.7848 230.805 80.8551 230.772 80.9326C230.739 81.01 230.723 81.0929 230.724 81.1766Z" fill="black"/>
<path d="M227.74 85.7561C229.33 86.0157 229.857 85.2513 229.857 85.2513C229.582 84.3418 229.227 83.4563 228.795 82.6045C228.998 83.2896 229.096 85.1863 228.916 85.3162C228.534 85.4868 228.142 85.6338 227.74 85.7561Z" fill="#D19E8C"/>
<path d="M226.301 87.7465C226.301 87.7465 229.036 88.3884 231.138 87.2201C230.833 87.9399 230.33 88.5676 229.684 89.0375C229.482 89.1648 229.244 89.2289 229.002 89.2212C228.761 89.2134 228.528 89.1341 228.335 88.9942C227.992 88.7726 227.638 88.5679 227.273 88.3812L226.301 87.7465Z" fill="#B5542A"/>
<path d="M226.987 88.1937C226.987 88.1937 229.933 89.0592 230.754 87.6384C229.603 88.235 228.272 88.4312 226.987 88.1937Z" fill="#D8BFB6"/>
<path d="M216.19 84.7825C216.19 84.7825 213.801 88.6697 217.975 87.6672C216.544 87.4725 215.346 86.9028 216.19 84.7825Z" fill="#ED6435"/>
<path d="M241.159 122.955C239.674 125.556 237.27 127.565 234.378 128.623L241.159 122.955Z" fill="#893B20"/>
<path d="M244.941 102.091C244.941 102.091 245.695 112.433 241.491 128.595C232.366 163.738 206.297 160.68 205.792 188.835C207.54 186.571 205.4 190.876 205.4 190.876C205.4 190.876 213.469 172.789 225.615 162.692C239.132 151.456 247.601 125.912 247.187 103.865L244.941 102.091Z" fill="#E2B647"/>
<path d="M208.904 110.06C207.996 111.839 207.576 113.809 207.683 115.786L208.904 110.06Z" fill="#637C59"/>
<path d="M223.897 110.06C222.478 111.848 220.81 113.443 218.939 114.798L223.897 110.06Z" fill="#D19E8C"/>
<path d="M223.377 115.181C223.377 115.181 223.377 115.815 221.418 118.224L223.377 115.181Z" fill="#D19E8C"/>
<path d="M223.166 112.426C223.166 112.426 221.441 115.116 220.25 115.786L223.166 112.426Z" fill="#D19E8C"/>
<path d="M211.88 118.823C210.177 119.508 209.394 120.748 210.373 122.385C211.044 123.805 212.253 124.929 213.756 125.53H213.59C213.905 125.521 214.206 125.402 214.434 125.194C214.662 124.986 214.802 124.705 214.826 124.404C214.886 124.571 214.904 124.749 214.879 124.924C214.809 125.206 214.66 125.464 214.447 125.67C214.234 125.876 213.967 126.022 213.673 126.092H213.56C212.163 125.836 210.917 125.09 210.064 124.001C208.52 121.837 208.7 119.053 211.91 118.866L211.88 118.823Z" fill="#77976D"/>
<path d="M268.178 117.892C266.792 118.765 266.4 120.056 267.47 121.339C268.277 122.514 269.522 123.35 270.951 123.676H270.8C271.075 123.611 271.316 123.452 271.477 123.229C271.638 123.006 271.708 122.734 271.674 122.464C271.756 122.607 271.802 122.765 271.812 122.928C271.821 123.09 271.792 123.252 271.727 123.402C271.56 123.711 271.297 123.963 270.974 124.123H270.868C269.585 124.097 268.361 123.602 267.447 122.739C265.79 121.058 265.421 118.541 268.201 117.849L268.178 117.892Z" fill="#77976D"/>
<path d="M152.025 87.0614L153.042 96.783C153.042 96.783 140.091 99.7975 140.844 98.485C141.597 97.1724 139.993 89.4413 139.993 89.4413C139.993 89.4413 135.728 90.4942 135.283 88.9076C135.155 88.4388 135.178 86.7441 134.952 86.0229C134.824 85.5974 136.346 85.8065 136.376 85.4027C136.188 85.2296 134.327 85.4026 134.455 85.1214C134.688 84.4002 134.967 83.0444 134.967 83.0444C134.967 83.0444 133.603 83.2896 133.272 82.3232C132.94 81.3568 136.602 78.9553 136.075 77.6283C135.547 76.3013 138.335 70.6472 141.733 68.9741C143.119 68.3106 148.409 67.8058 149.855 68.563C153.969 70.7266 153.879 77.6644 153.321 78.8471C152.56 80.4121 152.025 87.0614 152.025 87.0614Z" fill="#AA815F"/>
<path d="M148.785 83.7585C148.785 83.7585 146.397 85.9797 144.626 85.8355C144.762 86.4629 147.542 85.5975 148.122 85.172C148.702 84.7465 149.275 83.3979 148.785 83.7585Z" fill="#7F6049"/>
<path d="M147.097 85.886C147.097 85.886 153.065 79.9218 146.645 80.7367C144.988 83.0517 143.684 82.7632 143.684 82.7632L143.172 81.9266C143.172 81.9266 151.46 74.8158 149.727 72.1618C147.994 69.5078 148.973 68.0366 150.797 68.4333C154.707 69.2915 155.898 70.0848 157.842 74.4984C159.786 78.9121 158.369 83.3041 151.671 88.4029C150.819 87.7611 147.135 89.4775 147.097 85.886Z" fill="#000507"/>
<path d="M137.28 76.5322C137.28 76.5322 137.137 76.6693 138.244 77.4049C138.802 77.8188 139.483 78.0535 140.188 78.0756C140.188 78.0756 139.593 77.1164 137.28 76.5322Z" fill="#000507"/>
<path d="M137.031 78.4938C137.031 78.4938 137.092 78.9337 138.689 79.7775C140.286 80.6212 137.212 78.5731 137.031 78.4938Z" fill="#000507"/>
<path d="M137.755 79.1428C137.755 79.1428 137.333 80.1524 137.694 80.4121C138.056 80.6717 138.071 79.3808 138.071 79.3808C138.071 79.3808 138.094 78.8759 137.755 79.1428Z" fill="#000507"/>
<path d="M146.729 81.9411C146.97 81.9988 148.665 81.0252 149.079 82.4387L146.729 81.9411Z" fill="#89684E"/>
<path d="M151.965 68.8514C148.74 67.6002 145.158 67.4751 141.846 68.4981C139.985 69.8178 138.832 70.7193 138.832 70.7193C138.832 70.7193 141.529 69.7169 142.758 70.1496C142.096 71.0956 141.678 72.178 141.537 73.3084C141.861 73.193 143.119 72.3925 143.722 72.7747C142.969 72.8324 142.215 76.8133 143.571 80.6645L143.835 81.6381C143.835 81.6381 152.236 78.3783 152.123 75.7893C152.01 73.2002 152.123 71.0366 151.889 70.8924C151.656 70.7482 153.08 68.9668 151.965 68.8514Z" fill="#000507"/>
<path d="M122.045 140.516C121.292 142.268 116.771 146.033 113.659 147.54C106.878 148.261 109.726 144.028 109.726 144.028L108.151 143.775C106.576 143.523 112.084 139.506 113.923 138.504C115.761 137.501 112.612 138.504 110.51 138.251C111.263 135.994 118.903 135.244 118.903 135.244C118.903 135.244 133.829 126.59 133.867 125.789C133.867 125.436 136.172 116.911 137.009 117.856C138.101 119.14 140.196 130.837 140.196 130.837L122.045 140.516Z" fill="#AA815F"/>
<path d="M124.411 228.717C127.429 227.827 130.373 226.723 133.219 225.414C132.307 225.306 135.057 225.233 135.057 225.233L133.144 185.294C131.682 168.375 134.387 142.564 134.387 142.564C134.914 137.516 145.169 137.126 148.838 140.638C152.507 144.151 145.93 176.517 145.666 192.073C145.553 198.982 151.829 224.289 151.829 225.248C151.829 225.616 151.37 225.868 150.616 226.027C151.49 228.594 153.886 229.849 152.62 232.272C149.207 233.275 125.496 233.527 123.356 232.993C121.216 232.46 124.411 228.717 124.411 228.717Z" fill="#1A2E4D"/>
<path d="M134.741 231.904C137.758 231.002 140.702 229.888 143.549 228.573L142.042 228.392L137.19 189.715C135.728 172.796 134.327 149.329 134.327 149.329C134.854 144.28 152.153 140.299 155.823 143.812C159.492 147.324 152.922 179.691 152.658 195.247C152.545 202.155 158.822 227.455 158.822 228.421C158.822 228.789 158.362 229.041 157.601 229.193C158.475 231.767 160.871 233.022 159.605 235.445C156.2 236.448 135.751 236.7 133.656 236.167C131.561 235.633 134.741 231.904 134.741 231.904Z" fill="#26405C"/>
<path d="M133.867 148.247L157.676 147.648C156.34 143.119 155.831 138.403 156.169 133.708C156.553 127.823 160.095 117.438 159.56 111.495C158.294 97.5114 152.779 93.8261 152.779 93.8261C152.779 93.8261 144.995 92.5496 140.279 97.7782C139.48 98.6653 134.341 114.459 135.238 123.575C136.044 131.724 134.914 141.951 133.867 148.247Z" fill="#1A2E4D"/>
<path d="M131.493 159.281C131.493 159.281 135.08 151.103 143.345 153.216C149.132 154.802 150.51 160.601 150.51 160.601L148.303 159.808C148.303 159.808 144.174 154.038 138.937 154.802C133.701 155.567 134.251 159.548 134.251 159.548L131.493 159.281Z" fill="#5A3428"/>
<path d="M143.172 104.594C143.172 104.594 139.608 97.0067 147.693 96.9346C155.777 96.8624 154.926 101.37 157.669 111.64C160.411 121.909 155.031 120.474 148.627 114.798C144.611 111.214 143.172 104.594 143.172 104.594Z" fill="#26405C"/>
<path d="M147.218 147.158L145.839 155.091L138.953 154.824C138.953 154.824 138.953 150.079 138.395 149.552C137.574 146.119 141.981 142.953 141.981 142.953C141.981 142.953 151.505 127.65 151.407 125.421C151.309 123.193 148.657 114.813 148.657 114.813C148.657 114.813 156.779 110.601 157.699 111.654C158.618 112.707 160.351 123.366 160.117 125.804C159.884 128.241 147.218 147.158 147.218 147.158Z" fill="#AA815F"/>
<path d="M158.776 171.678H124.328V163.24C124.328 162.616 124.457 161.999 124.706 161.423C124.956 160.846 125.322 160.323 125.783 159.882C126.244 159.441 126.791 159.092 127.394 158.854C127.996 158.616 128.642 158.494 129.293 158.495H153.818C155.133 158.495 156.394 158.995 157.324 159.885C158.254 160.775 158.776 161.982 158.776 163.24" fill="#592C16"/>
<path d="M157.676 166.406H125.436V177.037C125.436 180.34 125.857 183.022 128.449 183.022H154.715C157.277 183.022 157.729 180.34 157.729 177.037" fill="#592C16"/>
<path d="M144.995 170.495C144.995 171.159 144.72 171.796 144.23 172.265C143.739 172.734 143.074 172.998 142.381 172.998H139.623C138.93 172.998 138.265 172.734 137.775 172.265C137.284 171.796 137.009 171.159 137.009 170.495C137.008 170.166 137.075 169.84 137.206 169.536C137.337 169.231 137.529 168.954 137.772 168.721C138.015 168.488 138.303 168.303 138.621 168.177C138.939 168.051 139.279 167.986 139.623 167.986H142.351C142.695 167.986 143.035 168.051 143.353 168.177C143.671 168.303 143.959 168.488 144.202 168.721C144.445 168.954 144.638 169.231 144.768 169.536C144.899 169.84 144.966 170.166 144.965 170.495H144.995Z" fill="#A1825B"/>
<path d="M62.6577 86.2754C62.6577 86.2754 73.8315 90.8766 74.9014 94.5258L62.6577 86.2754Z" fill="#8FBDC1"/>
<path d="M153.479 94.5257C153.479 94.5257 154.414 91.915 152.364 91.4102C150.315 90.9054 139.669 90.5448 140.309 97.7566C143.767 95.1459 151.392 93.819 153.479 94.5257Z" fill="#223859"/>
<path d="M525.009 232.481C525.009 232.481 535.309 244.987 529.168 244.987C523.027 244.987 512.795 234.501 513.346 232.979C513.896 231.457 520.714 226.373 525.009 232.481Z" fill="#354654"/>
<path d="M527.27 235.467C527.27 235.467 528.52 240.833 524.798 240.162C522.11 239.738 519.393 239.497 516.668 239.441C516.668 239.441 525.341 232.517 527.27 235.467Z" fill="#B89683"/>
<path d="M483.411 238.085C483.411 238.085 473.111 250.59 479.259 250.59C485.407 250.59 495.632 240.104 495.082 238.583C494.532 237.061 487.713 231.977 483.411 238.085Z" fill="#354654"/>
<path d="M481.15 241.071C481.15 241.071 479.9 246.429 483.622 245.765C485.862 245.366 488.127 245.106 490.403 244.987C490.403 244.987 496.785 239.816 495.021 238.582C492.814 237.003 482.228 239.419 481.15 241.071Z" fill="#B89683"/>
<path d="M471.89 128.443C471.89 128.443 474.264 146.66 469.72 156.202C465.177 165.743 464.936 164.055 466.707 171.065C468.477 178.075 467.987 174.585 472.516 174.873C477.044 175.162 476.147 163.428 478.31 150.8C479.626 143.401 479.626 135.842 478.31 128.443C478.31 128.443 474.821 122.284 471.89 128.443Z" fill="#116051"/>
<path d="M514.559 190.342C514.559 190.342 521.814 207.651 524.791 220.034C527.767 232.416 531.308 234.364 528.776 235.092C526.245 235.82 527.367 235.092 524.791 237.025C522.214 238.957 518.258 241.857 514.559 240.407C513.433 239.992 512.227 239.812 511.022 239.879C509.818 239.946 508.642 240.259 507.574 240.797C506.768 234.353 505.335 227.996 503.294 221.808C500.009 212.144 494.336 192.008 494.336 192.008C494.336 192.008 502.029 220.358 502.029 229.784C502.029 239.21 502.029 241.438 499.505 240.804C496.981 240.169 495.971 239.708 491.676 240.905C487.381 242.102 477.745 246.941 479.259 240.652C480.774 234.364 483.855 237.768 481.083 227.606C478.766 218.907 477.41 210 477.036 201.03C476.773 194.496 474.558 180.116 474.558 180.116C474.558 180.116 508.923 182.078 514.559 190.342Z" fill="#177F6E"/>
<path d="M474.557 109.447C473.123 109.554 471.73 109.957 470.473 110.628C469.217 111.299 468.127 112.222 467.279 113.334C463.278 118.339 461.726 125.717 461.726 125.717C461.726 125.717 465.41 129.684 466.895 129.496C468.078 129.345 470.979 123.727 470.979 123.727C470.979 123.727 470.142 130.08 476.027 132.655C476.027 132.655 479.259 138.525 476.931 149.163C475.318 156.533 469.313 185.806 474.557 203.692C474.557 203.692 481.58 194.843 497.741 198.578C516.42 202.906 518.213 195.874 518.213 195.874C518.213 195.874 508.591 149.718 502.285 139.622C497.583 132.1 499 125.169 499.489 123.727C499.979 122.284 497.726 116.789 497.726 116.789L499.489 127.333L506.489 127.506C506.489 127.506 506.15 111.531 501.524 108.034C498.555 105.776 490.418 104.651 490.418 104.651C490.418 104.651 490.162 113.104 486.65 114.431C483.139 115.757 476.072 117.907 474.557 109.447Z" fill="#D61822"/>
<path d="M474.558 109.447C474.558 109.447 478.807 107.283 477.293 104.622C475.778 101.961 473.397 101.831 477.617 99.574C481.836 97.3167 485.038 90.826 485.038 91.5472C485.038 92.2684 483.531 104.442 490.418 104.601C497.304 104.759 492.678 115.116 488.655 116.745C484.631 118.375 475.612 117.423 474.558 109.447Z" fill="#9E8071"/>
<path d="M475.575 108.812C474.101 109.278 472.652 109.815 471.235 110.421C469.728 111.142 469.125 110.861 468.447 111.625C466.541 113.789 472.546 117.308 473.503 123.719C474.392 129.64 488.903 144.879 493.447 139.585C497.99 134.292 495.541 103.483 502.104 111.048C505.984 115.519 505.193 119.919 505.984 130.621C506.542 138.194 507.092 153.548 508.335 156.165C511.349 162.57 516.668 159.187 518.944 164.019C521.219 168.851 527.774 173.683 523.231 161.856C518.688 150.028 514.649 143.97 511.62 132.136C508.591 120.301 505.329 104.586 495.745 104.594C491.721 104.594 495.466 113.522 487.389 116.738C479.312 119.955 476.584 111.712 475.575 108.812Z" fill="#177F6E"/>
<path d="M479.056 90.4438C481.28 92.1229 483.055 94.2843 484.234 96.7497C485.413 99.2151 485.962 101.914 485.837 104.622C485.656 110.457 484.865 120.546 485.92 122.5C486.673 123.856 485.543 131.371 486.507 136.571C487.427 141.54 491.488 148.982 491.427 147.627C491.299 144.85 497.5 152.336 498.367 149.559C499.233 146.783 497.546 135.741 496.476 131.804C495.406 127.866 491.427 115.938 491.427 114.041C491.427 112.144 490.674 106.072 490.433 103.288C490.192 100.504 489.22 89.5207 485.264 84.8474" fill="black"/>
<path d="M482.16 152.444C482.16 152.444 477.798 154.824 479.289 152.927C480.42 151.485 481.919 150.951 488.994 147.987C496.069 145.023 498.57 141.453 499.286 139.008C500.002 136.564 499.49 127.332 499.49 127.332C505.736 126.611 505.766 127.217 505.766 127.217C506.048 131.362 506.048 135.52 505.766 139.665C505.261 146.033 492.249 149.437 490.795 151.831C488.926 154.911 485.649 157.983 484.368 158.56C484.368 158.56 482.582 159.461 485.49 156.238" fill="#B89683"/>
<path d="M470.225 92.0521C470.336 94.2009 470.927 96.302 471.958 98.214C472.989 100.126 474.435 101.805 476.2 103.137C480.367 106.151 484.541 104.132 484.835 98.9394C485.151 93.2637 483.795 87.6456 481.391 87.285C476.66 86.5638 482.19 87.7033 478.589 86.4989C474.987 85.2946 469.419 86.9821 470.225 92.0521Z" fill="#B89683"/>
<path d="M479.282 97.9008C478.219 99.1629 477.248 98.9177 477.248 98.9177C476.801 98.0204 476.433 97.0893 476.147 96.1339C476.487 96.7974 477.376 98.5138 477.609 98.485C477.843 98.4561 479.282 97.9008 479.282 97.9008Z" fill="#9B7C6D"/>
<path d="M481.859 98.485C481.859 98.485 480.186 100.814 477.677 101.312C478.448 101.669 479.303 101.823 480.156 101.759C480.407 101.724 480.64 101.615 480.822 101.447C481.004 101.279 481.127 101.06 481.173 100.822C481.28 100.419 481.409 100.022 481.558 99.6317L481.859 98.485Z" fill="#B73F40"/>
<path d="M481.648 99.3C481.648 99.3 479.967 101.954 478.317 101.377C479.644 101.072 480.82 100.338 481.648 99.3Z" fill="#D8BFB6"/>
<path d="M476.886 91.6194C476.886 91.6194 477.73 90.3933 481.105 90.9919L476.886 91.6194Z" fill="black"/>
<path d="M477.79 93.7541C477.79 93.7541 478.807 92.2323 481.911 92.4775L477.79 93.7541Z" fill="black"/>
<path d="M478.498 93.7901C478.53 93.8608 478.576 93.9247 478.634 93.9781C478.692 94.0314 478.761 94.0731 478.836 94.1007C478.911 94.1282 478.991 94.1411 479.072 94.1386C479.152 94.136 479.231 94.1181 479.304 94.0858C479.453 94.0213 479.569 93.9031 479.626 93.7573C479.684 93.6114 479.68 93.4495 479.613 93.3069C479.58 93.2365 479.532 93.1732 479.473 93.1205C479.414 93.0679 479.345 93.0269 479.269 93.0001C479.194 92.9733 479.113 92.9611 479.032 92.9642C478.952 92.9674 478.873 92.9858 478.8 93.0184C478.726 93.0495 478.66 93.0944 478.605 93.1502C478.55 93.2061 478.508 93.2719 478.48 93.3437C478.451 93.4156 478.439 93.492 478.442 93.5687C478.445 93.6453 478.464 93.7206 478.498 93.7901Z" fill="black"/>
<path d="M474.347 92.9103C474.347 92.9103 473.051 92.6939 471.454 95.0738L474.347 92.9103Z" fill="black"/>
<path d="M475.191 94.7061C475.191 94.7061 473.609 94.4176 471.943 96.4008L475.191 94.7061Z" fill="black"/>
<path d="M473.932 95.6002C473.959 95.6612 473.973 95.7268 473.973 95.793C473.974 95.8593 473.96 95.9249 473.933 95.986C473.907 96.0471 473.868 96.1026 473.818 96.149C473.769 96.1955 473.71 96.232 473.646 96.2565C473.518 96.3044 473.375 96.3026 473.249 96.2514C473.122 96.2003 473.021 96.1038 472.968 95.9825C472.941 95.9215 472.927 95.8559 472.927 95.7897C472.927 95.7235 472.94 95.6578 472.967 95.5967C472.994 95.5356 473.033 95.4802 473.082 95.4337C473.131 95.3873 473.19 95.3507 473.254 95.3262C473.382 95.2783 473.525 95.2801 473.651 95.3313C473.778 95.3824 473.879 95.479 473.932 95.6002Z" fill="black"/>
<path d="M470.73 82.7127C469.042 84.385 468.053 86.5916 467.95 88.9149C467.95 92.5208 471.34 97.973 471.34 97.973C471.34 97.973 471.122 89.8741 473.073 87.7033C475.025 85.5326 482.589 90.8477 482.589 90.8477C482.589 90.8477 487.11 94.2228 486.884 97.973C486.658 101.723 490.651 99.5452 488.655 93.0185C486.658 86.4917 485.927 85.2874 484.262 83.8378C482.597 82.3882 476.532 78.2919 470.73 82.7127Z" fill="black"/>
<path d="M485.483 154.694C485.483 154.694 480.051 159.288 479.561 158.437C479.071 157.586 486.628 151.817 478.928 157.449C477.858 157.053 482.575 152.314 482.575 152.314C482.575 152.314 485.649 150.728 485.483 154.694Z" fill="#B89683"/>
<path d="M487.653 154.471C487.653 154.471 481.354 159.743 481.105 159.014C480.857 158.286 482.507 157.406 484.421 155.502C485.973 153.959 485.747 152.185 487.653 154.471Z" fill="#B89683"/>
<path d="M482.341 98.6365C482.335 98.7201 482.296 98.7982 482.231 98.8546C482.167 98.9111 482.082 98.9415 481.995 98.9394C481.907 98.9415 481.822 98.9111 481.758 98.8546C481.693 98.7982 481.654 98.7201 481.648 98.6365C481.654 98.5536 481.693 98.4762 481.758 98.4209C481.823 98.3656 481.908 98.3369 481.995 98.3408C482.081 98.3369 482.166 98.3656 482.231 98.4209C482.296 98.4762 482.335 98.5536 482.341 98.6365Z" fill="#9B7C6D"/>
<path d="M477.866 101.254C477.864 101.296 477.853 101.337 477.835 101.375C477.816 101.413 477.79 101.447 477.758 101.475C477.726 101.503 477.688 101.525 477.647 101.539C477.606 101.553 477.562 101.559 477.519 101.557C477.432 101.559 477.347 101.529 477.282 101.473C477.217 101.416 477.178 101.338 477.172 101.254C477.178 101.171 477.217 101.093 477.282 101.036C477.347 100.98 477.432 100.949 477.519 100.952C477.562 100.95 477.606 100.956 477.647 100.97C477.688 100.984 477.726 101.006 477.758 101.034C477.79 101.062 477.816 101.096 477.835 101.134C477.853 101.172 477.864 101.213 477.866 101.254Z" fill="#9B7C6D"/>
<path d="M483.185 91.9944C483.185 91.9944 484.692 89.3044 485.287 91.0497C485.882 92.795 485.709 95.7013 484.7 95.7013" fill="#B89683"/>
<path d="M485.875 94.9151C485.882 95.005 485.87 95.0953 485.84 95.1807C485.81 95.2661 485.762 95.3447 485.699 95.412C485.637 95.4793 485.561 95.5339 485.476 95.5724C485.39 95.611 485.298 95.6327 485.204 95.6363C485.11 95.6337 485.017 95.6127 484.931 95.5745C484.846 95.5363 484.769 95.4817 484.706 95.4142C484.643 95.3467 484.596 95.2676 484.566 95.1817C484.536 95.0959 484.525 95.0052 484.533 94.9151C484.529 94.8277 484.544 94.7405 484.575 94.6584C484.607 94.5764 484.656 94.5013 484.718 94.4374C484.781 94.3736 484.856 94.3224 484.939 94.2868C485.023 94.2511 485.113 94.2318 485.204 94.23C485.295 94.2328 485.385 94.2527 485.468 94.2887C485.551 94.3247 485.625 94.3759 485.688 94.4395C485.75 94.5032 485.798 94.5779 485.831 94.6595C485.863 94.7411 485.878 94.828 485.875 94.9151Z" fill="#B73F40"/>
<path d="M471.612 99.8049C471.669 99.8598 471.737 99.9034 471.812 99.9331C471.887 99.9629 471.967 99.9782 472.049 99.9782C472.13 99.9782 472.21 99.9629 472.285 99.9331C472.36 99.9034 472.428 99.8598 472.486 99.8049C472.591 99.6848 472.643 99.5297 472.63 99.3733C472.618 99.2168 472.541 99.0714 472.418 98.9683C472.301 98.8568 472.142 98.7943 471.977 98.7943C471.812 98.7943 471.653 98.8568 471.536 98.9683C471.432 99.0893 471.381 99.2448 471.395 99.4013C471.409 99.5578 471.487 99.7028 471.612 99.8049Z" fill="#B73F40"/>
<path d="M471.823 96.646C471.823 96.646 467.114 94.2301 471.521 98.9682C472.079 99.6245 472.493 98.6581 472.493 98.6581L471.823 96.646Z" fill="#B89683"/>
<path d="M453.31 164.38C453.31 164.38 451.63 189.506 448.94 214.632C446.25 239.758 452.64 242.664 452.64 242.664L450.959 243.306C450.959 243.306 461.387 250.396 454.998 252.328C448.609 254.261 444.894 252.97 438.166 246.206C437.156 244.273 434.76 209.966 436.523 190.754C437.201 183.369 436.651 179.763 436.651 179.763C435.915 187.535 434.401 195.222 432.131 202.718C428.431 214.632 424.393 233.642 426.743 242.664C425.063 244.915 419.005 255.228 412.608 255.228C406.212 255.228 404.531 249.747 413.618 243.306L412.608 242.34C412.608 242.34 418.636 176.618 418.636 172.111C418.636 114.69 422.886 159.274 418.636 159.548C413.595 159.872 453.649 156.007 453.31 164.38Z" fill="black"/>
<path d="M445.866 103.591C445.866 103.591 445.233 100.028 444.359 99.848C443.485 99.6677 431.739 95.5209 429.592 98.6364C427.444 101.752 427.889 102.084 429.908 103.533C431.927 104.983 435.898 112.05 438.196 112.469C439.87 112.7 441.571 112.288 442.928 111.322C443.116 111.084 447.448 106.49 447.343 105.892C446.951 105.07 446.455 104.297 445.866 103.591Z" fill="#255A8E"/>
<path d="M432.485 91.8141C432.485 91.8141 431.852 99.9058 428.951 100.757C429.328 105.466 437.789 114.041 440.185 113.918C442.581 113.796 445.241 110.024 445.241 110.024C445.241 110.024 452.286 105.524 447.554 104.024C442.468 102.416 443.35 98.7952 443.855 95.8888C444.359 92.9824 433.871 87.7033 432.485 91.8141Z" fill="#A38474"/>
<path d="M427.399 101.153C427.399 101.153 420.248 102.04 416.798 103.173C413.347 104.305 409.052 110.341 406.189 120.243C403.326 130.145 401.736 135.547 405.94 136.355C410.145 137.162 420.919 132.886 423.775 129.265L419.487 132.15C418.101 133.592 415.682 166.32 416.835 166.457C444.984 169.839 455.201 165.13 455.201 165.13C455.201 165.13 455.081 145.196 454.448 144.836C464.039 146.646 462.736 140.847 463.241 133.116C462.985 125.14 459.473 111.481 456.844 107.384C454.214 103.288 447.004 102.192 447.004 102.192L443.907 107.507C443.907 107.507 439.552 112.7 438.354 111.791C437.156 110.882 427.399 101.153 427.399 101.153Z" fill="#3CC6C2"/>
<path d="M462.231 124.448L460.551 128.457C460.551 128.457 454.154 127.844 450.281 127.614C446.409 127.383 448.435 132.662 448.435 132.662C448.435 132.662 460.958 136.088 462.751 135.662C464.544 135.237 467.973 128.45 467.973 128.45C467.973 128.45 464.416 123.784 462.231 124.448Z" fill="#B89683"/>
<path d="M439.68 83.1959C439.68 83.1959 444.774 82.0059 445.949 86.2177C446.326 90.4438 446.296 89.2971 446.499 87.7898C446.499 87.7898 449.551 81.4362 446.499 77.8591C443.448 74.2821 441.692 73.1354 435.197 73.9359C432.839 74.4191 429.26 75.746 428.13 79.0491C426.623 83.2969 427.738 90.7179 431.068 93.0184C431.4 93.2268 431.669 93.5151 431.847 93.8544C432.026 94.1937 432.108 94.5719 432.085 94.9512C432.085 94.9512 435.717 85.0277 439.68 83.1959Z" fill="black"/>
<path d="M446.122 83.2609C446.122 83.2609 448.435 97.735 441.534 99.3866C437.706 99.6678 432.952 97.3673 431.287 91.9656C430.352 93.2998 427.225 86.6649 430.164 87.9053C431.95 89.8669 430.586 83.6647 436.644 83.1815C442.701 82.6984 442.837 80.4554 442.837 80.4554C443.559 80.6773 444.224 81.0416 444.79 81.5249C445.356 82.0081 445.81 82.5995 446.122 83.2609Z" fill="#BF9C88"/>
<path d="M442.378 80.78C442.378 80.78 443.297 79.5684 441.195 77.5563C442.511 78.5694 443.406 79.999 443.719 81.5877C443.719 81.5877 443.214 82.7128 442.378 80.78Z" fill="#BF9C88"/>
<path d="M440.245 92.5065C441.096 92.5025 441.937 92.3229 442.709 91.98C442.111 90.9736 441.439 90.0096 440.697 89.0952C441.059 89.7443 442.008 91.4247 441.85 91.5978C441.333 91.9293 440.798 92.2327 440.245 92.5065Z" fill="#9B7C6D"/>
<path d="M438.512 94.4176C438.512 94.4176 441.405 95.4345 443.598 93.8551C443.169 94.6556 443.297 95.4561 442.573 96.0619C441.796 96.3839 440.923 96.4248 440.117 96.1773C439.506 95.6589 438.966 95.0675 438.512 94.4176Z" fill="#8E7265"/>
<path d="M441.956 87.9629C441.956 87.9629 443.334 86.7297 446.273 87.6961L441.956 87.9629Z" fill="black"/>
<path d="M443.734 88.2442C443.747 88.3207 443.777 88.394 443.82 88.4595C443.864 88.5251 443.92 88.5817 443.987 88.626C444.054 88.6704 444.129 88.7015 444.208 88.7176C444.288 88.7338 444.37 88.7347 444.449 88.7202C444.608 88.692 444.75 88.6052 444.843 88.4785C444.936 88.3517 444.973 88.1951 444.947 88.0422C444.917 87.8885 444.825 87.7521 444.691 87.6629C444.557 87.5737 444.392 87.5389 444.231 87.5662C444.152 87.5793 444.076 87.6072 444.008 87.6484C443.94 87.6896 443.881 87.7433 443.835 87.8063C443.789 87.8693 443.756 87.9404 443.739 88.0155C443.721 88.0907 443.719 88.1684 443.734 88.2442Z" fill="black"/>
<path d="M432.673 88.2874C434.572 86.3835 434.933 86.2681 437.035 86.297C437.035 86.297 437.427 86.8162 436.184 86.8307C434.893 86.9894 433.676 87.4944 432.673 88.2874Z" fill="black"/>
<path d="M446.175 86.737C444.299 85.2513 443.915 85.1864 442.129 85.4244C442.129 85.4244 441.843 85.9076 442.935 85.7994C444.087 85.8093 445.211 86.1347 446.175 86.737Z" fill="black"/>
<path d="M437.548 88.5543C437.548 88.5543 435.815 87.8332 433.396 89.7227L437.548 88.5543Z" fill="black"/>
<path d="M436.952 88.9653C436.973 89.0442 436.977 89.1263 436.963 89.2065C436.949 89.2868 436.917 89.3632 436.87 89.4311C436.824 89.499 436.762 89.5568 436.691 89.6008C436.619 89.6448 436.539 89.674 436.455 89.6865C436.296 89.7118 436.132 89.676 435.999 89.587C435.867 89.498 435.776 89.3629 435.747 89.2105C435.728 89.1318 435.726 89.0503 435.742 88.9709C435.757 88.8915 435.788 88.8158 435.835 88.7484C435.881 88.681 435.942 88.6234 436.012 88.5789C436.082 88.5343 436.161 88.5039 436.244 88.4894C436.323 88.4749 436.405 88.4758 436.484 88.492C436.563 88.5082 436.638 88.5395 436.704 88.5839C436.77 88.6283 436.826 88.6849 436.868 88.7504C436.911 88.816 436.94 88.889 436.952 88.9653Z" fill="black"/>
<path d="M431.347 97.3673C431.347 97.3673 426.216 97.2086 427.06 105.985C428.913 107.356 430.337 104.319 438.361 111.805C437.028 108.784 427.911 100.432 431.347 97.3673Z" fill="#336BAF"/>
<path d="M443.289 99.4659C443.289 99.4659 449.272 98.7447 448.436 107.522C446.582 108.885 441.956 109.757 439.115 111.849C440.464 109.447 446.748 102.524 443.289 99.4659Z" fill="#336BAF"/>
<path d="M439.808 111.805H438.354V167.56H439.808V111.805Z" fill="#336BAF"/>
<path d="M442.461 116.818C442.461 116.818 439.68 112.49 438.038 112.837C436.395 113.183 427.776 117.164 428.409 117.748C429.042 118.332 443.47 119.479 442.461 116.818Z" fill="#BF9C88"/>
<path d="M422.893 142.917L423.149 117.546L458.743 117.301V142.434L422.893 142.917Z" fill="black"/>
<path d="M457.688 142.477C457.688 142.477 454.674 145.456 451.042 144.893C449.535 144.735 447.004 141.915 446.416 141.59C445.662 140.927 444.984 140.386 449.43 141.835C450.688 142.16 448.247 139.823 448.503 138.857C448.759 137.891 452.459 136.924 455.902 141.107C457.1 141.987 457.688 142.477 457.688 142.477Z" fill="#BF9C88"/>
<path d="M439.68 161.228C439.68 161.589 439.454 161.892 439.175 161.892C438.896 161.892 438.67 161.589 438.67 161.228C438.67 160.868 438.896 160.557 439.175 160.557C439.454 160.557 439.68 160.853 439.68 161.228Z" fill="#A1C3E5"/>
<path d="M439.552 150.886C439.552 151.254 439.334 151.55 439.047 151.55C438.761 151.55 438.542 151.254 438.542 150.886C438.542 150.519 438.769 150.223 439.047 150.223C439.326 150.223 439.552 150.519 439.552 150.886Z" fill="#A1C3E5"/>
<path d="M438.896 94.7349C438.896 94.7349 441.956 95.9248 443.478 94.0137C443.25 94.3738 442.945 94.683 442.583 94.9207C442.22 95.1583 441.808 95.3187 441.375 95.3912C440.5 95.4067 439.639 95.1787 438.896 94.7349Z" fill="#CCBEB8"/>
<path d="M430.548 88.1072C430.548 88.1072 431.392 89.6361 431.302 90.2708C431.211 90.9054 432.146 90.1121 432.146 90.1121C432.146 90.1121 431.467 86.0879 432.522 84.9989C433.577 83.9099 430.3 87.7033 430.548 88.1072Z" fill="black"/>
<path d="M473.676 87.4654C473.195 86.0991 472.829 84.6978 472.583 83.2753C473.171 87.0615 472.998 88.1072 472.998 88.1072L473.676 87.4654Z" fill="#BF9C88"/>
<path d="M450.515 166.954C450.515 166.954 446.22 187.371 446.092 206.461C445.964 225.551 444.834 238.835 446.476 242.34L448.111 245.845C448.111 245.845 456.445 250.893 453.386 252.61C456.399 252.732 457.906 250.446 454.523 247.172C451.14 243.898 450.229 243.566 450.229 243.566L450.733 242.239C450.733 242.239 443.538 229.193 450.605 193.198C451.359 184.378 453.009 166.017 453.009 166.017L450.515 166.954Z" fill="#261F1C"/>
<path d="M422.351 119.436C419.036 120.706 415.827 122.215 412.751 123.95C415.765 121.21 417.468 116.378 417.468 116.378L416.119 121.051L422.351 119.436Z" fill="#34A59F"/>
<path d="M446.499 86.9461C446.499 86.9461 447.38 85.9653 447.539 87.1769C447.735 88.6193 447.629 91.6482 446.205 91.7636" fill="#BF9C88"/>
<path d="M293.585 89.6506C293.585 89.6506 289.531 92.2396 291.634 101.435C293.736 110.63 298.837 119.392 298.837 119.392C298.837 119.392 303.357 111.459 304.992 108.906C306.627 106.353 312.647 91.9512 312.195 91.9512C311.743 91.9512 308.895 87.9269 307.614 88.0712C306.861 88.1577 303.681 92.5714 300.487 93.6026C298.573 94.2229 298.648 94.2301 293.585 89.6506Z" fill="#D6D2D0"/>
<path d="M295.235 86.2754C295.468 86.9191 295.562 87.6016 295.51 88.2812C295.458 88.9608 295.262 89.623 294.934 90.2275C296.358 92.2396 299.921 93.8334 299.921 93.8334C299.921 93.8334 303.418 91.6698 304.54 90.8188C305.663 89.9678 307.614 88.0856 307.614 88.0856C307.614 88.0856 305.663 83.3402 306.266 80.1093C303.041 83.3402 295.235 86.2754 295.235 86.2754Z" fill="#9E8075"/>
<path d="M290.955 70.2578C290.955 70.2578 288.853 62.9306 293.215 61.3512C297.578 59.7718 300.795 58.9064 304.999 60.7743C309.204 62.6422 313.099 66.6664 311.6 72.984C310.644 76.8655 308.847 80.5117 306.326 83.6863C306.106 82.1419 305.529 80.6638 304.638 79.3592C303.289 77.6356 304.826 76.9865 304.826 73.8277C304.826 70.6689 304.525 67.0774 300.923 67.7914C297.322 68.5054 292.213 67.9357 292.213 67.9357C291.86 68.741 291.439 69.5176 290.955 70.2578Z" fill="black"/>
<path d="M291.106 69.039C291.106 69.039 290.578 71.0439 290.88 71.9815C291.219 73.0272 290.428 77.1524 291.633 81.1766C292.839 85.2008 295.084 87.2778 298.414 87.5663C302.392 87.5663 306.973 81.7535 306.973 79.4529C307.692 78.8675 308.323 78.1905 308.85 77.4408C309.648 76.1139 309.528 74.8013 306.747 75.2124C305.912 74.0283 305.373 72.676 305.173 71.2603C304.871 69.3924 306.747 66.212 302.091 66.9909C297.435 67.7697 297.141 68.1015 295.114 67.3082C294.736 67.1393 294.324 67.0505 293.906 67.048C293.489 67.0455 293.076 67.1293 292.695 67.2936C292.315 67.4579 291.976 67.6989 291.701 68.0001C291.427 68.3014 291.224 68.6557 291.106 69.039Z" fill="#C4A091"/>
<path d="M296.712 80.6573C295.982 80.8785 295.21 80.9449 294.451 80.852C294.675 79.8423 294.975 78.8493 295.348 77.8807C295.22 78.5298 294.888 80.2029 295.077 80.3039C295.613 80.4553 296.159 80.5734 296.712 80.6573Z" fill="#9B7C6D"/>
<path d="M299.349 82.5108C299.349 82.5108 296.553 83.4339 294.172 82.4459C294.692 82.994 294.655 83.5782 295.446 83.9604C296.268 84.1402 297.124 84.1129 297.932 83.8811C298.468 83.4888 298.944 83.0277 299.349 82.5108Z" fill="#8E7265"/>
<path d="M297.563 73.8854C297.563 73.8854 298.701 73.2003 301.165 74.8374L297.563 73.8854Z" fill="black"/>
<path d="M297.45 75.8976C297.45 75.8976 298.836 75.0393 301.217 76.3014L297.45 75.8976Z" fill="black"/>
<path d="M297.978 76.359C297.978 76.4967 298.035 76.6288 298.136 76.7262C298.238 76.8236 298.376 76.8783 298.52 76.8783C298.591 76.8783 298.661 76.8648 298.726 76.8386C298.792 76.8124 298.851 76.7741 298.901 76.7258C298.951 76.6775 298.99 76.6202 299.016 76.5572C299.043 76.4942 299.056 76.4269 299.055 76.359C299.055 76.2232 298.999 76.093 298.898 75.9969C298.798 75.9009 298.662 75.847 298.52 75.847C298.449 75.846 298.379 75.8586 298.313 75.8839C298.247 75.9092 298.187 75.9467 298.137 75.9944C298.086 76.042 298.046 76.0988 298.019 76.1614C297.992 76.224 297.978 76.2912 297.978 76.359Z" fill="black"/>
<path d="M294.233 74.5345C294.233 74.5345 293.276 73.9576 291.219 75.3351L294.233 74.5345Z" fill="black"/>
<path d="M294.3 76.2293C294.3 76.2293 293.132 75.5081 291.136 76.561L294.3 76.2293Z" fill="black"/>
<path d="M292.665 76.6836C292.665 76.7984 292.618 76.9084 292.533 76.9896C292.448 77.0707 292.333 77.1163 292.213 77.1163C292.154 77.1163 292.095 77.1051 292.04 77.0834C291.985 77.0616 291.936 77.0297 291.894 76.9896C291.852 76.9494 291.818 76.9017 291.796 76.8492C291.773 76.7967 291.761 76.7404 291.761 76.6836C291.761 76.6268 291.773 76.5705 291.796 76.518C291.818 76.4655 291.852 76.4178 291.894 76.3776C291.936 76.3374 291.985 76.3056 292.04 76.2838C292.095 76.2621 292.154 76.2509 292.213 76.2509C292.333 76.2509 292.448 76.2965 292.533 76.3776C292.618 76.4588 292.665 76.5688 292.665 76.6836Z" fill="black"/>
<path d="M301.541 74.6715H296.365V77.8736H301.541V74.6715Z" stroke="black" stroke-width="1.04" stroke-miterlimit="10"/>
<path d="M294.564 74.5994H290.059V77.8014H294.564V74.5994Z" stroke="black" stroke-width="0.97" stroke-miterlimit="10"/>
<path d="M294.112 74.6571H297.111" stroke="black" stroke-width="0.97" stroke-miterlimit="10"/>
<path d="M301.24 74.7797H306.868" stroke="black" stroke-width="0.97" stroke-miterlimit="10"/>
<path d="M327.392 133.145C328.824 132.193 329.419 125.818 328.741 118.058C328.083 112.012 327.077 106.005 325.727 100.065C324.152 94.2518 308.955 88.4318 308.955 88.4318C310.869 87.9991 319.873 105.019 319.873 105.019C320.099 107.385 323.926 155.444 327.302 163.435C307.267 168.397 283.172 165.375 283.172 165.375L284.076 133.701C284.076 133.701 280.588 133.484 274.507 133.268C269.662 128.313 276.534 102.019 278.222 97.9298C279.909 93.8407 282.501 94.158 285.425 93.0763C286.896 92.6533 288.328 92.113 289.704 91.4608C291.053 90.7396 293.607 89.6651 293.607 89.6651C293.607 89.6651 296.568 115.166 298.821 116.565C301.074 117.964 304.223 121.758 307.712 124.217C315.345 129.59 323.678 135.626 327.392 133.145Z" fill="#060708"/>
<path d="M309.942 90.8043C304.728 105.992 304.63 109.029 300.712 115.152C297.337 120.431 298.836 119.392 298.836 119.392C298.836 119.392 310.477 126.294 311.291 127.325C313.77 130.455 318.275 131.097 318.275 131.097C318.275 131.097 324.243 137.458 325.365 127.65C326.11 119.645 325.92 111.585 324.8 103.62C324.356 101.579 323.339 96.8335 321.877 96.2926C320.415 95.7517 312.76 87.8907 309.942 90.8043Z" fill="#060708"/>
<path d="M286.381 165.505C286.144 174.929 286.746 184.355 288.182 193.682C290.578 210.06 294.481 235.921 291.784 243.104C292.085 243.386 292.085 244.828 292.085 244.828C292.085 244.828 292.085 248.845 291.181 249.155C290.277 249.465 284.581 252.04 288.167 253.756C291.754 255.473 300.17 255.48 307.976 249.732C309.483 248.585 311.879 247.431 310.379 238.236C308.88 229.041 303.477 177.037 303.477 177.037C303.477 177.037 304.073 177.325 306.175 189.967C308.277 202.61 309.475 208.358 311.276 217.841C312.64 225.342 313.443 232.927 313.679 240.537C313.679 243.126 316.083 248.867 316.083 248.867C316.083 248.867 318.185 249.732 319.986 253.194C321.786 256.655 332.29 262.966 334.392 260.665C336.494 258.365 337.406 255.783 331.694 248.023C334.995 248.023 335.296 242.563 333.797 234.804C332.297 227.044 326.586 214.401 325.991 203.793C325.396 193.184 323.286 162.13 323.286 162.13L286.381 165.505Z" fill="#060708"/>
<path d="M283.828 94.4608C283.828 94.4608 285.176 118.815 284.28 119.89C283.014 121.13 281.66 122.284 280.226 123.344C280.226 123.344 293.51 122.263 298.234 122.046C298.234 120.755 295.084 112.57 292.605 108.041C290.127 103.512 288.085 99.3865 288.085 99.3865L293.035 94.6411L289.433 92.4775C289.433 92.4775 285.628 94.4608 283.828 94.4608Z" fill="#27282D"/>
</svg>
