<svg width="41" height="35" viewBox="0 0 41 35" fill="none" xmlns="http://www.w3.org/2000/svg">
<path d="M32.0647 17.4187C27.4175 17.4187 23.6294 21.1986 23.6294 25.854C23.6294 30.5093 27.4093 34.2892 32.0647 34.2892C36.7118 34.2892 40.4999 30.5093 40.4999 25.854C40.4999 21.1986 36.7118 17.4187 32.0647 17.4187ZM32.0647 32.2765C28.522 32.2765 25.6339 29.3884 25.6339 25.8458C25.6339 22.3031 28.522 19.415 32.0647 19.415C35.6073 19.415 38.4954 22.3031 38.4954 25.8458C38.4954 29.3884 35.6073 32.2765 32.0647 32.2765Z" fill="#D80000"/>
<path d="M35.2231 24.8476H31.0423L31.6232 24.2094C31.9995 23.8003 31.9668 23.1703 31.5577 22.794C31.1486 22.4176 30.5187 22.4503 30.1423 22.8594L28.0314 25.1748C27.6796 25.5594 27.6796 26.1403 28.0314 26.5248L30.1423 28.8402C30.3387 29.0611 30.6086 29.1675 30.8868 29.1675C31.1241 29.1675 31.3695 29.0775 31.5659 28.9056C31.975 28.5293 32.0077 27.8993 31.6314 27.4902L31.0505 26.8521H35.2231C35.7794 26.8521 36.2294 26.4021 36.2294 25.8457C36.2294 25.2894 35.7794 24.8476 35.2231 24.8476Z" fill="#D80000"/>
<path d="M28.1866 0H6.09624C3.01176 0 0.5 2.51176 0.5 5.59624V5.67805C0.5 7.58437 1.45725 9.26979 2.92176 10.2761C1.46543 11.2988 0.5 12.9924 0.5 14.9233C0.5 16.8378 1.46543 18.5232 2.92176 19.5377C1.45725 20.5604 0.5 22.254 0.5 24.1931C0.5 27.2939 3.01994 29.8139 6.12078 29.8139H21.2241C21.7804 29.8139 22.2304 29.3639 22.2304 28.8075C22.2304 28.2512 21.7804 27.8012 21.2241 27.8012H6.1126C4.11628 27.8012 2.49632 26.1812 2.49632 24.1522C2.49632 22.1559 4.11628 20.5359 6.1126 20.5359H22.9095C23.4658 20.5359 23.9158 20.0859 23.9158 19.5296C23.9158 18.9732 23.4658 18.5232 22.9095 18.5232H6.1126C4.11628 18.5232 2.49632 16.9033 2.49632 14.8742C2.49632 12.8779 4.11628 11.2579 6.1126 11.2579H28.1621C30.1584 11.2579 31.7784 12.8779 31.7784 14.9069C31.7784 15.4633 32.2284 15.8887 32.7847 15.8887C33.3411 15.8887 33.7911 15.4224 33.7911 14.866C33.7911 12.9597 32.8338 11.2743 31.3775 10.2598C32.8338 9.24524 33.7911 7.56801 33.7911 5.66169V5.57987C33.7829 2.51176 31.2711 0 28.1866 0ZM31.7784 5.67805C31.7784 7.65801 30.1666 9.26979 28.1866 9.26979H28.1621H6.1126H6.08806C4.1081 9.26979 2.49632 7.65801 2.49632 5.67805V5.59624C2.49632 3.61628 4.1081 2.0045 6.08806 2.0045H28.1785C30.1584 2.0045 31.7702 3.61628 31.7702 5.59624V5.67805H31.7784Z" fill="#D80000"/>
<path d="M26.1656 4.63086H16.814C16.2576 4.63086 15.8076 5.08085 15.8076 5.6372C15.8076 6.19355 16.2576 6.64354 16.814 6.64354H26.1737C26.7301 6.64354 27.1801 6.19355 27.1801 5.6372C27.1801 5.08085 26.7219 4.63086 26.1656 4.63086Z" fill="#D80000"/>
<path d="M9.1642 6.70071C9.75161 6.70071 10.2278 6.22452 10.2278 5.6371C10.2278 5.04968 9.75161 4.57349 9.1642 4.57349C8.57678 4.57349 8.10059 5.04968 8.10059 5.6371C8.10059 6.22452 8.57678 6.70071 9.1642 6.70071Z" fill="#D80000"/>
<path d="M27.1719 14.907C27.1719 14.3506 26.7219 13.9006 26.1656 13.9006H16.814C16.2576 13.9006 15.8076 14.3506 15.8076 14.907C15.8076 15.4633 16.2576 15.9133 16.814 15.9133H26.1737C26.7219 15.9051 27.1719 15.4551 27.1719 14.907Z" fill="#D80000"/>
<path d="M9.1642 15.9705C9.75161 15.9705 10.2278 15.4943 10.2278 14.9069C10.2278 14.3195 9.75161 13.8433 9.1642 13.8433C8.57678 13.8433 8.10059 14.3195 8.10059 14.9069C8.10059 15.4943 8.57678 15.9705 9.1642 15.9705Z" fill="#D80000"/>
<path d="M16.814 23.1704C16.2576 23.1704 15.8076 23.6204 15.8076 24.1768C15.8076 24.7331 16.2576 25.1831 16.814 25.1831H21.052C21.6084 25.1831 22.0584 24.7331 22.0584 24.1768C22.0584 23.6204 21.6084 23.1704 21.052 23.1704H16.814Z" fill="#D80000"/>
<path d="M9.1642 25.2403C9.75161 25.2403 10.2278 24.7641 10.2278 24.1766C10.2278 23.5892 9.75161 23.113 9.1642 23.113C8.57678 23.113 8.10059 23.5892 8.10059 24.1766C8.10059 24.7641 8.57678 25.2403 9.1642 25.2403Z" fill="#D80000"/>
</svg>
