<svg width="34" height="34" viewBox="0 0 34 34" fill="none" xmlns="http://www.w3.org/2000/svg">
<g clip-path="url(#clip0_645_2153)">
<path d="M20.198 8.99442L14.3735 13.8819L18.1013 18.3243L23.9257 13.4371L20.198 8.99446L20.198 8.99442ZM17.9336 20.2402L12.4575 13.7142L20.3656 7.07837L25.8417 13.6048L17.9336 20.2402Z" fill="#D80000"/>
<path d="M17.6284 21.083C17.9161 20.8417 17.9536 20.4127 17.7122 20.1251L12.5331 13.9525C12.2917 13.6648 11.8624 13.6273 11.5748 13.8687L10.4338 14.8261C10.1461 15.0675 10.1086 15.4964 10.35 15.784L15.5295 21.9567C15.7709 22.2444 16.1998 22.2819 16.4874 22.0405L17.6285 21.0831L17.6284 21.083ZM18.5027 22.1248L17.3616 23.0823C16.4987 23.8065 15.212 23.6939 14.4877 22.8309L9.30816 16.6582C8.58394 15.7953 8.69656 14.5086 9.55958 13.7843L10.7006 12.8268C11.5635 12.1026 12.8506 12.2152 13.5749 13.0783L18.754 19.2509C19.4782 20.1138 19.3656 21.4006 18.5027 22.1248ZM27.8889 12.4735C28.1765 12.2321 28.214 11.8032 27.9727 11.5156L22.7935 5.34296C22.5521 5.05529 22.1228 5.01774 21.8352 5.25912L20.6942 6.21654C20.4066 6.45796 20.369 6.88688 20.6104 7.17448L25.7899 13.3471C26.0313 13.6348 26.4603 13.6724 26.7479 13.431L27.8889 12.4735L27.8889 12.4735ZM28.7631 13.5153L27.622 14.4727C26.7591 15.197 25.4724 15.0843 24.7481 14.2213L19.5686 8.04869C18.8443 7.18574 18.957 5.89902 19.82 5.17472L20.961 4.21731C21.8239 3.49308 23.111 3.60571 23.8353 4.46872L29.0144 10.6414C29.7386 11.5043 29.626 12.791 28.7631 13.5152V13.5153ZM22.3962 16.0572L32.6812 27.7094C32.7996 27.8435 32.7847 28.0439 32.648 28.1585L31.4011 29.2048C31.2642 29.3197 31.064 29.2997 30.9528 29.1602L21.2634 17.0078C21.0293 16.7141 20.6014 16.6659 20.3078 16.9C20.0141 17.1342 19.9659 17.562 20.2001 17.8556L29.8894 30.0079C30.477 30.7453 31.5525 30.8528 32.2751 30.2468L33.5221 29.2005C34.2446 28.5946 34.3251 27.5165 33.7008 26.8094L23.4159 15.1573C23.1673 14.8757 22.7376 14.849 22.4561 15.0974C22.1745 15.3459 22.1477 15.7757 22.3962 16.0572ZM13.26 29.2552C13.6355 29.2552 13.94 28.9507 13.94 28.5752V27.8819C13.94 27.5064 13.6355 27.2019 13.26 27.2019H2.04C1.66451 27.2019 1.36 27.5064 1.36 27.8819V28.5752C1.36 28.9507 1.66451 29.2552 2.04 29.2552H13.26ZM13.26 30.6152H2.04C0.913385 30.6152 0 29.7018 0 28.5752V27.8819C0 26.7553 0.913385 25.8419 2.04 25.8419H13.26C14.3866 25.8419 15.3 26.7553 15.3 27.8819V28.5752C15.3 29.7018 14.3866 30.6152 13.26 30.6152Z" fill="#D80000"/>
<path d="M11.8999 25.8551C12.2754 25.8551 12.5799 25.5506 12.5799 25.1751V24.4819C12.5799 24.1064 12.2754 23.8019 11.8999 23.8019H3.39986C3.02437 23.8019 2.71986 24.1064 2.71986 24.4819V25.1751C2.71986 25.5506 3.02437 25.8551 3.39986 25.8551H11.8999ZM11.8999 27.2151H3.39986C2.27325 27.2151 1.35986 26.3018 1.35986 25.1751V24.4819C1.35986 23.3553 2.27325 22.4419 3.39986 22.4419H11.8999C13.0265 22.4419 13.9399 23.3553 13.9399 24.4819V25.1751C13.9399 26.3018 13.0265 27.2151 11.8999 27.2151Z" fill="#D80000"/>
</g>
<defs>
<clipPath id="clip0_645_2153">
<rect width="34" height="34" fill="white"/>
</clipPath>
</defs>
</svg>
