<svg width="256" height="109" viewBox="0 0 256 109" fill="none" xmlns="http://www.w3.org/2000/svg">
<path d="M60.3932 51.502C59.8427 52.0578 59.4212 52.7287 59.1585 53.4667C58.8959 54.2047 58.7987 54.9918 58.8738 55.7718L58.8477 55.7456C58.9249 56.6638 58.8015 57.5878 58.4862 58.4532C58.1708 59.3186 57.6711 60.1045 57.0219 60.7561C56.3727 61.4076 55.5895 61.9092 54.7272 62.2256C53.8649 62.5421 52.9442 62.6659 52.0293 62.5884L52.0555 62.6146C50.9611 62.5124 49.8619 62.7514 48.9078 63.2991C47.9537 63.8468 47.1911 64.6764 46.7241 65.6749C46.257 66.6735 46.1082 67.7923 46.298 68.8788C46.4877 69.9653 47.0067 70.9666 47.7843 71.7463C48.5618 72.5259 49.5601 73.0459 50.6429 73.2353C51.7257 73.4248 52.8403 73.2744 53.8349 72.8048C54.8294 72.3352 55.6554 71.5691 56.2003 70.6111C56.7451 69.6531 56.9823 68.5498 56.8794 67.4515L56.907 67.4778C56.8298 66.5596 56.9532 65.6356 57.2685 64.7702C57.5839 63.9048 58.0836 63.1189 58.7328 62.4673C59.382 61.8157 60.1651 61.3142 61.0275 60.9977C61.8898 60.6813 62.8105 60.5575 63.7254 60.635L63.6978 60.6087C64.5918 60.6894 65.4916 60.5423 66.3138 60.1811C67.1361 59.8198 67.8542 59.2561 68.4015 58.5422C68.9489 57.8283 69.3079 56.9872 69.4451 56.097C69.5823 55.2068 69.4934 54.2962 69.1867 53.4496C68.8799 52.6031 68.3651 51.848 67.6901 51.2542C67.0151 50.6605 66.2016 50.2473 65.3251 50.0531C64.4487 49.8589 63.5375 49.8899 62.6761 50.1431C61.8148 50.3964 61.031 50.8638 60.3976 51.502H60.3932Z" fill="#1E1B1B"/>
<path d="M49.6771 59.1774L49.6495 59.1511C50.4271 59.2298 51.2124 59.134 51.9486 58.8707C52.6848 58.6074 53.3535 58.1833 53.9063 57.6289C54.4592 57.0745 54.8823 56.4037 55.1452 55.6651C55.4081 54.9264 55.5041 54.1384 55.4264 53.3579L55.454 53.3842C55.3767 52.466 55.5001 51.5419 55.8154 50.6765C56.1308 49.8112 56.6305 49.0252 57.2797 48.3737C57.929 47.7221 58.7121 47.2206 59.5744 46.9041C60.4367 46.5877 61.3574 46.4638 62.2723 46.5414L62.2447 46.5151C63.3392 46.6183 64.4387 46.3801 65.3934 45.833C66.348 45.286 67.1113 44.4567 67.579 43.4583C68.0468 42.4599 68.1963 41.341 68.0071 40.2543C67.8179 39.1675 67.2993 38.1657 66.522 37.3856C65.7447 36.6055 64.7465 36.085 63.6636 35.8952C62.5807 35.7053 61.4658 35.8553 60.471 36.3248C59.4762 36.7942 58.6498 37.5602 58.1047 38.5183C57.5597 39.4763 57.3223 40.5798 57.4251 41.6782L57.3989 41.6505C57.4764 42.5687 57.3532 43.4929 57.038 44.3584C56.7227 45.2239 56.223 46.0099 55.5737 46.6616C54.9244 47.3132 54.1412 47.8147 53.2788 48.1311C52.4164 48.4475 51.4956 48.5711 50.5806 48.4933L50.6067 48.521C49.8291 48.4424 49.0438 48.5382 48.3076 48.8014C47.5714 49.0647 46.9027 49.4889 46.3499 50.0433C45.7971 50.5977 45.3739 51.2685 45.111 52.0071C44.8481 52.7457 44.7521 53.5338 44.8299 54.3142L44.8037 54.288C44.8807 55.2061 44.7572 56.13 44.4417 56.9953C44.1263 57.8606 43.6266 58.6464 42.9774 59.2979C42.3282 59.9494 41.5452 60.4509 40.683 60.7675C39.8208 61.0841 38.9002 61.2081 37.9854 61.1308L38.0115 61.157C36.917 61.0539 35.8175 61.2921 34.8628 61.8391C33.9082 62.3862 33.145 63.2155 32.6772 64.2138C32.2095 65.2122 32.06 66.3311 32.2491 67.4179C32.4383 68.5047 32.9569 69.5064 33.7342 70.2866C34.5116 71.0667 35.5097 71.5871 36.5926 71.777C37.6755 71.9668 38.7904 71.8168 39.7853 71.3474C40.7801 70.8779 41.6064 70.112 42.1515 69.1539C42.6966 68.1958 42.9339 67.0924 42.8311 65.9939L42.8587 66.0202C42.7815 65.102 42.9049 64.178 43.2202 63.3126C43.5356 62.4472 44.0353 61.6613 44.6845 61.0097C45.3337 60.3581 46.1168 59.8566 46.9792 59.5401C47.8415 59.2237 48.7622 59.0999 49.6771 59.1774Z" fill="#1E1B1B"/>
<path d="M39.9424 56.2517C40.493 55.6959 40.9145 55.0251 41.1769 54.287C41.4393 53.5489 41.5361 52.7618 41.4604 51.9818L41.488 52.0081C41.4107 51.0896 41.5341 50.1653 41.8496 49.2997C42.1651 48.4341 42.6651 47.648 43.3147 46.9964C43.9642 46.3448 44.7477 45.8433 45.6104 45.527C46.473 45.2108 47.3941 45.0873 48.3092 45.1653L48.2816 45.139C49.3757 45.2419 50.4748 45.0036 51.429 44.4566C52.3832 43.9095 53.1461 43.0805 53.6135 42.0824C54.081 41.0843 54.2303 39.9658 54.0412 38.8795C53.852 37.7931 53.3336 36.7917 52.5565 36.0119C51.7795 35.2321 50.7817 34.7117 49.6992 34.5219C48.6167 34.3321 47.5022 34.4819 46.5077 34.9511C45.5132 35.4202 44.6871 36.1858 44.142 37.1434C43.597 38.1011 43.3595 39.2041 43.462 40.3021L43.4358 40.2759C43.5131 41.1941 43.3897 42.1181 43.0744 42.9835C42.759 43.8489 42.2593 44.6348 41.6101 45.2864C40.9608 45.9379 40.1777 46.4394 39.3154 46.7559C38.4531 47.0724 37.5324 47.1962 36.6175 47.1187L36.6436 47.1449C35.7497 47.0645 34.85 47.2118 34.0278 47.5732C33.2057 47.9346 32.4878 48.4984 31.9406 49.2124C31.3934 49.9264 31.0346 50.7675 30.8975 51.6577C30.7604 52.5479 30.8495 53.4584 31.1564 54.3048C31.4632 55.1513 31.9781 55.9063 32.6531 56.5C33.3282 57.0936 34.1416 57.5066 35.0181 57.7008C35.8945 57.8949 36.8056 57.8639 37.6669 57.6106C38.5282 57.3573 39.3119 56.8898 39.9453 56.2517H39.9424Z" fill="#1E1B1B"/>
<path d="M84.9385 41.7117H89.2526V62.7809H84.9385V41.7117Z" fill="#1E1B1B"/>
<path d="M91.696 55.5663C91.69 54.0522 92.1318 52.5703 92.9656 51.3085C93.7994 50.0466 94.9876 49.0614 96.3798 48.4778C97.7719 47.8942 99.3053 47.7383 100.786 48.03C102.266 48.3217 103.627 49.0477 104.696 50.1162C105.765 51.1847 106.494 52.5476 106.791 54.0322C107.087 55.5167 106.938 57.0563 106.362 58.4557C105.786 59.8552 104.809 61.0516 103.555 61.8934C102.301 62.7352 100.826 63.1846 99.3176 63.1846C98.3162 63.1961 97.3224 63.0071 96.3946 62.6287C95.4667 62.2503 94.6233 61.69 93.9137 60.9807C93.2041 60.2714 92.6425 59.4272 92.2617 58.4976C91.8809 57.5679 91.6886 56.5714 91.696 55.5663ZM102.625 55.5663C102.607 54.9137 102.398 54.2808 102.023 53.7469C101.649 53.213 101.126 52.8017 100.52 52.5644C99.9139 52.3271 99.2516 52.2744 98.6158 52.4128C97.9801 52.5513 97.3991 52.8747 96.9455 53.3427C96.4919 53.8107 96.1858 54.4026 96.0655 55.0442C95.9453 55.6858 96.0161 56.3488 96.2693 56.9503C96.5224 57.5517 96.9466 58.0649 97.4888 58.4257C98.0309 58.7866 98.6671 58.979 99.3176 58.979C99.7632 58.9909 100.206 58.9101 100.619 58.7415C101.032 58.573 101.406 58.3205 101.716 57.9999C102.027 57.6792 102.268 57.2974 102.425 56.8786C102.581 56.4598 102.649 56.0129 102.625 55.5663Z" fill="#1E1B1B"/>
<path d="M124.133 48.3504V62.0535C124.133 66.902 120.365 68.9517 116.54 68.9517C115.194 69.0528 113.845 68.7798 112.643 68.1627C111.441 67.5455 110.431 66.608 109.725 65.453L113.406 63.3174C113.703 63.9194 114.176 64.4161 114.762 64.741C115.348 65.0659 116.018 65.2034 116.684 65.1352C117.11 65.1944 117.543 65.1568 117.952 65.0252C118.362 64.8935 118.736 64.6713 119.048 64.3748C119.36 64.0783 119.602 63.7153 119.755 63.3124C119.908 62.9096 119.969 62.4774 119.934 62.0476V60.7283C119.428 61.3487 118.785 61.8415 118.056 62.1674C117.327 62.4932 116.532 62.6429 115.734 62.6045C113.837 62.5445 112.037 61.7458 110.716 60.3777C109.395 59.0095 108.657 57.1792 108.657 55.2741C108.657 53.369 109.395 51.5386 110.716 50.1705C112.037 48.8023 113.837 48.0037 115.734 47.9436C116.532 47.9052 117.327 48.055 118.056 48.3808C118.785 48.7066 119.428 49.1995 119.934 49.8198V48.3474L124.133 48.3504ZM119.935 55.2763C119.964 54.5785 119.784 53.888 119.419 53.2936C119.054 52.6993 118.519 52.2282 117.885 51.9411C117.251 51.654 116.545 51.564 115.86 51.6827C115.174 51.8014 114.539 52.1233 114.037 52.607C113.535 53.0907 113.189 53.7141 113.043 54.397C112.897 55.0798 112.958 55.7909 113.219 56.4386C113.479 57.0863 113.926 57.641 114.503 58.0314C115.08 58.4218 115.76 58.63 116.456 58.6291C116.909 58.6609 117.364 58.597 117.792 58.4416C118.219 58.2862 118.609 58.0428 118.936 57.7269C119.264 57.411 119.522 57.0298 119.694 56.6077C119.866 56.1856 119.948 55.7321 119.935 55.2763Z" fill="#1E1B1B"/>
<path d="M126.576 55.5663C126.57 54.0522 127.012 52.5703 127.846 51.3085C128.679 50.0466 129.868 49.0614 131.26 48.4778C132.652 47.8942 134.185 47.7383 135.666 48.03C137.146 48.3217 138.507 49.0477 139.576 50.1162C140.645 51.1847 141.374 52.5476 141.67 54.0322C141.967 55.5167 141.818 57.0563 141.242 58.4557C140.666 59.8552 139.689 61.0516 138.435 61.8934C137.181 62.7352 135.706 63.1846 134.198 63.1846C133.196 63.1961 132.202 63.0071 131.274 62.6287C130.347 62.2503 129.503 61.69 128.794 60.9807C128.084 60.2714 127.522 59.4272 127.142 58.4976C126.761 57.5679 126.568 56.5714 126.576 55.5663ZM137.505 55.5663C137.487 54.9137 137.278 54.2808 136.903 53.7469C136.529 53.213 136.006 52.8017 135.4 52.5644C134.794 52.3271 134.131 52.2744 133.496 52.4128C132.86 52.5513 132.279 52.8747 131.825 53.3427C131.372 53.8107 131.066 54.4026 130.945 55.0442C130.825 55.6858 130.896 56.3488 131.149 56.9503C131.402 57.5517 131.826 58.0649 132.369 58.4257C132.911 58.7866 133.547 58.979 134.198 58.979C134.643 58.9909 135.086 58.9101 135.499 58.7415C135.912 58.573 136.286 58.3205 136.596 57.9999C136.907 57.6792 137.148 57.2974 137.305 56.8786C137.461 56.4598 137.529 56.0129 137.505 55.5663Z" fill="#1E1B1B"/>
<path d="M143.832 44.4828C143.832 43.969 143.983 43.4667 144.268 43.0395C144.552 42.6123 144.956 42.2794 145.429 42.0828C145.902 41.8861 146.423 41.8347 146.925 41.9349C147.427 42.0352 147.888 42.2826 148.25 42.6459C148.612 43.0092 148.859 43.4721 148.959 43.976C149.059 44.4799 149.007 45.0022 148.811 45.4769C148.616 45.9516 148.284 46.3573 147.858 46.6427C147.432 46.9282 146.932 47.0805 146.42 47.0805C145.736 47.0737 145.081 46.7978 144.597 46.3121C144.113 45.8264 143.838 45.1696 143.832 44.4828ZM144.267 48.3503H148.583V62.7822H144.261L144.267 48.3503Z" fill="#1E1B1B"/>
<path d="M167.211 55.5661C167.26 56.5199 167.122 57.4742 166.803 58.374C166.484 59.2739 165.991 60.1017 165.352 60.8097C164.713 61.5177 163.942 62.092 163.081 62.4995C162.22 62.907 161.288 63.1398 160.337 63.1844C159.538 63.2282 158.738 63.0929 157.997 62.7883C157.257 62.4837 156.592 62.0175 156.053 61.4234V68.5534H151.739V48.3501H156.053V49.7058C156.593 49.1122 157.257 48.6463 157.998 48.342C158.739 48.0377 159.538 47.9025 160.337 47.9463C161.288 47.9907 162.221 48.2234 163.081 48.631C163.942 49.0385 164.714 49.6129 165.353 50.3211C165.992 51.0293 166.485 51.8573 166.804 52.7575C167.123 53.6576 167.261 54.6121 167.211 55.5661ZM162.896 55.5661C162.88 54.8907 162.665 54.2352 162.278 53.6818C161.892 53.1284 161.352 52.7016 160.725 52.4548C160.098 52.2081 159.413 52.1523 158.755 52.2945C158.097 52.4367 157.495 52.7705 157.025 53.2543C156.555 53.738 156.238 54.3501 156.113 55.0139C155.988 55.6778 156.06 56.364 156.322 56.9865C156.583 57.6091 157.022 58.1404 157.583 58.5139C158.144 58.8875 158.802 59.0867 159.476 59.0866C159.938 59.1073 160.399 59.0296 160.829 58.8588C161.26 58.688 161.649 58.4278 161.972 58.0954C162.295 57.763 162.544 57.3658 162.704 56.9299C162.863 56.494 162.929 56.0293 162.896 55.5661Z" fill="#1E1B1B"/>
<path d="M180.523 58.4513C180.523 61.7706 177.649 63.1847 174.543 63.1847C173.288 63.2987 172.028 63.0324 170.926 62.4201C169.823 61.8078 168.929 60.8778 168.359 59.7501L172.097 57.6145C172.248 58.1357 172.573 58.5891 173.017 58.899C173.461 59.2089 173.998 59.3565 174.537 59.3172C175.571 59.3172 176.09 58.9994 176.09 58.4236C176.09 56.8346 169.014 57.6728 169.014 52.6799C169.014 49.5326 171.661 47.9465 174.652 47.9465C175.776 47.9108 176.89 48.1784 177.876 48.7215C178.862 49.2646 179.685 50.0632 180.259 51.0341L176.578 53.0254C176.417 52.6474 176.148 52.3254 175.805 52.0996C175.463 51.8738 175.062 51.7542 174.652 51.7557C173.904 51.7557 173.443 52.0472 173.443 52.5633C173.449 54.2091 180.523 53.1114 180.523 58.4513Z" fill="#1E1B1B"/>
<path d="M196.282 48.3506V62.7826H191.968V61.4254C191.471 62.0243 190.839 62.4961 190.124 62.8023C189.409 63.1084 188.633 63.24 187.857 63.1864C184.952 63.1864 182.483 61.1091 182.483 57.2095V48.3506H186.797V56.5754C186.761 56.9191 186.8 57.2666 186.911 57.5937C187.023 57.9207 187.204 58.2195 187.442 58.4693C187.68 58.719 187.969 58.9137 188.29 59.0398C188.61 59.1659 188.955 59.2203 189.298 59.1994C190.88 59.1994 191.973 58.2766 191.973 56.227V48.355L196.282 48.3506Z" fill="#1E1B1B"/>
<path d="M221.02 53.9204V62.7808H216.706V54.2951C216.706 52.8519 216.016 51.9291 214.636 51.9291C213.198 51.9291 212.392 52.9394 212.392 54.642V62.7808H208.079V54.2951C208.079 52.8519 207.389 51.9291 206.008 51.9291C204.57 51.9291 203.765 52.9394 203.765 54.642V62.7808H199.451V48.3488H203.765V49.6754C204.212 49.0869 204.799 48.6202 205.472 48.3179C206.145 48.0156 206.883 47.8874 207.618 47.945C208.357 47.9088 209.092 48.0651 209.752 48.3988C210.412 48.7324 210.975 49.232 211.385 49.8489C211.863 49.2035 212.496 48.6904 213.226 48.3575C213.955 48.0245 214.756 47.8826 215.555 47.945C218.857 47.9465 221.02 50.3124 221.02 53.9204Z" fill="#1E1B1B"/>
<path d="M224.668 48.2616C226.436 48.2616 227.87 46.8231 227.87 45.0486C227.87 43.2742 226.436 41.8357 224.668 41.8357C222.9 41.8357 221.467 43.2742 221.467 45.0486C221.467 46.8231 222.9 48.2616 224.668 48.2616Z" fill="#1E1B1B"/>
</svg>
