<svg width="195" height="65" viewBox="0 0 195 65" fill="none" xmlns="http://www.w3.org/2000/svg">
<g clip-path="url(#clip0_645_1029)">
<path fill-rule="evenodd" clip-rule="evenodd" d="M85.6611 46.7353C85.6611 50.3716 85.6373 53.8625 85.6814 57.35C85.6814 58.08 85.468 58.2388 84.7802 58.2219C82.8356 58.1779 80.8876 58.1915 78.943 58.2219C78.4382 58.2219 78.2654 58.0867 78.2824 57.573C78.2959 48.0432 78.2959 38.5122 78.2824 28.9801C78.2824 28.588 78.2824 28.3042 78.8278 28.3042C83.0761 28.4056 87.3313 28.1082 91.5762 28.4698C93.2413 28.5834 94.859 29.0713 96.3081 29.8971C97.7573 30.7229 99.0003 31.8651 99.9441 33.2381C102.536 36.8371 101.943 44.3563 96.8612 47.1713C96.3564 47.4518 96.3429 47.6241 96.6444 48.0736C98.7618 51.1826 100.852 54.3119 102.946 57.4379C103.074 57.6305 103.285 57.8941 103.244 58.0462C103.139 58.3604 102.78 58.1881 102.536 58.1915C100.08 58.1915 97.6235 58.1915 95.1673 58.2117C94.9488 58.2258 94.7306 58.1809 94.5356 58.0815C94.3406 57.9822 94.1761 57.8322 94.0595 57.6474C91.3492 54.072 88.6322 50.5067 85.9084 46.9516C85.8307 46.8742 85.7481 46.802 85.6611 46.7353ZM85.6306 39.0033C85.6306 39.9867 85.6306 40.9735 85.6306 41.9569C85.6306 42.3151 85.7017 42.501 86.1184 42.4942C87.5515 42.4672 88.9913 42.5314 90.421 42.4537C91.2472 42.3876 92.0263 42.0431 92.6302 41.4769C93.2342 40.9107 93.6271 40.1564 93.7444 39.3379C93.9104 37.7293 92.9144 36.4383 91.1121 35.9179C89.4419 35.4347 87.7242 35.6746 86.0303 35.6138C85.617 35.6138 85.6306 35.8605 85.6306 36.141C85.6306 37.094 85.6306 38.0503 85.6306 39.0033Z" fill="white"/>
<path fill-rule="evenodd" clip-rule="evenodd" d="M154.712 43.258C154.712 47.9486 154.712 52.6358 154.712 57.3264C154.712 58.0022 154.56 58.2455 153.831 58.2253C151.978 58.1712 150.105 58.1746 148.262 58.2253C147.54 58.2455 147.296 58.0766 147.306 57.3095C147.35 54.1126 147.306 50.9157 147.337 47.7221C147.337 47.1409 147.255 46.8874 146.578 46.8976C143.766 46.9381 140.951 46.9314 138.135 46.8976C137.543 46.8976 137.393 47.0631 137.397 47.641C137.424 50.8683 137.397 54.0923 137.424 57.3196C137.424 57.9955 137.312 58.2489 136.563 58.2253C134.619 58.1678 132.671 58.1847 130.726 58.2253C130.16 58.2253 130.028 58.0664 130.028 57.5224C130.044 48.0218 130.044 38.5235 130.028 29.0274C130.028 28.5002 130.137 28.3042 130.706 28.3143C132.711 28.3526 134.717 28.3526 136.723 28.3143C137.299 28.3143 137.417 28.4968 137.4 29.0274C137.38 32.2817 137.4 35.5394 137.377 38.7938C137.377 39.4393 137.498 39.6555 138.196 39.642C140.95 39.597 143.704 39.597 146.459 39.642C147.208 39.6589 147.323 39.3953 147.32 38.7363C147.286 35.5428 147.32 32.3459 147.286 29.149C147.286 28.4732 147.479 28.2974 148.143 28.311C150.057 28.3583 151.975 28.3549 153.902 28.311C154.532 28.311 154.702 28.4799 154.698 29.1051C154.698 33.8193 154.712 38.5403 154.712 43.258Z" fill="white"/>
<path fill-rule="evenodd" clip-rule="evenodd" d="M194.678 58.205C191.687 58.205 188.882 58.205 186.08 58.205C185.623 58.205 185.463 57.867 185.25 57.617C182.605 54.3795 179.963 51.1376 177.322 47.8911C177.194 47.7323 177.062 47.5768 176.916 47.4045C176.641 47.6377 176.77 47.9215 176.77 48.1615C176.77 51.2401 176.746 54.3153 176.77 57.3906C176.77 57.9921 176.652 58.2286 175.991 58.2117C174.046 58.1678 172.098 58.1813 170.154 58.2117C169.608 58.2117 169.371 58.1273 169.375 57.4953C169.395 47.997 169.395 38.4987 169.375 29.0003C169.375 28.4427 169.547 28.2974 170.089 28.3042C172.064 28.3346 174.04 28.3414 176.018 28.3042C176.608 28.3042 176.777 28.4664 176.77 29.0578C176.743 32.1938 176.77 35.3299 176.77 38.466V39.3244L176.94 39.3852L184.606 28.3582C186.124 30.3284 187.571 32.231 189.048 34.1032C189.386 34.5222 189.088 34.7554 188.909 35.0427C187.289 37.6178 185.687 40.2064 184.03 42.7612C183.675 43.312 183.742 43.6432 184.118 44.14C187.407 48.4723 190.682 52.8171 193.943 57.1743C194.14 57.4615 194.346 57.7454 194.678 58.205Z" fill="white"/>
<path fill-rule="evenodd" clip-rule="evenodd" d="M115.827 28.3211C119.448 28.3211 123.07 28.3211 126.695 28.3211C127.322 28.3211 127.582 28.4157 127.562 29.1321C127.505 31.0415 127.511 32.9542 127.562 34.8771C127.562 35.5259 127.369 35.6679 126.756 35.6577C124.75 35.6172 122.741 35.6577 120.739 35.6273C120.061 35.6104 119.889 35.803 119.899 36.4688C120.011 43.1532 120.082 49.8376 120.18 56.522C120.204 58.2354 120.227 58.2354 118.54 58.2354C116.592 58.2354 114.648 58.2016 112.703 58.2354C112.026 58.2523 111.86 58.0529 111.863 57.3872C111.863 51.8044 111.836 46.2352 111.809 40.6389C111.809 39.1757 111.751 37.7124 111.768 36.2457C111.768 35.7152 111.588 35.6036 111.09 35.6104C109.024 35.6341 106.957 35.6104 104.891 35.6307C104.328 35.6307 104.112 35.5124 104.125 34.8974C104.162 32.9576 104.169 31.0144 104.125 29.0747C104.125 28.3988 104.369 28.3076 104.955 28.3109C108.58 28.3447 112.205 28.3211 115.827 28.3211Z" fill="white"/>
<path fill-rule="evenodd" clip-rule="evenodd" d="M158.361 43.1701C158.361 38.5099 158.378 33.8497 158.344 29.1896C158.344 28.4765 158.547 28.2873 159.248 28.3042C161.101 28.3549 162.975 28.3582 164.818 28.3042C165.563 28.2839 165.763 28.4934 165.76 29.2436C165.729 36.2018 165.76 43.1633 165.76 50.1215C165.76 52.5715 165.743 55.0216 165.76 57.4717C165.76 58.0563 165.59 58.232 164.997 58.2185C163.08 58.1813 161.162 58.1712 159.238 58.2185C158.527 58.2388 158.337 58.0326 158.34 57.3263C158.374 52.6121 158.361 47.8911 158.361 43.1701Z" fill="white"/>
<path fill-rule="evenodd" clip-rule="evenodd" d="M194.997 26.3576C193.75 28.3042 192.568 30.1459 191.389 31.9911C191.213 32.2682 191.07 32.3865 190.809 32.0553C189.373 30.2439 187.93 28.4427 186.405 26.53L194.997 26.3576Z" fill="#D80000"/>
<path fill-rule="evenodd" clip-rule="evenodd" d="M0.0137305 32.3358C0.0137305 21.2176 0.0137305 10.1005 0.0137305 -1.01538C0.0137305 -1.53243 0.13908 -1.6676 0.715011 -1.6676C24.9018 -1.65183 49.0887 -1.65183 73.2755 -1.6676C73.8379 -1.6676 73.987 -1.54933 73.987 -1.01877C73.9711 21.2131 73.9711 43.4472 73.987 65.6835C73.987 66.204 73.8514 66.3324 73.2789 66.3324C49.0943 66.3189 24.9075 66.3189 0.718399 66.3324C0.152632 66.3324 0.0103427 66.2107 0.0137305 65.6869C0.0227647 54.5688 0.0227647 43.4517 0.0137305 32.3358Z" fill="#D80000"/>
<path fill-rule="evenodd" clip-rule="evenodd" d="M48.2801 20.687C48.0869 21.025 47.9413 21.2446 47.8125 21.4778C41.8296 31.7309 35.8501 41.9817 29.874 52.2302C29.7985 52.3937 29.6737 52.5295 29.5169 52.6186C29.3602 52.7077 29.1794 52.7456 28.9999 52.727C23.7894 52.7101 18.579 52.727 13.3651 52.727C13.1547 52.7646 12.9377 52.735 12.7451 52.6425L31.2223 20.6972C29.5115 20.6972 27.8887 20.6972 26.2659 20.6972C26.1047 20.6801 25.9421 20.7149 25.802 20.7963C25.6619 20.8778 25.5514 21.0017 25.4867 21.15C18.9076 32.5025 12.3194 43.8516 5.72215 55.1973C5.31562 55.9002 4.91247 56.6099 4.4585 57.4007H5.18688C14.0765 57.4007 22.9651 57.4007 31.8525 57.4007C32.0778 57.4259 32.3054 57.3797 32.503 57.2687C32.7007 57.1577 32.8582 56.9875 32.9535 56.7823C37.9336 48.1243 42.9273 39.4719 47.9345 30.8252C48.0361 30.6529 48.1479 30.4872 48.2936 30.2608C52.6131 37.736 56.8885 45.1301 61.1978 52.5648C58.6841 52.5648 56.2855 52.5648 53.8869 52.5648C53.7536 52.5759 53.6201 52.5446 53.5057 52.4754C53.3913 52.4062 53.3018 52.3026 53.25 52.1795C52.0507 50.0877 50.8379 48.006 49.6284 45.9243L46.7996 41.0411C46.6708 41.2438 46.5692 41.379 46.4845 41.5311C45.7527 42.8017 45.0379 44.0859 44.2756 45.343C44.1681 45.4912 44.1119 45.6704 44.1155 45.8533C44.1192 46.0363 44.1825 46.213 44.296 46.3568C46.3806 49.8579 48.4517 53.368 50.5092 56.887C50.5812 57.054 50.704 57.1941 50.8603 57.2875C51.0166 57.381 51.1984 57.4229 51.3799 57.4074C57.2002 57.4074 63.0205 57.4074 68.8408 57.4074H69.5183L48.2801 20.687Z" fill="#D80000"/>
<path fill-rule="evenodd" clip-rule="evenodd" d="M47.152 6.65582L38.6825 11.9445C39.2652 12.3366 39.7699 12.7083 40.3086 13.026C40.6474 13.2186 40.6813 13.3808 40.4848 13.7018C40.024 14.4757 39.5972 15.2699 39.1568 16.0674C32.6273 27.706 26.0978 39.3457 19.5683 50.9866C19.4633 51.1758 19.26 51.3448 19.3312 51.6253C21.0488 51.6253 22.7597 51.6253 24.4705 51.6253C24.7924 51.6253 24.9109 51.4597 25.0397 51.2299C26.0312 49.4501 27.0261 47.6726 28.0243 45.8972C33.621 35.9258 39.2143 25.9521 44.8043 15.9762C45.0109 15.6078 45.143 15.4997 45.536 15.7768C46.1289 16.206 46.7692 16.5709 47.4739 17.0204L47.152 6.65582Z" fill="#D80000"/>
<path fill-rule="evenodd" clip-rule="evenodd" d="M48.2801 21.4372L69.515 58.1509H68.8374C63.0171 58.1509 57.1968 58.1509 51.3765 58.1509C51.1973 58.168 51.0172 58.129 50.8612 58.0394C50.7052 57.9498 50.581 57.8139 50.5059 57.6507C48.4506 54.1362 46.3817 50.6295 44.2994 47.1307C44.1859 46.9869 44.1226 46.8101 44.1189 46.6272C44.1152 46.4442 44.1714 46.2651 44.279 46.1169C45.0413 44.8598 45.7561 43.5756 46.4879 42.3049C46.576 42.1562 46.6742 42.0177 46.803 41.8149L49.6318 46.6948C50.8412 48.7798 52.0541 50.8616 53.2534 52.9534C53.3032 53.0781 53.3913 53.1839 53.5052 53.2555C53.619 53.3271 53.7526 53.361 53.8869 53.3522C56.2855 53.3522 58.6841 53.3522 61.1978 53.3522C56.8885 45.8905 52.6131 38.4829 48.2936 31.0212C48.1479 31.2476 48.0361 31.4132 47.9345 31.5855C42.9386 40.239 37.9449 48.8914 32.9535 57.5426C32.8582 57.7479 32.7006 57.9181 32.503 58.029C32.3054 58.14 32.0778 58.1862 31.8525 58.161C22.9628 58.143 14.0743 58.143 5.18688 58.161H4.4585C4.91247 57.3702 5.31562 56.6606 5.72215 55.9577C12.3149 44.6007 18.9031 33.2448 25.4867 21.8901C25.5514 21.7417 25.6619 21.6178 25.802 21.5364C25.9421 21.4549 26.1047 21.4202 26.2659 21.4372C27.8887 21.4609 29.5115 21.4372 31.2223 21.4372L12.7451 53.3859C12.9377 53.4784 13.1547 53.508 13.3651 53.4704C18.579 53.4704 23.7894 53.4704 28.9999 53.4704C29.1794 53.489 29.3602 53.4511 29.5169 53.3621C29.6737 53.273 29.7985 53.1371 29.874 52.9737C35.8433 42.7139 41.8285 32.463 47.8295 22.2213C47.948 21.9948 48.0869 21.7617 48.2801 21.4372Z" fill="#FDFCFC"/>
<path fill-rule="evenodd" clip-rule="evenodd" d="M47.1519 7.39252C47.257 10.8936 47.3586 14.273 47.4636 17.7706C46.7589 17.3245 46.1085 16.9596 45.5258 16.5304C45.143 16.2499 45.0007 16.3614 44.794 16.7298C39.2063 26.726 33.613 36.7042 28.0141 46.6644C27.0181 48.4397 26.0232 50.2172 25.0294 51.997C24.9007 52.2268 24.7821 52.3958 24.4603 52.3924C22.7494 52.3721 21.0386 52.3924 19.3209 52.3924C19.2498 52.1119 19.4531 51.943 19.5581 51.7537C26.0943 40.1039 32.6328 28.4585 39.1736 16.8176C39.614 16.0336 40.0409 15.2395 40.5016 14.4521C40.6981 14.1141 40.6575 13.9654 40.3255 13.7762C39.7868 13.4619 39.282 13.1003 38.6993 12.6982L47.1519 7.39252Z" fill="#FDFCFC"/>
</g>
<defs>
<clipPath id="clip0_645_1029">
<rect width="195" height="68" fill="white" transform="translate(0 -1.6676)"/>
</clipPath>
</defs>
</svg>
