<svg width="258" height="111" viewBox="0 0 258 111" fill="none" xmlns="http://www.w3.org/2000/svg">
<path d="M85.0771 43.4497H89.4582V64.7152H85.0771V43.4497Z" fill="#1E1B1B"/>
<path d="M91.9118 57.4302C91.9119 55.9002 92.3626 54.4047 93.207 53.1332C94.0514 51.8617 95.2514 50.8714 96.6549 50.288C98.0584 49.7045 99.6022 49.5541 101.091 49.8558C102.579 50.1575 103.945 50.8978 105.016 51.9827C106.086 53.0677 106.813 54.4485 107.104 55.9501C107.394 57.4518 107.236 59.0066 106.649 60.4176C106.062 61.8286 105.073 63.0322 103.806 63.8758C102.54 64.7195 101.053 65.1652 99.5349 65.1564C98.5279 65.1644 97.5295 64.9696 96.5982 64.5836C95.6669 64.1976 94.8215 63.628 94.1115 62.9084C93.4015 62.1888 92.8412 61.3336 92.4634 60.3928C92.0857 59.4521 91.8982 58.4449 91.9118 57.4302ZM102.894 57.4302C102.877 56.7706 102.667 56.1308 102.291 55.5907C101.914 55.0507 101.388 54.6344 100.779 54.3939C100.169 54.1534 99.5025 54.0994 98.8625 54.2387C98.2225 54.378 97.6374 54.7043 97.1805 55.1769C96.7236 55.6495 96.415 56.2473 96.2935 56.8957C96.172 57.5441 96.2428 58.2141 96.4972 58.8221C96.7516 59.4301 97.1782 59.949 97.7237 60.314C98.2692 60.6789 98.9094 60.8737 99.5641 60.8739C100.01 60.8827 100.453 60.7986 100.865 60.6271C101.277 60.4556 101.65 60.2003 101.959 59.8771C102.269 59.5539 102.509 59.1698 102.665 58.7488C102.821 58.3277 102.889 57.8789 102.865 57.4302H102.894Z" fill="#1E1B1B"/>
<path d="M124.493 50.146V63.9943C124.493 68.8802 120.696 70.9552 116.855 70.9552C115.5 71.0673 114.141 70.7961 112.931 70.1721C111.721 69.5481 110.708 68.5961 110.006 67.4233L113.701 65.2746C114 65.8829 114.476 66.3849 115.066 66.7135C115.656 67.0422 116.331 67.1819 117.001 67.1142C117.428 67.1672 117.862 67.1245 118.27 66.9891C118.679 66.8536 119.053 66.6288 119.366 66.3307C119.678 66.0326 119.922 65.6686 120.078 65.2647C120.235 64.8608 120.301 64.427 120.272 63.9943V62.6551C119.762 63.278 119.116 63.7726 118.383 64.0996C117.65 64.4266 116.852 64.577 116.052 64.5388C114.115 64.5388 112.258 63.7636 110.889 62.3836C109.519 61.0037 108.75 59.1321 108.75 57.1805C108.75 55.229 109.519 53.3574 110.889 51.9774C112.258 50.5975 114.115 49.8222 116.052 49.8222C116.852 49.7841 117.65 49.9345 118.383 50.2614C119.116 50.5884 119.762 51.083 120.272 51.7059V50.2343L124.493 50.146ZM120.272 57.1364C120.301 56.4323 120.121 55.7355 119.754 55.1356C119.387 54.5358 118.85 54.0602 118.213 53.7702C117.576 53.4802 116.867 53.3889 116.178 53.5081C115.488 53.6273 114.85 53.9516 114.345 54.4391C113.841 54.9267 113.492 55.5554 113.344 56.2442C113.197 56.933 113.257 57.6506 113.518 58.3046C113.778 58.9586 114.227 59.5192 114.806 59.9142C115.385 60.3092 116.068 60.5206 116.767 60.5212C117.224 60.5543 117.682 60.4906 118.112 60.3342C118.543 60.1778 118.936 59.9322 119.266 59.6132C119.596 59.2942 119.856 58.909 120.03 58.4824C120.203 58.0557 120.286 57.5972 120.272 57.1364Z" fill="#1E1B1B"/>
<path d="M126.96 57.4303C126.96 55.9016 127.41 54.4072 128.254 53.1363C129.097 51.8654 130.295 50.8752 131.697 50.2908C133.099 49.7065 134.641 49.5543 136.128 49.8536C137.616 50.153 138.982 50.8903 140.054 51.9723C141.126 53.0543 141.855 54.4323 142.149 55.932C142.443 57.4318 142.289 58.9857 141.706 60.3972C141.124 61.8087 140.139 63.0144 138.876 63.8616C137.614 64.7088 136.13 65.1595 134.613 65.1565C133.604 65.1664 132.603 64.9732 131.669 64.5882C130.736 64.2032 129.887 63.6343 129.175 62.9147C128.462 62.195 127.899 61.3393 127.519 60.3975C127.139 59.4558 126.949 58.447 126.96 57.4303ZM137.942 57.4303C137.925 56.7701 137.715 56.1297 137.338 55.5893C136.961 55.049 136.435 54.6327 135.824 54.3927C135.213 54.1527 134.546 54.0996 133.906 54.24C133.265 54.3805 132.68 54.7083 132.224 55.1823C131.768 55.6564 131.46 56.2556 131.34 56.9049C131.221 57.5542 131.294 58.2247 131.55 58.8324C131.807 59.4402 132.236 59.958 132.783 60.3212C133.33 60.6844 133.972 60.8767 134.627 60.874C135.073 60.8828 135.516 60.7988 135.928 60.6272C136.34 60.4557 136.713 60.2004 137.023 59.8772C137.332 59.554 137.573 59.1699 137.728 58.7489C137.884 58.3279 137.952 57.879 137.928 57.4303H137.942Z" fill="#1E1B1B"/>
<path d="M144.295 46.2458C144.295 45.7277 144.447 45.2212 144.733 44.7904C145.019 44.3596 145.425 44.0239 145.9 43.8256C146.375 43.6274 146.897 43.5755 147.401 43.6766C147.906 43.7776 148.369 44.0271 148.732 44.3935C149.096 44.7598 149.344 45.2266 149.444 45.7347C149.544 46.2429 149.493 46.7696 149.296 47.2482C149.099 47.7269 148.766 48.136 148.339 48.4239C147.911 48.7117 147.408 48.8653 146.894 48.8653C146.207 48.8577 145.551 48.5792 145.065 48.0896C144.579 47.6 144.303 46.9382 144.295 46.2458ZM144.718 50.1457H149.099V64.7151H144.718V50.1457Z" fill="#1E1B1B"/>
<path d="M167.851 57.4306C167.9 58.3995 167.759 59.3687 167.435 60.2823C167.111 61.1959 166.611 62.0359 165.963 62.754C165.316 63.4721 164.534 64.0541 163.662 64.4664C162.791 64.8788 161.847 65.1134 160.885 65.1568C160.069 65.2115 159.251 65.0798 158.493 64.7714C157.734 64.4631 157.054 63.9861 156.504 63.3761V70.5725H152.123V50.1458H156.504V51.5145C157.055 50.9062 157.735 50.4314 158.494 50.1256C159.253 49.8198 160.07 49.6909 160.885 49.7485C161.843 49.792 162.783 50.0252 163.652 50.4347C164.52 50.8443 165.3 51.4223 165.947 52.1357C166.594 52.849 167.095 53.6838 167.422 54.5923C167.748 55.5008 167.894 56.4652 167.851 57.4306ZM163.47 57.4306C163.453 56.7471 163.236 56.0839 162.846 55.5242C162.456 54.9644 161.911 54.5331 161.28 54.2841C160.648 54.0352 159.957 53.9798 159.294 54.1248C158.631 54.2698 158.025 54.6088 157.552 55.0993C157.08 55.5898 156.761 56.21 156.637 56.8822C156.512 57.5543 156.588 58.2485 156.853 58.8778C157.118 59.507 157.562 60.0433 158.129 60.4194C158.696 60.7955 159.36 60.9947 160.038 60.992C160.503 61.0119 160.967 60.9325 161.399 60.7592C161.831 60.5858 162.222 60.3223 162.546 59.9861C162.87 59.6498 163.12 59.2483 163.279 58.8079C163.438 58.3675 163.503 57.8981 163.47 57.4306Z" fill="#1E1B1B"/>
<path d="M181.184 60.3445C181.184 63.6999 178.263 65.1274 175.167 65.1274C173.905 65.242 172.637 64.9722 171.528 64.3531C170.419 63.734 169.52 62.7939 168.946 61.6543L172.714 59.5057C172.863 60.0308 173.187 60.4884 173.631 60.8018C174.075 61.1152 174.612 61.2655 175.153 61.2275C176.19 61.2275 176.715 60.9038 176.715 60.3151C176.715 58.711 169.603 59.5646 169.603 54.5168C169.603 51.338 172.261 49.7486 175.27 49.7486C176.413 49.697 177.549 49.9584 178.557 50.5052C179.565 51.0519 180.407 51.8635 180.994 52.8538L177.227 54.8552C177.06 54.4756 176.788 54.1526 176.443 53.9254C176.099 53.6982 175.696 53.5765 175.284 53.5749C174.525 53.5749 174.072 53.8692 174.072 54.3843C174.072 56.062 181.184 54.9583 181.184 60.3445Z" fill="#1E1B1B"/>
<path d="M197.058 50.1458V64.7152H192.677V63.3465C192.179 63.9524 191.547 64.4318 190.832 64.7462C190.116 65.0607 189.338 65.2013 188.559 65.1567C185.638 65.1567 183.141 63.0522 183.141 59.1229V50.1458H187.522V58.4606C187.487 58.8083 187.528 59.1593 187.641 59.4894C187.755 59.8196 187.938 60.121 188.178 60.3729C188.418 60.6247 188.71 60.8211 189.033 60.9483C189.356 61.0755 189.702 61.1305 190.048 61.1096C191.625 61.1096 192.735 60.1678 192.735 58.1663V50.1458H197.058Z" fill="#1E1B1B"/>
<path d="M221.884 55.7675V64.7152H217.503V56.1501C217.503 54.6784 216.817 53.766 215.429 53.766C214.042 53.766 213.166 54.7815 213.166 56.5033V64.7152H208.785V56.1501C208.785 54.6784 208.098 53.766 206.711 53.766C205.324 53.766 204.447 54.7815 204.447 56.5033V64.7152H200.066V50.1457H204.447V51.4849C204.901 50.8933 205.494 50.4247 206.172 50.1215C206.85 49.8184 207.592 49.6901 208.332 49.7484C209.073 49.7094 209.811 49.8653 210.474 50.2007C211.137 50.5361 211.703 51.0395 212.114 51.6615C212.596 51.0117 213.232 50.4954 213.965 50.1608C214.698 49.8263 215.504 49.6844 216.306 49.7484C219.723 49.7484 221.884 52.1325 221.884 55.7675Z" fill="#1E1B1B"/>
<path d="M58.9805 39.6235V33.3689H39.4116V76.3414H58.9805V70.0868C54.9718 70.0868 51.1273 68.4821 48.2927 65.6256C45.4582 62.7691 43.8657 58.8948 43.8657 54.8551C43.8657 50.8154 45.4582 46.9412 48.2927 44.0847C51.1273 41.2282 54.9718 39.6235 58.9805 39.6235Z" fill="#1E1B1B"/>
<path d="M58.9805 39.6233V70.0867C62.9891 70.0867 66.8336 68.4819 69.6682 65.6254C72.5028 62.7689 74.0952 58.8947 74.0952 54.855C74.0952 50.8153 72.5028 46.941 69.6682 44.0846C66.8336 41.2281 62.9891 39.6233 58.9805 39.6233Z" fill="#1E1B1B"/>
<path d="M225.564 50.0573C227.339 50.0573 228.777 48.6078 228.777 46.8197C228.777 45.0316 227.339 43.582 225.564 43.582C223.79 43.582 222.352 45.0316 222.352 46.8197C222.352 48.6078 223.79 50.0573 225.564 50.0573Z" fill="#1E1B1B"/>
</svg>
