<svg width="256" height="110" viewBox="0 0 256 110" fill="none" xmlns="http://www.w3.org/2000/svg">
<path d="M60.3932 52.1741C59.8427 52.7299 59.4212 53.4008 59.1585 54.1388C58.8959 54.8768 58.7987 55.6639 58.8738 56.4439L58.8477 56.4177C58.9249 57.3359 58.8015 58.2599 58.4862 59.1253C58.1708 59.9907 57.6711 60.7766 57.0219 61.4282C56.3727 62.0798 55.5895 62.5813 54.7272 62.8977C53.8649 63.2142 52.9442 63.338 52.0293 63.2605L52.0555 63.2868C50.9611 63.1845 49.8619 63.4235 48.9078 63.9712C47.9537 64.5189 47.1911 65.3485 46.7241 66.3471C46.257 67.3456 46.1082 68.4644 46.298 69.5509C46.4877 70.6374 47.0067 71.6388 47.7843 72.4184C48.5618 73.198 49.5601 73.718 50.6429 73.9074C51.7257 74.0969 52.8403 73.9465 53.8349 73.4769C54.8294 73.0073 55.6554 72.2412 56.2003 71.2832C56.7451 70.3252 56.9823 69.2219 56.8794 68.1237L56.907 68.1499C56.8298 67.2317 56.9532 66.3077 57.2685 65.4423C57.5839 64.5769 58.0836 63.791 58.7328 63.1394C59.382 62.4879 60.1651 61.9863 61.0275 61.6699C61.8898 61.3534 62.8105 61.2296 63.7254 61.3071L63.6978 61.2809C64.5918 61.3615 65.4916 61.2144 66.3138 60.8532C67.1361 60.4919 67.8542 59.9282 68.4015 59.2143C68.9489 58.5004 69.3079 57.6593 69.4451 56.7691C69.5823 55.8789 69.4934 54.9683 69.1867 54.1218C68.8799 53.2752 68.3651 52.5201 67.6901 51.9263C67.0151 51.3326 66.2016 50.9195 65.3251 50.7252C64.4487 50.531 63.5375 50.562 62.6761 50.8152C61.8148 51.0685 61.031 51.5359 60.3976 52.1741H60.3932Z" fill="#1E1B1B"/>
<path d="M49.6771 59.8495L49.6495 59.8233C50.4271 59.9019 51.2124 59.8061 51.9486 59.5428C52.6848 59.2796 53.3535 58.8554 53.9063 58.301C54.4592 57.7466 54.8823 57.0758 55.1452 56.3372C55.4081 55.5985 55.5041 54.8105 55.4264 54.03L55.454 54.0563C55.3767 53.1381 55.5001 52.2141 55.8154 51.3487C56.1308 50.4833 56.6305 49.6974 57.2797 49.0458C57.929 48.3942 58.7121 47.8927 59.5744 47.5762C60.4367 47.2598 61.3574 47.136 62.2723 47.2135L62.2447 47.1872C63.3392 47.2904 64.4387 47.0522 65.3934 46.5051C66.348 45.9581 67.1113 45.1288 67.579 44.1304C68.0468 43.132 68.1963 42.0132 68.0071 40.9264C67.8179 39.8396 67.2993 38.8378 66.522 38.0577C65.7447 37.2776 64.7465 36.7571 63.6636 36.5673C62.5807 36.3774 61.4658 36.5275 60.471 36.9969C59.4762 37.4663 58.6498 38.2323 58.1047 39.1904C57.5597 40.1484 57.3223 41.2519 57.4251 42.3503L57.3989 42.3226C57.4764 43.2409 57.3532 44.165 57.038 45.0305C56.7227 45.896 56.223 46.6821 55.5737 47.3337C54.9244 47.9853 54.1412 48.4868 53.2788 48.8032C52.4164 49.1196 51.4956 49.2432 50.5806 49.1654L50.6067 49.1931C49.8291 49.1145 49.0438 49.2103 48.3076 49.4735C47.5714 49.7368 46.9027 50.161 46.3499 50.7154C45.7971 51.2698 45.3739 51.9406 45.111 52.6792C44.8481 53.4179 44.7521 54.2059 44.8299 54.9863L44.8037 54.9601C44.8807 55.8782 44.7572 56.8022 44.4417 57.6674C44.1263 58.5327 43.6266 59.3185 42.9774 59.97C42.3282 60.6215 41.5452 61.1231 40.683 61.4396C39.8208 61.7562 38.9002 61.8802 37.9854 61.8029L38.0115 61.8292C36.917 61.726 35.8175 61.9642 34.8628 62.5112C33.9082 63.0583 33.145 63.8876 32.6772 64.886C32.2095 65.8843 32.06 67.0032 32.2491 68.09C32.4383 69.1768 32.9569 70.1786 33.7342 70.9587C34.5116 71.7388 35.5097 72.2593 36.5926 72.4491C37.6755 72.6389 38.7904 72.4889 39.7853 72.0195C40.7801 71.5501 41.6064 70.7841 42.1515 69.826C42.6966 68.868 42.9339 67.7645 42.8311 66.6661L42.8587 66.6923C42.7815 65.7741 42.9049 64.8501 43.2202 63.9847C43.5356 63.1193 44.0353 62.3334 44.6845 61.6818C45.3337 61.0303 46.1168 60.5287 46.9792 60.2123C47.8415 59.8958 48.7622 59.772 49.6771 59.8495Z" fill="#1E1B1B"/>
<path d="M39.9424 56.9238C40.493 56.3681 40.9145 55.6972 41.1769 54.9591C41.4393 54.221 41.5361 53.4339 41.4604 52.6539L41.488 52.6802C41.4107 51.7617 41.5341 50.8374 41.8496 49.9718C42.1651 49.1062 42.6651 48.3201 43.3147 47.6685C43.9642 47.0169 44.7477 46.5154 45.6104 46.1992C46.473 45.8829 47.3941 45.7594 48.3092 45.8374L48.2816 45.8111C49.3757 45.914 50.4748 45.6757 51.429 45.1287C52.3832 44.5817 53.1461 43.7526 53.6135 42.7545C54.081 41.7564 54.2303 40.638 54.0412 39.5516C53.852 38.4652 53.3336 37.4638 52.5565 36.684C51.7795 35.9042 50.7817 35.3839 49.6992 35.194C48.6167 35.0042 47.5022 35.1541 46.5077 35.6232C45.5132 36.0924 44.6871 36.8579 44.142 37.8156C43.597 38.7732 43.3595 39.8762 43.462 40.9742L43.4358 40.948C43.5131 41.8662 43.3897 42.7902 43.0744 43.6556C42.759 44.521 42.2593 45.3069 41.6101 45.9585C40.9608 46.61 40.1777 47.1116 39.3154 47.428C38.4531 47.7445 37.5324 47.8683 36.6175 47.7908L36.6436 47.817C35.7497 47.7366 34.85 47.8839 34.0278 48.2453C33.2057 48.6067 32.4878 49.1705 31.9406 49.8845C31.3934 50.5985 31.0346 51.4396 30.8975 52.3298C30.7604 53.22 30.8495 54.1305 31.1564 54.977C31.4632 55.8234 31.9781 56.5785 32.6531 57.1721C33.3282 57.7657 34.1416 58.1787 35.0181 58.3729C35.8945 58.567 36.8056 58.536 37.6669 58.2827C38.5282 58.0294 39.3119 57.562 39.9453 56.9238H39.9424Z" fill="#1E1B1B"/>
<path d="M84.9385 42.3838H89.2526V63.4531H84.9385V42.3838Z" fill="#1E1B1B"/>
<path d="M91.696 56.2384C91.69 54.7243 92.1318 53.2425 92.9656 51.9806C93.7994 50.7187 94.9876 49.7335 96.3798 49.1499C97.7719 48.5663 99.3053 48.4104 100.786 48.7021C102.266 48.9938 103.627 49.7198 104.696 50.7883C105.765 51.8568 106.494 53.2197 106.791 54.7043C107.087 56.1889 106.938 57.7284 106.362 59.1278C105.786 60.5273 104.809 61.7237 103.555 62.5655C102.301 63.4074 100.826 63.8567 99.3176 63.8568C98.3162 63.8682 97.3224 63.6792 96.3946 63.3008C95.4667 62.9224 94.6233 62.3621 93.9137 61.6528C93.2041 60.9435 92.6425 60.0994 92.2617 59.1697C91.8809 58.24 91.6886 57.2435 91.696 56.2384ZM102.625 56.2384C102.607 55.5858 102.398 54.9529 102.023 54.419C101.649 53.8851 101.126 53.4738 100.52 53.2365C99.9139 52.9992 99.2516 52.9465 98.6158 53.0849C97.9801 53.2234 97.3991 53.5468 96.9455 54.0148C96.4919 54.4829 96.1858 55.0747 96.0655 55.7163C95.9453 56.358 96.0161 57.021 96.2693 57.6224C96.5224 58.2238 96.9466 58.737 97.4888 59.0979C98.0309 59.4587 98.6671 59.6511 99.3176 59.6511C99.7632 59.663 100.206 59.5822 100.619 59.4137C101.032 59.2452 101.406 58.9926 101.716 58.672C102.027 58.3513 102.268 57.9696 102.425 57.5507C102.581 57.1319 102.649 56.685 102.625 56.2384Z" fill="#1E1B1B"/>
<path d="M124.133 49.0225V62.7256C124.133 67.5742 120.365 69.6238 116.54 69.6238C115.194 69.7249 113.845 69.452 112.643 68.8348C111.441 68.2176 110.431 67.2801 109.725 66.1251L113.406 63.9895C113.703 64.5916 114.176 65.0883 114.762 65.4131C115.348 65.738 116.018 65.8755 116.684 65.8073C117.11 65.8665 117.543 65.8289 117.952 65.6973C118.362 65.5657 118.736 65.3434 119.048 65.0469C119.36 64.7505 119.602 64.3874 119.755 63.9846C119.908 63.5817 119.969 63.1495 119.934 62.7198V61.4005C119.428 62.0208 118.785 62.5137 118.056 62.8395C117.327 63.1653 116.532 63.315 115.734 63.2766C113.837 63.2166 112.037 62.4179 110.716 61.0498C109.395 59.6816 108.657 57.8513 108.657 55.9462C108.657 54.0411 109.395 52.2108 110.716 50.8426C112.037 49.4744 113.837 48.6758 115.734 48.6158C116.532 48.5774 117.327 48.7271 118.056 49.0529C118.785 49.3787 119.428 49.8716 119.934 50.4919V49.0196L124.133 49.0225ZM119.935 55.9484C119.964 55.2506 119.784 54.5601 119.419 53.9658C119.054 53.3714 118.519 52.9003 117.885 52.6132C117.251 52.3262 116.545 52.2361 115.86 52.3548C115.174 52.4735 114.539 52.7954 114.037 53.2791C113.535 53.7629 113.189 54.3863 113.043 55.0691C112.897 55.7519 112.958 56.463 113.219 57.1107C113.479 57.7584 113.926 58.3132 114.503 58.7036C115.08 59.0939 115.76 59.3021 116.456 59.3013C116.909 59.333 117.364 59.2691 117.792 59.1137C118.219 58.9583 118.609 58.7149 118.936 58.399C119.264 58.0832 119.522 57.7019 119.694 57.2798C119.866 56.8577 119.948 56.4042 119.935 55.9484Z" fill="#1E1B1B"/>
<path d="M126.576 56.2384C126.57 54.7243 127.012 53.2425 127.846 51.9806C128.679 50.7187 129.868 49.7335 131.26 49.1499C132.652 48.5663 134.185 48.4104 135.666 48.7021C137.146 48.9938 138.507 49.7198 139.576 50.7883C140.645 51.8568 141.374 53.2197 141.67 54.7043C141.967 56.1889 141.818 57.7284 141.242 59.1278C140.666 60.5273 139.689 61.7237 138.435 62.5655C137.181 63.4074 135.706 63.8567 134.198 63.8568C133.196 63.8682 132.202 63.6792 131.274 63.3008C130.347 62.9224 129.503 62.3621 128.794 61.6528C128.084 60.9435 127.522 60.0994 127.142 59.1697C126.761 58.24 126.568 57.2435 126.576 56.2384ZM137.505 56.2384C137.487 55.5858 137.278 54.9529 136.903 54.419C136.529 53.8851 136.006 53.4738 135.4 53.2365C134.794 52.9992 134.131 52.9465 133.496 53.0849C132.86 53.2234 132.279 53.5468 131.825 54.0148C131.372 54.4829 131.066 55.0747 130.945 55.7163C130.825 56.358 130.896 57.021 131.149 57.6224C131.402 58.2238 131.826 58.737 132.369 59.0979C132.911 59.4587 133.547 59.6511 134.198 59.6511C134.643 59.663 135.086 59.5822 135.499 59.4137C135.912 59.2452 136.286 58.9926 136.596 58.672C136.907 58.3513 137.148 57.9696 137.305 57.5507C137.461 57.1319 137.529 56.685 137.505 56.2384Z" fill="#1E1B1B"/>
<path d="M143.832 45.1549C143.832 44.6411 143.983 44.1389 144.268 43.7117C144.552 43.2845 144.956 42.9515 145.429 42.7549C145.902 42.5583 146.423 42.5068 146.925 42.607C147.427 42.7073 147.888 42.9547 148.25 43.318C148.612 43.6813 148.859 44.1442 148.959 44.6481C149.059 45.152 149.007 45.6743 148.811 46.149C148.616 46.6237 148.284 47.0294 147.858 47.3148C147.432 47.6003 146.932 47.7527 146.42 47.7527C145.736 47.7458 145.081 47.4699 144.597 46.9842C144.113 46.4985 143.838 45.8417 143.832 45.1549ZM144.267 49.0224H148.583V63.4544H144.261L144.267 49.0224Z" fill="#1E1B1B"/>
<path d="M167.211 56.2382C167.26 57.192 167.122 58.1463 166.803 59.0462C166.484 59.946 165.991 60.7738 165.352 61.4818C164.713 62.1898 163.942 62.7641 163.081 63.1716C162.22 63.5792 161.288 63.8119 160.337 63.8565C159.538 63.9003 158.738 63.765 157.997 63.4604C157.257 63.1558 156.592 62.6896 156.053 62.0955V69.2255H151.739V49.0222H156.053V50.3779C156.593 49.7843 157.257 49.3185 157.998 49.0141C158.739 48.7098 159.538 48.5746 160.337 48.6184C161.288 48.6628 162.221 48.8955 163.081 49.3031C163.942 49.7106 164.714 50.2851 165.353 50.9933C165.992 51.7014 166.485 52.5294 166.804 53.4296C167.123 54.3297 167.261 55.2842 167.211 56.2382ZM162.896 56.2382C162.88 55.5628 162.665 54.9073 162.278 54.3539C161.892 53.8005 161.352 53.3737 160.725 53.127C160.098 52.8802 159.413 52.8244 158.755 52.9666C158.097 53.1088 157.495 53.4427 157.025 53.9264C156.555 54.4101 156.238 55.0222 156.113 55.6861C155.988 56.3499 156.06 57.0361 156.322 57.6586C156.583 58.2812 157.022 58.8125 157.583 59.1861C158.144 59.5596 158.802 59.7588 159.476 59.7587C159.938 59.7794 160.399 59.7017 160.829 59.5309C161.26 59.3601 161.649 59.1 161.972 58.7675C162.295 58.4351 162.544 58.038 162.704 57.6021C162.863 57.1662 162.929 56.7014 162.896 56.2382Z" fill="#1E1B1B"/>
<path d="M180.523 59.1234C180.523 62.4427 177.649 63.8568 174.543 63.8568C173.288 63.9708 172.028 63.7045 170.926 63.0922C169.823 62.48 168.929 61.5499 168.359 60.4223L172.097 58.2866C172.248 58.8078 172.573 59.2612 173.017 59.5711C173.461 59.881 173.998 60.0286 174.537 59.9893C175.571 59.9893 176.09 59.6715 176.09 59.0957C176.09 57.5067 169.014 58.3449 169.014 53.352C169.014 50.2047 171.661 48.6186 174.652 48.6186C175.776 48.5829 176.89 48.8506 177.876 49.3936C178.862 49.9367 179.685 50.7353 180.259 51.7062L176.578 53.6975C176.417 53.3195 176.148 52.9975 175.805 52.7717C175.463 52.5459 175.062 52.4263 174.652 52.4278C173.904 52.4278 173.443 52.7194 173.443 53.2354C173.449 54.8812 180.523 53.7835 180.523 59.1234Z" fill="#1E1B1B"/>
<path d="M196.282 49.0227V63.4547H191.968V62.0975C191.471 62.6964 190.839 63.1682 190.124 63.4744C189.409 63.7805 188.633 63.9122 187.857 63.8585C184.952 63.8585 182.483 61.7812 182.483 57.8816V49.0227H186.797V57.2475C186.761 57.5912 186.8 57.9387 186.911 58.2658C187.023 58.5928 187.204 58.8916 187.442 59.1414C187.68 59.3911 187.969 59.5858 188.29 59.7119C188.61 59.838 188.955 59.8925 189.298 59.8715C190.88 59.8715 191.973 58.9487 191.973 56.8991V49.0271L196.282 49.0227Z" fill="#1E1B1B"/>
<path d="M221.02 54.5926V63.4529H216.706V54.9672C216.706 53.524 216.016 52.6012 214.636 52.6012C213.198 52.6012 212.392 53.6115 212.392 55.3142V63.4529H208.079V54.9672C208.079 53.524 207.389 52.6012 206.008 52.6012C204.57 52.6012 203.765 53.6115 203.765 55.3142V63.4529H199.451V49.0209H203.765V50.3475C204.212 49.759 204.799 49.2923 205.472 48.99C206.145 48.6877 206.883 48.5595 207.618 48.6171C208.357 48.5809 209.092 48.7372 209.752 49.0709C210.412 49.4045 210.975 49.9041 211.385 50.521C211.863 49.8757 212.496 49.3625 213.226 49.0296C213.955 48.6966 214.756 48.5547 215.555 48.6171C218.857 48.6186 221.02 50.9846 221.02 54.5926Z" fill="#1E1B1B"/>
<path d="M224.668 48.9337C226.436 48.9337 227.87 47.4952 227.87 45.7208C227.87 43.9463 226.436 42.5078 224.668 42.5078C222.9 42.5078 221.467 43.9463 221.467 45.7208C221.467 47.4952 222.9 48.9337 224.668 48.9337Z" fill="#1E1B1B"/>
</svg>
