<svg width="258" height="110" viewBox="0 0 258 110" fill="none" xmlns="http://www.w3.org/2000/svg">
<path d="M85.0771 42.7776H89.4582V64.0431H85.0771V42.7776Z" fill="#1E1B1B"/>
<path d="M91.9118 56.7581C91.9119 55.2281 92.3626 53.7326 93.207 52.4611C94.0514 51.1896 95.2514 50.1993 96.6549 49.6159C98.0584 49.0324 99.6022 48.882 101.091 49.1837C102.579 49.4854 103.945 50.2257 105.016 51.3106C106.086 52.3956 106.813 53.7764 107.104 55.278C107.394 56.7797 107.236 58.3345 106.649 59.7455C106.062 61.1565 105.073 62.3601 103.806 63.2037C102.54 64.0474 101.053 64.4931 99.5349 64.4843C98.5279 64.4922 97.5295 64.2975 96.5982 63.9115C95.6669 63.5254 94.8215 62.9559 94.1115 62.2363C93.4015 61.5167 92.8412 60.6614 92.4634 59.7207C92.0857 58.78 91.8982 57.7728 91.9118 56.7581ZM102.894 56.7581C102.877 56.0985 102.667 55.4587 102.291 54.9186C101.914 54.3786 101.388 53.9623 100.779 53.7218C100.169 53.4813 99.5025 53.4273 98.8625 53.5666C98.2225 53.7059 97.6374 54.0322 97.1805 54.5048C96.7236 54.9774 96.415 55.5752 96.2935 56.2236C96.172 56.8719 96.2428 57.542 96.4972 58.15C96.7516 58.758 97.1782 59.2769 97.7237 59.6418C98.2692 60.0068 98.9094 60.2015 99.5641 60.2018C100.01 60.2105 100.453 60.1265 100.865 59.955C101.277 59.7835 101.65 59.5282 101.959 59.205C102.269 58.8818 102.509 58.4977 102.665 58.0766C102.821 57.6556 102.889 57.2068 102.865 56.7581H102.894Z" fill="#1E1B1B"/>
<path d="M124.493 49.4738V63.3222C124.493 68.2081 120.696 70.2831 116.855 70.2831C115.5 70.3952 114.141 70.1239 112.931 69.4999C111.721 68.8759 110.708 67.924 110.006 66.7511L113.701 64.6025C114 65.2108 114.476 65.7128 115.066 66.0414C115.656 66.3701 116.331 66.5098 117.001 66.4421C117.428 66.4951 117.862 66.4524 118.27 66.3169C118.679 66.1815 119.053 65.9567 119.366 65.6586C119.678 65.3605 119.922 64.9965 120.078 64.5926C120.235 64.1887 120.301 63.7549 120.272 63.3222V61.983C119.762 62.6059 119.116 63.1005 118.383 63.4275C117.65 63.7544 116.852 63.9048 116.052 63.8667C114.115 63.8667 112.258 63.0914 110.889 61.7115C109.519 60.3315 108.75 58.4599 108.75 56.5084C108.75 54.5568 109.519 52.6852 110.889 51.3053C112.258 49.9253 114.115 49.1501 116.052 49.1501C116.852 49.1119 117.65 49.2623 118.383 49.5893C119.116 49.9163 119.762 50.4109 120.272 51.0338V49.5621L124.493 49.4738ZM120.272 56.4642C120.301 55.7601 120.121 55.0634 119.754 54.4635C119.387 53.8636 118.85 53.3881 118.213 53.0981C117.576 52.8081 116.867 52.7168 116.178 52.836C115.488 52.9552 114.85 53.2794 114.345 53.767C113.841 54.2546 113.492 54.8832 113.344 55.5721C113.197 56.2609 113.257 56.9785 113.518 57.6325C113.778 58.2865 114.227 58.847 114.806 59.242C115.385 59.637 116.068 59.8484 116.767 59.8491C117.224 59.8822 117.682 59.8185 118.112 59.6621C118.543 59.5057 118.936 59.2601 119.266 58.9411C119.596 58.6221 119.856 58.2369 120.03 57.8102C120.203 57.3836 120.286 56.9251 120.272 56.4642Z" fill="#1E1B1B"/>
<path d="M126.96 56.7582C126.96 55.2295 127.41 53.7351 128.254 52.4642C129.097 51.1933 130.295 50.203 131.697 49.6187C133.099 49.0344 134.641 48.8822 136.128 49.1815C137.616 49.4808 138.982 50.2182 140.054 51.3002C141.126 52.3822 141.855 53.7602 142.149 55.2599C142.443 56.7596 142.289 58.3136 141.706 59.7251C141.124 61.1366 140.139 62.3423 138.876 63.1895C137.614 64.0367 136.13 64.4873 134.613 64.4844C133.604 64.4943 132.603 64.3011 131.669 63.9161C130.736 63.5311 129.887 62.9622 129.175 62.2425C128.462 61.5229 127.899 60.6671 127.519 59.7254C127.139 58.7836 126.949 57.7749 126.96 56.7582ZM137.942 56.7582C137.925 56.098 137.715 55.4576 137.338 54.9172C136.961 54.3769 136.435 53.9606 135.824 53.7206C135.213 53.4805 134.546 53.4274 133.906 53.5679C133.265 53.7084 132.68 54.0362 132.224 54.5102C131.768 54.9842 131.46 55.5835 131.34 56.2328C131.221 56.8821 131.294 57.5526 131.55 58.1603C131.807 58.768 132.236 59.2859 132.783 59.6491C133.33 60.0123 133.972 60.2046 134.627 60.2019C135.073 60.2106 135.516 60.1266 135.928 59.9551C136.34 59.7836 136.713 59.5283 137.023 59.2051C137.332 58.8819 137.573 58.4978 137.728 58.0768C137.884 57.6557 137.952 57.2069 137.928 56.7582H137.942Z" fill="#1E1B1B"/>
<path d="M144.295 45.5737C144.295 45.0556 144.447 44.5491 144.733 44.1183C145.019 43.6875 145.425 43.3518 145.9 43.1535C146.375 42.9552 146.897 42.9034 147.401 43.0044C147.906 43.1055 148.369 43.355 148.732 43.7214C149.096 44.0877 149.344 44.5545 149.444 45.0626C149.544 45.5708 149.493 46.0975 149.296 46.5761C149.099 47.0548 148.766 47.4639 148.339 47.7517C147.911 48.0396 147.408 48.1932 146.894 48.1932C146.207 48.1856 145.551 47.9071 145.065 47.4175C144.579 46.9279 144.303 46.266 144.295 45.5737ZM144.718 49.4736H149.099V64.043H144.718V49.4736Z" fill="#1E1B1B"/>
<path d="M167.851 56.7584C167.9 57.7274 167.759 58.6966 167.435 59.6102C167.111 60.5238 166.611 61.3638 165.963 62.0819C165.316 62.8 164.534 63.382 163.662 63.7943C162.791 64.2067 161.847 64.4413 160.885 64.4847C160.069 64.5394 159.251 64.4077 158.493 64.0993C157.734 63.791 157.054 63.314 156.504 62.704V69.9004H152.123V49.4737H156.504V50.8424C157.055 50.2341 157.735 49.7593 158.494 49.4535C159.253 49.1477 160.07 49.0187 160.885 49.0764C161.843 49.1198 162.783 49.353 163.652 49.7626C164.52 50.1722 165.3 50.7502 165.947 51.4635C166.594 52.1769 167.095 53.0116 167.422 53.9201C167.748 54.8286 167.894 55.7931 167.851 56.7584ZM163.47 56.7584C163.453 56.0749 163.236 55.4118 162.846 54.852C162.456 54.2923 161.911 53.861 161.28 53.612C160.648 53.3631 159.957 53.3077 159.294 53.4527C158.631 53.5977 158.025 53.9367 157.552 54.4272C157.08 54.9177 156.761 55.5379 156.637 56.2101C156.512 56.8822 156.588 57.5764 156.853 58.2056C157.118 58.8349 157.562 59.3711 158.129 59.7472C158.696 60.1233 159.36 60.3225 160.038 60.3199C160.503 60.3397 160.967 60.2604 161.399 60.087C161.831 59.9137 162.222 59.6502 162.546 59.3139C162.87 58.9777 163.12 58.5762 163.279 58.1357C163.438 57.6953 163.503 57.226 163.47 56.7584Z" fill="#1E1B1B"/>
<path d="M181.184 59.6724C181.184 63.0278 178.263 64.4553 175.167 64.4553C173.905 64.5699 172.637 64.3001 171.528 63.681C170.419 63.0618 169.52 62.1218 168.946 60.9822L172.714 58.8336C172.863 59.3587 173.187 59.8162 173.631 60.1297C174.075 60.4431 174.612 60.5934 175.153 60.5554C176.19 60.5554 176.715 60.2317 176.715 59.643C176.715 58.0389 169.603 58.8924 169.603 53.8446C169.603 50.6659 172.261 49.0765 175.27 49.0765C176.413 49.0249 177.549 49.2863 178.557 49.833C179.565 50.3798 180.407 51.1914 180.994 52.1817L177.227 54.1831C177.06 53.8035 176.788 53.4805 176.443 53.2533C176.099 53.0261 175.696 52.9043 175.284 52.9028C174.525 52.9028 174.072 53.1971 174.072 53.7122C174.072 55.3899 181.184 54.2861 181.184 59.6724Z" fill="#1E1B1B"/>
<path d="M197.058 49.4736V64.0431H192.677V62.6744C192.179 63.2802 191.547 63.7597 190.832 64.0741C190.116 64.3886 189.338 64.5292 188.559 64.4846C185.638 64.4846 183.141 62.3801 183.141 58.4508V49.4736H187.522V57.7885C187.487 58.1361 187.528 58.4871 187.641 58.8173C187.755 59.1475 187.938 59.4489 188.178 59.7008C188.418 59.9526 188.71 60.1489 189.033 60.2761C189.356 60.4034 189.702 60.4584 190.048 60.4375C191.625 60.4375 192.735 59.4956 192.735 57.4942V49.4736H197.058Z" fill="#1E1B1B"/>
<path d="M221.884 55.0953V64.043H217.503V55.478C217.503 54.0063 216.817 53.0939 215.429 53.0939C214.042 53.0939 213.166 54.1093 213.166 55.8312V64.043H208.785V55.478C208.785 54.0063 208.098 53.0939 206.711 53.0939C205.324 53.0939 204.447 54.1093 204.447 55.8312V64.043H200.066V49.4736H204.447V50.8128C204.901 50.2212 205.494 49.7526 206.172 49.4494C206.85 49.1463 207.592 49.018 208.332 49.0763C209.073 49.0373 209.811 49.1932 210.474 49.5286C211.137 49.864 211.703 50.3674 212.114 50.9894C212.596 50.3396 213.232 49.8233 213.965 49.4887C214.698 49.1541 215.504 49.0122 216.306 49.0763C219.723 49.0763 221.884 51.4603 221.884 55.0953Z" fill="#1E1B1B"/>
<path d="M58.9805 38.9513V32.6968H39.4116V75.6693H58.9805V69.4147C54.9718 69.4147 51.1273 67.8099 48.2927 64.9534C45.4582 62.097 43.8657 58.2227 43.8657 54.183C43.8657 50.1433 45.4582 46.2691 48.2927 43.4126C51.1273 40.5561 54.9718 38.9513 58.9805 38.9513Z" fill="#1E1B1B"/>
<path d="M58.9805 38.9512V69.4146C62.9891 69.4146 66.8336 67.8098 69.6682 64.9533C72.5028 62.0968 74.0952 58.2226 74.0952 54.1829C74.0952 50.1432 72.5028 46.2689 69.6682 43.4124C66.8336 40.5559 62.9891 38.9512 58.9805 38.9512Z" fill="#1E1B1B"/>
<path d="M225.564 49.3852C227.339 49.3852 228.777 47.9357 228.777 46.1476C228.777 44.3595 227.339 42.9099 225.564 42.9099C223.79 42.9099 222.352 44.3595 222.352 46.1476C222.352 47.9357 223.79 49.3852 225.564 49.3852Z" fill="#1E1B1B"/>
</svg>
