<svg width="258" height="110" viewBox="0 0 258 110" fill="none" xmlns="http://www.w3.org/2000/svg">
<path d="M85.3057 43.1221H89.6868V64.3876H85.3057V43.1221Z" fill="#1E1B1B"/>
<path d="M92.1403 57.1026C92.1404 55.5726 92.5911 54.0771 93.4356 52.8056C94.28 51.534 95.48 50.5438 96.8835 49.9603C98.287 49.3769 99.8308 49.2265 101.319 49.5282C102.808 49.8299 104.174 50.5702 105.244 51.6551C106.315 52.7401 107.041 54.1209 107.332 55.6225C107.623 57.1241 107.465 58.679 106.878 60.09C106.291 61.501 105.301 62.7046 104.035 63.5482C102.768 64.3918 101.282 64.8375 99.7634 64.8288C98.7565 64.8367 97.758 64.642 96.8267 64.2559C95.8954 63.8699 95.05 63.3004 94.34 62.5808C93.63 61.8612 93.0697 61.0059 92.692 60.0652C92.3142 59.1245 92.1267 58.1173 92.1403 57.1026ZM103.122 57.1026C103.105 56.443 102.895 55.8031 102.519 55.2631C102.143 54.723 101.617 54.3067 101.007 54.0663C100.398 53.8258 99.731 53.7718 99.091 53.9111C98.451 54.0503 97.8659 54.3767 97.409 54.8493C96.9521 55.3218 96.6436 55.9197 96.522 56.5681C96.4005 57.2164 96.4714 57.8865 96.7257 58.4945C96.9801 59.1025 97.4067 59.6214 97.9522 59.9863C98.4977 60.3513 99.1379 60.546 99.7926 60.5463C100.238 60.555 100.681 60.471 101.093 60.2995C101.505 60.128 101.878 59.8727 102.188 59.5495C102.498 59.2263 102.738 58.8421 102.894 58.4211C103.049 58.0001 103.117 57.5512 103.093 57.1026H103.122Z" fill="#1E1B1B"/>
<path d="M124.721 49.8183V63.6667C124.721 68.5526 120.924 70.6276 117.084 70.6276C115.729 70.7397 114.37 70.4684 113.16 69.8444C111.95 69.2204 110.937 68.2684 110.234 67.0956L113.929 64.947C114.229 65.5553 114.705 66.0572 115.294 66.3859C115.884 66.7145 116.559 66.8543 117.23 66.7866C117.657 66.8396 118.09 66.7969 118.499 66.6614C118.908 66.526 119.282 66.3012 119.594 66.0031C119.907 65.705 120.15 65.3409 120.307 64.937C120.464 64.5331 120.53 64.0993 120.501 63.6667V62.3274C119.991 62.9504 119.344 63.4449 118.611 63.7719C117.879 64.0989 117.081 64.2493 116.28 64.2112C114.344 64.2112 112.487 63.4359 111.117 62.056C109.748 60.676 108.979 58.8044 108.979 56.8529C108.979 54.9013 109.748 53.0297 111.117 51.6498C112.487 50.2698 114.344 49.4946 116.28 49.4946C117.081 49.4564 117.879 49.6068 118.611 49.9338C119.344 50.2608 119.991 50.7554 120.501 51.3783V49.9066L124.721 49.8183ZM120.501 56.8087C120.53 56.1046 120.349 55.4079 119.982 54.808C119.615 54.2081 119.079 53.7326 118.441 53.4426C117.804 53.1525 117.095 53.0613 116.406 53.1805C115.717 53.2997 115.079 53.6239 114.574 54.1115C114.069 54.5991 113.72 55.2277 113.573 55.9166C113.425 56.6054 113.486 57.323 113.746 57.977C114.007 58.631 114.455 59.1915 115.034 59.5865C115.613 59.9815 116.297 60.1929 116.996 60.1935C117.452 60.2267 117.91 60.163 118.341 60.0066C118.771 59.8502 119.164 59.6046 119.494 59.2856C119.825 58.9666 120.085 58.5814 120.258 58.1547C120.432 57.7281 120.514 57.2695 120.501 56.8087Z" fill="#1E1B1B"/>
<path d="M127.189 57.1027C127.189 55.574 127.639 54.0796 128.482 52.8087C129.325 51.5378 130.523 50.5475 131.925 49.9632C133.327 49.3788 134.869 49.2267 136.357 49.526C137.845 49.8253 139.211 50.5626 140.282 51.6446C141.354 52.7266 142.083 54.1047 142.377 55.6044C142.671 57.1041 142.518 58.6581 141.935 60.0696C141.352 61.4811 140.367 62.6868 139.105 63.534C137.842 64.3812 136.358 64.8318 134.841 64.8289C133.832 64.8388 132.832 64.6455 131.898 64.2606C130.964 63.8756 130.116 63.3066 129.403 62.587C128.691 61.8674 128.128 61.0116 127.747 60.0699C127.367 59.1281 127.177 58.1193 127.189 57.1027ZM138.171 57.1027C138.154 56.4425 137.943 55.8021 137.567 55.2617C137.19 54.7213 136.663 54.3051 136.053 54.0651C135.442 53.825 134.775 53.7719 134.134 53.9124C133.494 54.0528 132.909 54.3806 132.453 54.8547C131.996 55.3287 131.689 55.9279 131.569 56.5772C131.449 57.2266 131.522 57.8971 131.779 58.5048C132.035 59.1125 132.464 59.6304 133.012 59.9936C133.559 60.3567 134.201 60.549 134.856 60.5464C135.302 60.5551 135.744 60.4711 136.157 60.2996C136.569 60.1281 136.941 59.8728 137.251 59.5496C137.561 59.2264 137.801 58.8423 137.957 58.4212C138.113 58.0002 138.18 57.5513 138.156 57.1027H138.171Z" fill="#1E1B1B"/>
<path d="M144.523 45.9181C144.523 45.4 144.676 44.8936 144.962 44.4628C145.247 44.032 145.653 43.6963 146.128 43.498C146.603 43.2997 147.126 43.2478 147.63 43.3489C148.134 43.45 148.597 43.6995 148.961 44.0658C149.324 44.4322 149.572 44.8989 149.672 45.4071C149.773 45.9152 149.721 46.4419 149.524 46.9206C149.328 47.3993 148.995 47.8084 148.567 48.0962C148.14 48.3841 147.637 48.5377 147.123 48.5377C146.436 48.53 145.779 48.2516 145.293 47.762C144.807 47.2724 144.531 46.6105 144.523 45.9181ZM144.947 49.818H149.328V64.3875H144.947V49.818Z" fill="#1E1B1B"/>
<path d="M168.08 57.1029C168.129 58.0719 167.987 59.041 167.663 59.9547C167.339 60.8683 166.839 61.7083 166.192 62.4264C165.544 63.1445 164.762 63.7264 163.891 64.1388C163.019 64.5512 162.076 64.7858 161.114 64.8291C160.298 64.8839 159.48 64.7521 158.721 64.4438C157.962 64.1355 157.283 63.6585 156.733 63.0484V70.2449H152.352V49.8182H156.733V51.1869C157.283 50.5786 157.964 50.1038 158.722 49.798C159.481 49.4922 160.299 49.3632 161.114 49.4209C162.072 49.4643 163.012 49.6975 163.88 50.1071C164.749 50.5167 165.529 51.0947 166.176 51.808C166.822 52.5214 167.323 53.3561 167.65 54.2646C167.977 55.1731 168.123 56.1376 168.08 57.1029ZM163.699 57.1029C163.681 56.4194 163.464 55.7562 163.075 55.1965C162.685 54.6368 162.14 54.2054 161.508 53.9565C160.876 53.7076 160.185 53.6521 159.522 53.7971C158.859 53.9422 158.253 54.2812 157.781 54.7717C157.308 55.2622 156.99 55.8824 156.865 56.5546C156.741 57.2267 156.816 57.9209 157.082 58.5501C157.347 59.1794 157.791 59.7156 158.357 60.0917C158.924 60.4678 159.588 60.667 160.267 60.6643C160.731 60.6842 161.195 60.6049 161.627 60.4315C162.059 60.2582 162.45 59.9947 162.774 59.6584C163.098 59.3221 163.348 58.9206 163.508 58.4802C163.667 58.0398 163.732 57.5705 163.699 57.1029Z" fill="#1E1B1B"/>
<path d="M181.413 60.0169C181.413 63.3723 178.492 64.7998 175.396 64.7998C174.133 64.9143 172.865 64.6446 171.756 64.0255C170.647 63.4063 169.748 62.4662 169.175 61.3267L172.943 59.1781C173.092 59.7032 173.415 60.1607 173.859 60.4742C174.303 60.7876 174.841 60.9379 175.381 60.8999C176.418 60.8999 176.944 60.5761 176.944 59.9875C176.944 58.3834 169.832 59.2369 169.832 54.1891C169.832 51.0103 172.49 49.4209 175.498 49.4209C176.642 49.3693 177.778 49.6308 178.786 50.1775C179.794 50.7243 180.636 51.5359 181.223 52.5261L177.455 54.5276C177.289 54.1479 177.017 53.825 176.672 53.5978C176.327 53.3706 175.925 53.2488 175.513 53.2473C174.753 53.2473 174.301 53.5416 174.301 54.0567C174.301 55.7344 181.413 54.6306 181.413 60.0169Z" fill="#1E1B1B"/>
<path d="M197.286 49.8181V64.3876H192.905V63.0189C192.408 63.6247 191.776 64.1042 191.06 64.4186C190.345 64.733 189.566 64.8736 188.787 64.8291C185.866 64.8291 183.369 62.7246 183.369 58.7952V49.8181H187.75V58.133C187.716 58.4806 187.757 58.8316 187.87 59.1618C187.983 59.4919 188.166 59.7934 188.407 60.0452C188.647 60.2971 188.938 60.4934 189.261 60.6206C189.584 60.7478 189.931 60.8029 190.277 60.782C191.854 60.782 192.964 59.8401 192.964 57.8387V49.8181H197.286Z" fill="#1E1B1B"/>
<path d="M222.113 55.4398V64.3875H217.732V55.8225C217.732 54.3508 217.045 53.4384 215.658 53.4384C214.271 53.4384 213.394 54.4538 213.394 56.1757V64.3875H209.013V55.8225C209.013 54.3508 208.327 53.4384 206.94 53.4384C205.552 53.4384 204.676 54.4538 204.676 56.1757V64.3875H200.295V49.8181H204.676V51.1573C205.13 50.5656 205.722 50.0971 206.4 49.7939C207.079 49.4907 207.821 49.3625 208.561 49.4207C209.302 49.3818 210.04 49.5377 210.703 49.8731C211.366 50.2085 211.931 50.7119 212.343 51.3339C212.824 50.6841 213.461 50.1678 214.194 49.8332C214.927 49.4986 215.732 49.3567 216.534 49.4207C219.951 49.4207 222.113 51.8048 222.113 55.4398Z" fill="#1E1B1B"/>
<path d="M59.209 39.2958V33.0413H39.6401V76.0137H59.209V69.7592C55.2003 69.7592 51.3558 68.1544 48.5212 65.2979C45.6867 62.4414 44.0942 58.5672 44.0942 54.5275C44.0942 50.4878 45.6867 46.6136 48.5212 43.7571C51.3558 40.9006 55.2003 39.2958 59.209 39.2958Z" fill="#1E1B1B"/>
<path d="M59.209 39.2957V69.759C63.2177 69.759 67.0622 68.1543 69.8967 65.2978C72.7313 62.4413 74.3237 58.567 74.3237 54.5273C74.3237 50.4876 72.7313 46.6134 69.8967 43.7569C67.0622 40.9004 63.2177 39.2957 59.209 39.2957Z" fill="#1E1B1B"/>
<path d="M225.793 49.7297C227.567 49.7297 229.006 48.2802 229.006 46.4921C229.006 44.7039 227.567 43.2544 225.793 43.2544C224.018 43.2544 222.58 44.7039 222.58 46.4921C222.58 48.2802 224.018 49.7297 225.793 49.7297Z" fill="#1E1B1B"/>
</svg>
