<svg width="256" height="109" viewBox="0 0 256 109" fill="none" xmlns="http://www.w3.org/2000/svg">
<path d="M60.1642 51.8465C59.6137 52.4023 59.1921 53.0731 58.9295 53.8112C58.6669 54.5492 58.5697 55.3363 58.6448 56.1163L58.6187 56.0901C58.6959 57.0083 58.5725 57.9323 58.2572 58.7977C57.9418 59.6631 57.4421 60.449 56.7929 61.1006C56.1436 61.7521 55.3605 62.2536 54.4982 62.5701C53.6359 62.8866 52.7152 63.0104 51.8003 62.9329L51.8264 62.9591C50.7321 62.8569 49.6329 63.0959 48.6788 63.6436C47.7247 64.1912 46.9621 65.0209 46.4951 66.0194C46.028 67.018 45.8792 68.1368 46.069 69.2233C46.2587 70.3098 46.7777 71.3111 47.5553 72.0908C48.3328 72.8704 49.3311 73.3904 50.4139 73.5798C51.4967 73.7692 52.6113 73.6189 53.6059 73.1493C54.6004 72.6796 55.4264 71.9136 55.9713 70.9556C56.5161 69.9976 56.7533 68.8943 56.6504 67.796L56.678 67.8223C56.6008 66.9041 56.7242 65.98 57.0395 65.1146C57.3548 64.2493 57.8546 63.4633 58.5038 62.8118C59.153 62.1602 59.9361 61.6587 60.7984 61.3422C61.6608 61.0258 62.5815 60.902 63.4964 60.9795L63.4688 60.9532C64.3628 61.0339 65.2626 60.8868 66.0848 60.5256C66.9071 60.1643 67.6252 59.6006 68.1725 58.8867C68.7199 58.1727 69.0788 57.3317 69.2161 56.4415C69.3533 55.5513 69.2644 54.6407 68.9577 53.7941C68.6509 52.9476 68.1361 52.1924 67.4611 51.5987C66.7861 51.005 65.9726 50.5918 65.0961 50.3976C64.2197 50.2034 63.3085 50.2343 62.4471 50.4876C61.5858 50.7409 60.802 51.2083 60.1686 51.8465H60.1642Z" fill="#1E1B1B"/>
<path d="M49.4481 59.5219L49.4205 59.4956C50.1981 59.5743 50.9834 59.4785 51.7196 59.2152C52.4558 58.9519 53.1245 58.5278 53.6773 57.9734C54.2302 57.4189 54.6533 56.7482 54.9162 56.0095C55.1791 55.2709 55.2751 54.4829 55.1974 53.7024L55.225 53.7286C55.1477 52.8105 55.2711 51.8864 55.5864 51.021C55.9018 50.1556 56.4015 49.3697 57.0507 48.7182C57.7 48.0666 58.4831 47.5651 59.3454 47.2486C60.2077 46.9321 61.1284 46.8083 62.0433 46.8858L62.0157 46.8596C63.1102 46.9628 64.2097 46.7246 65.1644 46.1775C66.119 45.6305 66.8823 44.8012 67.35 43.8028C67.8178 42.8044 67.9673 41.6855 67.7781 40.5987C67.5889 39.512 67.0703 38.5102 66.293 37.7301C65.5157 36.95 64.5175 36.4295 63.4346 36.2397C62.3517 36.0498 61.2368 36.1998 60.242 36.6693C59.2472 37.1387 58.4208 37.9047 57.8757 38.8627C57.3306 39.8208 57.0933 40.9243 57.1961 42.0227L57.1699 41.995C57.2474 42.9132 57.1242 43.8374 56.809 44.7029C56.4937 45.5684 55.994 46.3544 55.3447 47.006C54.6954 47.6577 53.9122 48.1592 53.0498 48.4756C52.1874 48.7919 51.2665 48.9156 50.3516 48.8378L50.3777 48.8655C49.6001 48.7869 48.8148 48.8826 48.0786 49.1459C47.3424 49.4092 46.6737 49.8334 46.1209 50.3878C45.5681 50.9422 45.1449 51.6129 44.882 52.3516C44.6191 53.0902 44.5231 53.8783 44.6009 54.6587L44.5747 54.6325C44.6517 55.5506 44.5282 56.4745 44.2127 57.3398C43.8973 58.2051 43.3975 58.9909 42.7484 59.6424C42.0992 60.2939 41.3162 60.7954 40.454 61.112C39.5918 61.4286 38.6712 61.5525 37.7564 61.4753L37.7825 61.5015C36.688 61.3984 35.5885 61.6366 34.6338 62.1836C33.6792 62.7307 32.916 63.5599 32.4482 64.5583C31.9805 65.5567 31.831 66.6756 32.0201 67.7624C32.2093 68.8492 32.7279 69.8509 33.5052 70.631C34.2826 71.4111 35.2807 71.9316 36.3636 72.1215C37.4465 72.3113 38.5614 72.1613 39.5563 71.6919C40.5511 71.2224 41.3774 70.4564 41.9225 69.4984C42.4676 68.5403 42.7049 67.4368 42.6021 66.3384L42.6297 66.3647C42.5525 65.4465 42.6759 64.5224 42.9912 63.6571C43.3065 62.7917 43.8063 62.0058 44.4555 61.3542C45.1047 60.7026 45.8878 60.2011 46.7501 59.8846C47.6125 59.5682 48.5332 59.4444 49.4481 59.5219Z" fill="#1E1B1B"/>
<path d="M39.7134 56.5961C40.264 56.0404 40.6855 55.3696 40.9479 54.6315C41.2103 53.8934 41.3071 53.1063 41.2313 52.3263L41.2589 52.3525C41.1817 51.4341 41.3051 50.5098 41.6206 49.6442C41.9361 48.7786 42.4361 47.9925 43.0857 47.3409C43.7352 46.6893 44.5187 46.1878 45.3814 45.8715C46.244 45.5553 47.1651 45.4318 48.0802 45.5097L48.0526 45.4835C49.1467 45.5864 50.2458 45.348 51.2 44.801C52.1542 44.254 52.9171 43.4249 53.3845 42.4269C53.852 41.4288 54.0013 40.3103 53.8122 39.2239C53.623 38.1376 53.1046 37.1362 52.3275 36.3564C51.5505 35.5765 50.5527 35.0562 49.4702 34.8664C48.3877 34.6766 47.2732 34.8264 46.2787 35.2956C45.2842 35.7647 44.4581 36.5303 43.913 37.4879C43.368 38.4455 43.1305 39.5486 43.233 40.6466L43.2068 40.6204C43.2841 41.5385 43.1607 42.4626 42.8454 43.328C42.53 44.1934 42.0303 44.9793 41.3811 45.6308C40.7318 46.2824 39.9487 46.7839 39.0864 47.1004C38.2241 47.4169 37.3034 47.5407 36.3885 47.4632L36.4146 47.4894C35.5207 47.4089 34.621 47.5563 33.7988 47.9177C32.9767 48.2791 32.2588 48.8429 31.7116 49.5569C31.1644 50.2709 30.8056 51.112 30.6685 52.0022C30.5314 52.8923 30.6205 53.8029 30.9274 54.6493C31.2342 55.4958 31.7491 56.2508 32.4241 56.8444C33.0992 57.4381 33.9126 57.8511 34.7891 58.0452C35.6655 58.2394 36.5766 58.2084 37.4379 57.955C38.2992 57.7017 39.0829 57.2343 39.7163 56.5961H39.7134Z" fill="#1E1B1B"/>
<path d="M84.7095 42.0562H89.0236V63.1254H84.7095V42.0562Z" fill="#1E1B1B"/>
<path d="M91.467 55.9108C91.461 54.3967 91.9028 52.9148 92.7366 51.6529C93.5704 50.3911 94.7586 49.4059 96.1508 48.8223C97.5429 48.2386 99.0763 48.0828 100.557 48.3745C102.037 48.6661 103.398 49.3922 104.467 50.4607C105.536 51.5292 106.265 52.8921 106.562 54.3766C106.858 55.8612 106.709 57.4007 106.133 58.8002C105.557 60.1996 104.58 61.396 103.326 62.2379C102.072 63.0797 100.597 63.5291 99.0886 63.5291C98.0872 63.5406 97.0934 63.3516 96.1656 62.9732C95.2377 62.5947 94.3943 62.0345 93.6847 61.3252C92.9751 60.6159 92.4135 59.7717 92.0327 58.8421C91.6519 57.9124 91.4596 56.9159 91.467 55.9108ZM102.396 55.9108C102.378 55.2581 102.169 54.6253 101.794 54.0914C101.42 53.5574 100.897 53.1461 100.291 52.9089C99.6849 52.6716 99.0226 52.6189 98.3868 52.7573C97.7511 52.8957 97.1701 53.2192 96.7165 53.6872C96.2629 54.1552 95.9568 54.7471 95.8365 55.3887C95.7163 56.0303 95.7871 56.6933 96.0402 57.2948C96.2934 57.8962 96.7176 58.4094 97.2597 58.7702C97.8019 59.1311 98.4381 59.3235 99.0886 59.3234C99.5342 59.3354 99.9773 59.2545 100.39 59.086C100.803 58.9175 101.177 58.665 101.487 58.3443C101.798 58.0237 102.039 57.6419 102.196 57.2231C102.352 56.8042 102.42 56.3574 102.396 55.9108Z" fill="#1E1B1B"/>
<path d="M123.904 48.6948V62.3979C123.904 67.2465 120.136 69.2962 116.311 69.2962C114.965 69.3973 113.616 69.1243 112.414 68.5072C111.212 67.89 110.202 66.9525 109.496 65.7975L113.177 63.6618C113.474 64.2639 113.947 64.7606 114.533 65.0855C115.119 65.4104 115.789 65.5479 116.455 65.4797C116.881 65.5389 117.314 65.5013 117.723 65.3696C118.133 65.238 118.507 65.0158 118.819 64.7193C119.131 64.4228 119.373 64.0597 119.526 63.6569C119.679 63.2541 119.74 62.8218 119.705 62.3921V61.0728C119.199 61.6932 118.556 62.186 117.827 62.5118C117.098 62.8377 116.303 62.9874 115.505 62.949C113.608 62.8889 111.808 62.0903 110.487 60.7221C109.166 59.354 108.428 57.5236 108.428 55.6186C108.428 53.7135 109.166 51.8831 110.487 50.515C111.808 49.1468 113.608 48.3482 115.505 48.2881C116.303 48.2497 117.098 48.3994 117.827 48.7253C118.556 49.0511 119.199 49.5439 119.705 50.1643V48.6919L123.904 48.6948ZM119.706 55.6207C119.735 54.923 119.555 54.2325 119.19 53.6381C118.825 53.0437 118.29 52.5727 117.656 52.2856C117.022 51.9985 116.316 51.9085 115.631 52.0272C114.945 52.1459 114.31 52.4678 113.808 52.9515C113.306 53.4352 112.96 54.0586 112.814 54.7415C112.668 55.4243 112.729 56.1353 112.99 56.7831C113.25 57.4308 113.697 57.9855 114.274 58.3759C114.851 58.7663 115.531 58.9745 116.227 58.9736C116.68 59.0054 117.135 58.9415 117.563 58.7861C117.99 58.6307 118.38 58.3872 118.707 58.0714C119.035 57.7555 119.293 57.3743 119.465 56.9522C119.637 56.5301 119.719 56.0766 119.706 55.6207Z" fill="#1E1B1B"/>
<path d="M228 55.6796C227.994 54.1655 228.436 52.6836 229.27 51.4217C230.104 50.1598 231.292 49.1747 232.684 48.5911C234.076 48.0074 235.61 47.8516 237.09 48.1433C238.57 48.4349 239.931 49.161 241 50.2295C242.069 51.298 242.798 52.6608 243.095 54.1454C243.391 55.63 243.242 57.1695 242.666 58.569C242.09 59.9684 241.113 61.1648 239.859 62.0067C238.605 62.8485 237.131 63.2979 235.622 63.2979C234.62 63.3094 233.627 63.1204 232.699 62.742C231.771 62.3635 230.928 61.8033 230.218 61.094C229.508 60.3847 228.947 59.5405 228.566 58.6109C228.185 57.6812 227.993 56.6847 228 55.6796ZM238.929 55.6796C238.911 55.0269 238.702 54.3941 238.328 53.8602C237.953 53.3262 237.43 52.9149 236.824 52.6777C236.218 52.4404 235.556 52.3877 234.92 52.5261C234.284 52.6645 233.703 52.988 233.25 53.456C232.796 53.924 232.49 54.5159 232.37 55.1575C232.249 55.7991 232.32 56.4621 232.573 57.0636C232.827 57.665 233.251 58.1782 233.793 58.539C234.335 58.8999 234.971 59.0923 235.622 59.0922C236.067 59.1042 236.511 59.0233 236.923 58.8548C237.336 58.6863 237.71 58.4338 238.021 58.1131C238.331 57.7925 238.573 57.4107 238.729 56.9919C238.885 56.573 238.954 56.1262 238.929 55.6796Z" fill="#1E1B1B"/>
<path d="M143.603 44.8273C143.603 44.3135 143.754 43.8112 144.039 43.384C144.323 42.9568 144.727 42.6239 145.2 42.4272C145.673 42.2306 146.194 42.1792 146.696 42.2794C147.198 42.3796 147.659 42.6271 148.021 42.9904C148.383 43.3537 148.63 43.8165 148.73 44.3205C148.83 44.8244 148.778 45.3467 148.582 45.8214C148.387 46.2961 148.055 46.7018 147.629 46.9872C147.203 47.2727 146.703 47.425 146.191 47.425C145.507 47.4182 144.852 47.1423 144.368 46.6566C143.884 46.1709 143.609 45.5141 143.603 44.8273ZM144.038 48.6947H148.354V63.1267H144.032L144.038 48.6947Z" fill="#1E1B1B"/>
<path d="M166.982 55.9106C167.031 56.8644 166.893 57.8186 166.574 58.7185C166.255 59.6184 165.762 60.4462 165.123 61.1542C164.484 61.8621 163.713 62.4364 162.852 62.844C161.991 63.2515 161.059 63.4843 160.108 63.5289C159.309 63.5727 158.509 63.4374 157.768 63.1328C157.028 62.8282 156.363 62.362 155.824 61.7679V68.8979H151.51V48.6946H155.824V50.0503C156.364 49.4567 157.028 48.9908 157.769 48.6865C158.51 48.3822 159.309 48.247 160.108 48.2908C161.059 48.3352 161.992 48.5679 162.852 48.9754C163.713 49.383 164.485 49.9574 165.124 50.6656C165.763 51.3738 166.256 52.2018 166.575 53.1019C166.894 54.0021 167.032 54.9566 166.982 55.9106ZM162.667 55.9106C162.651 55.2351 162.436 54.5797 162.049 54.0263C161.663 53.4729 161.123 53.0461 160.496 52.7993C159.869 52.5526 159.184 52.4968 158.526 52.639C157.868 52.7812 157.266 53.115 156.796 53.5987C156.326 54.0825 156.009 54.6946 155.884 55.3584C155.759 56.0223 155.831 56.7085 156.093 57.331C156.354 57.9536 156.793 58.4849 157.354 58.8584C157.915 59.232 158.573 59.4312 159.247 59.4311C159.709 59.4517 160.17 59.3741 160.6 59.2033C161.031 59.0325 161.42 58.7723 161.743 58.4399C162.066 58.1075 162.315 57.7103 162.475 57.2744C162.634 56.8385 162.7 56.3737 162.667 55.9106Z" fill="#1E1B1B"/>
<path d="M180.294 58.7957C180.294 62.1151 177.42 63.5291 174.314 63.5291C173.059 63.6432 171.799 63.3769 170.697 62.7646C169.594 62.1523 168.7 61.2222 168.13 60.0946L171.868 57.959C172.019 58.4802 172.344 58.9336 172.788 59.2435C173.232 59.5534 173.769 59.701 174.308 59.6617C175.342 59.6617 175.861 59.3439 175.861 58.768C175.861 57.1791 168.785 58.0173 168.785 53.0244C168.785 49.8771 171.432 48.291 174.423 48.291C175.547 48.2553 176.661 48.5229 177.647 49.066C178.633 49.6091 179.456 50.4077 180.03 51.3786L176.349 53.3699C176.188 52.9919 175.919 52.6699 175.576 52.4441C175.234 52.2183 174.833 52.0987 174.423 52.1002C173.675 52.1002 173.214 52.3917 173.214 52.9078C173.22 54.5536 180.294 53.4559 180.294 58.7957Z" fill="#1E1B1B"/>
<path d="M196.053 48.6951V63.1271H191.739V61.7699C191.242 62.3687 190.61 62.8406 189.895 63.1467C189.18 63.4529 188.404 63.5845 187.628 63.5309C184.723 63.5309 182.254 61.4535 182.254 57.554V48.6951H186.568V56.9199C186.532 57.2636 186.571 57.6111 186.682 57.9381C186.794 58.2652 186.975 58.564 187.213 58.8138C187.451 59.0635 187.74 59.2582 188.061 59.3843C188.381 59.5104 188.726 59.5648 189.069 59.5439C190.651 59.5439 191.744 58.6211 191.744 56.5714V48.6994L196.053 48.6951Z" fill="#1E1B1B"/>
<path d="M220.791 54.2649V63.1253H216.477V54.6396C216.477 53.1964 215.787 52.2736 214.407 52.2736C212.969 52.2736 212.163 53.2838 212.163 54.9865V63.1253H207.85V54.6396C207.85 53.1964 207.16 52.2736 205.779 52.2736C204.341 52.2736 203.536 53.2838 203.536 54.9865V63.1253H199.222V48.6933H203.536V50.0199C203.983 49.4313 204.57 48.9646 205.243 48.6624C205.916 48.3601 206.654 48.2319 207.389 48.2895C208.128 48.2533 208.863 48.4096 209.523 48.7432C210.183 49.0769 210.746 49.5765 211.156 50.1933C211.634 49.548 212.267 49.0349 212.997 48.7019C213.726 48.369 214.527 48.2271 215.326 48.2895C218.628 48.2909 220.791 50.6569 220.791 54.2649Z" fill="#1E1B1B"/>
<path d="M224.439 48.6061C226.207 48.6061 227.641 47.1676 227.641 45.3931C227.641 43.6187 226.207 42.1802 224.439 42.1802C222.671 42.1802 221.238 43.6187 221.238 45.3931C221.238 47.1676 222.671 48.6061 224.439 48.6061Z" fill="#1E1B1B"/>
</svg>
