<svg width="611" height="470" viewBox="0 0 611 470" fill="none" xmlns="http://www.w3.org/2000/svg">
<g clip-path="url(#clip0_645_2568)">
<ellipse cx="229" cy="453" rx="107" ry="13" fill="#D9D9D9" fill-opacity="0.3"/>
<path d="M438.122 327.678H323.358C321.133 307.233 339.799 275.768 382.687 229.523C429.245 178.83 486.416 160.157 496.895 174.202C506.774 187.18 478.563 220.462 441.742 260.966C488.656 246.535 528.191 251.637 531.588 264.896C535.941 281.263 491.289 302.553 438.122 327.678Z" fill="#A6E1FF"/>
<path d="M395.584 310.421C395.356 310.631 395.219 310.922 395.204 311.231C395.189 311.541 395.296 311.844 395.502 312.075C395.611 312.197 395.745 312.295 395.894 312.362C396.044 312.428 396.206 312.462 396.37 312.461C396.66 312.462 396.94 312.357 397.156 312.164C407.08 303.375 418.186 296.019 430.15 290.31C433.732 291.185 456.107 297.355 463.323 315.679L465.377 314.685C458.702 298.371 440.615 291.111 433.317 288.797C446.522 282.779 460.299 278.104 474.439 274.841C477.272 275.226 495.397 278.319 503.555 294.73L505.543 293.543C499.083 280.847 486.854 275.656 479.772 273.654C490.132 271.381 500.643 269.864 511.223 269.116C511.377 269.109 511.528 269.072 511.668 269.007C511.807 268.942 511.933 268.85 512.037 268.736C512.141 268.622 512.221 268.489 512.274 268.344C512.327 268.2 512.35 268.046 512.343 267.892C512.337 267.738 512.299 267.587 512.234 267.448C512.169 267.308 512.077 267.183 511.963 267.079C511.85 266.975 511.717 266.894 511.572 266.842C511.427 266.789 511.274 266.766 511.12 266.772C510.793 266.772 495.294 267.581 474.35 272.468C474.091 272.444 473.832 272.504 473.609 272.638C467.676 274.04 461.372 275.768 454.839 277.896C459.088 273.395 465.221 265.119 464.324 255.375L461.995 255.827C462.996 269.131 449.67 279.557 449.521 279.676C442.785 282.044 436.185 284.782 429.75 287.878C429.557 287.917 429.378 288.006 429.231 288.137C417.026 293.952 405.7 301.453 395.584 310.421ZM356.731 305.534C356.89 305.613 357.065 305.653 357.242 305.653C357.463 305.653 357.679 305.59 357.866 305.472C358.052 305.354 358.201 305.185 358.295 304.986C373.706 273.024 396.711 247.492 418.492 228.478C422.141 227.373 448.743 220.002 465.169 234.566L466.704 232.771C452.732 220.395 432.034 222.96 422.489 225.044C451.976 200.179 478.177 187.506 478.644 187.283C478.913 187.143 479.117 186.904 479.213 186.616C479.309 186.328 479.289 186.014 479.159 185.741C479.028 185.467 478.796 185.255 478.512 185.148C478.228 185.042 477.914 185.05 477.636 185.17C477.272 185.341 461.217 193.112 440.103 208.344C442.602 203.435 445.65 195.522 443.811 188.737C443.286 186.824 442.344 185.051 441.052 183.546L438.931 184.703C440.179 186.022 441.08 187.63 441.556 189.382C444.159 198.859 435.557 211.629 435.468 211.755C435.47 211.775 435.47 211.795 435.468 211.815C429.683 216.145 423.602 221.017 417.402 226.401H417.358C417.208 226.452 417.07 226.533 416.953 226.639C416.836 226.745 416.741 226.873 416.675 227.017C413.39 229.902 410.067 232.949 406.745 236.108C408.584 229.568 411.046 216.924 406.478 206.957L404.602 208.522C410.134 221.433 403.348 239.142 403.17 239.594C385.668 256.954 368.545 278.43 356.234 303.977C356.097 304.25 356.073 304.566 356.166 304.857C356.259 305.147 356.461 305.391 356.731 305.534Z" fill="white"/>
<path style="mix-blend-mode:multiply" d="M438.122 327.678H323.358C321.133 307.233 339.799 275.768 382.687 229.523C429.245 178.83 486.416 160.157 496.895 174.202C506.774 187.18 478.563 220.462 441.742 260.966C488.656 246.535 528.191 251.637 531.588 264.896C535.941 281.263 491.289 302.553 438.122 327.678Z" fill="url(#paint0_linear_645_2568)"/>
<path d="M431.426 296.109C431.117 295.978 430.84 295.783 430.615 295.535C430.39 295.287 430.221 294.993 430.12 294.674C430.019 294.355 429.989 294.017 430.031 293.685C430.073 293.353 430.187 293.033 430.365 292.75C429.675 292.609 447.274 263.139 443.284 256.791C438.464 249.575 403.793 264.429 403.979 265.126C402.421 265.912 400.856 265.46 400.493 264.103C400.441 264.103 397.727 252.979 392.417 252.979C382.776 252.935 368.856 271.637 365.355 293.617C365.339 293.757 365.314 293.896 365.281 294.033C365.214 294.477 364.614 293.854 363.939 292.653C363.85 292.705 361.618 278.726 356.99 279.609C346.555 281.455 336.9 320.158 335.921 327.678H413.961C430.365 321.434 442.379 312.905 441.964 304.859C441.704 300.076 431.463 296.057 431.426 296.109ZM323.284 313.743C319.717 314.759 316.135 319.906 313.316 327.678H333.577C331.849 323.191 327.422 312.498 323.284 313.743Z" fill="#7DA6EF"/>
<g style="mix-blend-mode:multiply">
<path d="M441.527 307.967C441.812 307.116 441.96 306.225 441.964 305.327C433.384 307.552 412.515 311.348 395.903 300.751C410.199 290.04 423.355 277.886 435.164 264.481C435.266 264.359 435.343 264.219 435.391 264.067C435.439 263.916 435.457 263.756 435.443 263.598C435.429 263.439 435.384 263.285 435.311 263.144C435.238 263.003 435.137 262.878 435.015 262.776C434.894 262.673 434.753 262.596 434.601 262.548C434.45 262.5 434.29 262.483 434.132 262.497C433.973 262.51 433.819 262.555 433.678 262.628C433.537 262.702 433.412 262.802 433.31 262.924C433.05 263.235 411.217 289.02 381.493 307.715C374.878 289.732 388.835 263.221 394.531 253.58C393.893 253.177 393.157 252.956 392.402 252.942H392.054C385.876 263.406 372.03 290.14 379.402 308.961C374.026 312.278 368.446 315.25 362.693 317.859C362.439 317.972 362.232 318.169 362.106 318.416C361.98 318.663 361.943 318.947 362.002 319.218C362.06 319.49 362.21 319.733 362.426 319.907C362.643 320.081 362.913 320.175 363.19 320.173C363.359 320.175 363.526 320.14 363.68 320.069C369.778 317.308 375.689 314.149 381.375 310.614C385.683 307.952 389.829 305.142 393.782 302.272C403.082 308.493 413.546 310.355 422.705 310.355C429.053 310.331 435.374 309.529 441.527 307.967Z" fill="#7DA6EF"/>
</g>
<path style="mix-blend-mode:multiply" d="M431.426 296.109C431.117 295.978 430.84 295.783 430.615 295.535C430.39 295.287 430.221 294.993 430.12 294.674C430.019 294.355 429.989 294.017 430.031 293.685C430.073 293.353 430.187 293.033 430.365 292.75C429.675 292.609 447.274 263.139 443.284 256.791C438.464 249.575 403.793 264.429 403.979 265.126C402.421 265.912 400.856 265.46 400.493 264.103C400.441 264.103 397.727 252.979 392.417 252.979C382.776 252.935 368.856 271.637 365.355 293.617C365.339 293.757 365.314 293.896 365.281 294.033C365.214 294.477 364.614 293.854 363.939 292.653C363.85 292.705 361.618 278.726 356.99 279.609C346.555 281.455 336.9 320.158 335.921 327.678H413.961C430.365 321.434 442.379 312.905 441.964 304.859C441.704 300.076 431.463 296.057 431.426 296.109ZM323.284 313.743C319.717 314.759 316.135 319.906 313.316 327.678H333.577C331.849 323.191 327.422 312.498 323.284 313.743Z" fill="url(#paint1_linear_645_2568)"/>
<path d="M309.408 327.678C310.15 325.72 310.891 323.747 311.633 321.745C321.897 291.43 328.616 267.685 320.651 262.019C316.053 258.697 300.672 270.347 300.746 270.532C299.5 271.548 298.9 271.044 299.419 269.413C298.773 268.73 315.675 232.505 311.418 222.441C309.408 218.044 295.214 226.513 295.243 226.654C293.76 227.076 292.722 227.136 293.019 226.772L293.271 226.439C306.538 208.567 313.732 190.843 307.717 182.879C304.336 178.429 291.773 181.225 291.765 181.292C290.223 181.677 288.762 180.55 288.539 178.733C287.798 179.045 285.573 138.941 277.526 135.403C268.123 131.562 244.235 168.67 244.851 169.234C243.857 171.006 242.04 171.599 240.802 170.517C240.802 170.591 230.819 161.521 225.688 165.022C216.321 171.288 215.06 198.541 226.058 222.123L226.259 222.56C226.488 223.035 225.517 222.842 224.034 222.108C223.989 222.219 212.665 210.124 208.756 214.017C198.871 223.584 219.643 276.532 220.622 275.642C221.431 277.577 220.934 278.326 219.517 277.288C219.458 277.481 202.46 264.222 198.433 269.175C192.359 276.391 198.997 302.672 216.18 327.633L309.408 327.678Z" fill="#D6DEF5"/>
<path style="mix-blend-mode:multiply" d="M309.408 327.678C310.15 325.72 310.891 323.747 311.633 321.745C321.897 291.43 328.616 267.685 320.651 262.019C316.053 258.697 300.672 270.347 300.746 270.532C299.5 271.548 298.9 271.044 299.419 269.413C298.773 268.73 315.675 232.505 311.418 222.441C309.408 218.044 295.214 226.513 295.243 226.654C293.76 227.076 292.722 227.136 293.019 226.772L293.271 226.439C306.538 208.567 313.732 190.843 307.717 182.879C304.336 178.429 291.773 181.225 291.765 181.292C290.223 181.677 288.762 180.55 288.539 178.733C287.798 179.045 285.573 138.941 277.526 135.403C268.123 131.562 244.235 168.67 244.851 169.234C243.857 171.006 242.04 171.599 240.802 170.517C240.802 170.591 230.819 161.521 225.688 165.022C216.321 171.288 215.06 198.541 226.058 222.123L226.259 222.56C226.488 223.035 225.517 222.842 224.034 222.108C223.989 222.219 212.665 210.124 208.756 214.017C198.871 223.584 219.643 276.532 220.622 275.642C221.431 277.577 220.934 278.326 219.517 277.288C219.458 277.481 202.46 264.222 198.433 269.175C192.359 276.391 198.997 302.672 216.18 327.633L309.408 327.678Z" fill="url(#paint2_linear_645_2568)"/>
<g style="mix-blend-mode:multiply">
<path d="M255.241 278.497C255.439 283.065 255.758 287.611 256.198 292.134C256.225 292.434 256.365 292.713 256.589 292.915C256.813 293.117 257.105 293.227 257.406 293.224H257.525C257.683 293.209 257.837 293.162 257.977 293.086C258.118 293.011 258.242 292.909 258.342 292.786C258.443 292.662 258.518 292.52 258.564 292.368C258.609 292.215 258.624 292.055 258.608 291.897C257.681 282.181 257.27 272.423 257.377 262.664C283.2 260.239 301.799 239.342 311.915 224.466C311.822 223.777 311.645 223.102 311.388 222.456C311.265 222.181 311.073 221.941 310.832 221.759C301.265 236.242 282.977 257.696 257.436 260.232C257.714 245.935 258.766 231.663 260.588 217.48C286.633 216.887 301.985 195.893 308.526 184.221C308.286 183.756 308.008 183.312 307.695 182.894C307.48 182.616 307.231 182.367 306.954 182.152C301.021 193.083 286.277 214.306 260.922 215.085C263.962 191.553 268.719 168.275 275.153 145.437C275.202 145.284 275.22 145.124 275.207 144.964C275.193 144.805 275.149 144.65 275.075 144.507C275.002 144.365 274.901 144.239 274.779 144.136C274.657 144.032 274.516 143.954 274.363 143.905C274.211 143.857 274.05 143.839 273.891 143.852C273.732 143.865 273.576 143.91 273.434 143.983C273.292 144.056 273.165 144.157 273.062 144.279C272.959 144.401 272.881 144.543 272.832 144.695C266.257 168.007 261.414 191.772 258.341 215.797C258.272 215.946 258.236 216.108 258.237 216.272C258.233 216.311 258.233 216.351 258.237 216.39C257.925 218.815 257.629 221.277 257.354 223.761C233.334 209.716 228.921 175.834 228.105 164.213C227.262 164.243 226.442 164.5 225.732 164.955C226.704 177.628 231.665 212.349 257.073 226.401C255.893 237.636 255.1 249.39 254.952 261.315C254.922 261.418 254.907 261.526 254.907 261.633C254.907 261.678 254.907 261.715 254.907 261.76C254.858 266.397 254.907 271.041 255.055 275.694C226.222 260.254 214.741 230.02 210.455 213.283C209.785 213.296 209.144 213.561 208.66 214.025C208.527 214.158 208.393 214.306 208.267 214.455C212.924 231.978 225.05 263.035 255.241 278.497Z" fill="#D6DEF5"/>
</g>
<path d="M361.306 327.678C368.426 317.941 372 310.399 369.375 306.172C366.75 301.945 350.879 306.172 350.872 306.328C349.559 306.714 349.248 306.12 350.19 305.008C349.915 304.266 375.175 281.278 375.13 271.919C374.997 267.781 361.039 269.791 360.988 269.91C359.653 269.746 358.844 269.457 359.178 269.264L359.489 269.086C375.805 259.364 387.352 247.774 385.238 239.49C384.044 234.855 373.209 232.935 373.18 232.987C372.851 232.921 372.541 232.785 372.271 232.587C372 232.39 371.776 232.136 371.614 231.843C371.452 231.55 371.355 231.225 371.331 230.892C371.307 230.558 371.355 230.222 371.474 229.909C370.777 229.909 382.227 197.54 377.066 192.089C370.91 185.964 339.852 207.358 340.156 208.011C338.784 209.086 337.189 208.952 336.537 207.692C336.492 207.736 331.627 197.31 326.428 198.378C316.973 200.232 306.998 221.307 307.888 243.547V243.969C307.888 244.414 307.198 243.969 306.301 242.879C306.219 242.953 301.28 229.679 296.912 231.467C285.966 235.753 284.898 284.355 285.981 283.977C285.981 285.772 285.343 286.202 284.564 284.912C284.453 285.045 275.428 268.99 270.607 271.563C263.05 275.456 259.661 300.707 266.298 327.648L361.306 327.678Z" fill="#B6C6EF"/>
<g style="mix-blend-mode:multiply">
<path d="M385.238 239.505C385.238 239.394 385.149 239.29 385.105 239.171C356.976 250.005 339.703 244.525 335.157 242.627C348.803 220.246 362.931 207.113 363.198 206.868C363.435 206.652 363.576 206.35 363.591 206.03C363.605 205.709 363.492 205.396 363.276 205.159C363.059 204.922 362.758 204.781 362.437 204.766C362.116 204.752 361.803 204.865 361.566 205.081C361.292 205.333 346.615 218.956 332.643 242.16C332.51 242.261 332.397 242.387 332.309 242.53C332.244 242.658 332.201 242.796 332.183 242.938C331.269 244.461 330.364 246.021 329.469 247.618C319.235 231.466 324.174 207.81 326.777 198.385C326.666 198.385 326.562 198.385 326.458 198.385C325.591 198.566 324.756 198.876 323.981 199.304C321.119 210.161 316.891 233.647 328.149 249.991C322.64 260.091 318.112 270.697 314.629 281.663C314.573 281.741 314.528 281.825 314.496 281.915C314.485 282.006 314.485 282.099 314.496 282.19C313.606 285.042 312.785 287.957 312.034 290.933C294.235 273.068 295.83 245.578 298.203 231.407C297.786 231.33 297.357 231.374 296.964 231.533C296.475 231.733 296.018 232.002 295.607 232.334C293.264 247.595 292.24 275.634 311.381 293.684C309.154 303.176 307.857 312.862 307.51 322.605C307.504 322.764 307.53 322.923 307.586 323.072C307.641 323.221 307.726 323.357 307.835 323.473C307.944 323.589 308.075 323.682 308.221 323.747C308.366 323.812 308.523 323.847 308.682 323.851H308.719C309.033 323.851 309.335 323.729 309.561 323.51C309.786 323.292 309.918 322.994 309.928 322.679C310.42 309.467 312.639 296.376 316.528 283.74C321.979 285.308 327.623 286.107 333.296 286.113C352.378 286.113 367.914 277.347 375.086 272.46C375.086 272.29 375.13 272.104 375.13 271.941C375.1 271.589 374.975 271.252 374.769 270.964C374.562 270.677 374.282 270.451 373.958 270.31C365.296 276.242 343.018 288.775 317.225 281.433C321.393 268.625 326.98 256.322 333.882 244.755C336.373 245.868 342.84 248.226 353.127 248.226C361.455 248.226 372.282 246.661 385.476 241.641C385.489 240.921 385.409 240.204 385.238 239.505Z" fill="#B6C6EF"/>
</g>
<path style="mix-blend-mode:multiply" d="M361.306 327.678C368.426 317.941 372 310.399 369.375 306.172C366.75 301.945 350.879 306.172 350.872 306.328C349.559 306.714 349.248 306.12 350.19 305.008C349.915 304.266 375.175 281.278 375.13 271.919C374.997 267.781 361.039 269.791 360.988 269.91C359.653 269.746 358.844 269.457 359.178 269.264L359.489 269.086C375.805 259.364 387.352 247.774 385.238 239.49C384.044 234.855 373.209 232.935 373.18 232.987C372.851 232.921 372.541 232.785 372.271 232.587C372 232.39 371.776 232.136 371.614 231.843C371.452 231.55 371.355 231.225 371.331 230.892C371.307 230.558 371.355 230.222 371.474 229.909C370.777 229.909 382.227 197.54 377.066 192.089C370.91 185.964 339.852 207.358 340.156 208.011C338.784 209.086 337.189 208.952 336.537 207.692C336.492 207.736 331.627 197.31 326.428 198.378C316.973 200.232 306.998 221.307 307.888 243.547V243.969C307.888 244.414 307.198 243.969 306.301 242.879C306.219 242.953 301.28 229.679 296.912 231.467C285.966 235.753 284.898 284.355 285.981 283.977C285.981 285.772 285.343 286.202 284.564 284.912C284.453 285.045 275.428 268.99 270.607 271.563C263.05 275.456 259.661 300.707 266.298 327.648L361.306 327.678Z" fill="url(#paint3_linear_645_2568)"/>
<path style="mix-blend-mode:multiply" d="M431.426 296.109C431.117 295.979 430.841 295.783 430.615 295.535C430.39 295.287 430.221 294.994 430.12 294.674C430.019 294.355 429.989 294.017 430.031 293.685C430.074 293.353 430.188 293.034 430.365 292.75C429.676 292.609 447.274 263.139 443.284 256.791C438.464 249.575 403.793 264.429 403.979 265.126C402.421 265.912 400.857 265.46 400.493 264.103C400.449 264.103 398.446 255.946 394.56 253.617C394.263 253.439 393.947 253.295 393.618 253.187H393.529C393.178 253.083 392.813 253.029 392.447 253.024H392.098C386.328 253.268 379.127 260.024 373.558 270.08C369.85 268.56 361.091 269.82 361.077 269.917C359.742 269.754 358.933 269.464 359.267 269.272L359.578 269.094C374.581 260.195 385.468 249.694 385.535 241.655C385.535 241.566 385.535 241.477 385.535 241.388C385.535 241.299 385.535 241.055 385.535 240.892C385.509 240.434 385.442 239.98 385.335 239.535C384.141 234.9 373.306 232.979 373.276 233.031C372.948 232.965 372.638 232.829 372.367 232.632C372.097 232.434 371.873 232.18 371.71 231.887C371.548 231.594 371.451 231.27 371.427 230.936C371.403 230.602 371.452 230.267 371.57 229.953C370.873 229.953 382.324 197.584 377.162 192.133C371.007 186.008 339.948 207.402 340.252 208.055C338.88 209.13 337.286 208.997 336.633 207.736C336.588 207.781 331.723 197.354 326.525 198.422C325.997 198.531 325.483 198.695 324.99 198.911C324.804 198.986 324.611 199.074 324.426 199.171C324.241 199.267 324.174 199.275 324.048 199.341V199.386C318.716 202.256 313.547 210.71 310.565 221.566C306.857 219.668 295.295 226.557 295.325 226.683C293.842 227.106 292.804 227.165 293.1 226.802L293.352 226.468C305.96 209.531 313.027 192.764 308.615 184.258C308.375 183.793 308.097 183.349 307.784 182.93C307.567 182.655 307.318 182.406 307.043 182.189C302.852 178.852 291.862 181.314 291.854 181.381C290.312 181.766 288.851 180.639 288.628 178.822C287.887 179.134 285.662 139.03 277.615 135.492C268.212 131.651 244.324 168.759 244.94 169.323C243.946 171.095 242.129 171.688 240.891 170.606C240.891 170.665 233.586 164.065 228.283 164.339H228.172C227.88 164.363 227.589 164.41 227.304 164.48L226.978 164.554C226.651 164.661 226.337 164.805 226.044 164.984C225.998 165.001 225.953 165.021 225.91 165.044L225.792 165.103C216.425 171.369 215.164 198.622 226.162 222.204L226.363 222.642C226.592 223.116 225.621 222.923 224.138 222.189C224.138 222.286 215.439 213.053 210.655 213.335C210.473 213.355 210.294 213.395 210.121 213.454C209.975 213.471 209.831 213.503 209.691 213.55C209.383 213.676 209.103 213.863 208.868 214.099C208.734 214.232 208.601 214.38 208.475 214.529C199.576 225.163 219.747 276.569 220.726 275.686C221.535 277.622 221.038 278.371 219.621 277.332C219.562 277.525 202.564 264.266 198.537 269.22C192.463 276.435 199.101 302.716 216.284 327.678H413.961C428.259 322.235 439.228 315.071 441.527 307.967C441.593 307.766 441.623 307.566 441.682 307.366C441.756 307.1 441.815 306.83 441.86 306.558C441.897 306.312 441.919 306.064 441.927 305.816C441.927 305.653 441.927 305.497 441.927 305.342C441.927 305.186 441.927 305.03 441.927 304.874C441.705 300.076 431.463 296.057 431.426 296.109ZM366.809 286.765C366.223 288.99 365.712 291.289 365.326 293.617C365.309 293.757 365.285 293.896 365.252 294.033C365.185 294.478 364.584 293.855 363.909 292.653C363.909 292.653 363.746 291.86 363.472 290.666C364.614 289.383 365.734 288.078 366.809 286.765Z" fill="url(#paint4_linear_645_2568)"/>
<path style="mix-blend-mode:multiply" d="M345.31 66.4817V62.0322H0.0146484V407.27H4.46433V368.598H43.2062V407.27H47.6558V368.598H86.4051V407.27H90.8548V368.598H129.5V407.27H133.95V368.598H172.662V407.27H177.112V368.598H215.824V407.27H220.274V368.598H259.023V407.27H263.473V368.598H302.214V407.27H306.664V368.598H345.31V364.148H306.583V325.408H345.31V320.959H306.583V282.212H345.31V277.763H306.583V239.023H345.31V234.573H306.583V195.826H345.31V191.377H306.583V152.63H345.31V148.181H306.583V109.619H345.31V105.169H306.583V66.4224L345.31 66.4817ZM259.001 66.4817V105.229H220.274V66.4817H259.001ZM133.92 195.975H172.662V234.722H133.92V195.975ZM129.471 234.722H90.751V195.975H129.5L129.471 234.722ZM133.92 191.555V152.808H172.662V191.555H133.92ZM129.471 191.555H90.751V152.808H129.5L129.471 191.555ZM86.3013 191.555H47.5817V152.808H86.331L86.3013 191.555ZM86.3013 196.004V234.751H47.5817V196.004H86.3013ZM86.3013 239.171V277.911H47.5817V239.171H86.3013ZM90.751 239.171H129.5V277.911H90.751V239.171ZM133.92 239.171H172.662V277.911H133.92V239.171ZM177.082 239.171H215.824V277.911H177.082V239.171ZM177.082 234.722V195.975H215.824V234.722H177.082ZM177.082 191.555V152.808H215.824V191.555H177.082ZM177.082 148.388V109.619H215.824V148.358L177.082 148.388ZM172.632 148.388H133.92V109.619H172.662L172.632 148.388ZM129.471 148.388H90.751V109.619H129.5L129.471 148.388ZM86.3013 148.388H47.5817V109.619H86.331L86.3013 148.388ZM43.132 148.388H4.41983V109.619H43.1617L43.132 148.388ZM43.132 152.838V191.585H4.41983V152.838H43.132ZM43.132 196.004V234.751H4.41983V196.004H43.132ZM43.132 239.171V277.911H4.41983V239.171H43.132ZM43.132 282.331V321.078H4.41983V282.331H43.132ZM47.5817 282.331H86.331V321.078H47.5817V282.331ZM90.751 282.331H129.5V321.078H90.751V282.331ZM133.92 282.331H172.662V321.078H133.92V282.331ZM177.082 282.331H215.824V321.078H177.082V282.331ZM220.251 282.331H259.001V321.078H220.274L220.251 282.331ZM220.251 277.881V239.142H259.001V277.881H220.251ZM220.251 234.722V195.975H259.001V234.722H220.251ZM220.251 191.555V152.808H259.001V191.555H220.251ZM220.251 148.388V109.619H259.001V148.358L220.251 148.388ZM215.802 66.4817V105.229H177.082V66.4817H215.802ZM172.632 66.4817V105.229H133.92V66.4817H172.632ZM129.471 66.4817V105.229H90.751V66.4817H129.471ZM86.3013 66.4817V105.229H47.5817V66.4817H86.3013ZM43.132 66.4817V105.229H4.41983V66.4817H43.132ZM4.39016 364.207V325.468H43.132V364.207H4.39016ZM47.552 364.207V325.468H86.3013V364.207H47.552ZM90.7213 364.207V325.468H129.5V364.207H90.7213ZM133.891 364.207V325.468H172.662V364.207H133.891ZM177.052 364.207V325.468H215.824V364.207H177.052ZM220.222 364.207V325.468H258.971V364.207H220.222ZM302.133 364.207H263.421V325.468H302.163L302.133 364.207ZM302.133 321.048H263.421V282.301H302.163L302.133 321.048ZM302.133 277.881H263.421V239.142H302.163L302.133 277.881ZM302.133 234.722H263.421V195.975H302.163L302.133 234.722ZM302.133 191.555H263.421V152.808H302.163L302.133 191.555ZM302.133 148.388H263.421V109.619H302.163L302.133 148.388ZM302.133 105.229H263.421V66.4817H302.163L302.133 105.229Z" fill="url(#paint5_linear_645_2568)"/>
<path d="M320.117 128.002H288.88V411.794H320.117V128.002Z" fill="url(#paint6_linear_645_2568)"/>
<path d="M61.0199 337.934H29.7832V411.787H61.0199V337.934Z" fill="url(#paint7_linear_645_2568)"/>
<path d="M104.197 269.902H72.96V411.794H104.197V269.902Z" fill="url(#paint8_linear_645_2568)"/>
<path d="M147.381 212.882H116.144V411.794H147.381V212.882Z" fill="url(#paint9_linear_645_2568)"/>
<path d="M190.565 312.334H159.328V411.786H190.565V312.334Z" fill="url(#paint10_linear_645_2568)"/>
<path d="M233.749 264.852H202.512V411.786H233.749V264.852Z" fill="url(#paint11_linear_645_2568)"/>
<path d="M276.933 175.055H245.696V411.794H276.933V175.055Z" fill="url(#paint12_linear_645_2568)"/>
<path d="M345.332 62.062V407.367H0V411.787H345.332H349.752V407.367V62.062H345.332Z" fill="url(#paint13_linear_645_2568)"/>
<g style="mix-blend-mode:multiply">
<path d="M320.117 128.002H288.88V411.794H320.117V128.002Z" fill="url(#paint14_linear_645_2568)"/>
<path d="M61.0199 337.934H29.7832V411.787H61.0199V337.934Z" fill="url(#paint15_linear_645_2568)"/>
<path d="M104.197 269.902H72.96V411.794H104.197V269.902Z" fill="url(#paint16_linear_645_2568)"/>
<path d="M147.381 212.883H116.144V411.794H147.381V212.883Z" fill="url(#paint17_linear_645_2568)"/>
<path d="M190.565 312.334H159.328V411.786H190.565V312.334Z" fill="url(#paint18_linear_645_2568)"/>
<path d="M233.749 264.852H202.512V411.787H233.749V264.852Z" fill="url(#paint19_linear_645_2568)"/>
<path d="M276.933 175.055H245.696V411.794H276.933V175.055Z" fill="url(#paint20_linear_645_2568)"/>
</g>
<path d="M245.83 97.0121C245.83 97.0121 243.227 104.977 246.356 108.922C249.486 112.867 254.833 115.195 256.457 115.425C258.081 115.655 259.097 122.841 250.636 124.828C242.174 126.816 239.155 136.834 231.494 134.632C223.834 132.429 211.775 122.159 210.611 121.232C209.446 120.305 208.623 117.45 208.972 117.524C209.32 117.598 208.89 116.108 208.89 116.108C208.89 116.108 217.678 115.292 219.072 110.531C220.467 105.77 219.421 99.0366 219.191 95.9071C218.961 92.7777 222.091 88.3579 222.091 88.3579C222.091 88.3579 246.23 91.0128 245.83 97.0121Z" fill="#A87C63"/>
<path d="M245.83 97.0124C245.83 97.0124 241.662 111.658 232.34 116.226C230.997 116.886 217.678 115.307 219.072 110.546C220.467 105.785 219.421 99.0517 219.191 95.9223C218.961 92.7928 222.091 88.373 222.091 88.373C222.091 88.373 246.23 91.0131 245.83 97.0124Z" fill="#87614E"/>
<path d="M237.272 422.851C237.272 422.851 232.236 426.092 235.114 433.285C237.991 440.478 235.054 434.724 242.997 444.082C250.94 453.441 257.421 458.639 263.184 456.036C268.946 453.433 274.308 451.275 268.939 443C263.569 434.724 260.662 430.786 260.662 428.62C260.515 426.663 260.152 424.728 259.579 422.851C259.579 422.851 238.696 410.541 237.272 422.851Z" fill="#5E3F2F"/>
<path d="M205.138 420.493C205.138 420.493 207.192 414.953 205.138 428.65C203.083 442.347 204.166 445.55 201.645 450.23C199.123 454.909 197.328 457.067 189.408 455.628C181.488 454.19 173.137 448.428 178.573 439.076C184.009 429.725 183.653 426.841 183.653 423.244C183.653 419.647 186.894 416.407 186.894 416.407C186.894 416.407 205.605 409.065 205.138 420.493Z" fill="#5E3F2F"/>
<path d="M177.423 107.557C177.423 107.557 161.041 97.724 155.086 94.4018C149.131 91.0796 150.251 95.5142 147.67 87.0306C145.089 78.5471 143.576 74.8688 142.086 64.917C140.595 54.9651 140.862 46.8152 142.086 44.6424C140.973 42.7959 144.31 37.2267 146.187 36.1588C148.063 35.091 150.636 32.844 150.636 31.7094C150.636 30.5748 151.378 25.0353 151.378 25.0353C151.378 25.0353 155.479 22.069 157.311 18.0275C159.143 13.9859 163.132 9.68476 161.019 7.70477C157.904 8.75038 153.603 16.1884 152.12 16.9225C150.636 17.6567 152.12 10.4709 152.12 7.28211C152.12 4.09336 151.378 -2.20995 149.895 0.741501C148.411 3.69295 145.794 13.6448 145.794 13.6448C145.794 13.6448 145.794 2.588 143.932 2.588C142.071 2.588 142.619 9.58837 141.603 12.5398C140.712 14.8419 139.622 17.0626 138.348 19.1769C138.348 19.1769 140.573 14.7275 138.348 11.7983C136.123 8.86905 134.254 5.16861 134.254 8.83197C134.254 12.4953 137.606 12.1468 134.254 18.7839C130.902 25.4209 128.67 26.5259 127.928 32.4214C127.187 38.3169 127.817 39.9409 127.928 47.9054C128.025 54.9058 128.025 54.9058 127.787 70.0264C127.55 85.147 125.399 88.3951 126.215 92.8148C127.031 97.2346 124.576 96.8045 130.16 101.291C135.745 105.778 130.902 103.798 141.7 112.526C152.498 121.254 167.019 129.582 172.603 130.932L178.187 132.326C178.187 132.326 184.498 108.551 177.423 107.557Z" fill="#A87C63"/>
<path d="M284.29 150.205C284.29 150.205 286.574 157.702 289.088 168.826C291.602 179.949 291.61 171.658 294.851 191.458C298.091 211.258 299.886 224.088 300.249 227.573C300.613 231.058 300.605 238.518 302.044 242.879C303.483 247.239 305.641 255.871 305.641 255.871L303.846 269.219L296.645 274.618L294.969 271.733C294.969 271.733 291.61 274.974 293.048 272.097C294.487 269.219 299.886 264.904 299.886 263.102C299.886 261.299 298.447 257.347 298.447 257.347C298.447 257.347 294.739 254.462 294.969 256.984C295.199 259.505 293.048 265.979 293.048 265.979C293.048 265.979 290.171 270.295 290.171 265.623C290.171 260.951 292.329 260.944 291.254 255.901C290.178 250.858 291.61 247.106 291.61 244.666C291.61 242.226 295.926 239.631 292.351 232.111C288.777 224.592 279.395 209.123 277.237 198.689C275.079 188.255 273.648 186.453 272.565 182.5C271.482 178.548 269.829 168.677 267.233 161.736C264.637 154.795 280.211 134.691 284.29 150.205Z" fill="#A87C63"/>
<path d="M272.535 243.999C272.535 243.999 272.535 254.796 270.021 274.589C267.507 294.381 265.341 297.978 264.622 309.101C263.903 320.225 265.364 340.781 264.622 347.619C263.881 354.456 264.926 351.935 264.414 362.368C263.903 372.802 261.745 387.916 260.306 396.911C258.867 405.906 253.824 405.55 257.784 408.776C261.745 412.002 267.811 409.132 264.414 415.969C261.018 422.806 260.662 426.403 260.662 426.403C260.662 426.403 261.025 429.644 258.86 428.205C256.694 426.766 258.86 423.526 248.425 424.964C237.991 426.403 236.56 427.486 235.076 423.526C233.593 419.566 235.076 414.894 235.076 414.894C235.076 414.894 231.479 414.894 235.076 411.653C238.673 408.413 238.317 408.057 237.234 404.816C236.152 401.575 233.638 405.179 235.076 394.382C236.515 383.585 233.274 376.028 235.076 370.652C236.878 365.275 237.954 363.459 236.878 360.218C235.803 356.977 232.918 358.06 235.076 351.223C237.234 344.385 240.446 344.749 239.022 340.099C237.598 335.449 233.994 296.183 235.076 285.386C236.159 274.589 235.076 274.262 235.076 271.711V269.197C235.076 269.197 237.716 259.839 235.076 271.711C232.436 283.584 229.677 282.153 227.163 295.108C224.649 308.063 219.599 331.986 219.599 334.411C219.599 336.836 222.12 337.214 219.599 341.167C217.077 345.12 216.365 345.49 215.646 348.004C214.927 350.518 213.125 353.403 212.761 354.486L212.405 355.561C212.405 355.561 215.646 362.042 212.405 366.358C210.513 368.804 209.163 371.626 208.445 374.634C208.445 374.634 210.603 379.313 208.445 389.028C206.287 398.743 205.204 401.983 205.204 401.983C205.204 401.983 206.65 403.422 208.445 408.82C210.24 414.219 213.125 416.733 208.445 418.891C203.765 421.049 197.654 424.29 196.579 424.653C195.504 425.016 184.713 428.969 182.548 425.728C180.382 422.488 178.224 418.891 178.588 414.938C178.951 410.986 177.846 414.938 180.382 408.82C182.919 402.702 184.343 387.226 184.706 374.271C185.069 361.315 190.105 343.688 190.105 332.535C190.105 321.382 189.022 297.978 189.022 290.777C189.022 283.577 189.764 279.261 189.022 274.589C188.28 269.917 191.418 252.972 191.418 252.972C191.418 252.972 191.544 246.876 191.9 241.107C192.256 235.337 194.777 232.112 194.777 232.112C194.777 232.112 273.232 230.74 272.535 243.999Z" fill="#B19E8D"/>
<path d="M272.572 243.999C272.572 245.986 272.446 247.974 272.357 249.931C272.268 251.889 272.105 253.899 271.964 255.864C271.823 257.829 271.675 259.824 271.497 261.796L270.852 267.729L270.207 273.662C269.984 275.634 269.68 277.599 269.42 279.594C268.879 283.524 268.219 287.447 267.492 291.355C266.765 295.263 265.92 299.142 265.379 303.072C265.082 305.037 264.949 307.017 264.778 309.005L264.659 311.971C264.622 312.965 264.585 313.958 264.593 314.937C264.526 322.872 264.874 330.814 264.993 338.764C265.045 340.744 264.993 342.739 264.993 344.697C264.993 346.654 264.771 348.664 264.622 350.629C264.622 350.874 264.622 351.126 264.578 351.371V352.112L264.63 353.595L264.756 356.562L264.607 362.539L264.162 368.471C264.081 369.458 264.036 370.451 263.918 371.438L263.591 374.404L262.924 380.337L262.13 386.269L261.737 389.235L261.292 392.202L260.847 395.168C260.699 396.139 260.558 397.148 260.358 398.134C259.971 400.125 259.239 402.033 258.192 403.77C257.94 404.208 257.658 404.623 257.392 405.038C257.115 405.42 256.882 405.83 256.694 406.262C256.661 406.361 256.634 406.463 256.613 406.566C256.613 406.662 256.613 406.751 256.613 406.848C256.649 407.047 256.728 407.237 256.843 407.404C257.104 407.784 257.418 408.123 257.777 408.412C257.955 408.576 258.141 408.709 258.348 408.865C258.54 408.996 258.738 409.117 258.941 409.228C259.359 409.458 259.796 409.652 260.247 409.807C261.159 410.118 262.123 410.303 263.102 410.548C263.616 410.655 264.114 410.827 264.585 411.06C264.842 411.193 265.073 411.371 265.267 411.586C265.461 411.818 265.599 412.093 265.668 412.387C265.758 413.451 265.536 414.518 265.03 415.457C264.207 417.267 263.384 419.076 262.598 420.893L261.634 423.674C261.47 424.141 261.381 424.623 261.255 425.09L261.077 425.832C261.025 426.062 260.996 426.299 260.959 426.529V426.47C261.014 426.903 261.014 427.341 260.959 427.775C260.914 428.011 260.832 428.239 260.714 428.45C260.644 428.571 260.554 428.678 260.447 428.768C260.327 428.859 260.187 428.92 260.039 428.946C259.787 428.99 259.528 428.953 259.297 428.843C259.08 428.756 258.873 428.644 258.682 428.509C258.329 428.241 258.029 427.909 257.799 427.53C257.508 426.813 257.032 426.186 256.42 425.713C255.748 425.337 255.001 425.115 254.232 425.061C253.839 425.061 253.439 425.009 253.038 425.001H251.837C251.028 425.061 250.228 425.112 249.419 425.224C247.81 425.402 246.193 425.661 244.584 425.899C242.975 426.136 241.373 426.425 239.726 426.566C238.88 426.679 238.021 426.636 237.19 426.44C236.759 426.303 236.367 426.064 236.048 425.743L235.818 425.491L235.633 425.224C235.512 425.046 235.407 424.857 235.321 424.66C235.222 424.473 235.136 424.28 235.062 424.082L234.95 423.793V423.718V423.659L234.906 423.518L234.587 422.339C234.43 421.515 234.345 420.679 234.335 419.84C234.305 419.428 234.305 419.014 234.335 418.602C234.335 418.186 234.387 417.771 234.453 417.363C234.559 416.539 234.722 415.724 234.943 414.923L235.195 415.264C234.752 415.265 234.315 415.16 233.919 414.96C233.688 414.844 233.508 414.646 233.415 414.404C233.326 414.165 233.326 413.902 233.415 413.663C233.557 413.255 233.779 412.879 234.068 412.558C234.333 412.248 234.618 411.956 234.921 411.683C235.507 411.134 236.092 410.615 236.634 410.051C237.188 409.546 237.595 408.9 237.813 408.182C237.878 407.423 237.755 406.659 237.457 405.958C237.331 405.594 237.212 405.216 237.079 404.853C236.963 404.502 236.776 404.179 236.53 403.904C236.251 403.633 235.951 403.385 235.633 403.162C235.298 402.882 235.042 402.519 234.891 402.109C234.639 401.326 234.526 400.506 234.557 399.684C234.557 396.466 235.299 393.344 235.299 390.192C235.373 387.031 235.224 383.869 234.854 380.729C234.691 379.157 234.52 377.578 234.446 375.983C234.336 374.378 234.468 372.766 234.839 371.2C235.284 369.65 235.862 368.19 236.359 366.677C236.948 365.231 237.226 363.677 237.175 362.116L237.116 361.538C237.116 361.345 237.019 361.159 236.975 360.974C236.891 360.594 236.775 360.222 236.626 359.862C236.288 359.167 235.837 358.533 235.291 357.986C234.712 357.377 234.347 356.596 234.253 355.761C234.198 354.95 234.263 354.135 234.446 353.343C234.779 351.78 235.276 350.256 235.929 348.798C236.621 347.362 237.445 345.994 238.391 344.711C238.847 344.087 239.147 343.362 239.266 342.598C239.335 341.827 239.247 341.05 239.007 340.314C238.806 339.544 238.645 338.764 238.525 337.978C238.384 337.192 238.265 336.406 238.169 335.612C237.731 332.468 237.427 329.316 237.079 326.157C236.441 319.847 235.937 313.551 235.514 307.195C235.306 304.031 235.133 300.862 234.995 297.688C234.898 294.522 234.78 291.348 234.876 288.174C234.973 285 235.418 281.841 235.477 278.682C235.534 277.104 235.457 275.523 235.247 273.958C235.108 273.172 235.028 272.376 235.01 271.578V269.153C235.291 268.167 235.573 267.188 235.9 266.187L236.04 265.816C236.063 265.747 236.096 265.682 236.137 265.623C236.133 265.611 236.133 265.598 236.137 265.586C236.154 265.561 236.177 265.54 236.204 265.527C236.204 265.482 236.411 265.527 236.426 265.578C236.441 265.63 236.426 265.66 236.426 265.66C236.433 265.704 236.433 265.749 236.426 265.793C236.408 266.057 236.373 266.32 236.322 266.58C236.241 267.084 236.137 267.581 236.04 268.063C235.633 270.065 235.188 272.067 234.661 274.04L234.283 275.523L233.793 277.006L233.304 278.489C233.119 278.971 232.911 279.438 232.711 279.913C232.332 280.87 231.88 281.782 231.435 282.701C230.99 283.621 230.553 284.54 230.16 285.482L229.603 286.899C229.405 287.367 229.237 287.848 229.099 288.337C228.817 289.309 228.483 290.273 228.239 291.304C227.801 293.291 227.327 295.271 226.956 297.281L224.568 309.301L222.187 321.315L221.03 327.329C220.837 328.33 220.645 329.339 220.481 330.34C220.318 331.341 220.096 332.357 220.007 333.351L219.918 334.092L219.873 334.448V334.834C219.949 335.306 220.105 335.763 220.333 336.183C220.598 336.647 220.795 337.147 220.919 337.667C221.016 338.211 220.978 338.771 220.808 339.298C220.458 340.291 219.958 341.223 219.325 342.064C218.761 342.917 218.205 343.77 217.626 344.608L217.196 345.245C217.063 345.453 216.951 345.675 216.825 345.891L216.454 346.543C216.358 346.766 216.284 347.01 216.202 347.24L215.149 350.11C214.712 351.052 214.282 352.001 213.814 352.906C213.336 353.792 212.946 354.724 212.65 355.687V355.472C213.021 356.263 213.327 357.084 213.562 357.926C213.681 358.349 213.785 358.772 213.874 359.202C213.963 359.632 214.029 360.055 214.059 360.5C214.108 360.935 214.13 361.374 214.126 361.812C214.117 362.254 214.082 362.694 214.022 363.132L213.903 363.785C213.859 364 213.785 364.207 213.718 364.422C213.587 364.849 213.418 365.264 213.214 365.661C212.991 366.032 212.732 366.402 212.509 366.773L211.768 367.826C211.515 368.175 211.323 368.568 211.107 368.909C210.892 369.25 210.677 369.65 210.499 370.014C210.321 370.377 210.121 370.755 209.951 371.156L209.468 372.328C209.335 372.721 209.172 373.121 209.061 373.521C208.949 373.922 208.823 374.337 208.742 374.73V374.537C208.965 375.099 209.139 375.68 209.261 376.273C209.402 376.851 209.454 377.437 209.557 378.023C209.661 378.609 209.646 379.202 209.698 379.788C209.75 380.374 209.698 380.967 209.698 381.553C209.703 382.139 209.679 382.726 209.624 383.31L209.454 385.068C209.398 385.651 209.309 386.23 209.187 386.803L208.875 388.538C208.786 389.117 208.63 389.688 208.497 390.251L208.089 391.949L207.281 395.338L206.465 398.735C206.339 399.298 206.161 399.869 206.005 400.433L205.523 402.124L205.442 401.783C205.538 401.901 205.649 402.027 205.746 402.153L205.983 402.532C206.146 402.784 206.309 403.036 206.465 403.273L207.207 404.853C207.464 405.378 207.689 405.918 207.881 406.469L208.497 408.108C208.712 408.657 208.897 409.191 209.09 409.74C209.283 410.288 209.513 410.8 209.743 411.327C210.237 412.388 210.675 413.475 211.056 414.582C211.256 415.181 211.319 415.817 211.241 416.444C211.185 416.771 211.075 417.087 210.915 417.378C210.742 417.652 210.532 417.902 210.292 418.12C209.832 418.524 209.318 418.861 208.764 419.121C208.237 419.388 207.718 419.625 207.192 419.862C205.1 420.848 203.031 421.887 200.962 422.917C198.916 424.04 196.768 424.966 194.547 425.683C192.324 426.418 190.038 426.941 187.717 427.248C186.528 427.417 185.319 427.382 184.142 427.144C183.508 427.006 182.925 426.693 182.459 426.24C182.262 426.005 182.081 425.757 181.918 425.498L181.443 424.757C180.112 422.807 179.11 420.653 178.476 418.379C178.336 417.799 178.239 417.209 178.187 416.614C178.143 416.021 178.187 415.405 178.187 414.827C178.241 414.262 178.266 413.696 178.261 413.129V412.906C178.267 412.794 178.282 412.682 178.306 412.573C178.373 412.424 178.447 412.254 178.506 412.135L178.87 411.393C179.107 410.874 179.344 410.348 179.559 409.814L179.9 409.013L179.982 408.82L180.019 408.739V408.635L180.16 408.22C180.554 407.138 180.881 406.034 181.139 404.912C182.14 400.411 182.837 395.847 183.223 391.252C183.482 388.961 183.616 386.647 183.801 384.348C183.987 382.049 184.098 379.728 184.165 377.415C184.209 376.258 184.239 375.123 184.298 373.937L184.528 370.474C184.58 369.317 184.743 368.167 184.884 367.01C185.025 365.854 185.158 364.697 185.322 363.547C186.011 358.957 186.805 354.396 187.606 349.836C188.407 345.275 189.126 340.707 189.497 336.117L189.66 332.676L189.586 329.205L189.415 322.264L189.2 308.36L188.844 294.47C188.592 289.85 188.926 285.186 189.067 280.58C189.067 280.002 189.067 279.424 189.067 278.853C189.067 278.282 189.067 277.703 189.007 277.132C188.988 276.559 188.938 275.987 188.859 275.419C188.785 274.855 188.733 274.247 188.681 273.684C188.663 271.351 188.807 269.019 189.111 266.706C189.653 262.093 190.387 257.518 191.21 252.957L191.67 242.249C191.67 241.796 191.67 241.366 191.744 240.899L191.892 239.572C191.939 239.124 192.016 238.681 192.122 238.244C192.2 237.799 192.301 237.358 192.426 236.924L192.827 235.626L193.324 234.373C193.531 233.965 193.709 233.55 193.932 233.164C194.155 232.761 194.402 232.373 194.673 232L194.725 231.933H194.814C201.573 231.859 208.329 231.916 215.083 232.104C221.839 232.282 228.587 232.571 235.329 233.068C242.072 233.506 248.79 234.284 255.456 235.396C258.793 235.945 262.083 236.748 265.297 237.799C266.911 238.318 268.455 239.032 269.895 239.927C270.618 240.378 271.26 240.947 271.794 241.611C272.334 242.286 272.611 243.135 272.572 243.999ZM272.498 243.999C272.534 243.159 272.271 242.334 271.757 241.67C271.223 241.02 270.587 240.462 269.873 240.016C268.436 239.133 266.897 238.428 265.29 237.918C262.08 236.878 258.795 236.087 255.463 235.552C248.789 234.41 242.114 233.772 235.343 233.327C228.572 232.883 221.853 232.586 215.105 232.43C208.356 232.274 201.6 232.23 194.851 232.334L194.985 232.267C194.732 232.623 194.501 232.995 194.295 233.379C194.08 233.765 193.909 234.165 193.709 234.566L193.227 235.797L192.842 237.065C192.701 237.488 192.649 237.925 192.545 238.348C192.443 238.78 192.371 239.219 192.33 239.661L192.181 240.988C192.144 241.411 192.144 241.878 192.115 242.315L191.707 253.009C190.906 257.562 190.187 262.138 189.675 266.728C189.384 269.007 189.25 271.304 189.274 273.602C189.326 274.188 189.378 274.737 189.46 275.323C189.541 275.908 189.601 276.487 189.623 277.065C189.645 277.644 189.69 278.237 189.682 278.815C189.675 279.394 189.682 279.98 189.682 280.558C189.564 285.208 189.245 289.806 189.519 294.44L189.868 308.36L190.238 322.242L190.402 329.19L190.476 332.668L190.313 336.161C189.934 340.803 189.208 345.386 188.407 349.954C187.606 354.522 186.805 359.068 186.115 363.644C185.959 364.786 185.833 365.928 185.685 367.07C185.537 368.212 185.381 369.354 185.329 370.511L185.099 373.981C185.04 375.108 185.01 376.288 184.958 377.437C184.891 379.758 184.721 382.072 184.595 384.385C184.469 386.699 184.276 389.013 184.009 391.319C183.617 395.954 182.911 400.558 181.895 405.097C181.634 406.232 181.302 407.349 180.902 408.442L180.768 408.857L180.731 408.961L180.686 409.08L180.597 409.28L180.256 410.081C180.041 410.615 179.804 411.149 179.559 411.683L179.188 412.469L179.025 412.825C179.025 412.862 179.025 412.862 179.025 412.921V413.136C179.034 413.725 179.011 414.314 178.959 414.901C178.959 415.487 178.914 416.028 178.959 416.592C179.006 417.149 179.098 417.703 179.233 418.246C179.84 420.442 180.807 422.522 182.096 424.401L182.57 425.142C182.71 425.373 182.866 425.594 183.037 425.802C183.406 426.171 183.871 426.428 184.38 426.544C185.476 426.763 186.603 426.793 187.71 426.633C189.977 426.329 192.212 425.815 194.384 425.098C196.572 424.393 198.688 423.482 200.703 422.376C202.779 421.345 204.848 420.307 206.947 419.321C207.985 418.898 208.967 418.348 209.869 417.682C210.729 417 210.789 415.902 210.44 414.842C210.071 413.759 209.642 412.697 209.157 411.66C208.927 411.127 208.712 410.585 208.497 410.036C208.282 409.488 208.111 408.931 207.904 408.398L207.296 406.788C207.106 406.248 206.888 405.719 206.643 405.201L205.901 403.666C205.76 403.422 205.605 403.192 205.456 402.925L205.226 402.569C205.152 402.465 205.071 402.376 204.989 402.272L204.863 402.102L204.908 401.924L205.382 400.263C205.538 399.706 205.716 399.165 205.842 398.594L206.658 395.198L207.474 391.801L207.881 390.103C208.015 389.532 208.163 388.983 208.252 388.412L208.564 386.707C208.68 386.143 208.767 385.574 208.823 385.001L208.994 383.281C209.052 382.707 209.077 382.13 209.068 381.553C209.098 380.98 209.098 380.405 209.068 379.832C209.024 379.261 209.009 378.683 208.942 378.119C208.875 377.556 208.794 376.977 208.66 376.428C208.545 375.88 208.387 375.342 208.186 374.819L208.148 374.715V374.626C208.245 374.181 208.356 373.774 208.49 373.351C208.623 372.928 208.771 372.528 208.912 372.12L209.409 370.919C209.587 370.518 209.795 370.177 209.98 369.747C210.166 369.317 210.403 369.005 210.618 368.605C210.833 368.204 211.048 367.863 211.3 367.5L212.042 366.439C212.301 366.069 212.502 365.75 212.724 365.394C212.909 365.028 213.065 364.649 213.191 364.259C213.243 364.059 213.317 363.866 213.362 363.666L213.473 363.058C213.548 362.627 213.59 362.19 213.599 361.753C213.604 361.334 213.587 360.916 213.547 360.5C213.547 360.084 213.436 359.669 213.369 359.261C213.303 358.853 213.191 358.438 213.073 358.03C212.847 357.223 212.56 356.435 212.212 355.672L212.161 355.568L212.198 355.457C212.501 354.468 212.901 353.512 213.392 352.602C213.874 351.69 214.282 350.785 214.719 349.873L215.772 346.995C215.869 346.751 215.943 346.499 216.054 346.254L216.44 345.572C216.566 345.342 216.692 345.104 216.833 344.889L217.263 344.259C217.849 343.421 218.405 342.568 218.969 341.715C219.565 340.915 220.04 340.03 220.378 339.09C220.524 338.643 220.557 338.167 220.474 337.704C220.361 337.228 220.181 336.771 219.94 336.347C219.684 335.865 219.513 335.344 219.436 334.804V334.418C219.436 334.263 219.436 334.151 219.48 334.018L219.569 333.239C219.673 332.194 219.903 331.215 220.066 330.199C220.229 329.183 220.43 328.189 220.622 327.181L221.794 321.167L224.219 309.153L226.637 297.147C227.008 295.137 227.49 293.143 227.935 291.148C228.187 290.154 228.521 289.183 228.802 288.182C228.949 287.69 229.122 287.208 229.321 286.735L229.885 285.297C230.286 284.355 230.738 283.435 231.176 282.516C231.613 281.596 232.073 280.677 232.451 279.735C232.644 279.268 232.859 278.808 233.037 278.333L233.526 276.895L234.016 275.449L234.394 273.966C234.928 271.993 235.373 270.013 235.781 268.033C235.885 267.536 235.981 267.039 236.07 266.55C236.116 266.305 236.148 266.057 236.167 265.808V265.749C236.167 265.749 236.359 265.831 236.345 265.793C236.33 265.756 236.345 265.793 236.382 265.793C236.351 265.84 236.326 265.89 236.307 265.942L236.181 266.29C235.848 267.247 235.566 268.233 235.284 269.212V271.548C235.302 272.334 235.379 273.117 235.514 273.891C235.725 275.472 235.799 277.067 235.736 278.66C235.67 281.841 235.225 284.993 235.113 288.152C235.002 291.311 235.113 294.485 235.217 297.651C235.321 300.818 235.507 303.984 235.714 307.151C235.922 310.317 236.159 313.477 236.456 316.636C236.752 319.795 237.012 322.954 237.338 326.105C237.665 329.257 238.013 332.409 238.458 335.546C238.562 336.332 238.681 337.11 238.814 337.889C238.948 338.668 239.118 339.446 239.304 340.203C239.554 340.977 239.648 341.794 239.578 342.605C239.452 343.409 239.136 344.172 238.658 344.83C237.725 346.102 236.911 347.458 236.226 348.879C235.583 350.308 235.086 351.799 234.743 353.328C234.577 354.088 234.517 354.866 234.565 355.642C234.657 356.4 234.996 357.106 235.529 357.652C236.101 358.231 236.574 358.9 236.93 359.632C236.997 359.825 237.079 359.988 237.138 360.203L237.294 360.789C237.355 360.981 237.404 361.177 237.442 361.375L237.509 361.983C237.57 363.598 237.289 365.207 236.686 366.706C236.196 368.19 235.61 369.673 235.202 371.208C234.843 372.732 234.721 374.303 234.839 375.865C234.913 377.437 235.084 379.017 235.247 380.589C235.634 383.75 235.795 386.934 235.729 390.118C235.685 393.321 234.987 396.443 234.987 399.58C234.958 400.334 235.061 401.087 235.291 401.805C235.413 402.141 235.626 402.436 235.907 402.658C236.242 402.88 236.56 403.128 236.856 403.399C237.349 404.063 237.703 404.82 237.895 405.624C238.027 406.008 238.138 406.399 238.228 406.796C238.332 407.213 238.347 407.648 238.273 408.071C238.041 408.883 237.589 409.614 236.968 410.185C236.411 410.778 235.811 411.305 235.24 411.846C234.954 412.104 234.686 412.382 234.439 412.676C234.195 412.945 234.003 413.257 233.875 413.596C233.842 413.662 233.823 413.735 233.818 413.809C233.814 413.883 233.826 413.957 233.851 414.026C233.877 414.096 233.917 414.159 233.968 414.213C234.019 414.266 234.081 414.309 234.149 414.338C234.469 414.49 234.818 414.571 235.173 414.575H235.507L235.418 414.901C235.208 415.673 235.054 416.458 234.958 417.252C234.891 417.652 234.869 418.053 234.839 418.453C234.813 418.853 234.813 419.255 234.839 419.655C234.847 420.446 234.927 421.235 235.076 422.013L235.403 423.192L235.44 423.34V423.407L235.551 423.689C235.62 423.872 235.702 424.05 235.796 424.223C235.932 424.566 236.14 424.876 236.406 425.132C236.672 425.387 236.99 425.583 237.338 425.706C238.1 425.88 238.886 425.913 239.66 425.802C241.261 425.661 242.878 425.372 244.487 425.127C246.097 424.883 247.706 424.631 249.338 424.438C250.146 424.326 250.969 424.267 251.792 424.208H253.031L254.277 424.275C255.141 424.332 255.98 424.586 256.731 425.016C257.111 425.257 257.434 425.575 257.681 425.95C257.925 426.314 258.103 426.692 258.304 427.018C258.489 427.342 258.742 427.623 259.045 427.841C259.295 428.039 259.602 428.149 259.92 428.153C260.135 428.153 260.284 427.819 260.351 427.471C260.399 427.097 260.399 426.718 260.351 426.344V426.277C260.388 426.025 260.425 425.765 260.477 425.535L260.655 424.794C260.788 424.312 260.877 423.815 261.04 423.311L262.027 420.455C262.805 418.631 263.621 416.822 264.452 415.012C264.891 414.194 265.091 413.269 265.03 412.343C264.889 411.534 263.873 411.23 262.954 411C261.97 410.804 260.997 410.556 260.039 410.259C259.553 410.089 259.081 409.878 258.63 409.629C258.398 409.503 258.172 409.364 257.955 409.213C257.77 409.065 257.547 408.909 257.362 408.731C256.949 408.397 256.588 408.002 256.294 407.56C256.211 407.443 256.144 407.315 256.094 407.181L255.975 406.744V406.284C256 406.142 256.04 406.003 256.094 405.869C256.29 405.39 256.539 404.935 256.835 404.512C257.11 404.096 257.384 403.689 257.636 403.266C258.648 401.593 259.359 399.756 259.735 397.838C259.943 396.866 260.084 395.909 260.232 394.916L260.684 391.949L261.144 388.983L261.552 386.017L262.36 380.084L263.05 374.152L263.384 371.185C263.502 370.199 263.554 369.205 263.643 368.219L264.111 362.287L264.281 356.354L264.162 353.388L264.111 351.905V351.163C264.111 350.911 264.111 350.666 264.162 350.422C264.311 348.449 264.444 346.454 264.548 344.489C264.652 342.524 264.615 340.529 264.548 338.556C264.459 330.614 264.14 322.679 264.229 314.722C264.229 313.729 264.229 312.735 264.311 311.756L264.437 308.79C264.615 306.81 264.756 304.83 265.06 302.857C265.616 298.919 266.461 295.034 267.218 291.133C267.974 287.232 268.627 283.317 269.183 279.387C269.443 277.421 269.754 275.456 269.984 273.454L270.652 267.521L271.312 261.589C271.497 259.609 271.638 257.629 271.801 255.656C271.964 253.684 272.142 251.696 272.216 249.724C272.291 247.751 272.483 245.986 272.498 243.999Z" fill="#442E02"/>
<path d="M224.998 52.9554C224.998 52.9554 215.008 52.6069 214.548 59.459C214.089 66.3111 213.384 71.6357 213.384 71.6357L214.43 75.3435C214.43 75.3435 211.671 73.2523 211.189 75.3435C210.707 77.4347 210.158 77.6646 211.189 79.7929C211.921 81.0885 212.423 82.5011 212.672 83.968C213.258 86.2891 212.909 87.3347 215.231 88.3803C215.928 90.123 214.882 95.1064 218.13 98.703C221.379 102.3 222.773 103.812 226.607 105.785C230.441 107.757 232.406 107.268 234.846 107.179C237.286 107.09 239.14 104.739 242.047 102.73C244.955 100.72 247.736 94.6169 248.321 91.8286C248.907 89.0403 249.011 87.8761 249.011 87.8761C249.011 87.8761 252.037 86.0221 252.267 83.5823C252.386 81.7897 252.386 79.9912 252.267 78.1985C252.131 77.2529 251.773 76.3531 251.221 75.5733L249.834 72.4365C249.834 72.4365 252.979 61.4093 249.834 58.0426C246.69 54.6759 235.662 53.0445 234.157 52.9333C232.651 52.822 225.576 51.1015 224.998 52.9554Z" fill="#A87C63"/>
<path d="M247.981 48.2763L248.915 47.0379C248.915 47.0379 246.69 46.7709 245.429 47.6534C244.384 47.1491 243.946 44.828 242.76 44.5981C241.573 44.3682 239.274 42.6256 239.274 42.6256C238.825 42.9445 238.323 43.1805 237.791 43.3226C237.324 43.3226 241.543 43.0853 236.359 42.6256C231.176 42.1658 233.845 41.3501 230.241 42.0471C226.637 42.7442 226.066 42.6255 223.975 43.6711C221.883 44.7167 221.112 43.7157 217.3 48.2763C213.488 52.837 213.162 50.8644 212.346 57.2493C211.53 63.6342 210.722 64.22 211.538 68.5137C212.353 72.8074 212.583 74.5502 213.281 75.3659C213.906 76.2147 214.341 77.1886 214.556 78.221C214.667 78.8439 214.786 80.0081 215.016 80.935C215.246 81.862 215.016 79.5409 215.602 75.4771C216.188 71.4133 215.602 70.9536 216.299 67.4682C216.996 63.9828 216.447 65.0284 217.3 63.4044C217.966 61.8863 218.41 60.2804 218.62 58.6361C218.62 58.4136 212.932 54.9282 220.941 56.5522C228.951 58.1762 225.005 58.8807 232.066 58.0353C239.126 57.19 239.259 55.4843 242.863 57.1084C246.468 58.7324 246.927 58.5025 247.625 62.2178C248.322 65.9331 248.67 64.3016 248.9 68.6027C249.13 72.9038 247.625 71.6209 248.9 74.6391C250.176 77.6573 249.642 78.703 249.835 79.4C249.957 79.9645 249.957 80.5487 249.835 81.1131C250.13 79.2264 250.594 77.3699 251.221 75.5661C252.267 72.5479 252.705 74.172 252.705 69.2998C252.705 64.4277 253.869 62.5664 253.291 57.4347C252.712 52.303 253.291 51.161 251.429 50.019C249.568 48.877 250.539 48.128 247.981 48.2763Z" fill="black"/>
<path d="M236.589 129.337C236.589 129.337 239.467 128.136 244.005 123.812C248.544 119.489 251.681 110.264 251.681 110.264L266.558 115.455C269.458 116.4 272.268 117.603 274.953 119.051C275.91 119.533 282.369 127.691 283.348 138.963L284.305 150.242C284.305 150.242 282.147 155.277 271.831 157.198C270.392 157.939 263.673 161.084 264.637 178.214C265.601 195.344 265.379 192.46 267.277 206.853C269.176 221.247 270.637 221.485 271.593 232.764L272.55 244.036C272.55 244.036 266.558 245.474 253.839 244.036C241.12 242.597 240.409 242.834 228.624 241.396C216.84 239.957 215.676 239.238 210.633 239.238C205.59 239.238 204.159 239.979 195.519 238.496C186.879 237.013 190.068 237.614 191.744 234.254C193.42 230.895 195.526 223.62 195.281 211.866C195.037 200.113 194.54 189.797 194.325 180.446C194.11 171.095 196.001 164.873 190.483 154.298C184.966 143.724 185.448 143.501 180.649 138.466C177.261 135.089 173.431 132.186 169.266 129.834C169.266 129.834 174.887 134.625 174.887 125.511C174.887 116.397 173.693 107.275 173.211 105.362C172.729 103.449 170.808 101.884 179.448 104.761C188.088 107.639 190.483 106.437 195.281 107.728C198.47 108.55 201.597 109.593 204.641 110.85C205.597 111.324 208.237 113.727 210.633 112.044C213.028 110.36 216.395 111.302 217.114 112.6C217.834 113.898 216.632 114.446 221.668 118.762C226.704 123.078 227.905 122.841 230.79 125.718C232.391 127.389 234.385 128.633 236.589 129.337Z" fill="#3C518A"/>
<path d="M242.997 242.879C242.997 242.879 240.512 259.475 235.113 263.072L242.997 242.879Z" fill="#938172"/>
<path d="M272.543 132.377C272.543 132.377 272.328 143.679 264.875 169.374L272.543 132.377Z" fill="#304470"/>
<path d="M180.775 132.377C180.775 132.377 191.9 138.926 196.245 147.565L180.775 132.377Z" fill="#304470"/>
<path d="M254.166 116.619C254.166 116.619 244.443 131.732 239.059 134.61L254.166 116.619Z" fill="#304470"/>
<path d="M208.979 116.819C208.979 116.819 227.171 140.29 233.296 139.971L208.979 116.819Z" fill="#304470"/>
<path d="M217.122 179.23C217.122 179.23 233.519 209.026 252.719 222.612L217.122 179.23Z" fill="#304470"/>
<path d="M254.166 179.23C254.166 179.23 254.166 194.38 264.874 209.523L254.166 179.23Z" fill="#304470"/>
<path d="M194.807 232.126C194.807 232.126 203.706 228.085 227.675 232.082C251.644 236.079 262.256 239.372 264.874 237.725" fill="#304470"/>
<path d="M236.997 365.038C236.997 365.038 240.809 360.589 242.997 350.525L236.997 365.038Z" fill="#938172"/>
<path d="M237.909 79.2588C237.909 79.2588 237.487 76.8635 239.919 77.0341C241.091 77.1305 243.308 76.7893 244.465 77.4642C245.622 78.139 246.408 78.2799 244.065 79.3255C242.47 78.7471 239.103 78.4727 237.909 79.2588Z" fill="#D6D5D4"/>
<path d="M238.288 77.494C238.288 77.494 241.744 74.6463 245.704 78.191L238.288 77.494Z" fill="black"/>
<path d="M237.909 79.2589C237.909 79.2589 237.227 77.4346 239.637 77.0342C242.463 76.5892 248.233 78.8213 244.31 78.2725C242.715 77.7312 238.874 76.6041 237.909 79.2589Z" fill="#A8A6A5"/>
<path d="M244.065 77.6125C243.955 78.0804 243.691 78.4977 243.315 78.7963C242.939 79.095 242.472 79.2575 241.992 79.2575C241.511 79.2575 241.045 79.095 240.669 78.7963C240.292 78.4977 240.028 78.0804 239.919 77.6125C239.919 77.0564 240.846 76.604 241.995 76.604C243.145 76.604 244.065 77.0564 244.065 77.6125Z" fill="black"/>
<path d="M237.909 77.9316C237.909 77.9316 236.938 79.7633 237.909 79.2591C238.881 78.7548 241.165 79.2591 243.434 79.3481C245.704 79.4371 245.659 78.1912 245.659 78.1912C245.659 78.1912 244.799 79.489 241.551 78.9699C239.608 78.6584 238.629 79.3554 238.25 78.6435L237.909 77.9316Z" fill="black"/>
<path d="M226.718 79.5036C226.718 79.5036 227.163 77.0046 224.627 77.2048C223.403 77.3012 221.097 76.9452 219.895 77.6497C218.694 78.3542 217.871 78.4951 220.311 79.5852C221.972 78.9623 225.465 78.6731 226.718 79.5036Z" fill="#D6D5D4"/>
<path d="M226.326 77.6643C226.326 77.6643 222.729 74.6981 218.613 78.4059L226.326 77.6643Z" fill="black"/>
<path d="M226.718 79.5038C226.718 79.5038 227.46 77.598 224.924 77.205C221.957 76.7378 215.972 79.0663 220.059 78.4953C221.712 77.8724 225.717 76.7378 226.718 79.5038Z" fill="#A8A6A5"/>
<path d="M220.733 77.7833C220.854 78.2644 221.132 78.6914 221.523 78.9965C221.914 79.3015 222.396 79.4673 222.892 79.4673C223.387 79.4673 223.869 79.3015 224.26 78.9965C224.651 78.6914 224.929 78.2644 225.05 77.7833C225.05 77.2049 224.086 76.7378 222.892 76.7378C221.698 76.7378 220.733 77.2049 220.733 77.7833Z" fill="black"/>
<path d="M226.719 78.1167C226.719 78.1167 227.735 80.0225 226.719 79.5034C225.703 78.9843 223.337 79.5034 220.964 79.5924C218.591 79.6814 218.613 78.3911 218.613 78.3911C218.613 78.3911 219.51 79.7407 222.892 79.1994C224.917 78.8731 225.932 79.5924 226.326 78.8583L226.719 78.1167Z" fill="black"/>
<path d="M227.037 89.2033C228.431 90.2636 229.887 91.2393 231.398 92.1251C233.296 93.1559 237.776 90.4194 237.776 90.4194C237.776 90.4194 236.181 86.6077 233.786 89.3664C231.39 92.125 227.037 89.2033 227.037 89.2033Z" fill="#87614E"/>
<path d="M233.882 72.9185C233.882 72.9185 231.657 82.7813 234.082 86.2667L233.882 72.9185Z" fill="#87614E"/>
<path d="M237.212 98.5399C237.212 98.5399 240.179 95.4772 237.679 95.277C235.18 95.0768 225.554 95.277 226.147 95.277C226.741 95.277 225.999 97.9244 229.544 98.5399C231.342 98.8892 233.164 99.0975 234.995 99.1628L237.212 98.5399Z" fill="#542713"/>
<path d="M226.741 95.2769C227.168 95.8008 227.708 96.2217 228.32 96.508C228.933 96.7943 229.602 96.9387 230.278 96.9305C232.637 96.9305 235.885 97.0417 237.212 95.4993" fill="#A8A6A5"/>
<path d="M224.264 94.9503C224.264 94.9503 229.774 94.3274 232.243 94.9503C233.675 94.5721 237.361 94.0827 239.719 94.9503C241.202 94.5721 236.916 95.5659 235.269 95.9367C233.623 96.3075 229.759 95.9366 224.264 94.9503Z" fill="#87614E"/>
<path d="M239.43 95.2769C239.43 95.2769 237.946 99.7263 236.33 100.09C234.713 100.453 229.544 100.898 228.506 99.2887C227.539 97.8911 226.492 96.5516 225.369 95.2769C225.369 95.2769 228.669 97.7982 230.953 98.169C232.461 98.5244 234.044 98.3516 235.44 97.6795C236.617 96.9658 237.738 96.1625 238.792 95.2769" fill="#87614E"/>
<path d="M238.695 92.355C239.186 92.9391 239.556 93.6149 239.784 94.343C240.012 95.0711 240.093 95.8371 240.023 96.5967" fill="#87614E"/>
<path d="M236.589 72.9185L235.937 75.1433C235.937 75.1433 241.462 73.0668 244.228 74.0235L246.994 74.9727C246.861 74.335 246.497 73.7694 245.97 73.3856C245.444 73.0019 244.794 72.8275 244.146 72.8963C241.684 73.0891 237.805 72.2289 236.589 72.9185Z" fill="black"/>
<path d="M227.972 72.9185L228.624 75.1433C228.624 75.1433 223.092 73.0668 220.326 74.0235L217.56 74.9727C217.692 74.3336 218.058 73.7668 218.586 73.3829C219.114 72.999 219.766 72.8255 220.415 72.8963C222.832 73.0891 226.711 72.2289 227.972 72.9185Z" fill="black"/>
<path d="M243.182 56.5003C243.182 56.5003 237.464 59.6074 232.948 60.2081C228.432 60.8088 234.083 57.8054 234.083 57.8054C234.083 57.8054 228.15 60.2452 225.369 60.2823C222.588 60.3193 229.7 57.2122 227.742 56.5225C225.784 55.8329 243.65 53.3857 243.182 56.5003Z" fill="black"/>
<path d="M224.724 56.5C224.724 56.5 220.274 56.1589 218.628 63.0703C216.981 69.9818 216.114 72.644 215.876 72.644C214.942 72.644 214.504 65.1763 215.083 60.2597C215.661 55.3431 216.091 51.969 218.991 52.1025C221.891 52.2359 224.894 54.0009 224.724 56.5Z" fill="black"/>
<path d="M308.303 179.171C306.575 171.955 301.874 167.224 293.671 165.429C293.529 165.399 293.4 165.323 293.305 165.213C293.21 165.103 293.153 164.964 293.144 164.819C293.135 164.674 293.173 164.529 293.254 164.408C293.334 164.286 293.452 164.195 293.59 164.147C301.139 161.541 305.943 157.163 307.999 151.013C308.046 150.872 308.139 150.751 308.263 150.669C308.386 150.587 308.534 150.548 308.682 150.559C308.83 150.571 308.97 150.631 309.08 150.73C309.19 150.83 309.264 150.963 309.29 151.11C310.64 157.984 315.586 162.07 323.151 164.132C323.299 164.169 323.43 164.257 323.522 164.379C323.613 164.502 323.66 164.652 323.654 164.805C323.648 164.958 323.589 165.105 323.488 165.22C323.387 165.335 323.25 165.411 323.099 165.437C315.794 166.92 311.44 171.688 309.601 179.156C309.568 179.302 309.486 179.433 309.37 179.527C309.253 179.621 309.108 179.673 308.958 179.675C308.808 179.676 308.662 179.628 308.543 179.536C308.425 179.445 308.34 179.316 308.303 179.171Z" fill="#96D7FF"/>
<path d="M424.633 143.064C423.098 137.131 419.16 133.186 412.396 131.621C412.255 131.588 412.128 131.51 412.035 131.398C411.942 131.286 411.888 131.147 411.882 131.002C411.875 130.857 411.916 130.714 411.998 130.594C412.08 130.474 412.199 130.384 412.337 130.338C418.547 128.128 422.549 124.495 424.344 119.437C424.389 119.296 424.481 119.175 424.603 119.091C424.726 119.008 424.873 118.968 425.02 118.977C425.168 118.987 425.309 119.045 425.42 119.143C425.531 119.241 425.606 119.373 425.634 119.519C426.865 125.155 430.966 128.566 437.173 130.338C437.319 130.373 437.449 130.456 437.542 130.574C437.634 130.692 437.685 130.837 437.685 130.987C437.685 131.137 437.634 131.282 437.542 131.4C437.449 131.518 437.319 131.601 437.173 131.636C431.181 132.986 427.533 136.916 425.953 143.049C425.931 143.207 425.853 143.352 425.733 143.458C425.613 143.564 425.459 143.623 425.299 143.625C425.139 143.626 424.984 143.571 424.862 143.468C424.74 143.365 424.658 143.221 424.633 143.064Z" fill="#FF99B1"/>
<path d="M579.407 230.213C577.872 224.28 573.934 220.335 567.171 218.77C567.031 218.734 566.906 218.653 566.815 218.541C566.725 218.428 566.672 218.289 566.667 218.145C566.661 218 566.702 217.857 566.783 217.738C566.864 217.618 566.982 217.528 567.119 217.48C573.319 215.27 577.319 211.639 579.118 206.586C579.164 206.446 579.255 206.324 579.378 206.241C579.5 206.158 579.647 206.117 579.795 206.127C579.943 206.136 580.083 206.194 580.194 206.292C580.306 206.39 580.381 206.523 580.409 206.668C581.64 212.304 585.741 215.708 591.956 217.488C592.098 217.525 592.224 217.609 592.314 217.726C592.403 217.842 592.452 217.985 592.452 218.133C592.452 218.28 592.403 218.423 592.314 218.54C592.224 218.656 592.098 218.74 591.956 218.778C585.963 220.135 582.315 224.065 580.735 230.191C580.721 230.355 580.646 230.508 580.525 230.621C580.404 230.733 580.246 230.797 580.081 230.8C579.916 230.803 579.756 230.744 579.632 230.636C579.507 230.527 579.427 230.377 579.407 230.213Z" fill="#96D7FF"/>
<path d="M534.525 392.098C533.657 394.538 532.878 397.081 532.137 399.721C532.5 398.735 534.362 394.189 539.434 389.465C543.498 385.669 549.661 381.768 558.775 379.521C559.94 379.232 561.156 378.972 562.409 378.779C563.418 378.594 564.441 378.446 565.494 378.312C566.236 378.208 566.978 378.119 567.786 378.038C568.594 377.956 569.41 377.897 570.256 377.838C602.011 375.783 616.747 359.803 608.946 344.378C606.342 339.239 598.941 336.599 589.56 337.704C589.233 337.704 588.892 337.785 588.559 337.837C581.068 338.92 572.406 342.376 563.967 348.82C563.626 349.08 563.277 349.346 562.936 349.628C552.012 358.29 541.54 372.001 534.525 392.098Z" fill="#1EAF6A"/>
<path d="M558.642 364.638C548.756 372.128 540.317 381.464 534.525 392.076C532.2 396.298 530.324 400.752 528.926 405.365C528.873 405.573 528.9 405.793 529.002 405.981C529.105 406.17 529.274 406.313 529.477 406.382C529.68 406.451 529.902 406.442 530.098 406.355C530.294 406.268 530.45 406.11 530.535 405.914C532.924 400.131 535.906 394.611 539.434 389.443C542.248 385.296 545.382 381.376 548.808 377.719C552.155 378.115 555.474 378.717 558.746 379.521C559.91 379.232 561.127 378.972 562.38 378.779C558.59 377.17 554.578 375.917 550.618 375.813C551.241 375.175 551.908 374.56 552.553 373.93C556.933 375.144 561.243 376.594 565.465 378.275C566.207 378.171 566.948 378.082 567.757 378.001C563.508 375.295 558.742 373.504 553.762 372.743C555.438 371.163 557.137 369.621 558.917 368.116C562.872 364.737 567.025 361.597 571.353 358.713C580.156 359.254 587.839 360.485 596.175 363.904C596.273 363.951 596.387 363.957 596.489 363.921C596.592 363.885 596.677 363.809 596.724 363.711C596.771 363.612 596.777 363.499 596.741 363.396C596.705 363.294 596.629 363.209 596.531 363.162C589.909 359.343 581.239 356.955 573.319 357.393C574.95 356.391 576.589 355.427 578.28 354.538C584.799 351.111 591.911 349.406 598.956 347.411C599.062 347.39 599.156 347.328 599.217 347.239C599.277 347.149 599.299 347.039 599.279 346.933C599.258 346.827 599.196 346.733 599.106 346.672C599.017 346.612 598.907 346.589 598.8 346.61C594.036 347.48 589.353 348.745 584.799 350.392C587.762 346.794 589.429 342.304 589.53 337.645C589.204 337.645 588.863 337.726 588.529 337.778C588.187 340.135 587.614 342.453 586.816 344.697C585.896 347.055 584.517 348.931 583.175 351.022C582.3 351.356 581.417 351.675 580.542 352.024C583.261 349.011 585.273 345.428 586.43 341.538C586.441 341.479 586.431 341.419 586.402 341.367C586.372 341.315 586.325 341.275 586.269 341.255C586.213 341.234 586.151 341.234 586.095 341.255C586.039 341.276 585.993 341.315 585.963 341.367C584.064 345.463 581.643 349.297 578.762 352.773C572.67 355.451 566.861 358.732 561.423 362.569C563.438 358.26 564.304 353.503 563.937 348.761C563.596 349.02 563.248 349.287 562.906 349.569C561.902 354.701 560.476 359.741 558.642 364.638Z" fill="#DBDBDB"/>
<path d="M558.197 271.86C557.848 272.371 557.515 272.89 557.174 273.447C549.965 284.859 543.342 301.404 538.678 322.998C538.371 324.378 538.082 325.782 537.81 327.21C534.532 343.651 532.374 362.85 531.877 384.741C531.788 388.961 531.744 393.284 531.781 397.712C531.877 397.445 532.841 394.805 534.51 390.615C539.916 377.066 552.805 347.426 568.261 330.058C573.22 324.518 577.862 318.702 582.166 312.639C582.448 312.246 582.715 311.845 582.989 311.445C583.449 310.792 583.901 310.132 584.331 309.479C584.658 308.997 584.977 308.53 585.281 308.056C597.688 289.012 604.303 268.752 589.73 257.495C580.935 250.717 568.98 255.612 558.197 271.86Z" fill="#39BD81"/>
<path d="M558.197 271.86C557.848 272.372 557.515 272.891 557.174 273.447C559.046 276.817 560.665 280.322 562.016 283.933C563.715 288.59 564.553 293.328 565.724 298.082C563.329 302.316 561.06 306.625 558.827 310.852C553.51 320.782 548.713 330.983 544.455 341.412C543.639 334.979 541.68 328.743 538.67 322.999C538.364 324.378 538.075 325.782 537.803 327.211C538.307 328.271 538.774 329.354 539.19 330.488C541.021 335.457 541.681 340.589 542.838 345.639C539.179 355.377 536.181 365.352 533.865 375.494C533.175 378.527 532.478 381.612 531.848 384.742C530.364 392.157 529.274 399.729 529.697 407.167C529.725 407.327 529.805 407.473 529.925 407.583C530.044 407.693 530.196 407.761 530.358 407.776C530.52 407.791 530.682 407.753 530.82 407.667C530.958 407.581 531.063 407.452 531.121 407.3C532.56 401.828 533.546 396.229 534.48 390.615C535.422 385.024 536.364 379.395 537.714 373.9C540.306 363.543 543.516 353.351 547.325 343.377C549.115 338.636 550.991 333.939 552.954 329.287C561.913 321.686 571.331 317.259 582.173 312.609C582.455 312.216 582.722 311.816 582.997 311.415C573.244 314.448 562.15 318.475 554.474 325.757C555.394 323.651 556.336 321.557 557.3 319.476C561.883 316.866 566.288 314.285 571.301 312.49C575.545 311.079 579.909 310.061 584.339 309.45C584.665 308.968 584.984 308.501 585.288 308.026C575.646 308.447 566.324 311.606 558.412 317.133C559.094 315.694 559.762 314.248 560.474 312.839C565.962 301.79 572.651 291.452 578.332 280.514C578.584 280.024 577.82 279.683 577.501 280.069C573.568 285.173 570.006 290.554 566.844 296.169C566.147 287.774 562.565 278.964 558.197 271.86Z" fill="#DBDBDB"/>
<path d="M563.64 274.544C566.295 277.8 568.75 283.22 568.706 287.485C568.698 287.569 568.662 287.649 568.605 287.712C568.548 287.775 568.471 287.818 568.388 287.833C568.304 287.849 568.218 287.838 568.141 287.8C568.065 287.763 568.003 287.701 567.964 287.625C567.059 285.571 566.607 283.324 565.739 281.241C564.872 279.157 563.655 277.221 562.624 275.189C562.565 275.056 562.555 274.906 562.597 274.766C562.639 274.626 562.73 274.506 562.853 274.427C562.977 274.349 563.124 274.318 563.269 274.339C563.413 274.361 563.545 274.433 563.64 274.544Z" fill="#DBDBDB"/>
<path d="M306.197 372.572C300.183 365.691 292.492 357.155 283.533 347.745C282.792 347.003 282.095 346.217 281.346 345.446L280.567 344.637C280.048 344.104 279.529 343.555 278.987 343.013L278.854 342.88C275.354 339.256 271.687 335.548 267.856 331.756C264.133 328.053 260.269 324.309 256.264 320.522C255.056 319.365 253.81 318.2 252.556 317.044C244.658 309.628 236.322 302.212 227.697 295.071L227.594 294.989C226.57 294.134 225.547 293.293 224.523 292.468C210.188 280.721 195.089 269.709 179.849 260.625C178.365 259.742 180.79 267.536 184.758 277.177C184.862 277.436 184.966 277.696 185.084 277.918C186.315 280.885 187.673 283.977 189.111 287.047L189.2 287.232C190.239 289.457 191.321 291.682 192.412 293.766C193.072 295.049 193.739 296.294 194.406 297.473L194.874 298.311C195.556 299.505 196.238 300.633 196.898 301.686L197.41 302.509C198.334 303.96 199.344 305.354 200.436 306.684C200.747 307.062 201.059 307.425 201.355 307.737L201.422 307.804L201.474 307.863C201.741 308.137 202.008 308.397 202.268 308.604C203.113 309.346 203.951 310.088 204.759 310.681L204.974 310.837L205.034 310.881C205.397 311.163 205.775 311.422 206.117 311.675C216.329 318.831 223.485 316.124 230.301 320.573C234.075 323.058 237.628 328.093 241.692 333.38C241.803 333.544 241.929 333.699 242.055 333.87C242.708 334.73 243.39 335.59 244.087 336.45C244.228 336.636 244.391 336.829 244.554 337.014C245.733 338.497 246.965 339.891 248.262 341.256L248.796 341.812C249.657 342.694 250.539 343.532 251.466 344.333L252.267 345.016C253.57 346.114 254.958 347.106 256.42 347.982C268.204 354.901 285.951 358.164 285.951 358.164L306.19 376.584L320.74 389.799C320.481 389.443 315.2 382.851 306.197 372.572ZM267.211 345.216C267.362 345.113 267.54 345.057 267.722 345.053C268.012 345.041 268.297 345.121 268.538 345.283C268.816 345.434 269.042 345.666 269.186 345.947C269.331 346.229 269.386 346.548 269.346 346.862C269.314 346.969 269.258 347.067 269.182 347.15C269.106 347.232 269.013 347.296 268.909 347.337C268.721 347.399 268.523 347.422 268.326 347.406C268.128 347.39 267.936 347.335 267.761 347.244C267.585 347.153 267.43 347.027 267.303 346.875C267.177 346.723 267.083 346.547 267.025 346.358C266.862 345.898 266.869 345.438 267.211 345.216ZM221.69 300.203C220.949 301.129 219.28 299.958 219.703 299.283C220.363 298.237 222.439 299.268 221.69 300.203ZM264.637 346.988C264.637 346.988 264.637 346.988 264.6 347.033C262.702 348.887 259.654 347.359 258.608 345.876C258.404 345.622 258.276 345.316 258.237 344.993C258.231 344.875 258.248 344.756 258.289 344.645C259.164 342.465 264.964 343.992 265.09 345.994C265.09 346.182 265.05 346.368 264.974 346.539C264.897 346.71 264.785 346.863 264.645 346.988H264.637Z" fill="#39BD81"/>
<path d="M204.759 310.718C208.468 310.948 212.101 311.311 215.728 311.801C210.982 310.37 206.265 308.983 201.452 307.87L201.4 307.811L200.414 306.691C207.83 307.796 215.246 309.658 222.002 312.795C233.992 314.882 245.571 318.873 256.302 324.615C257.577 325.742 258.838 326.884 260.076 328.012C243.568 318.557 225.043 313.566 206.139 311.697L204.759 310.718Z" fill="#DBDBDB"/>
<path d="M189.185 287.217C203.774 290.632 217.835 295.997 230.99 303.169C229.915 302.308 228.839 301.456 227.749 300.618C215.716 293.595 202.526 288.773 188.8 286.379L189.185 287.217Z" fill="#DBDBDB"/>
<path d="M252.304 345.105C254.425 345.29 256.524 345.535 258.608 345.846C260.692 346.158 262.642 346.529 264.637 346.959C272.642 348.745 280.448 351.328 287.938 354.671C287.197 353.929 286.455 353.188 285.714 352.446C280.481 350.04 275.013 348.181 269.398 346.899C268.657 346.721 267.863 346.551 267.084 346.395L265.112 346.002C262.842 345.587 260.551 345.26 258.259 345.001C255.968 344.741 253.772 344.563 251.533 344.452L252.304 345.105Z" fill="#DBDBDB"/>
<path d="M248.841 341.901C255.221 342.281 261.543 343.337 267.7 345.053C267.989 345.127 268.271 345.201 268.56 345.29C274.176 346.909 279.636 349.026 284.876 351.615C284.29 351.052 283.719 350.466 283.125 349.895C272.241 344.615 260.362 341.701 248.27 341.345L248.841 341.901Z" fill="#DBDBDB"/>
<path d="M343.797 406.292C342.032 404.549 337.33 399.781 332.131 393.507C331.335 392.553 330.535 391.564 329.729 390.541C322.958 381.961 315.994 371.26 313.962 361.709C311.181 348.62 312.227 333.121 310.995 319.439C310.995 319.157 310.944 318.876 310.921 318.594C310.869 318.038 310.81 317.481 310.751 316.925C310.751 316.651 310.684 316.376 310.647 316.102C310.174 311.66 309.179 307.289 307.68 303.08C307.257 301.887 306.762 300.721 306.197 299.587C306.145 299.476 306.093 299.365 306.034 299.253C297.55 283.035 283.318 271.118 280.426 264.303C278.78 260.373 280.33 254.077 272.958 244.348C272.839 244.177 272.713 244.014 272.587 243.851L272.128 243.272C270.895 241.751 269.585 240.293 268.204 238.904L267.893 238.593L266.899 237.622C260.714 231.689 251.325 224.778 236.99 216.68C234.253 215.122 224.204 252.727 249.642 282.88C250.857 284.448 251.74 286.247 252.237 288.167C252.237 288.226 252.237 288.293 252.297 288.36C252.356 288.427 252.378 288.642 252.423 288.79C252.419 288.847 252.419 288.904 252.423 288.96C252.957 290.822 253.387 292.943 253.825 295.242L254.01 296.25C254.21 297.355 254.425 298.475 254.64 299.669C256.361 308.657 258.867 319.639 266.469 329.999C266.907 330.607 267.359 331.193 267.819 331.779C271.135 335.903 274.863 339.68 278.943 343.051C288.465 351.023 298.833 356.747 306.168 363.073C308.241 364.819 310.122 366.781 311.782 368.924C316.558 375.265 322.713 383.755 328.839 391.29C329.625 392.279 330.406 393.228 331.182 394.137C335.58 399.328 339.844 403.822 343.441 406.359C343.804 406.618 344.183 406.848 344.516 407.1L343.797 406.292ZM296.957 311.549C296.445 309.495 300.554 306.996 301.147 309.843C301.74 312.691 297.402 313.291 296.957 311.549ZM295.577 316.68C298.974 312.594 305.493 319.298 301.822 322.153C298.151 325.008 292.27 320.663 295.577 316.68ZM252.349 276.228C253.832 274.114 258.556 277.422 257.058 278.764C255.56 280.106 250.814 278.452 252.349 276.228Z" fill="#1EAF6A"/>
<path d="M266.877 237.57C267.329 238 267.767 238.422 268.182 238.845C269.295 244.681 268.709 250.71 268.012 256.836C269.895 252.253 271.49 248.033 272.113 243.22C272.402 243.584 272.691 243.962 272.943 244.296C272.41 249.131 270.199 253.936 267.863 258.096C266.959 265.779 266.032 273.499 268.219 280.922C273.114 288.515 278.239 295.976 281.984 304.237C287.442 316.213 292.3 328.397 298.299 340.144C299.464 342.428 300.695 344.689 301.941 346.922C302.779 341.397 305.456 336.243 307.176 330.948C308.722 326.085 309.888 321.109 310.662 316.065C310.803 317.162 310.914 318.29 311.01 319.402C310.551 322.131 309.943 324.838 309.238 327.515C307.406 334.493 304.18 340.967 302.504 347.967C307.606 357.081 313.161 365.921 318.115 375.116C318.126 375.133 318.13 375.153 318.125 375.173C318.121 375.192 318.11 375.209 318.093 375.22C318.076 375.231 318.056 375.234 318.036 375.23C318.017 375.226 318 375.214 317.989 375.198C311.896 367.28 306.509 358.843 301.889 349.984C301.86 349.991 301.831 349.99 301.803 349.982C301.775 349.975 301.749 349.961 301.728 349.941C301.707 349.921 301.691 349.897 301.681 349.869C301.672 349.842 301.669 349.813 301.674 349.784C301.67 349.722 301.67 349.66 301.674 349.599C296.401 339.676 291.78 329.361 287.271 319.09C276.681 310.444 265.92 302.672 254.01 296.183L253.825 295.175C265.898 301.189 277.386 308.879 286.952 318.371C286.161 316.547 285.368 314.73 284.572 312.921C275.435 302.628 263.503 296.606 252.423 288.894C252.356 288.612 252.282 288.352 252.201 288.093C257.629 291.801 263.125 295.353 268.813 298.631C274.501 301.908 279.536 305.727 283.6 310.725C282.859 309.012 282.117 307.299 281.376 305.601C275.947 293.417 267.552 282.946 261.07 271.333C254.483 259.382 248.722 246.993 243.828 234.255C243.716 233.943 244.147 233.728 244.288 234.04C249.953 246.446 255.412 258.919 262.086 270.851C263.703 273.751 265.438 276.569 267.226 279.357C262.783 265.831 269.428 251.43 266.877 237.57Z" fill="#DBDBDB"/>
<path d="M537.632 270.718H306.197V409.021H537.632V270.718Z" fill="#FF9700"/>
<path d="M306.189 270.717L409.274 171.391C412.654 168.135 417.165 166.316 421.859 166.316C426.553 166.316 431.064 168.135 434.444 171.391L537.617 270.717H306.189Z" fill="#FFCA43"/>
<path d="M471.695 227.958H372.134C344.147 227.958 321.459 250.645 321.459 278.63V301.841C321.459 329.826 344.147 352.513 372.134 352.513H471.695C499.682 352.513 522.37 329.826 522.37 301.841V278.63C522.37 250.645 499.682 227.958 471.695 227.958Z" fill="white"/>
<path d="M452.962 246.676H337.619V258.393H452.962V246.676Z" fill="#DBDBDB"/>
<path d="M503.859 264.718H337.619V272.586H503.859V264.718Z" fill="#DBDBDB"/>
<path d="M503.859 279.557H337.619V287.425H503.859V279.557Z" fill="#DBDBDB"/>
<path d="M503.859 294.389H337.619V302.257H503.859V294.389Z" fill="#DBDBDB"/>
<path d="M512.899 255.508C528.197 255.508 540.599 243.107 540.599 227.81C540.599 212.513 528.197 200.113 512.899 200.113C497.602 200.113 485.2 212.513 485.2 227.81C485.2 243.107 497.602 255.508 512.899 255.508Z" fill="#FA6920"/>
<path d="M501.931 236.524L495.531 222.738L499.81 220.75L504.222 230.265L528.288 219.089L530.275 223.368L501.931 236.524Z" fill="white"/>
<path d="M306.197 270.718L421.867 339.825L306.197 409.021V270.718Z" fill="#FFCA43"/>
<path d="M537.632 270.718L421.866 339.825L537.632 409.021V270.718Z" fill="#FFCA43"/>
<path d="M306.197 409.021L421.867 318.148L537.632 409.021H306.197Z" fill="#FFBD2D"/>
<path d="M532.256 192.971C542.237 192.971 550.329 184.88 550.329 174.899C550.329 164.918 542.237 156.827 532.256 156.827C522.274 156.827 514.183 164.918 514.183 174.899C514.183 184.88 522.274 192.971 532.256 192.971Z" fill="#E0E0E2"/>
<path d="M532.255 164.117C530.468 164.117 528.753 164.827 527.489 166.091C526.224 167.355 525.514 169.07 525.514 170.858C525.514 177.272 532.255 185.689 532.255 185.689C532.255 185.689 538.997 177.28 538.997 170.858C538.995 169.07 538.284 167.357 537.02 166.093C535.756 164.829 534.043 164.119 532.255 164.117ZM532.255 174.58C531.533 174.586 530.825 174.377 530.221 173.979C529.618 173.581 529.147 173.013 528.867 172.346C528.588 171.68 528.514 170.945 528.653 170.236C528.793 169.527 529.14 168.876 529.651 168.365C530.162 167.854 530.814 167.506 531.523 167.367C532.232 167.227 532.966 167.302 533.633 167.581C534.3 167.86 534.868 168.332 535.266 168.935C535.664 169.538 535.873 170.246 535.867 170.969C535.863 171.925 535.481 172.842 534.805 173.518C534.128 174.195 533.212 174.576 532.255 174.58Z" fill="#39BD81"/>
<path d="M482.524 207.762C483.913 207.676 484.97 206.479 484.884 205.089C484.797 203.699 483.6 202.643 482.21 202.729C480.821 202.816 479.764 204.012 479.85 205.402C479.937 206.792 481.134 207.849 482.524 207.762Z" fill="#3F3D56"/>
<path d="M498.144 197.084C498.273 195.267 496.904 193.688 495.086 193.559C493.268 193.429 491.69 194.798 491.56 196.616C491.431 198.434 492.8 200.013 494.618 200.142C496.436 200.271 498.015 198.902 498.144 197.084Z" fill="#3F3D56"/>
<path d="M507.189 192.385C509.442 192.385 511.268 190.559 511.268 188.307C511.268 186.054 509.442 184.228 507.189 184.228C504.937 184.228 503.11 186.054 503.11 188.307C503.11 190.559 504.937 192.385 507.189 192.385Z" fill="#3F3D56"/>
<path d="M287.457 376.466C287.929 376.624 288.344 376.919 288.649 377.313C288.954 377.706 289.135 378.182 289.17 378.679C289.206 379.175 289.093 379.672 288.846 380.104C288.6 380.537 288.23 380.887 287.785 381.11C287.34 381.334 286.838 381.42 286.344 381.358C285.85 381.297 285.385 381.09 285.007 380.765C284.63 380.439 284.358 380.009 284.225 379.529C284.092 379.049 284.105 378.541 284.26 378.068C284.472 377.431 284.928 376.905 285.527 376.605C286.126 376.305 286.82 376.254 287.457 376.466Z" fill="#3F3D56"/>
<path d="M275.326 384.059C275.97 382.354 275.11 380.45 273.405 379.806C271.7 379.162 269.795 380.022 269.151 381.727C268.507 383.432 269.368 385.336 271.073 385.98C272.778 386.624 274.682 385.764 275.326 384.059Z" fill="#3F3D56"/>
<path d="M257.807 391.148C260.06 391.148 261.886 389.322 261.886 387.07C261.886 384.817 260.06 382.991 257.807 382.991C255.554 382.991 253.728 384.817 253.728 387.07C253.728 389.322 255.554 391.148 257.807 391.148Z" fill="#3F3D56"/>
<path d="M229.789 409.94C239.77 409.94 247.862 401.849 247.862 391.868C247.862 381.887 239.77 373.796 229.789 373.796C219.807 373.796 211.716 381.887 211.716 391.868C211.716 401.849 219.807 409.94 229.789 409.94Z" fill="white"/>
<path d="M236.663 398.831C234.631 395.702 233.512 396.525 231.843 397.393C230.686 397.971 229.092 395.39 227.831 392.862C226.57 390.333 225.45 387.507 226.615 386.929C228.254 386.113 229.64 385.713 228.357 382.213C227.074 378.712 224.887 380.307 223.248 381.13C221.401 382.057 221.023 387.73 224.405 394.575C227.786 401.419 232.562 404.475 234.483 403.473C236.055 402.732 238.658 401.946 236.663 398.831Z" fill="#FA6920"/>
<path d="M310.881 255.167C310.968 253.777 309.911 252.581 308.521 252.494C307.131 252.408 305.934 253.464 305.848 254.854C305.762 256.244 306.818 257.441 308.208 257.527C309.598 257.614 310.795 256.557 310.881 255.167Z" fill="#3F3D56"/>
<path d="M299.938 245.964C301.761 245.964 303.238 244.487 303.238 242.664C303.238 240.842 301.761 239.364 299.938 239.364C298.115 239.364 296.638 240.842 296.638 242.664C296.638 244.487 298.115 245.964 299.938 245.964Z" fill="#3F3D56"/>
<path d="M291.484 234.358C293.736 234.358 295.563 232.532 295.563 230.28C295.563 228.027 293.736 226.201 291.484 226.201C289.231 226.201 287.405 228.027 287.405 230.28C287.405 232.532 289.231 234.358 291.484 234.358Z" fill="#3F3D56"/>
<path d="M278.075 223.287C288.057 223.287 296.148 215.196 296.148 205.215C296.148 195.234 288.057 187.143 278.075 187.143C268.094 187.143 260.002 195.234 260.002 205.215C260.002 215.196 268.094 223.287 278.075 223.287Z" fill="#E0E0E2"/>
<path d="M287.405 198.8H268.694C267.722 198.8 268.204 199.727 268.738 200.002L277.059 204.451C277.371 204.593 277.71 204.666 278.053 204.666C278.396 204.666 278.735 204.593 279.047 204.451L287.36 200.002C287.887 199.727 288.376 198.8 287.405 198.8ZM287.583 202.204C286.96 202.56 279.425 206.498 279.047 206.654C278.736 206.8 278.397 206.876 278.053 206.876C277.709 206.876 277.37 206.8 277.059 206.654C276.651 206.483 269.139 202.545 268.523 202.204C268.078 201.989 268.123 202.256 268.123 202.471V210.569C268.157 210.838 268.28 211.089 268.472 211.281C268.664 211.473 268.914 211.595 269.183 211.63H286.915C287.19 211.597 287.446 211.476 287.646 211.285C287.845 211.093 287.977 210.842 288.02 210.569V202.471C288.02 202.256 288.02 201.989 287.583 202.204Z" fill="#1EAF6A"/>
<path d="M556.366 470C566.347 470 574.439 461.908 574.439 451.928C574.439 441.947 566.347 433.855 556.366 433.855C546.384 433.855 538.292 441.947 538.292 451.928C538.292 461.908 546.384 470 556.366 470Z" fill="white"/>
<path d="M512.174 417.234C513.481 416.753 514.151 415.304 513.67 413.997C513.19 412.69 511.74 412.02 510.433 412.501C509.126 412.982 508.457 414.431 508.937 415.738C509.418 417.044 510.867 417.714 512.174 417.234Z" fill="#3F3D56"/>
<path d="M523.993 427.012C525.78 426.658 526.943 424.921 526.588 423.134C526.234 421.346 524.497 420.184 522.709 420.538C520.922 420.892 519.759 422.629 520.114 424.417C520.468 426.204 522.205 427.367 523.993 427.012Z" fill="#3F3D56"/>
<path d="M537.759 436.025C539.619 434.754 540.095 432.215 538.823 430.356C537.552 428.497 535.013 428.021 533.154 429.292C531.294 430.564 530.818 433.102 532.09 434.961C533.362 436.821 535.9 437.297 537.759 436.025Z" fill="#3F3D56"/>
<path d="M562.758 457.119L559.636 448.22C559.212 447.04 558.359 446.064 557.247 445.485C556.135 444.907 554.846 444.768 553.636 445.098L551.27 440.567C551.226 440.469 551.162 440.382 551.083 440.309C551.004 440.237 550.912 440.181 550.811 440.145C550.71 440.109 550.602 440.094 550.495 440.1C550.388 440.106 550.284 440.134 550.188 440.181C550.09 440.233 550.003 440.304 549.933 440.39C549.863 440.476 549.811 440.575 549.78 440.682C549.749 440.788 549.739 440.9 549.752 441.01C549.765 441.12 549.799 441.227 549.854 441.323L552.123 445.773C551.21 446.355 550.507 447.213 550.116 448.223C549.725 449.233 549.667 450.341 549.95 451.386L552.502 460.515C553.243 463.066 556.143 464.334 559.072 463.437C562.002 462.54 563.641 459.64 562.758 457.119ZM555.053 450.645C554.845 450.711 554.626 450.736 554.408 450.717C554.191 450.698 553.98 450.636 553.786 450.534C553.593 450.433 553.422 450.294 553.283 450.126C553.144 449.958 553.04 449.763 552.976 449.555C552.863 449.135 552.911 448.688 553.111 448.302C553.312 447.916 553.65 447.619 554.059 447.471C554.264 447.402 554.481 447.376 554.697 447.394C554.913 447.413 555.123 447.475 555.313 447.578C555.504 447.681 555.671 447.822 555.805 447.992C555.939 448.163 556.036 448.359 556.091 448.568C556.227 448.981 556.195 449.432 556 449.821C555.806 450.21 555.465 450.506 555.053 450.645Z" fill="#3F3D56"/>
<path d="M125.229 375.101L130.917 398.691C137.035 384.875 148.752 363.095 167.093 346.892C188.117 328.353 161.323 303.829 143.405 325.082C131.606 339.083 126.882 358.297 125.229 375.101Z" fill="#4DCDFF"/>
<g style="mix-blend-mode:multiply">
<path d="M173.738 337.756C167.555 334.404 160.325 333.545 153.529 335.353C159.017 328.397 163.289 325.713 163.355 325.676C163.469 325.608 163.568 325.518 163.646 325.412C163.724 325.305 163.781 325.184 163.812 325.056C163.843 324.928 163.848 324.794 163.827 324.664C163.806 324.533 163.759 324.408 163.689 324.296C163.551 324.069 163.328 323.905 163.07 323.842C162.811 323.778 162.538 323.818 162.31 323.955C161.887 324.215 151.69 330.511 142.286 349.673C142.17 349.912 142.154 350.187 142.24 350.438C142.326 350.69 142.508 350.897 142.746 351.015C142.883 351.087 143.036 351.125 143.191 351.126C143.379 351.125 143.563 351.072 143.723 350.973C143.883 350.873 144.012 350.731 144.096 350.563C146.191 346.268 148.629 342.149 151.386 338.245C152.921 337.504 161.968 333.796 172.967 339.587C173.257 338.992 173.515 338.38 173.738 337.756Z" fill="#4DCDFF"/>
</g>
<path style="mix-blend-mode:multiply" d="M125.229 375.101L130.917 398.691C137.035 384.875 148.752 363.095 167.093 346.892C188.117 328.353 161.323 303.829 143.405 325.082C131.606 339.083 126.882 358.297 125.229 375.101Z" fill="url(#paint21_linear_645_2568)"/>
<path d="M141.136 382.376C143.265 365.75 142.872 346.669 135.055 330.629C122.388 304.63 89.1121 322.561 105.613 346.61C113.474 358.075 118.903 370.726 122.67 382.376H141.136Z" fill="#AEE4FF"/>
<g style="mix-blend-mode:multiply">
<path d="M137.754 343.213C138.311 342.989 138.887 342.815 139.475 342.694C139.304 342.042 139.119 341.397 138.926 340.752C138.271 340.897 137.629 341.096 137.005 341.345C132.556 343.147 129.916 347.047 128.61 349.502C127.404 346.504 126.042 343.571 124.531 340.714C124.492 340.572 124.421 340.44 124.324 340.329C121.728 335.387 118.655 330.71 115.15 326.365C114.976 326.163 114.729 326.039 114.463 326.02C114.198 326 113.935 326.087 113.734 326.261C113.532 326.435 113.408 326.682 113.388 326.948C113.369 327.214 113.456 327.476 113.63 327.678C116.447 331.169 118.967 334.89 121.165 338.801C117.538 337.592 110.96 336.895 103.433 342.887C103.729 343.473 104.033 344.074 104.389 344.674C113.837 336.895 121.305 340.781 122.744 341.708C126.601 348.975 130.494 358.608 131.755 369.524C131.784 369.77 131.902 369.996 132.086 370.16C132.271 370.324 132.509 370.414 132.756 370.414H132.867C133.133 370.383 133.376 370.247 133.543 370.038C133.709 369.828 133.786 369.561 133.757 369.295C133.047 363.45 131.659 357.709 129.619 352.186C130.153 350.8 132.63 345.275 137.754 343.213Z" fill="#AEE4FF"/>
</g>
<path style="mix-blend-mode:multiply" d="M141.136 382.376C143.265 365.75 142.872 346.669 135.055 330.629C122.388 304.63 89.1121 322.561 105.613 346.61C113.474 358.075 118.903 370.726 122.67 382.376H141.136Z" fill="url(#paint22_linear_645_2568)"/>
<path d="M138.644 402.25C136.85 387.708 132.444 371.927 122.64 359.98C106.013 339.758 80.4945 362.546 100.08 380.255C107.191 386.796 113.486 394.171 118.828 402.22L138.644 402.25Z" fill="#4DCDFF"/>
<path style="mix-blend-mode:multiply" d="M138.644 402.25C136.85 387.708 132.444 371.927 122.64 359.98C106.013 339.758 80.4945 362.546 100.08 380.255C107.191 386.796 113.486 394.171 118.828 402.22L138.644 402.25Z" fill="url(#paint23_linear_645_2568)"/>
<g style="mix-blend-mode:multiply">
<path d="M134.848 383.859C134.655 383.214 134.455 382.576 134.239 381.938C131.221 383.703 128.656 386.149 126.749 389.079C124.673 384.803 122.203 380.729 119.37 376.91C119.763 375.19 121.595 368.753 127.031 366.18C126.682 365.609 126.289 365.03 125.941 364.474C121.083 366.929 118.799 372.023 117.865 374.901C113.549 369.311 108.763 364.101 103.559 359.328C103.464 359.227 103.349 359.147 103.222 359.093C103.094 359.038 102.957 359.011 102.819 359.013C102.68 359.014 102.544 359.045 102.417 359.102C102.291 359.159 102.178 359.241 102.086 359.344C101.993 359.447 101.923 359.568 101.879 359.699C101.836 359.831 101.82 359.97 101.833 360.108C101.846 360.246 101.888 360.379 101.955 360.5C102.022 360.621 102.114 360.727 102.224 360.811C102.306 360.885 105.932 364.141 110.441 369.191C106.918 368.753 101.03 369.191 95.4531 374.76C95.7943 375.323 96.1947 375.894 96.5952 376.458C103.715 369.042 111.205 371.193 112.629 371.697C115.52 375.078 118.193 378.64 120.631 382.361C118.258 382.873 113.66 384.504 109.077 389.569C109.514 390.073 109.989 390.563 110.419 391.052C115.306 385.557 120.134 384.378 121.773 384.163C124.464 388.397 126.501 393.012 127.817 397.852C127.873 398.067 127.999 398.256 128.175 398.39C128.351 398.524 128.567 398.596 128.789 398.594C128.867 398.605 128.947 398.605 129.026 398.594C129.285 398.531 129.509 398.367 129.648 398.139C129.787 397.911 129.83 397.637 129.768 397.378C129.245 395.304 128.564 393.273 127.728 391.304C129.417 388.248 131.87 385.682 134.848 383.859Z" fill="#4DCDFF"/>
</g>
<path d="M141.974 357.949C133.772 371.149 131.08 387.293 130.85 402.25H152.275C156.805 393.007 162.425 384.338 169.013 376.429C187.502 354.663 156.903 333.899 141.974 357.949Z" fill="#85D1FF"/>
<g style="mix-blend-mode:multiply">
<path d="M157.771 362.598C159.243 360.599 160.905 358.746 162.732 357.066C162.917 356.89 163.027 356.65 163.042 356.396C163.057 356.141 162.975 355.89 162.812 355.694C162.65 355.497 162.419 355.37 162.166 355.337C161.913 355.304 161.657 355.368 161.449 355.516C161.101 355.805 156.221 359.965 150.992 369.139C149.213 365.386 145.764 362.368 140.721 360.084C140.387 360.67 140.083 361.256 139.772 361.849C145.06 364.222 148.412 367.426 149.724 371.415C147.355 375.937 145.37 380.65 143.791 385.505C140.815 382.846 137.101 381.155 133.142 380.655C133.001 381.323 132.86 381.99 132.734 382.657C135.93 383.132 140.061 384.393 143.116 387.678C142.652 389.22 142.207 390.825 141.782 392.491C141.411 393.974 141.04 395.405 140.728 396.94C140.674 397.196 140.721 397.464 140.86 397.686C140.998 397.908 141.216 398.069 141.47 398.134H141.641C141.877 398.146 142.11 398.072 142.296 397.926C142.483 397.781 142.611 397.573 142.657 397.341C142.924 396.073 143.228 394.879 143.524 393.677C147.437 394.352 151.067 396.156 153.966 398.868C154.293 398.253 154.634 397.637 154.967 397.029C151.867 394.295 148.08 392.456 144.014 391.712C144.303 390.615 144.615 389.547 144.933 388.501C144.991 388.474 145.046 388.442 145.097 388.405C145.277 388.257 145.399 388.05 145.443 387.821C145.486 387.592 145.448 387.355 145.334 387.151C146.216 384.393 147.158 381.842 148.137 379.484C150.362 379.387 158.134 379.335 163.911 382.843C164.312 382.279 164.734 381.731 165.15 381.182C159.536 377.674 152.275 377.37 149.027 377.474C150.955 373.093 153.283 368.901 155.983 364.949C157.875 364.459 167.108 362.413 174.16 366.958C174.344 366.265 174.488 365.562 174.591 364.852C168.672 361.434 161.56 361.945 157.771 362.598Z" fill="#85D1FF"/>
</g>
<path style="mix-blend-mode:multiply" d="M141.974 357.949C133.772 371.149 131.08 387.293 130.85 402.25H152.275C156.805 393.007 162.425 384.338 169.013 376.429C187.502 354.663 156.903 333.899 141.974 357.949Z" fill="url(#paint24_linear_645_2568)"/>
<path d="M114.268 400.7V428.88C114.275 431.545 115.337 434.099 117.221 435.984C119.105 437.87 121.658 438.933 124.324 438.943H148.167C150.833 438.935 153.389 437.872 155.274 435.987C157.16 434.101 158.223 431.546 158.23 428.88V400.7H114.268Z" fill="url(#paint25_linear_645_2568)"/>
<path style="mix-blend-mode:multiply" d="M158.23 428.895V400.715H125.229V428.895C125.236 431.56 126.298 434.114 128.182 435.999C130.066 437.884 132.619 438.948 135.285 438.958H148.167C150.833 438.95 153.388 437.887 155.274 436.002C157.16 434.116 158.222 431.561 158.23 428.895Z" fill="url(#paint26_linear_645_2568)"/>
</g>
<defs>
<linearGradient id="paint0_linear_645_2568" x1="491.237" y1="224.622" x2="364.263" y2="317.703" gradientUnits="userSpaceOnUse">
<stop stop-color="white"/>
<stop offset="1" stop-color="#A6E1FF"/>
</linearGradient>
<linearGradient id="paint1_linear_645_2568" x1="432.523" y1="262.783" x2="328.97" y2="360.795" gradientUnits="userSpaceOnUse">
<stop stop-color="white"/>
<stop offset="1" stop-color="#7DA6EF"/>
</linearGradient>
<linearGradient id="paint2_linear_645_2568" x1="259.52" y1="197.947" x2="261.366" y2="417.378" gradientUnits="userSpaceOnUse">
<stop stop-color="white"/>
<stop offset="1" stop-color="#D6DEF5"/>
</linearGradient>
<linearGradient id="paint3_linear_645_2568" x1="339.036" y1="215.664" x2="308.218" y2="330.927" gradientUnits="userSpaceOnUse">
<stop stop-color="white"/>
<stop offset="1" stop-color="#B6C6EF"/>
</linearGradient>
<linearGradient id="paint4_linear_645_2568" x1="320.043" y1="218.912" x2="320.043" y2="321.56" gradientUnits="userSpaceOnUse">
<stop stop-color="white"/>
<stop offset="1" stop-color="#B6C6EF"/>
</linearGradient>
<linearGradient id="paint5_linear_645_2568" x1="172.655" y1="76.6041" x2="172.655" y2="445.217" gradientUnits="userSpaceOnUse">
<stop stop-color="white"/>
<stop offset="0.53" stop-color="#E4E4E4"/>
<stop offset="0.99" stop-color="#D1D1D1"/>
</linearGradient>
<linearGradient id="paint6_linear_645_2568" x1="304.499" y1="268.093" x2="304.499" y2="539.3" gradientUnits="userSpaceOnUse">
<stop stop-color="#80ACF9"/>
<stop offset="0.58" stop-color="#5E8BF5"/>
<stop offset="0.99" stop-color="#4B79F2"/>
</linearGradient>
<linearGradient id="paint7_linear_645_2568" x1="45.4016" y1="268.093" x2="45.4016" y2="539.3" gradientUnits="userSpaceOnUse">
<stop stop-color="#80ACF9"/>
<stop offset="0.58" stop-color="#5E8BF5"/>
<stop offset="0.99" stop-color="#4B79F2"/>
</linearGradient>
<linearGradient id="paint8_linear_645_2568" x1="88.5783" y1="268.092" x2="88.5783" y2="539.3" gradientUnits="userSpaceOnUse">
<stop stop-color="#80ACF9"/>
<stop offset="0.58" stop-color="#5E8BF5"/>
<stop offset="0.99" stop-color="#4B79F2"/>
</linearGradient>
<linearGradient id="paint9_linear_645_2568" x1="131.762" y1="268.092" x2="131.762" y2="539.299" gradientUnits="userSpaceOnUse">
<stop stop-color="#80ACF9"/>
<stop offset="0.58" stop-color="#5E8BF5"/>
<stop offset="0.99" stop-color="#4B79F2"/>
</linearGradient>
<linearGradient id="paint10_linear_645_2568" x1="174.946" y1="268.092" x2="174.946" y2="539.3" gradientUnits="userSpaceOnUse">
<stop stop-color="#80ACF9"/>
<stop offset="0.58" stop-color="#5E8BF5"/>
<stop offset="0.99" stop-color="#4B79F2"/>
</linearGradient>
<linearGradient id="paint11_linear_645_2568" x1="218.131" y1="268.092" x2="218.131" y2="539.299" gradientUnits="userSpaceOnUse">
<stop stop-color="#80ACF9"/>
<stop offset="0.58" stop-color="#5E8BF5"/>
<stop offset="0.99" stop-color="#4B79F2"/>
</linearGradient>
<linearGradient id="paint12_linear_645_2568" x1="261.315" y1="268.093" x2="261.315" y2="539.3" gradientUnits="userSpaceOnUse">
<stop stop-color="#80ACF9"/>
<stop offset="0.58" stop-color="#5E8BF5"/>
<stop offset="0.99" stop-color="#4B79F2"/>
</linearGradient>
<linearGradient id="paint13_linear_645_2568" x1="174.88" y1="460.404" x2="174.88" y2="-139.541" gradientUnits="userSpaceOnUse">
<stop stop-color="#2A4EE5"/>
<stop offset="0.41" stop-color="#395EE7"/>
<stop offset="1" stop-color="#4C71EA"/>
</linearGradient>
<linearGradient id="paint14_linear_645_2568" x1="304.499" y1="232.349" x2="304.499" y2="631.877" gradientUnits="userSpaceOnUse">
<stop stop-color="white"/>
<stop offset="0.15" stop-color="#DFE7FD"/>
<stop offset="0.56" stop-color="#90ACF7"/>
<stop offset="0.85" stop-color="#5E87F3"/>
<stop offset="0.99" stop-color="#4B79F2"/>
</linearGradient>
<linearGradient id="paint15_linear_645_2568" x1="45.4016" y1="232.349" x2="45.4016" y2="631.885" gradientUnits="userSpaceOnUse">
<stop stop-color="white"/>
<stop offset="0.15" stop-color="#DFE7FD"/>
<stop offset="0.56" stop-color="#90ACF7"/>
<stop offset="0.85" stop-color="#5E87F3"/>
<stop offset="0.99" stop-color="#4B79F2"/>
</linearGradient>
<linearGradient id="paint16_linear_645_2568" x1="88.5783" y1="232.349" x2="88.5783" y2="631.885" gradientUnits="userSpaceOnUse">
<stop stop-color="white"/>
<stop offset="0.15" stop-color="#DFE7FD"/>
<stop offset="0.56" stop-color="#90ACF7"/>
<stop offset="0.85" stop-color="#5E87F3"/>
<stop offset="0.99" stop-color="#4B79F2"/>
</linearGradient>
<linearGradient id="paint17_linear_645_2568" x1="131.762" y1="232.349" x2="131.762" y2="631.885" gradientUnits="userSpaceOnUse">
<stop stop-color="white"/>
<stop offset="0.15" stop-color="#DFE7FD"/>
<stop offset="0.56" stop-color="#90ACF7"/>
<stop offset="0.85" stop-color="#5E87F3"/>
<stop offset="0.99" stop-color="#4B79F2"/>
</linearGradient>
<linearGradient id="paint18_linear_645_2568" x1="174.946" y1="232.349" x2="174.946" y2="631.885" gradientUnits="userSpaceOnUse">
<stop stop-color="white"/>
<stop offset="0.15" stop-color="#DFE7FD"/>
<stop offset="0.56" stop-color="#90ACF7"/>
<stop offset="0.85" stop-color="#5E87F3"/>
<stop offset="0.99" stop-color="#4B79F2"/>
</linearGradient>
<linearGradient id="paint19_linear_645_2568" x1="218.131" y1="232.349" x2="218.131" y2="631.885" gradientUnits="userSpaceOnUse">
<stop stop-color="white"/>
<stop offset="0.15" stop-color="#DFE7FD"/>
<stop offset="0.56" stop-color="#90ACF7"/>
<stop offset="0.85" stop-color="#5E87F3"/>
<stop offset="0.99" stop-color="#4B79F2"/>
</linearGradient>
<linearGradient id="paint20_linear_645_2568" x1="261.315" y1="232.349" x2="261.315" y2="631.877" gradientUnits="userSpaceOnUse">
<stop stop-color="white"/>
<stop offset="0.15" stop-color="#DFE7FD"/>
<stop offset="0.56" stop-color="#90ACF7"/>
<stop offset="0.85" stop-color="#5E87F3"/>
<stop offset="0.99" stop-color="#4B79F2"/>
</linearGradient>
<linearGradient id="paint21_linear_645_2568" x1="136.264" y1="363.992" x2="165.429" y2="321.751" gradientUnits="userSpaceOnUse">
<stop stop-color="#7DA2F6"/>
<stop offset="0.42" stop-color="#BACEFA"/>
<stop offset="0.81" stop-color="#ECF1FE"/>
<stop offset="1" stop-color="white"/>
</linearGradient>
<linearGradient id="paint22_linear_645_2568" x1="134.084" y1="382.635" x2="118.749" y2="334.611" gradientUnits="userSpaceOnUse">
<stop stop-color="#7DA2F6"/>
<stop offset="0.42" stop-color="#BACEFA"/>
<stop offset="0.81" stop-color="#ECF1FE"/>
<stop offset="1" stop-color="white"/>
</linearGradient>
<linearGradient id="paint23_linear_645_2568" x1="130.516" y1="414.056" x2="108.389" y2="363.265" gradientUnits="userSpaceOnUse">
<stop stop-color="#7DA2F6"/>
<stop offset="0.42" stop-color="#BACEFA"/>
<stop offset="0.81" stop-color="#ECF1FE"/>
<stop offset="1" stop-color="white"/>
</linearGradient>
<linearGradient id="paint24_linear_645_2568" x1="141.366" y1="405.75" x2="156.449" y2="365.275" gradientUnits="userSpaceOnUse">
<stop stop-color="#7DA2F6"/>
<stop offset="0.42" stop-color="#BACEFA"/>
<stop offset="0.81" stop-color="#ECF1FE"/>
<stop offset="1" stop-color="white"/>
</linearGradient>
<linearGradient id="paint25_linear_645_2568" x1="114.268" y1="419.825" x2="158.23" y2="419.825" gradientUnits="userSpaceOnUse">
<stop stop-color="#43CAFF"/>
<stop offset="0.38" stop-color="#35CAFF"/>
<stop offset="1" stop-color="#22CBFF"/>
</linearGradient>
<linearGradient id="paint26_linear_645_2568" x1="141.729" y1="430.118" x2="141.729" y2="373.299" gradientUnits="userSpaceOnUse">
<stop stop-color="#43CAFF"/>
<stop offset="0.19" stop-color="#6BD5FF"/>
<stop offset="0.58" stop-color="#BAECFF"/>
<stop offset="0.86" stop-color="#ECFAFF"/>
<stop offset="1" stop-color="white"/>
</linearGradient>
<clipPath id="clip0_645_2568">
<rect width="611" height="470" fill="white"/>
</clipPath>
</defs>
</svg>
