<svg width="41" height="32" viewBox="0 0 41 32" fill="none" xmlns="http://www.w3.org/2000/svg">
<path d="M18.26 0.0800528H32.02C32.5552 0.0413503 33.0925 0.118277 33.5953 0.305608C34.0982 0.492939 34.5548 0.786288 34.9343 1.16573C35.3137 1.54518 35.6071 2.00184 35.7944 2.50469C35.9817 3.00755 36.0587 3.54483 36.02 4.08005C36.02 7.82005 36.02 11.5801 36.02 15.3201C36.02 15.7401 36.14 15.9001 36.54 15.9401C37.5 15.9401 38.54 16.1801 39.44 16.2601C40.34 16.3401 40.48 16.5201 40.48 17.3801C40.48 18.9601 40.48 20.5601 40.48 22.1401C40.4476 24.1913 39.7492 26.1764 38.4902 27.7962C37.2312 29.4159 35.4798 30.5825 33.5 31.1201C33.2637 31.1802 33.0162 31.1802 32.78 31.1201C31.3831 30.7622 30.0886 30.0845 28.9987 29.1403C27.9088 28.1962 27.0534 27.0116 26.5 25.6801C26.4625 25.5443 26.3769 25.4268 26.2591 25.3495C26.1413 25.2722 25.9995 25.2404 25.86 25.2601H4.49997C3.96475 25.2988 3.42747 25.2218 2.92462 25.0345C2.42176 24.8472 1.9651 24.5538 1.58566 24.1744C1.20621 23.7949 0.912861 23.3383 0.72553 22.8354C0.538199 22.3326 0.461272 21.7953 0.499975 21.2601V4.10005C0.461272 3.56483 0.538199 3.02755 0.72553 2.52469C0.912861 2.02184 1.20621 1.56518 1.58566 1.18573C1.9651 0.806287 2.42176 0.512939 2.92462 0.325608C3.42747 0.138277 3.96475 0.0613508 4.49997 0.100053L18.26 0.0800528ZM34.52 12.7201H1.93997V21.3601C1.90863 21.69 1.9509 22.0228 2.06374 22.3345C2.17657 22.6461 2.35717 22.9289 2.59249 23.1623C2.82782 23.3957 3.11201 23.574 3.42457 23.6842C3.73713 23.7945 4.07028 23.8341 4.39997 23.8001H25.68V17.1201H23.5C23.3954 17.134 23.2891 17.1261 23.1877 17.0967C23.0864 17.0674 22.9923 17.0172 22.9114 16.9495C22.8305 16.8818 22.7646 16.7979 22.7178 16.7033C22.6711 16.6087 22.6446 16.5055 22.64 16.4001C22.64 15.9601 22.96 15.6601 23.5 15.6401H25.92C26.46 15.6401 26.94 15.6401 27.12 16.3201C27.98 16.1801 28.82 16.0801 29.62 15.9001C30.42 15.7201 31.62 15.3801 32.46 15.0601C32.6397 14.9813 32.8338 14.9406 33.03 14.9406C33.2262 14.9406 33.4203 14.9813 33.6 15.0601C33.884 15.1907 34.1784 15.2977 34.48 15.3801L34.52 12.7201ZM34.52 6.72005V4.10005C34.5621 3.75904 34.5259 3.41292 34.4142 3.088C34.3024 2.76307 34.118 2.46791 33.8751 2.22495C33.6321 1.98198 33.337 1.79762 33.012 1.68587C32.6871 1.57412 32.341 1.53793 32 1.58005H4.21997C3.65881 1.55264 3.10937 1.74701 2.69028 2.1212C2.27119 2.49539 2.01606 3.01938 1.97997 3.58005C1.97997 4.66005 1.97997 5.74005 1.97997 6.84005L34.52 6.72005ZM38.98 17.7801C37.0217 17.6571 35.0933 17.2391 33.26 16.5401C33.0781 16.4805 32.8819 16.4805 32.7 16.5401C31.66 16.8201 30.7 17.1401 29.58 17.3801C28.46 17.6201 27.96 17.6401 27.1 17.7801C27.1 19.2401 27.1 20.6801 27.1 22.1201C27.1427 23.7727 27.6964 25.3715 28.6848 26.6966C29.6733 28.0218 31.048 29.0081 32.62 29.5201C32.8927 29.6101 33.1872 29.6101 33.46 29.5201C34.6706 29.1368 35.7688 28.4622 36.658 27.5556C37.5472 26.6489 38.2003 25.5379 38.56 24.3201C38.9759 22.1733 39.1237 19.9832 39 17.8001L38.98 17.7801ZM34.52 8.28005H1.97997V11.1601H34.52V8.28005Z" fill="#D80000"/>
</svg>
