<svg width="41" height="40" viewBox="0 0 41 40" fill="none" xmlns="http://www.w3.org/2000/svg">
<g id="12 site">
<path id="Vector" d="M10.3244 3.91577C10.3203 4.19243 10.2345 4.46168 10.0777 4.6897C9.92102 4.91772 9.7004 5.09433 9.4436 5.19734C9.18681 5.30035 8.90529 5.32515 8.63444 5.26865C8.36359 5.21214 8.11548 5.07683 7.9213 4.87973C7.72711 4.68264 7.59552 4.43254 7.54305 4.16088C7.49058 3.88922 7.51957 3.6081 7.62639 3.35287C7.73321 3.09764 7.91309 2.87967 8.14341 2.72636C8.37374 2.57305 8.64425 2.49124 8.92093 2.49121C9.29561 2.4951 9.65352 2.6471 9.9165 2.91402C10.1795 3.18094 10.3261 3.54108 10.3244 3.91577Z" fill="#D80000"/>
<path id="Vector_2" d="M6.11399 3.91577C6.10984 4.19243 6.02401 4.46168 5.86729 4.6897C5.71057 4.91772 5.48995 5.09433 5.23315 5.19734C4.97636 5.30035 4.69484 5.32515 4.42399 5.26865C4.15314 5.21214 3.90503 5.07683 3.71085 4.87973C3.51666 4.68264 3.38507 4.43254 3.3326 4.16088C3.28013 3.88922 3.30912 3.6081 3.41594 3.35287C3.52276 3.09764 3.70264 2.87967 3.93296 2.72636C4.16329 2.57305 4.4338 2.49124 4.71048 2.49121C5.08516 2.4951 5.44307 2.6471 5.70605 2.91402C5.96902 3.18094 6.11568 3.54108 6.11399 3.91577Z" fill="#D80000"/>
<path id="Vector_3" d="M14.5349 3.91577C14.5307 4.19243 14.4449 4.46168 14.2882 4.6897C14.1315 4.91772 13.9108 5.09433 13.6541 5.19734C13.3973 5.30035 13.1157 5.32515 12.8449 5.26865C12.574 5.21214 12.3259 5.07683 12.1317 4.87973C11.9376 4.68264 11.806 4.43254 11.7535 4.16088C11.701 3.88922 11.73 3.6081 11.8368 3.35287C11.9437 3.09764 12.1235 2.87967 12.3539 2.72636C12.5842 2.57305 12.8547 2.49124 13.1314 2.49121C13.5061 2.4951 13.864 2.6471 14.1269 2.91402C14.3899 3.18094 14.5366 3.54108 14.5349 3.91577Z" fill="#D80000"/>
<path id="Vector_4" d="M39.0965 0H1.90351C1.53162 0.00111069 1.17527 0.149337 0.912305 0.412305C0.649337 0.675274 0.501111 1.03162 0.5 1.40351V38.5965C0.501111 38.9684 0.649337 39.3247 0.912305 39.5877C1.17527 39.8507 1.53162 39.9989 1.90351 40H39.0965C39.4684 39.9989 39.8247 39.8507 40.0877 39.5877C40.3507 39.3247 40.4989 38.9684 40.5 38.5965V1.40351C40.4989 1.03162 40.3507 0.675274 40.0877 0.412305C39.8247 0.149337 39.4684 0.00111069 39.0965 0ZM39.0965 38.5965H1.90351V7.8386H39.0965V38.5965ZM39.0965 6.43509H1.90351V1.40351H39.0965V6.43509Z" fill="#D80000"/>
<path id="Vector_5" d="M37.4896 4.49828C37.6193 4.63069 37.6914 4.80907 37.6901 4.99446C37.6888 5.17986 37.6142 5.3572 37.4825 5.48775C37.4188 5.55323 37.3423 5.60503 37.2579 5.64002C37.1734 5.67501 37.0827 5.69244 36.9913 5.69126C36.8983 5.69183 36.8062 5.67346 36.7205 5.63727C36.6349 5.60107 36.5575 5.54781 36.4931 5.48073L35.9387 4.91933L35.3843 5.48073C35.3199 5.54781 35.2425 5.60107 35.1568 5.63727C35.0712 5.67346 34.979 5.69183 34.886 5.69126C34.7946 5.69244 34.704 5.67501 34.6195 5.64002C34.5351 5.60503 34.4586 5.55323 34.3948 5.48775C34.2632 5.3572 34.1886 5.17986 34.1872 4.99446C34.1859 4.80907 34.258 4.63069 34.3878 4.49828L34.9562 3.91582L34.3878 3.34038C34.2573 3.20696 34.1847 3.02735 34.1861 2.84069C34.1874 2.65403 34.2624 2.47546 34.3948 2.34389C34.5272 2.21412 34.7056 2.14201 34.891 2.14333C35.0764 2.14464 35.2537 2.21927 35.3843 2.35091L35.9387 2.91933L36.4931 2.35091C36.6236 2.21927 36.801 2.14464 36.9864 2.14333C37.1718 2.14201 37.3501 2.21412 37.4825 2.34389C37.615 2.47546 37.69 2.65403 37.6913 2.84069C37.6926 3.02735 37.6201 3.20696 37.4896 3.34038L36.9211 3.91582L37.4896 4.49828Z" fill="#D80000"/>
<path id="Vector_6" d="M32.7808 3.91587C32.7808 4.10198 32.7069 4.28048 32.5753 4.41208C32.4437 4.54369 32.2652 4.61762 32.0791 4.61762H29.2721C29.0859 4.61762 28.9075 4.54369 28.7759 4.41208C28.6442 4.28048 28.5703 4.10198 28.5703 3.91587C28.5703 3.72975 28.6442 3.55126 28.7759 3.41965C28.9075 3.28805 29.0859 3.21411 29.2721 3.21411H32.0791C32.2652 3.21411 32.4437 3.28805 32.5753 3.41965C32.7069 3.55126 32.7808 3.72975 32.7808 3.91587Z" fill="#D80000"/>
<path id="Vector_7" d="M12.1844 27.6422L14.7318 26.1755H27.1318C27.5015 26.1736 27.8637 26.0706 28.1791 25.8776C28.4945 25.6846 28.7512 25.4091 28.9213 25.0808L32.9002 17.565C33.0853 17.2107 33.1688 16.8122 33.1416 16.4134C33.1144 16.0146 32.9774 15.6312 32.7458 15.3054L32.2406 14.5896C32.0538 14.3274 31.8077 14.1132 31.5223 13.9644C31.2369 13.8155 30.9203 13.7364 30.5984 13.7334H30.5914L14.0511 13.7755L13.9458 12.6948C13.8983 12.1613 13.6545 11.6643 13.2618 11.3001C12.869 10.9358 12.3551 10.7302 11.8195 10.7229H7.85459C7.66847 10.7229 7.48998 10.7968 7.35837 10.9284C7.22677 11.06 7.15283 11.2385 7.15283 11.4247C7.15283 11.6108 7.22677 11.7893 7.35837 11.9209C7.48998 12.0525 7.66847 12.1264 7.85459 12.1264H11.8195C12.008 12.1347 12.1868 12.2124 12.3215 12.3445C12.4563 12.4766 12.5374 12.6539 12.5493 12.8422L13.7984 25.0948L11.4335 26.4633C11.1413 26.669 10.9031 26.9424 10.7394 27.2601C10.5756 27.5778 10.4912 27.9304 10.4932 28.2878V28.4843C10.4879 29.0329 10.6893 29.5634 11.0572 29.9704C11.4252 30.3773 11.9328 30.6309 12.4791 30.6808C12.1207 31.2191 11.9302 31.8517 11.9318 32.4983C11.9164 32.9139 11.985 33.3283 12.1335 33.7167C12.2819 34.1051 12.5072 34.4596 12.7957 34.759C13.0843 35.0584 13.4302 35.2966 13.8129 35.4593C14.1956 35.6219 14.6072 35.7058 15.023 35.7058C15.4388 35.7058 15.8504 35.6219 16.2331 35.4593C16.6158 35.2966 16.9617 35.0584 17.2503 34.759C17.5389 34.4596 17.7641 34.1051 17.9125 33.7167C18.061 33.3283 18.1296 32.9139 18.1142 32.4983C18.1138 31.8573 17.926 31.2305 17.5739 30.6948H23.9388C23.5835 31.229 23.3954 31.8568 23.3984 32.4983C23.3831 32.9139 23.4517 33.3283 23.6001 33.7167C23.7486 34.1051 23.9738 34.4596 24.2624 34.759C24.5509 35.0584 24.8969 35.2966 25.2796 35.4593C25.6623 35.6219 26.0738 35.7058 26.4897 35.7058C26.9055 35.7058 27.3171 35.6219 27.6998 35.4593C28.0824 35.2966 28.4284 35.0584 28.717 34.759C29.0055 34.4596 29.2308 34.1051 29.3792 33.7167C29.5276 33.3283 29.5962 32.9139 29.5809 32.4983C29.5805 31.8573 29.3927 31.2305 29.0406 30.6948H30.3107C30.4968 30.6948 30.6753 30.6209 30.8069 30.4893C30.9385 30.3577 31.0125 30.1792 31.0125 29.9931C31.0125 29.807 30.9385 29.6285 30.8069 29.4969C30.6753 29.3653 30.4968 29.2913 30.3107 29.2913H12.6335C12.4292 29.281 12.2372 29.1904 12.0992 29.0393C11.9613 28.8882 11.8885 28.6887 11.8967 28.4843V28.2878C11.8955 28.1659 11.9206 28.0451 11.9702 27.9337C12.0199 27.8223 12.0929 27.7229 12.1844 27.6422ZM27.6862 24.4211C27.6338 24.5241 27.5547 24.611 27.4572 24.6727C27.3596 24.7345 27.2472 24.7688 27.1318 24.772H15.1739L14.4511 17.6562L31.2651 17.6492L27.6862 24.4211ZM30.5914 15.1369H30.5984C30.6968 15.1379 30.7935 15.1627 30.8803 15.2092C30.967 15.2556 31.0413 15.3223 31.0967 15.4036L31.609 16.1194C31.63 16.1545 31.6511 16.1966 31.6721 16.2387L14.3037 16.2527L14.1984 15.179L30.5914 15.1369ZM26.4862 30.6948C26.8491 30.6693 27.2112 30.7537 27.5255 30.9369C27.8397 31.1201 28.0915 31.3938 28.2481 31.7221C28.4047 32.0505 28.4587 32.4184 28.4032 32.7779C28.3477 33.1374 28.1852 33.4719 27.9369 33.7378C27.6887 34.0037 27.3661 34.1886 27.0112 34.2686C26.6563 34.3485 26.2855 34.3197 25.9472 34.186C25.6089 34.0522 25.3188 33.8197 25.1145 33.5187C24.9102 33.2177 24.8013 32.8621 24.802 32.4983C24.7875 32.0362 24.9566 31.5872 25.2721 31.2493C25.5877 30.9114 26.0241 30.712 26.4862 30.6948ZM15.0195 30.6948C15.3824 30.6693 15.7445 30.7537 16.0588 30.9369C16.3731 31.1201 16.6249 31.3938 16.7814 31.7221C16.938 32.0505 16.992 32.4184 16.9365 32.7779C16.881 33.1374 16.7186 33.4719 16.4703 33.7378C16.222 34.0037 15.8994 34.1886 15.5445 34.2686C15.1896 34.3485 14.8189 34.3197 14.4806 34.186C14.1423 34.0522 13.8521 33.8197 13.6478 33.5187C13.4435 33.2177 13.3346 32.8621 13.3353 32.4983C13.3209 32.0362 13.4899 31.5872 13.8055 31.2493C14.121 30.9114 14.5575 30.712 15.0195 30.6948Z" fill="#D80000"/>
</g>
</svg>
