<svg width="39" height="39" viewBox="0 0 39 39" fill="none" xmlns="http://www.w3.org/2000/svg">
<path d="M1.83317 29.0067V12.3333H33.4998V25.75C34.0681 25.8109 34.6273 25.9373 35.1665 26.1267V4.00667H25.1665V0.67334H10.1665V4.00667H0.166504V30.6667H14.0732C14.3714 30.0477 14.7759 29.4859 15.2682 29.0067H1.83317ZM11.8332 2.33334H23.4998V4.00667H11.8332V2.33334ZM1.83317 5.66667H33.4998V10.6733H1.83317V5.66667ZM32.6665 27.3333C31.2673 27.3369 29.9161 27.8442 28.8602 28.7623C27.8043 29.6805 27.1143 30.9481 26.9165 32.3333H23.4165C23.2528 31.5328 22.8575 30.798 22.2797 30.2202C21.7019 29.6424 20.9671 29.247 20.1665 29.0833V22.25C20.7741 22.1217 21.345 21.8579 21.8365 21.4783L25.7298 25.6667H23.4998V27.3333H28.4998V22.3333H26.8332V24.405L22.9398 20.2183C23.3028 19.5952 23.4959 18.8878 23.4998 18.1667C23.4997 17.3783 23.2759 16.6062 22.8544 15.9399C22.4329 15.2737 21.8311 14.7407 21.1188 14.4029C20.4065 14.065 19.613 13.9362 18.8304 14.0313C18.0478 14.1264 17.3082 14.4416 16.6976 14.9403C16.087 15.439 15.6304 16.1006 15.3808 16.8484C15.1312 17.5962 15.0989 18.3995 15.2877 19.165C15.4764 19.9304 15.8784 20.6266 16.447 21.1727C17.0156 21.7188 17.7274 22.0923 18.4998 22.25V29.0833C17.7624 29.2341 17.0796 29.5817 16.5239 30.0894C15.9682 30.5971 15.5604 31.2458 15.3438 31.9666C15.1272 32.6874 15.1099 33.4535 15.2938 34.1833C15.4776 34.9132 15.8557 35.5797 16.388 36.1119C16.9202 36.6441 17.5866 37.0222 18.3165 37.2061C19.0464 37.3899 19.8124 37.3726 20.5332 37.156C21.2541 36.9394 21.9028 36.5316 22.4105 35.9759C22.9181 35.4203 23.2658 34.7374 23.4165 34H26.9165C27.0785 35.1039 27.5542 36.1381 28.2872 36.9793C29.0201 37.8206 29.9794 38.4335 31.0508 38.7451C32.1221 39.0566 33.2605 39.0538 34.3303 38.7368C35.4001 38.4199 36.3562 37.8022 37.085 36.9573C37.8137 36.1124 38.2843 35.0759 38.4407 33.9711C38.5971 32.8664 38.4328 31.74 37.9672 30.726C37.5017 29.712 36.7546 28.8531 35.8148 28.2516C34.8751 27.6502 33.7823 27.3314 32.6665 27.3333ZM16.8332 18.1667C16.8332 17.6722 16.9798 17.1889 17.2545 16.7777C17.5292 16.3666 17.9196 16.0462 18.3765 15.857C18.8333 15.6678 19.3359 15.6182 19.8209 15.7147C20.3059 15.8112 20.7513 16.0493 21.1009 16.3989C21.4506 16.7485 21.6887 17.194 21.7851 17.6789C21.8816 18.1639 21.8321 18.6666 21.6429 19.1234C21.4537 19.5802 21.1332 19.9706 20.7221 20.2453C20.311 20.52 19.8276 20.6667 19.3332 20.6667C18.6704 20.6658 18.035 20.4021 17.5664 19.9335C17.0977 19.4648 16.8341 18.8294 16.8332 18.1667ZM19.3332 35.6667C18.8387 35.6667 18.3554 35.52 17.9442 35.2453C17.5331 34.9706 17.2127 34.5802 17.0235 34.1234C16.8343 33.6666 16.7847 33.1639 16.8812 32.6789C16.9777 32.194 17.2158 31.7485 17.5654 31.3989C17.915 31.0493 18.3605 30.8112 18.8454 30.7147C19.3304 30.6182 19.8331 30.6678 20.2899 30.857C20.7467 31.0462 21.1371 31.3666 21.4118 31.7777C21.6865 32.1889 21.8332 32.6722 21.8332 33.1667C21.8323 33.8294 21.5686 34.4648 21.1 34.9335C20.6313 35.4021 19.9959 35.6658 19.3332 35.6667ZM32.6665 37.3333C31.8424 37.3333 31.0368 37.089 30.3516 36.6311C29.6664 36.1733 29.1324 35.5225 28.817 34.7612C28.5016 33.9998 28.4191 33.162 28.5799 32.3538C28.7407 31.5455 29.1375 30.8031 29.7202 30.2204C30.3029 29.6377 31.0454 29.2408 31.8536 29.0801C32.6619 28.9193 33.4997 29.0018 34.261 29.3172C35.0224 29.6325 35.6731 30.1666 36.131 30.8518C36.5888 31.537 36.8332 32.3426 36.8332 33.1667C36.8323 34.2715 36.393 35.3308 35.6118 36.112C34.8306 36.8932 33.7713 37.3325 32.6665 37.3333ZM35.1665 33.1667C35.1665 33.6611 35.0199 34.1445 34.7452 34.5556C34.4705 34.9667 34.08 35.2871 33.6232 35.4764C33.1664 35.6656 32.6637 35.7151 32.1788 35.6186C31.6938 35.5222 31.2484 35.2841 30.8987 34.9344C30.5491 34.5848 30.311 34.1393 30.2145 33.6544C30.1181 33.1694 30.1676 32.6668 30.3568 32.21C30.546 31.7531 30.8665 31.3627 31.2776 31.088C31.6887 30.8133 32.1721 30.6667 32.6665 30.6667C33.3293 30.6676 33.9646 30.9312 34.4333 31.3999C34.9019 31.8685 35.1656 32.5039 35.1665 33.1667Z" fill="#D80000"/>
</svg>
