<svg width="133" height="22" viewBox="0 0 133 22" fill="none" xmlns="http://www.w3.org/2000/svg">
<rect width="133" height="22" fill="#F5F5F5"/>
<g id="container">
<g id="Testiimonials Section">
<rect width="1488" height="664" transform="translate(-249 -350)" fill="white"/>
<g id="Group 15">
<g id="Frame 16">
<g id="Testiimonial 1">
<rect x="-126" y="-83.5" width="390" height="294" rx="18" fill="#F9F8F8"/>
<g id="Testiimonial 1 Box">
<g id="Name">
<g id="Stars">
<path id="Star 6" d="M10.2422 0.832031L13.0758 8.06175L20.4308 8.68748L14.8271 13.7814L16.5391 21.3979L10.2422 17.3164L3.94539 21.3979L5.65741 13.7814L0.0537109 8.68748L7.40866 8.06175L10.2422 0.832031Z" fill="#F24C27"/>
<path id="Star 11" d="M37.8394 0.832031L40.673 8.06175L48.028 8.68748L42.4243 13.7814L44.1363 21.3979L37.8394 17.3164L31.5426 21.3979L33.2546 13.7814L27.6509 8.68748L35.0058 8.06175L37.8394 0.832031Z" fill="#F24C27"/>
<path id="Star 12" d="M65.9605 0.832031L68.7941 8.06175L76.149 8.68748L70.5454 13.7814L72.2574 21.3979L65.9605 17.3164L59.6636 21.3979L61.3757 13.7814L55.772 8.68748L63.1269 8.06175L65.9605 0.832031Z" fill="#F24C27"/>
<path id="Star 13" d="M94.0816 0.832031L96.9152 8.06175L104.27 8.68748L98.6664 13.7814L100.378 21.3979L94.0816 17.3164L87.7847 21.3979L89.4968 13.7814L83.8931 8.68748L91.248 8.06175L94.0816 0.832031Z" fill="#F24C27"/>
<path id="Star 14" d="M122.203 0.832031L125.037 8.06175L132.392 8.68748L126.788 13.7814L128.5 21.3979L122.203 17.3164L115.906 21.3979L117.618 13.7814L112.015 8.68748L119.37 8.06175L122.203 0.832031Z" fill="#F24C27"/>
</g>
</g>
</g>
</g>
</g>
</g>
</g>
</g>
</svg>
