<svg width="38" height="25" viewBox="0 0 38 25" fill="none" xmlns="http://www.w3.org/2000/svg">
<path d="M19.608 8.33333C19.4433 8.33889 19.285 8.41389 19.1685 8.54445L15.827 12.1972L13.7687 9.94722C13.1923 9.28889 12.2613 10.3056 12.863 10.9361L15.3748 13.6833C15.6243 13.9569 16.0297 13.9569 16.2805 13.6833L20.0741 9.53472C20.4921 9.09028 20.1843 8.33333 19.6093 8.33333H19.608ZM0.633333 13.8889H4.43333C4.7842 13.8889 5.06667 14.1986 5.06667 14.5833C5.06667 14.9681 4.7842 15.2778 4.43333 15.2778H0.633333C0.282467 15.2778 0 14.9681 0 14.5833C0 14.1986 0.282467 13.8889 0.633333 13.8889ZM0.633333 8.33333H4.43333C4.7842 8.33333 5.06667 8.64305 5.06667 9.02778C5.06667 9.4125 4.7842 9.72222 4.43333 9.72222H0.633333C0.282467 9.72222 0 9.4125 0 9.02778C0 8.64305 0.282467 8.33333 0.633333 8.33333ZM0.633333 2.77778H4.43333C4.7842 2.77778 5.06667 3.0875 5.06667 3.47222C5.06667 3.85694 4.7842 4.16667 4.43333 4.16667H0.633333C0.282467 4.16667 0 3.85694 0 3.47222C0 3.0875 0.282467 2.77778 0.633333 2.77778ZM31.0333 18.0556C29.2917 18.0556 27.8667 19.6181 27.8667 21.5278C27.8667 23.4375 29.2917 25 31.0333 25C32.775 25 34.2 23.4375 34.2 21.5278C34.2 19.6181 32.775 18.0556 31.0333 18.0556ZM31.0333 19.4444C32.0897 19.4444 32.9333 20.3694 32.9333 21.5278C32.9333 22.6861 32.0897 23.6111 31.0333 23.6111C29.9769 23.6111 29.1333 22.6861 29.1333 21.5278C29.1333 20.3694 29.9769 19.4444 31.0333 19.4444ZM14.5667 18.0556C12.825 18.0556 11.4 19.6181 11.4 21.5278C11.4 23.4375 12.825 25 14.5667 25C16.3083 25 17.7333 23.4375 17.7333 21.5278C17.7333 19.6181 16.3083 18.0556 14.5667 18.0556ZM14.5667 19.4444C15.6231 19.4444 16.4667 20.3694 16.4667 21.5278C16.4667 22.6861 15.6231 23.6111 14.5667 23.6111C13.5103 23.6111 12.6667 22.6861 12.6667 21.5278C12.6667 20.3694 13.5103 19.4444 14.5667 19.4444ZM8.23333 0C7.19213 0 6.33333 0.941667 6.33333 2.08333V17.3611C6.33333 18.5028 7.19213 19.4444 8.23333 19.4444H10.7667C11.6229 19.4583 11.6229 18.0417 10.7667 18.0556H8.23333C7.87107 18.0556 7.6 17.7583 7.6 17.3611V2.08333C7.6 1.68611 7.87107 1.38889 8.23333 1.38889H24.7C25.0623 1.38889 25.3333 1.68611 25.3333 2.08333V18.0556H18.3667C17.5307 18.0556 17.5459 19.4583 18.3667 19.4444H27.2333C28.0693 19.4444 28.0617 18.0556 27.2333 18.0556H26.6V5.55556H31.9542L36.7333 13.7444V17.3611C36.7333 17.7583 36.4623 18.0556 36.1 18.0556H34.8333C34.0049 18.0556 34.0049 19.4444 34.8333 19.4444H36.1C37.1412 19.4444 38 18.5028 38 17.3611V13.5417C38 13.4097 37.9658 13.2778 37.9012 13.1667L32.8345 4.48611C32.718 4.2875 32.5179 4.16667 32.3 4.16667H26.6V2.08333C26.6 0.941667 25.7412 0 24.7 0H8.23333Z" fill="#D80000"/>
</svg>
